<svg width="20" height="21" viewBox="0 0 20 21" fill="none" xmlns="http://www.w3.org/2000/svg">
<g clip-path="url(#clip0_273_5187)">
<path d="M18.1603 16.0863C17.8578 16.7851 17.4998 17.4283 17.085 18.0196C16.5196 18.8257 16.0567 19.3838 15.6999 19.6936C15.1468 20.2022 14.5542 20.4627 13.9197 20.4775C13.4641 20.4775 12.9148 20.3479 12.2753 20.085C11.6337 19.8232 11.0441 19.6936 10.505 19.6936C9.93957 19.6936 9.33317 19.8232 8.68455 20.085C8.03494 20.3479 7.51162 20.485 7.11151 20.4985C6.50301 20.5245 5.89649 20.2566 5.29107 19.6936C4.90467 19.3566 4.42135 18.7788 3.84235 17.9603C3.22114 17.0863 2.71042 16.0727 2.3103 14.9172C1.8818 13.6691 1.66699 12.4605 1.66699 11.2904C1.66699 9.95008 1.95661 8.79407 2.53672 7.82533C2.99263 7.04721 3.59915 6.4334 4.35826 5.9828C5.11738 5.53219 5.9376 5.30257 6.8209 5.28788C7.30422 5.28788 7.93803 5.43738 8.72566 5.7312C9.51106 6.02601 10.0154 6.17551 10.2365 6.17551C10.4018 6.17551 10.962 6.0007 11.9117 5.65219C12.8098 5.32899 13.5678 5.19517 14.1888 5.24788C15.8715 5.38368 17.1356 6.04699 17.9763 7.24202C16.4715 8.15384 15.727 9.43096 15.7419 11.0693C15.7554 12.3454 16.2184 13.4074 17.1282 14.2506C17.5406 14.6419 18.001 14.9444 18.5134 15.1592C18.4023 15.4814 18.285 15.79 18.1603 16.0863ZM14.3012 0.900358C14.3012 1.90059 13.9357 2.8345 13.2074 3.69892C12.3284 4.72654 11.2652 5.32035 10.1123 5.22665C10.0976 5.10665 10.0891 4.98036 10.0891 4.84765C10.0891 3.88743 10.5071 2.8598 11.2494 2.01958C11.62 1.59416 12.0914 1.24043 12.6629 0.958257C13.2333 0.68029 13.7728 0.526568 14.2802 0.500244C14.295 0.633959 14.3012 0.767682 14.3012 0.900345V0.900358Z" fill="#FFC000"/>
</g>
<defs>
<clipPath id="clip0_273_5187">
<rect width="20" height="20" fill="white" transform="translate(0 0.5)"/>
</clipPath>
</defs>
</svg>
