<svg width="26" height="26" viewBox="0 0 26 26" fill="none" xmlns="http://www.w3.org/2000/svg">
<path d="M2.17969 12.9973C2.17969 18.9665 7.04385 23.8306 13.013 23.8306C18.9822 23.8306 23.8464 18.9665 23.8464 12.9973C23.8464 7.02812 18.9822 2.16396 13.013 2.16396C7.04385 2.16396 2.17969 7.02812 2.17969 12.9973ZM12.2222 8.59896L16.0464 12.4231C16.2089 12.5856 16.2847 12.7915 16.2847 12.9973C16.2847 13.2031 16.2089 13.409 16.0464 13.5715L12.2222 17.3956C11.908 17.7098 11.388 17.7098 11.0739 17.3956C10.7597 17.0815 10.7597 16.5615 11.0739 16.2473L14.3239 12.9973L11.0739 9.74729C10.7597 9.43313 10.7597 8.91313 11.0739 8.59896C11.388 8.28479 11.8972 8.28479 12.2222 8.59896Z" fill="#FECE2F"/>
</svg>
