<svg width="24" height="25" viewBox="0 0 24 25" fill="none" xmlns="http://www.w3.org/2000/svg">
<path d="M-3.05176e-05 12.5C-3.05176e-05 19.112 5.38797 24.5 12 24.5C18.612 24.5 24 19.112 24 12.5C24 5.88799 18.612 0.499994 12 0.499994C5.38797 0.499994 -3.05176e-05 5.88799 -3.05176e-05 12.5ZM11.124 7.628L15.36 11.864C15.54 12.044 15.624 12.272 15.624 12.5C15.624 12.728 15.54 12.956 15.36 13.136L11.124 17.372C10.776 17.72 10.2 17.72 9.85197 17.372C9.50397 17.024 9.50397 16.448 9.85197 16.1L13.452 12.5L9.85197 8.9C9.50397 8.552 9.50397 7.976 9.85197 7.628C10.2 7.28 10.764 7.28 11.124 7.628Z" fill="#7B692B"/>
</svg>
