<svg width="20" height="21" viewBox="0 0 20 21" fill="none" xmlns="http://www.w3.org/2000/svg">
<path d="M4.16666 7.63541C2.78332 7.63541 1.66666 8.75207 1.66666 10.1354V16.8021C1.66666 18.1854 2.78332 19.3021 4.16666 19.3021H5.41666C6.33332 19.3021 7.08332 18.5521 7.08332 17.6354V9.30207C7.08332 8.38541 6.33332 7.63541 5.41666 7.63541H4.16666ZM4.99999 15.1354C4.99999 15.4771 4.71666 15.7604 4.37499 15.7604C4.03332 15.7604 3.74999 15.4771 3.74999 15.1354V11.8021C3.74999 11.4604 4.03332 11.1771 4.37499 11.1771C4.71666 11.1771 4.99999 11.4604 4.99999 11.8021V15.1354Z" fill="#FFC000"/>
<path d="M15.8333 2.63541H10.8333C9.45001 2.63541 8.33334 3.75207 8.33334 5.13541V16.8021C8.33334 18.1854 9.45001 19.3021 10.8333 19.3021H11.25C11.4833 19.3021 11.6667 19.1187 11.6667 18.8854V15.9687C11.6667 15.5104 12.0417 15.1354 12.5 15.1354H14.1667C14.625 15.1354 15 15.5104 15 15.9687V18.8854C15 19.1187 15.1833 19.3021 15.4167 19.3021H15.8333C17.2167 19.3021 18.3333 18.1854 18.3333 16.8021V5.13541C18.3333 3.75207 17.2167 2.63541 15.8333 2.63541ZM12.2917 11.8021C12.2917 12.1437 12.0083 12.4271 11.6667 12.4271C11.325 12.4271 11.0417 12.1437 11.0417 11.8021V7.63541C11.0417 7.29374 11.325 7.01041 11.6667 7.01041C12.0083 7.01041 12.2917 7.29374 12.2917 7.63541V11.8021ZM15.625 11.8021C15.625 12.1437 15.3417 12.4271 15 12.4271C14.6583 12.4271 14.375 12.1437 14.375 11.8021V7.63541C14.375 7.29374 14.6583 7.01041 15 7.01041C15.3417 7.01041 15.625 7.29374 15.625 7.63541V11.8021Z" fill="#FFC000"/>
</svg>
