<svg width="20" height="21" viewBox="0 0 20 21" fill="none" xmlns="http://www.w3.org/2000/svg">
<path d="M17.8329 11.2917L15.5163 12.45C15.3579 12.5333 15.1663 12.5 15.0329 12.375L13.4746 10.8167C13.3079 10.65 13.3079 10.3917 13.4746 10.225L15.0579 8.64166C15.1829 8.51666 15.3829 8.48333 15.5413 8.56667L17.8329 9.71667C18.4913 10.0333 18.4913 10.9667 17.8329 11.2917Z" fill="#FFC000"/>
<path d="M13.5833 7.57499C13.8416 7.69999 13.8916 8.04167 13.6916 8.24167L12.3 9.63332L11.7083 10.225C11.5416 10.3917 11.2833 10.3917 11.1166 10.225L5.16664 4.275C4.83331 3.94166 5.22498 3.40001 5.64998 3.60834L13.5833 7.57499Z" fill="#FFC000"/>
<path d="M1.66666 17.2916V3.39999C1.66666 3.03332 2.10832 2.84164 2.37499 3.09997L9.68332 10.1916C9.85832 10.3583 9.84999 10.6333 9.67499 10.8L2.36666 17.6C2.09999 17.85 1.66666 17.6583 1.66666 17.2916Z" fill="#FFC000"/>
<path d="M13.558 13.4333L5.73298 17.35C5.30798 17.5584 4.91632 17.0167 5.24965 16.6834L11.1247 10.8083C11.2913 10.6417 11.5497 10.6417 11.7163 10.8083L13.6747 12.7667C13.8663 12.9667 13.808 13.3083 13.558 13.4333Z" fill="#FFC000"/>
</svg>
