<svg width="20" height="21" viewBox="0 0 20 21" fill="none" xmlns="http://www.w3.org/2000/svg">
<path d="M8.33334 13.8854C7.99168 13.8854 7.70834 14.1688 7.70834 14.5104V15.7604C7.70834 16.1021 7.99168 16.3854 8.33334 16.3854C8.67501 16.3854 8.95834 16.1021 8.95834 15.7604V14.5104C8.95834 14.1688 8.67501 13.8854 8.33334 13.8854Z" fill="#FFC000"/>
<path d="M18.3333 18.6773H17.5V9.2856C17.5 8.76893 17.2667 8.2856 16.8583 7.96893L11.025 3.4356C10.425 2.9606 9.57499 2.9606 8.97499 3.4356L3.14166 7.96893C2.73332 8.2856 2.49999 8.76893 2.49999 9.27726L2.45832 18.6773H1.66666C1.32499 18.6773 1.04166 18.9523 1.04166 19.3023C1.04166 19.6439 1.32499 19.9273 1.66666 19.9273H18.3333C18.675 19.9273 18.9583 19.6439 18.9583 19.3023C18.9583 18.9523 18.675 18.6773 18.3333 18.6773ZM8.74999 6.59393H11.25C11.5917 6.59393 11.875 6.87726 11.875 7.21893C11.875 7.5606 11.5917 7.84393 11.25 7.84393H8.74999C8.40832 7.84393 8.12499 7.5606 8.12499 7.21893C8.12499 6.87726 8.40832 6.59393 8.74999 6.59393ZM14.1667 18.6773H5.83332V11.3856C5.83332 10.6939 6.39166 10.1356 7.08332 10.1356H12.9167C13.6083 10.1356 14.1667 10.6939 14.1667 11.3856V18.6773Z" fill="#FFC000"/>
</svg>
