<svg width="20" height="20" viewBox="0 0 20 20" fill="none" xmlns="http://www.w3.org/2000/svg">
<path d="M14.6084 6.47508C14.55 6.46675 14.4917 6.46675 14.4334 6.47508C13.1417 6.43342 12.1167 5.37508 12.1167 4.07508C12.1167 2.75008 13.1917 1.66675 14.525 1.66675C15.85 1.66675 16.9334 2.74175 16.9334 4.07508C16.925 5.37508 15.9 6.43342 14.6084 6.47508Z" fill="#FFC000"/>
<path d="M17.325 12.2499C16.3917 12.8749 15.0834 13.1082 13.875 12.9499C14.1917 12.2666 14.3584 11.5082 14.3667 10.7082C14.3667 9.87491 14.1834 9.08324 13.8334 8.39158C15.0667 8.22491 16.375 8.45824 17.3167 9.08324C18.6334 9.94991 18.6334 11.3749 17.325 12.2499Z" fill="#FFC000"/>
<path d="M5.36684 6.47508C5.42517 6.46675 5.4835 6.46675 5.54184 6.47508C6.8335 6.43342 7.85851 5.37508 7.85851 4.07508C7.85851 2.74175 6.7835 1.66675 5.45017 1.66675C4.12517 1.66675 3.05017 2.74175 3.05017 4.07508C3.05017 5.37508 4.07517 6.43342 5.36684 6.47508Z" fill="#FFC000"/>
<path d="M5.45831 10.7082C5.45831 11.5166 5.63331 12.2832 5.94998 12.9749C4.77498 13.0999 3.54998 12.8499 2.64998 12.2582C1.33331 11.3832 1.33331 9.95822 2.64998 9.08322C3.54164 8.48322 4.79998 8.24155 5.98331 8.37488C5.64164 9.07488 5.45831 9.86655 5.45831 10.7082Z" fill="#FFC000"/>
<path d="M10.1002 13.225C10.0336 13.2167 9.95858 13.2167 9.88358 13.225C8.35024 13.175 7.12524 11.9167 7.12524 10.3667C7.13358 8.78333 8.40858 7.5 10.0002 7.5C11.5836 7.5 12.8669 8.78333 12.8669 10.3667C12.8586 11.9167 11.6419 13.175 10.1002 13.225Z" fill="#FFC000"/>
<path d="M7.39175 14.9501C6.13341 15.7917 6.13341 17.1751 7.39175 18.0084C8.82508 18.9667 11.1751 18.9667 12.6084 18.0084C13.8667 17.1667 13.8667 15.7834 12.6084 14.9501C11.1834 13.9917 8.83341 13.9917 7.39175 14.9501Z" fill="#FFC000"/>
</svg>
