<svg width="637" height="439" viewBox="0 0 637 439" fill="none" xmlns="http://www.w3.org/2000/svg">
<path d="M483.531 176.007C486.415 177.533 489.574 178.366 492.788 178.447C492.969 178.425 493.143 178.365 493.302 178.269C493.46 178.174 493.6 178.046 493.712 177.892C493.824 177.739 493.906 177.563 493.954 177.374C494.002 177.186 494.015 176.99 493.991 176.796C493.724 174.535 491.351 176.473 484.767 173.207L485.102 170.551C485.269 169.797 484.433 168.577 483.531 168.936C482.628 169.295 482.395 170.443 482.127 172.525C481.86 174.607 481.726 175.038 483.531 176.007ZM134.684 186.2C138.706 185.026 142.483 183.04 145.813 180.35C147.117 179.273 146.682 176.76 146.315 175.325C146.21 174.952 145.981 174.634 145.672 174.432C145.362 174.23 144.994 174.157 144.638 174.228C144.282 174.3 143.963 174.509 143.742 174.818C143.521 175.126 143.413 175.511 143.44 175.899C143.504 176.677 143.638 177.446 143.842 178.196C135.921 184.406 132.846 182.862 133.314 185.375C133.418 185.661 133.611 185.901 133.861 186.051C134.111 186.202 134.402 186.254 134.684 186.2ZM125.594 179.56C132.278 179.56 130.005 175.325 128.201 175.971L125.627 176.401C123.421 165.167 125.193 162.798 123.288 162.726C123 162.706 122.717 162.808 122.499 163.009C122.28 163.21 122.144 163.495 122.118 163.803C121.882 168.241 122.185 172.694 123.02 177.048C123.388 178.986 124.056 179.56 125.594 179.56ZM319.668 173.386C321.573 173.386 331.6 171.053 333.304 170.766C335.811 170.3 338.785 169.474 338.986 166.567C338.986 164.772 337.783 162.69 336.412 163.767C336.127 163.982 335.917 164.293 335.814 164.65C335.711 165.007 335.722 165.391 335.844 165.741C336.345 167.141 335.276 167.033 319.134 170.802C318.837 170.901 318.586 171.116 318.43 171.404C318.274 171.692 318.224 172.033 318.292 172.359C318.359 172.685 318.538 172.971 318.793 173.162C319.048 173.352 319.361 173.432 319.668 173.386ZM99.8597 85.5212C100.595 86.4185 102.4 85.5212 101.865 84.1572C98.5229 75.3994 92.3735 65.6366 88.4967 56.0174C87.8951 54.474 86.6919 51.8538 85.5222 51.7103C85.3757 51.6881 85.2264 51.71 85.0907 51.7733C84.9551 51.8367 84.8384 51.9391 84.7535 52.0692C84.0183 53.146 85.0877 56.1251 85.589 57.3813C87.1264 60.9347 94.5793 79.0246 99.8597 85.5212ZM208.21 70.3745C208.273 70.6547 208.403 70.9124 208.587 71.1221C208.771 71.3317 209.003 71.4859 209.26 71.5694C209.516 71.6529 209.789 71.6627 210.051 71.5979C210.312 71.5331 210.553 71.3959 210.75 71.2C213.509 68.5017 216.017 65.5204 218.236 62.2986C228.263 96.7556 228.263 97.9759 229.833 97.9759C230.058 97.9692 230.28 97.9105 230.482 97.8039C230.684 97.6972 230.863 97.5451 231.005 97.3579C231.148 97.1706 231.251 96.9526 231.309 96.7187C231.366 96.4847 231.376 96.2402 231.337 96.0018C227.594 83.2958 223.65 70.877 220.242 58.2068C220.165 57.8919 220.004 57.6083 219.778 57.3916C219.552 57.1748 219.271 57.0347 218.971 56.9887C218.671 56.9426 218.365 56.9928 218.092 57.1329C217.818 57.273 217.59 57.4968 217.434 57.7761C215.515 61.0181 213.274 64.0268 210.75 66.7493C208.745 56.9147 204.066 34.4459 204.066 34.4459C203.982 34.0842 203.767 33.7732 203.469 33.5813C203.172 33.3895 202.815 33.3325 202.478 33.4229C202.142 33.5134 201.852 33.7438 201.673 34.0635C201.495 34.3833 201.442 34.7661 201.526 35.1278C202.662 40.6912 207.508 67.8979 208.21 70.3745ZM34.121 257.088C23.3595 251.561 13.7677 245.89 2.73883 239.644C0.599893 238.424 -0.870623 242.623 2.47146 243.593C12.1005 250.047 22.3681 255.332 33.0849 259.349C34.4218 259.744 35.3575 257.878 34.121 257.088ZM42.6767 174.212C42.9065 174.43 43.1929 174.568 43.4975 174.606C43.8022 174.645 44.1105 174.582 44.3812 174.427C46.5869 173.279 43.7462 170.443 44.8156 153.394C71.9199 188.533 70.416 187.636 71.5523 187.636C71.7876 187.652 72.0222 187.595 72.2284 187.472C72.4346 187.35 72.6039 187.166 72.7163 186.944C72.8287 186.721 72.8795 186.469 72.8628 186.216C72.846 185.964 72.7624 185.721 72.6218 185.518C68.3773 179.775 49.7953 154.974 44.8491 148.226C44.6631 147.973 44.4134 147.782 44.1297 147.677C43.8459 147.571 43.54 147.555 43.2481 147.631C42.9562 147.706 42.6906 147.87 42.4827 148.103C42.2748 148.335 42.1334 148.627 42.0751 148.944C41.3957 155.499 41.2838 162.107 41.7409 168.685C31.7147 159.029 22.1229 148.8 11.9964 139.396C11.6898 139.132 11.3063 138.992 10.9134 139.002C10.5204 139.011 10.1431 139.169 9.84772 139.447C9.5524 139.726 9.35797 140.107 9.29862 140.525C9.23928 140.942 9.31882 141.369 9.52325 141.729C13.4669 148.297 35.7252 167.428 42.6767 174.212ZM306.3 41.086C306.3 41.4382 306.43 41.776 306.662 42.0251C306.894 42.2741 307.209 42.4141 307.537 42.4141C307.865 42.4141 308.179 42.2741 308.411 42.0251C308.643 41.776 308.773 41.4382 308.773 41.086C309.346 27.9024 308.832 14.6903 307.236 1.60407C307.202 1.25879 307.075 0.931645 306.871 0.662284C306.667 0.392924 306.394 0.192921 306.086 0.0865368C305.779 -0.0198474 305.449 -0.0280436 305.137 0.0629318C304.825 0.153907 304.544 0.34015 304.328 0.599082C302.824 2.68086 306.434 9.24922 306.3 41.086ZM396.737 103.432C422.17 57.3454 420.8 59.6426 420.599 58.817C420.031 56.7352 418.427 57.7402 405.56 61.9038C408.902 49.1619 413.08 35.5585 415.854 22.6731C415.911 22.2564 415.822 21.8317 415.602 21.4824C415.383 21.1331 415.05 20.8845 414.669 20.7855C414.288 20.6865 413.886 20.7443 413.542 20.9475C413.199 21.1507 412.938 21.4845 412.812 21.8834C409.036 36.2405 405.293 50.2746 401.683 64.0574C401.625 64.3423 401.635 64.6384 401.712 64.918C401.79 65.1976 401.932 65.4516 402.126 65.656C402.319 65.8605 402.558 66.0088 402.82 66.087C403.081 66.1652 403.357 66.1708 403.622 66.1032C403.622 66.1032 412.478 63.16 416.054 61.9038L394.698 102.211C394.572 102.499 394.552 102.828 394.643 103.131C394.734 103.434 394.928 103.689 395.187 103.844C395.446 103.999 395.75 104.042 396.038 103.966C396.325 103.889 396.575 103.698 396.737 103.432ZM635.696 208.705C633.958 207.808 601.807 229.271 601.473 229.523C600.303 230.42 601.473 232.645 602.676 231.963C604.614 231.03 635.328 212.689 636.364 210.715C636.443 210.536 636.489 210.342 636.498 210.144C636.508 209.946 636.48 209.748 636.418 209.561C636.356 209.374 636.26 209.203 636.136 209.056C636.012 208.909 635.863 208.79 635.696 208.705ZM550.606 167.68C550.606 167.68 582.824 141.298 588.84 136.273C590.143 135.161 588.84 132.684 587.302 132.864C581.238 133.019 575.199 133.752 569.255 135.053C577.882 125.169 585.521 114.342 592.048 102.75C593.151 100.811 590.477 98.8015 589.408 100.776C582.045 113.675 573.283 125.591 563.306 136.273C562.237 137.386 562.905 140.114 564.643 139.863C570.542 138.249 576.557 137.169 582.624 136.632C582.624 136.632 557.09 158.706 549.203 165.705C549.07 165.934 549.005 166.201 549.017 166.47C549.029 166.74 549.117 166.999 549.27 167.213C549.422 167.427 549.632 167.587 549.87 167.67C550.109 167.753 550.366 167.757 550.606 167.68ZM504.519 63.7702C525.039 25.7957 528.615 20.2683 525.173 19.3351C523.703 18.9402 523.769 19.0838 502.213 62.4063C502.112 62.7256 502.119 63.073 502.232 63.3875C502.346 63.702 502.559 63.9636 502.834 64.1263C503.109 64.2891 503.428 64.3425 503.737 64.2774C504.045 64.2123 504.322 64.0327 504.519 63.7702Z" fill="white"/>
<path d="M599.234 298.042C585.598 251.848 551.141 216.314 504.619 200.593C504.588 199.678 504.499 198.767 504.352 197.865C517.052 191.907 519.893 171.412 517.085 153.573C519.525 149.302 526.009 127.336 521.23 130.351L512.507 135.878C511.27 132.289 509.833 128.951 508.296 125.649C508.63 119.906 503.75 109.641 495.161 102.929C487.274 96.7554 473.705 91.2279 453.92 100.058C438.48 106.949 421.067 122.167 418.427 144.277C415.085 172.991 423.941 186.918 407.398 213.586C389.118 204.697 369.634 199.002 349.68 196.717C349.681 195.108 349.581 193.501 349.38 191.907C357.902 187.277 359.707 172.202 360.074 167.284C370.101 157.952 371.27 139.36 363.416 138.929C365.435 125.61 366.207 112.107 365.722 98.6218C365.288 90.2588 361.946 88.3924 360.409 88.0334C359.324 87.8131 358.203 87.9252 357.174 88.3568C356.146 88.7884 355.252 89.5222 354.593 90.4741C352.087 84.9826 347.274 85.6645 344.567 89.8281C344.301 88.3503 343.61 86.9997 342.59 85.9671C341.57 84.9345 340.275 84.2722 338.885 84.0738C337.496 83.8754 336.084 84.151 334.849 84.8615C333.613 85.5721 332.617 86.6817 332.001 88.0334C331.353 86.5517 330.309 85.3102 329.003 84.4669C327.697 83.6235 326.186 83.2164 324.664 83.2972C323.141 83.378 321.676 83.943 320.453 84.9206C319.23 85.8981 318.306 87.244 317.797 88.7872C314.455 80.9985 305.933 82.7931 304.028 90.6895C301.521 84.6236 294.67 84.6595 292.297 91.6945C286.047 86.7413 281.134 91.6945 280.132 99.8421C279.525 113.697 280.061 127.581 281.736 141.334C270.406 138.606 279.229 167.105 285.98 167.787C287.15 178.555 291.294 190.399 299.349 193.271C299.349 194.706 299.148 196.178 299.148 197.614C277.539 201.32 256.744 209.239 237.788 220.98C227.36 213.084 204.166 202.352 181.874 204.326C177.835 195.161 174.796 185.526 172.817 175.612C171.347 166.961 175.123 163.552 175.09 156.086C179.417 146.721 180.495 136.006 178.131 125.864C167.604 89.9716 104.004 103.611 105.809 143.021C106.043 147.508 106.41 151.994 106.778 155.476C98.924 158.024 100.094 158.634 102.266 168.9C103.436 174.499 104.773 179.129 110.254 177.909C112.76 189.574 119.077 208.202 133.982 208.202C134.885 208.202 133.982 207.592 134.818 213.622C97.4201 231.102 50.4638 263.872 38.2986 321.3C35.3576 335.155 33.5863 354.824 42.0083 369.683C51.2659 386.23 67.6421 387.271 79.4062 386.445C76.6526 402.694 75.7659 419.245 76.766 435.726C76.7721 435.956 76.837 436.18 76.9536 436.373C77.0702 436.567 77.2341 436.722 77.4272 436.822C77.6204 436.922 77.8355 436.963 78.049 436.941C78.2624 436.918 78.466 436.833 78.6376 436.695C80.4423 435.546 76.8997 434.326 82.5478 386.194C114.03 383.071 144.042 368.535 171.781 353.245C176.36 356.834 180.905 360.423 185.618 363.653C189.492 372.067 195.429 379.186 202.79 384.246C210.151 389.305 218.657 392.113 227.394 392.367C226.558 407.477 226.558 422.626 227.394 437.736C227.406 437.919 227.453 438.097 227.531 438.259C227.609 438.422 227.716 438.567 227.847 438.684C227.978 438.801 228.13 438.889 228.293 438.942C228.456 438.995 228.628 439.012 228.797 438.992C231.672 438.705 227.962 437.162 230.234 392.332C258.041 392.332 280.867 372.842 303.76 357.946C330.697 371.191 396.737 395.849 431.662 388.742C433.266 404.033 433.032 418.533 434.402 433.321C434.446 433.586 434.576 433.827 434.769 434C434.961 434.173 435.204 434.267 435.455 434.267C435.706 434.267 435.949 434.173 436.141 434C436.334 433.827 436.464 433.586 436.508 433.321C437.385 418.211 436.814 403.045 434.803 388.06C459.033 381.887 473.906 363.546 477.849 335.047C479.453 333.898 481.191 332.606 482.996 331.135C503.684 340 546.496 361.572 567.417 362.361C566.448 379.051 565.078 396.675 564.844 413.975C564.89 414.267 565.031 414.532 565.242 414.724C565.453 414.915 565.721 415.02 565.997 415.02C566.273 415.02 566.54 414.915 566.751 414.724C566.962 414.532 567.103 414.267 567.15 413.975C567.618 409.201 570.659 368.463 570.492 362.254C603.979 361.428 609.26 331.996 599.234 298.042ZM360.743 144.636C361.645 143.344 362.146 141.837 363.45 142.267C368.129 143.739 364.386 156.23 360.475 161.793C360.81 156.086 360.91 150.307 360.743 144.636ZM280.967 144.636C282.037 144.636 281.903 145.139 284.309 145.641L285.646 163.372C280.7 158.455 277.124 144.708 280.967 144.708V144.636ZM513.175 141.047C513.317 140.542 513.64 140.119 514.072 139.87C514.505 139.621 515.011 139.567 515.481 139.719C515.951 139.871 516.345 140.218 516.577 140.682C516.809 141.147 516.86 141.691 516.718 142.196C515.548 146.646 514.646 149.877 513.877 152.963C513.679 153.347 513.401 153.677 513.065 153.926C512.729 154.175 512.343 154.337 511.939 154.399C508.998 154.507 512.139 144.277 513.175 140.975V141.047ZM456.928 155.404C458.833 153.861 461.139 155.835 461.507 155.871C464.648 158.024 468.191 154.902 467.288 154.004L466.62 153.43C464.147 151.348 459.067 147.041 460.136 144.098C460.938 141.872 464.214 142.196 466.353 142.088C466.428 142.085 466.503 142.064 466.57 142.026C466.638 141.989 466.696 141.935 466.741 141.869C466.786 141.803 466.817 141.728 466.83 141.647C466.844 141.567 466.841 141.484 466.82 141.406C466.486 140.257 466.085 139.109 465.684 137.817C478.314 131.089 492.163 127.414 506.257 127.049C507.694 130.638 508.931 134.048 510.034 137.422C505.856 139.97 501.11 142.77 500.007 147.867C499.014 147.734 498.006 147.843 497.058 148.184C496.109 148.526 495.244 149.092 494.526 149.841C489.279 143.057 467.556 143.631 463.178 143.811C457.529 144.062 472.435 156.301 476.546 159.747C490.349 171.269 499.372 163.336 495.93 152.82C496.412 152.184 497.047 151.702 497.765 151.423C498.483 151.145 499.258 151.082 500.007 151.24C500.132 151.922 500.334 152.585 500.609 153.215C500.443 153.126 500.26 153.08 500.074 153.08C499.889 153.08 499.706 153.126 499.539 153.215C498.169 154.148 499.539 155.404 502.681 161.398C502.293 161.821 501.88 162.217 501.444 162.583C500.174 163.588 501.277 167.966 505.522 162.583C506.157 161.757 504.954 159.352 503.617 157.235C505.23 158.415 507.163 158.986 509.112 158.856C511.061 158.726 512.913 157.903 514.378 156.517C515.839 166.153 515.012 176.029 511.972 185.231C508.63 194.025 500.241 194.527 501.946 197.865C502.387 209.699 501.489 221.546 499.272 233.148C490.683 231.138 473.772 208.633 467.021 198.188C467.72 189.461 466.672 180.673 463.946 172.417C461.707 168.254 457.262 166.351 456.092 161.649C455.636 160.601 455.472 159.433 455.62 158.286C455.768 157.14 456.223 156.064 456.928 155.189V155.404ZM507.594 149.41C507.226 150.594 506.992 152.245 505.789 152.245C504.586 152.245 503.984 150.738 504.118 149.446C504.252 148.154 504.586 145.175 505.856 144.385C506.1 144.255 506.369 144.188 506.641 144.188C506.914 144.188 507.183 144.255 507.427 144.385C508.997 144.852 508.162 147.364 507.594 149.195V149.41ZM489.58 157.665C489.212 158.634 488.845 160.393 487.775 160.931C487.588 161.03 487.382 161.081 487.174 161.081C486.965 161.081 486.759 161.03 486.572 160.931C484.567 160.142 486.773 152.138 488.577 150.594C488.735 150.422 488.93 150.295 489.145 150.226C489.361 150.156 489.589 150.146 489.809 150.196C490.029 150.246 490.233 150.355 490.403 150.512C490.574 150.67 490.704 150.871 490.783 151.097C491.485 152.748 489.781 156.912 489.58 157.45V157.665ZM482.261 154.184C481.826 155.117 481.626 155.978 480.49 155.978C480.222 155.998 479.954 155.947 479.71 155.83C479.465 155.713 479.251 155.533 479.086 155.307C478.921 155.08 478.81 154.813 478.764 154.53C478.717 154.246 478.736 153.955 478.819 153.681C479.186 152.497 479.587 149.805 480.924 149.087C481.136 148.982 481.365 148.924 481.599 148.919C481.832 148.913 482.064 148.958 482.28 149.052C482.496 149.147 482.692 149.287 482.855 149.466C483.019 149.645 483.146 149.858 483.23 150.092C483.698 151.276 482.929 152.892 482.261 154.184ZM465.55 200.198C475.042 217.785 500.041 243.269 501.979 234.727C504.165 224.586 505.176 214.194 504.987 203.787C550.774 221.159 581.855 252.996 595.39 295.96C585.593 290.938 574.827 288.478 563.975 288.781C563.507 276.973 548.434 254.145 542.652 247.289C541.483 245.889 539.31 247.684 540.58 249.084C549.249 259.626 555.883 271.912 560.098 285.228C543.722 271.983 510.735 253.499 465.517 268.717C453.786 247.212 436.656 229.687 416.088 218.144C430.889 207.749 447.911 201.573 465.55 200.198ZM291.261 119.224C311.359 113.333 332.476 112.681 352.855 117.322C352.512 123.404 352.691 129.508 353.39 135.555H352.789C350.015 121.844 332.235 117.609 326.252 131.966C323.196 130.853 319.884 130.853 316.828 131.966C311.046 119.045 294.302 123.208 291.227 135.986H290.592C291.295 130.433 291.519 124.822 291.261 119.224ZM336.713 148.764C337.315 146.933 342.729 133.366 346.238 132.971C346.53 132.967 346.819 133.038 347.08 133.178C347.342 133.317 347.568 133.522 347.742 133.775C347.915 134.027 348.029 134.321 348.076 134.63C348.123 134.94 348.1 135.257 348.009 135.555C345.026 140.12 342.367 144.919 340.055 149.912C339.22 152.138 335.944 151.276 336.713 148.764ZM331.867 143.739C331.466 144.816 329.661 145.462 329.026 144.205C328.391 142.949 329.929 138.176 334.273 131.176C335.376 129.418 336.412 128.556 337.315 128.7C337.608 128.79 337.877 128.956 338.097 129.183C338.318 129.41 338.483 129.692 338.578 130.003C338.674 130.315 338.697 130.647 338.646 130.97C338.594 131.294 338.47 131.598 338.284 131.858C335.74 135.55 333.588 139.535 331.867 143.739ZM302.791 149.697C304.228 146.323 305.832 142.913 307.37 139.575C307.534 139.253 307.775 138.985 308.069 138.798C308.363 138.611 308.699 138.512 309.041 138.512C309.382 138.512 309.718 138.611 310.012 138.798C310.306 138.985 310.548 139.253 310.712 139.575C310.922 139.916 311.033 140.315 311.033 140.724C311.033 141.132 310.922 141.532 310.712 141.872C309.241 144.995 307.737 148.261 306.133 151.42C304.863 153.215 301.788 151.851 302.791 149.697ZM298.747 145.175L298.547 145.426C297.511 147.041 294.904 146 295.606 143.954C297.535 138.44 300 133.158 302.958 128.197C304.395 126.331 307.303 127.946 306.3 130.136C303.927 135.232 301.02 140.006 298.747 145.175ZM286.816 145.498C288.955 144.529 289.556 141.908 290.158 139.647L290.86 139.432C290.685 141.922 290.969 144.425 291.698 146.796C292.426 149.168 293.584 151.361 295.104 153.25C296.907 155.152 299.166 156.477 301.629 157.08C304.092 157.683 306.663 157.539 309.055 156.664C311.446 155.79 313.564 154.219 315.173 152.126C316.781 150.034 317.817 147.503 318.165 144.816C317.819 148.272 317.674 151.749 317.73 155.225C317.73 157.378 317.262 160.07 319.735 160.25H323.077C324.815 160.25 325.283 157.019 323.278 156.983H320.805C320.61 150.588 320.934 144.187 321.774 137.852C322.008 136.094 319.635 135.843 319.301 137.494C317.83 145.21 319.301 140.796 317.997 135.089C320.331 134.19 322.883 134.19 325.216 135.089C324.481 137.966 324.336 140.981 324.791 143.925C325.247 146.869 326.293 149.671 327.857 152.138C329.048 153.795 330.556 155.157 332.28 156.134C334.005 157.11 335.904 157.677 337.85 157.796C339.796 157.915 341.743 157.584 343.559 156.824C345.375 156.065 347.018 154.895 348.377 153.394C351.66 149.459 353.408 144.318 353.256 139.037H353.891C354.293 142.16 354.894 146.467 357.969 146.215C357.635 158.491 358.637 179.524 349.58 187.205C348.41 188.21 347.074 189.358 346.906 190.507C346.488 194.31 346.488 198.153 346.906 201.957C347.876 211.899 331.667 231.568 323.278 239.967C307.102 216.35 302.457 214.017 302.49 193.307C302.49 191.225 302.256 190.902 300.919 190.184C287.384 183.149 288.621 162.87 286.816 145.498ZM299.315 200.772C299.683 211.791 307.737 226.687 321.941 242.731C324.815 246.751 350.215 213.263 349.714 206.013V199.947C418.126 208.597 467.155 250.879 474.975 307.876C446.567 301.882 410.673 308.917 404.591 310.173C401.982 292.323 397.067 274.951 389.986 258.56C389.866 258.241 389.634 257.986 389.339 257.851C389.044 257.717 388.712 257.713 388.415 257.842C388.118 257.97 387.881 258.22 387.756 258.537C387.63 258.853 387.627 259.21 387.747 259.529C393.892 275.706 398.375 292.556 401.115 309.778C383.536 289.894 356.799 281.064 319.535 282.859C297.105 283.976 274.825 287.377 252.994 293.017C254.74 282.071 258.9 271.733 265.126 262.867C265.262 262.599 265.303 262.288 265.242 261.99C265.18 261.693 265.02 261.429 264.791 261.249C264.562 261.069 264.28 260.985 263.997 261.011C263.714 261.038 263.45 261.175 263.254 261.395C256.232 270.714 251.621 281.856 249.886 293.699C225.655 299.941 202.124 308.979 179.702 320.654C182.777 250.34 243.302 212.653 299.315 200.772ZM154.369 134.299C154.335 137.707 154.525 141.113 154.937 144.493C142.906 144.816 123.789 149.841 109.552 154.578C109.184 151.42 108.349 145.677 108.315 142.267C122.641 134.935 138.624 132.169 154.369 134.299ZM143.741 153.573C137.057 165.777 138.494 167.931 136.255 167.931C136.004 167.947 135.753 167.898 135.522 167.789C135.292 167.679 135.09 167.512 134.933 167.301C134.776 167.089 134.668 166.841 134.619 166.576C134.57 166.311 134.581 166.037 134.651 165.777C137.692 153.43 140.6 151.133 142.07 150.846C142.391 150.776 142.724 150.81 143.026 150.945C143.328 151.08 143.585 151.309 143.765 151.602C143.945 151.896 144.039 152.241 144.035 152.592C144.03 152.943 143.928 153.285 143.741 153.573ZM133.414 156.265C132.178 158.455 131.877 161.506 130.072 161.039C128.267 160.573 129.571 156.194 130.64 153.861C131.71 151.528 132.646 151.492 133.281 151.671C133.638 151.776 133.957 151.998 134.191 152.307C134.424 152.616 134.562 152.996 134.584 153.394C134.453 154.45 134.048 155.445 133.414 156.265ZM108.549 163.444C108.182 164.377 108.148 167.249 106.343 167.249C105.992 167.263 105.647 167.151 105.362 166.93C105.077 166.708 104.87 166.391 104.773 166.028C104.596 163.517 105.339 161.032 106.845 159.101C107.155 158.803 107.545 158.618 107.96 158.573C108.374 158.528 108.791 158.625 109.151 158.85C109.953 159.424 109.786 160.931 108.549 163.336V163.444ZM109.786 171.807C112.827 160.07 114.565 158.347 115.601 158.096C115.814 158.043 116.036 158.056 116.243 158.132C116.45 158.208 116.633 158.345 116.771 158.527C117.225 159.092 117.453 159.827 117.406 160.573L112.994 172.812C112.857 173.269 112.556 173.648 112.158 173.867C111.76 174.086 111.297 174.126 110.872 173.978C110.446 173.831 110.093 173.508 109.889 173.08C109.686 172.653 109.648 172.156 109.786 171.699V171.807ZM113.128 177.227C119.545 175.217 121.617 175.791 120.915 165.31C120.681 162.331 120.146 155.548 122.954 155.655C125.226 155.655 125.293 166.997 128.669 170.515C132.044 174.032 136.422 171.556 140.098 170.515C150.125 167.572 147.919 162.977 147.184 148.728L155.606 148.01C159.382 169.043 164.462 153.286 167.871 150.917C170.044 149.446 171.915 152.676 172.316 155.153C173.085 160.465 168.974 166.279 169.843 174.068C171.812 185.342 175.185 196.279 179.869 206.587C172.55 221.518 151.528 235.301 142.171 240.757C138.227 225.395 137.893 205.223 135.486 205.295C124.391 205.367 117.105 196.358 112.994 177.119L113.128 177.227ZM135.119 217.068C135.72 222.487 138.193 245.782 141.803 243.844C150.893 239.249 178.566 219.724 182.509 207.161C188.358 208.597 206.606 204.792 234.947 223.133C214.033 236.549 197.251 256.27 186.687 279.844C159.65 276.255 126.195 271.768 98.0885 287.704C106.678 265.953 111.824 263.8 109.385 262.077C109.258 261.984 109.116 261.92 108.966 261.888C108.816 261.855 108.661 261.856 108.511 261.89C108.362 261.923 108.22 261.989 108.094 262.083C107.968 262.177 107.862 262.297 107.781 262.436C106.912 263.836 94.713 285.479 94.4122 289.894C89.6999 292.981 79.6402 300.877 76.6323 307.087C64.3458 307.344 52.373 311.298 42.0752 318.5C52.2351 276.255 84.3525 241.188 134.985 216.96L135.119 217.068ZM48.4586 373.811C35.6918 359.454 38.4323 335.442 41.0726 322.269C73.6913 299.262 116.804 309.097 169.275 351.558C151.629 359.669 74.5268 402.848 48.4586 373.811ZM80.0078 307.015C106.544 275.465 144.911 277.475 185.317 282.823C174.956 308.486 174.054 335.585 182.71 357.695C152.631 333.503 117.105 306.907 80.0078 306.907V307.015ZM230 389.568C197.081 389.568 179.401 358.521 179.869 324.064C226.658 301.487 267.532 289.93 312.316 286.592C353.223 283.541 380.762 291.545 398.809 311.717C310.645 332.929 274.25 389.46 230 389.46V389.568ZM432.13 385.62C399.411 393.552 345.235 372.806 306.735 356.259C368.095 317.352 423.307 302.672 475.41 311.394C479.52 351.486 464.147 377.831 432.13 385.62ZM478.484 331.278C480.219 310.524 476.134 289.686 466.754 271.445C502.648 261.467 532.96 267.282 559.296 289.176C524.705 291.94 489.847 320.941 478.451 331.278H478.484ZM569.389 359.167C548.935 359.167 505.889 337.631 486.071 328.945C507.26 311.717 532.359 293.447 562.571 292.155C574.374 291.372 586.145 294.144 596.56 300.159C605.517 332.606 601.038 358.951 569.356 359.167H569.389Z" fill="white"/>
</svg>
