<svg width="564" height="432" viewBox="0 0 564 432" fill="none" xmlns="http://www.w3.org/2000/svg">
<g filter="url(#filter0_f_296_5599)">
<path d="M429.624 94.4404C453.156 94.4405 472.983 108.162 486.581 128.312C500.177 148.459 508.081 175.652 508.081 204.771C508.081 234.853 493.255 267.949 474.651 293.238C465.28 305.977 454.687 317.104 444.028 325.127C433.574 332.996 422.113 338.587 411.171 338.587C403.373 338.587 397.009 333.419 392.218 328.047C387.158 322.372 382.216 314.605 377.382 305.863C367.718 288.39 357.446 265.055 346.887 242.469C345.739 240.012 344.584 237.563 343.426 235.126C331.125 258.431 319.765 280.858 310.508 298.634C304.94 309.324 300.096 318.401 296.317 324.835C294.446 328.022 292.709 330.779 291.19 332.812C290.449 333.804 289.568 334.884 288.588 335.795C288.096 336.251 287.39 336.844 286.492 337.359C285.658 337.838 284.081 338.587 282 338.587C278.51 338.587 276.142 336.517 275.493 335.948C274.445 335.03 273.513 333.935 272.732 332.928C271.135 330.869 269.341 328.087 267.428 324.891C263.567 318.436 258.67 309.341 253.077 298.646C243.813 280.933 232.564 258.697 220.382 235.53C219.289 237.834 218.197 240.147 217.112 242.469C206.553 265.055 196.281 288.39 186.618 305.863C181.783 314.605 176.842 322.372 171.781 328.047C166.99 333.419 160.627 338.587 152.829 338.587C141.886 338.587 130.425 332.996 119.971 325.127C109.313 317.104 98.7195 305.977 89.3483 293.238C70.7449 267.949 55.9186 234.853 55.9186 204.771C55.9187 175.652 63.822 148.459 77.4186 128.312C91.0168 108.162 110.843 94.4405 134.376 94.4404C142.775 94.4404 150.702 100.077 157.378 106.462C164.459 113.235 171.938 122.642 179.514 133.514C192.566 152.24 206.503 176.188 219.879 200.68C225.492 190.129 231.31 180.193 237.334 171.585C243.565 162.679 250.256 154.835 257.462 149.156C264.687 143.462 272.913 139.576 282 139.576C291.086 139.576 299.313 143.462 306.538 149.156C313.743 154.835 320.434 162.679 326.666 171.585C332.628 180.106 338.391 189.927 343.951 200.358C357.337 175.971 371.292 152.146 384.356 133.498C391.973 122.627 399.487 113.221 406.592 106.451C413.29 100.07 421.232 94.4405 429.624 94.4404ZM134.376 110.44C117.648 110.441 102.245 120.125 90.6804 137.262C79.114 154.4 71.9187 178.372 71.9186 204.771C71.9186 230.205 84.7725 260.017 102.236 283.757C110.898 295.532 120.436 305.451 129.593 312.344C138.956 319.391 146.996 322.587 152.829 322.587C153.419 322.587 155.706 322.034 159.84 317.398C163.704 313.065 167.962 306.534 172.616 298.119C181.93 281.278 191.788 258.859 202.618 235.693C205.373 229.8 208.189 223.865 211.063 217.998C196.178 190.311 180.619 163.082 166.387 142.662C159.058 132.145 152.281 123.728 146.318 118.024C139.949 111.933 136.042 110.44 134.376 110.44ZM429.624 110.44C427.95 110.44 424.026 111.941 417.63 118.035C411.64 123.742 404.829 132.162 397.461 142.679C383.218 163.008 367.644 190.085 352.759 217.64C355.695 223.624 358.57 229.68 361.382 235.693C372.211 258.859 382.07 281.278 391.383 298.119C396.037 306.534 400.296 313.065 404.16 317.398C408.294 322.034 410.58 322.587 411.171 322.587C417.003 322.587 425.044 319.391 434.406 312.344C443.563 305.451 453.101 295.532 461.763 283.757C479.227 260.017 492.081 230.205 492.081 204.771C492.081 178.372 484.885 154.4 473.319 137.262C461.754 120.125 446.352 110.44 429.624 110.44ZM282 155.576C277.666 155.576 272.839 157.408 267.365 161.723C261.871 166.052 256.216 172.507 250.443 180.758C243.131 191.208 236.017 203.967 229.066 217.729C243.366 244.599 256.811 271.263 267.255 291.231C272.847 301.925 277.556 310.655 281.159 316.677C281.401 317.081 281.637 317.47 281.864 317.842C282.076 317.486 282.296 317.117 282.521 316.732C286.07 310.689 290.745 301.941 296.317 291.243C306.788 271.138 320.304 244.378 334.747 217.358C327.855 203.738 320.803 191.114 313.556 180.758C307.783 172.507 302.128 166.052 296.634 161.723C291.16 157.409 286.333 155.576 282 155.576Z" fill="url(#paint0_linear_296_5599)"/>
<path d="M130.796 62.8981C225.156 -0.77266 339.214 1.51774 433.116 62.8981" stroke="url(#paint1_linear_296_5599)" stroke-width="18" stroke-linecap="round"/>
</g>
<path d="M429.624 93.4404C453.582 93.4406 473.685 107.414 487.41 127.752C501.134 148.087 509.081 175.482 509.081 204.771C509.081 235.143 494.132 268.445 475.457 293.831C466.042 306.63 455.383 317.832 444.63 325.926C434.108 333.846 422.433 339.587 411.171 339.587C402.923 339.587 396.305 334.131 391.473 328.713C386.337 322.954 381.353 315.109 376.507 306.347C366.821 288.834 356.523 265.443 345.981 242.893C345.117 241.043 344.248 239.198 343.379 237.36C331.44 260.022 320.425 281.756 311.395 299.096C305.827 309.785 300.972 318.883 297.18 325.341C295.303 328.536 293.544 331.332 291.991 333.411C291.236 334.422 290.314 335.558 289.269 336.528C288.745 337.014 287.977 337.66 286.99 338.227C286.076 338.752 284.323 339.587 282 339.587C279.677 339.587 277.924 338.752 277.01 338.227C276.023 337.66 275.255 337.014 274.731 336.528C273.686 335.558 272.764 334.422 272.009 333.411C270.456 331.332 268.697 328.536 266.82 325.341C263.028 318.883 258.173 309.786 252.605 299.096C243.575 281.756 232.56 260.022 220.621 237.36C219.752 239.198 218.883 241.043 218.019 242.893C207.477 265.443 197.179 288.834 187.493 306.347C182.647 315.109 177.663 322.954 172.527 328.713C167.695 334.131 161.077 339.587 152.829 339.587C141.567 339.587 129.892 333.846 119.37 325.926C108.617 317.832 97.9584 306.63 88.543 293.831C69.8683 268.445 54.9189 235.143 54.9189 204.771C54.919 175.482 62.8663 148.087 76.5898 127.752C90.3152 107.414 110.418 93.4405 134.376 93.4404C143.188 93.4405 151.381 99.328 158.098 105.728C165.273 112.564 172.831 122.03 180.463 132.924C193.268 151.202 206.916 174.427 220.038 198.263C225.344 188.409 230.837 179.126 236.515 171.012C242.775 162.065 249.53 154.134 256.843 148.371C264.177 142.591 272.616 138.576 282 138.576C291.384 138.576 299.823 142.591 307.157 148.371C314.47 154.134 321.225 162.065 327.485 171.012C333.163 179.126 338.656 188.409 343.962 198.263C357.084 174.427 370.732 151.202 383.537 132.924C391.169 122.03 398.727 112.564 405.902 105.728C412.619 99.3281 420.812 93.4404 429.624 93.4404ZM134.376 111.44C118.073 111.44 102.948 120.873 91.5098 137.821C80.0704 154.772 72.919 178.542 72.9189 204.771C72.9189 229.915 85.6497 259.521 103.042 283.164C111.66 294.879 121.132 304.722 130.195 311.544C139.489 318.54 147.316 321.587 152.829 321.587C152.97 321.587 155.003 321.32 159.094 316.732C162.883 312.483 167.099 306.03 171.741 297.636C181.033 280.834 190.866 258.472 201.713 235.27C204.452 229.41 207.254 223.504 210.115 217.661C195.31 190.271 179.851 163.421 165.721 143.252C158.368 132.757 151.6 124.4 145.681 118.76C139.303 112.683 135.63 111.441 134.376 111.44ZM429.624 111.44C428.37 111.44 424.698 112.683 418.319 118.76C412.4 124.4 405.632 132.757 398.279 143.252C384.149 163.421 368.69 190.271 353.885 217.661C356.746 223.505 359.548 229.41 362.287 235.27C373.134 258.472 382.967 280.834 392.259 297.636C396.901 306.03 401.117 312.483 404.906 316.732C408.999 321.322 411.031 321.587 411.171 321.587C416.684 321.587 424.511 318.54 433.805 311.544C442.868 304.722 452.34 294.879 460.958 283.164C478.35 259.521 491.081 229.915 491.081 204.771C491.081 178.542 483.93 154.772 472.49 137.821C461.052 120.873 445.927 111.441 429.624 111.44ZM282 156.576C277.964 156.576 273.349 158.28 267.984 162.508C262.598 166.753 257.007 173.121 251.263 181.331C244.133 191.521 237.185 203.93 230.382 217.347C244.736 244.218 258.167 270.806 268.57 290.781C273.964 301.138 278.509 309.647 282 315.64C285.491 309.647 290.036 301.138 295.43 290.781C305.833 270.806 319.264 244.217 333.618 217.347C326.815 203.93 319.867 191.521 312.737 181.331C306.993 173.121 301.402 166.753 296.016 162.508C290.651 158.28 286.036 156.576 282 156.576Z" fill="url(#paint2_linear_296_5599)"/>
<path d="M130.796 62.8981C225.156 -0.77266 339.214 1.51774 433.116 62.8981" stroke="url(#paint3_linear_296_5599)" stroke-width="18" stroke-linecap="round"/>
<g opacity="0.29" filter="url(#filter1_f_296_5599)">
<g filter="url(#filter2_f_296_5599)">
<path d="M429.624 376.205C449.761 376.205 467.387 376.174 479.982 376.123C486.277 376.098 491.327 376.067 494.809 376.034C496.546 376.018 497.916 376 498.862 375.981C499.326 375.972 499.736 375.962 500.049 375.949C500.189 375.944 500.406 375.934 500.629 375.916C500.707 375.91 500.983 375.888 501.318 375.835C501.429 375.817 501.914 375.741 502.506 375.553C502.744 375.477 503.515 375.227 504.382 374.674C504.771 374.425 508.081 372.342 508.081 367.928C507.696 365.476 505.697 362.231 504.656 361.365C504.07 360.993 503.09 360.515 502.717 360.374C502.089 360.154 501.572 360.066 501.454 360.045C501.1 359.983 500.814 359.958 500.747 359.952C500.541 359.934 500.36 359.925 500.281 359.922C500.085 359.913 499.857 359.906 499.637 359.901C499.179 359.891 498.532 359.88 497.736 359.87C496.134 359.85 493.821 359.831 490.961 359.812C485.234 359.772 477.257 359.734 468.237 359.701C450.196 359.635 427.958 359.587 411.171 359.587C394.366 359.587 375.463 359.711 354.088 359.835C353.364 359.839 352.637 359.843 351.908 359.848C329.04 359.712 305.189 359.587 282 359.587C258.811 359.587 234.96 359.712 212.091 359.848C211.362 359.843 210.635 359.839 209.912 359.835C188.536 359.711 169.634 359.587 152.829 359.587C136.042 359.587 113.804 359.635 95.7624 359.701C86.7428 359.734 78.7651 359.772 73.0388 359.812C70.178 359.831 67.8656 359.85 66.2634 359.87C65.4674 359.88 64.8208 359.891 64.362 359.901C64.1423 359.906 63.9141 359.913 63.7184 359.922C63.6395 359.925 63.458 359.934 63.2526 359.952C63.1852 359.958 62.8992 359.983 62.5456 360.045C62.4272 360.066 61.9103 360.154 61.2819 360.374C60.9095 360.515 59.9293 360.993 59.3434 361.365C58.302 362.231 56.3036 365.476 55.9186 367.928C55.9186 372.341 59.2271 374.425 59.6179 374.674C60.4843 375.226 61.255 375.477 61.4938 375.553C62.0851 375.741 62.5698 375.817 62.6813 375.835C63.0162 375.888 63.2924 375.91 63.3708 375.916C63.5933 375.934 63.8104 375.944 63.9499 375.949C64.2637 375.962 64.6732 375.972 65.1374 375.981C66.0837 376 67.4538 376.018 69.1901 376.034C72.6722 376.067 77.7221 376.098 84.0173 376.123C96.6127 376.174 114.238 376.205 134.376 376.205C154.536 376.205 178.471 376.05 203.833 375.896C206.555 375.879 209.295 375.863 212.048 375.847C232.869 375.966 256.064 376.083 282 376.083C307.935 376.083 331.13 375.966 351.952 375.847C354.705 375.863 357.444 375.879 360.167 375.896C385.529 376.05 409.463 376.205 429.624 376.205Z" fill="url(#paint4_linear_296_5599)"/>
<path d="M130.796 368.312C225.156 368.485 339.214 368.479 433.116 368.312" stroke="url(#paint5_linear_296_5599)" stroke-width="18" stroke-linecap="round"/>
</g>
<path d="M429.624 377.205C449.762 377.205 467.389 377.174 479.986 377.123C486.282 377.098 491.334 377.067 494.819 377.034C496.557 377.018 497.931 377 498.883 376.981C499.348 376.972 499.766 376.961 500.09 376.948C500.232 376.943 500.465 376.932 500.708 376.913C500.792 376.906 501.1 376.882 501.476 376.822C501.6 376.802 502.145 376.718 502.81 376.506C503.078 376.42 503.944 376.139 504.919 375.518C505.356 375.239 509.081 372.894 509.081 367.928C508.648 365.17 506.4 361.519 505.229 360.545C504.57 360.127 503.467 359.588 503.048 359.43C502.341 359.183 501.76 359.083 501.627 359.06C501.229 358.99 500.909 358.963 500.835 358.956C500.607 358.936 500.408 358.927 500.326 358.923C500.119 358.914 499.882 358.907 499.661 358.901C499.197 358.891 498.545 358.88 497.748 358.87C496.143 358.85 493.829 358.831 490.968 358.812C485.24 358.772 477.26 358.734 468.24 358.701C450.198 358.635 427.96 358.587 411.171 358.587C394.362 358.587 375.456 358.711 354.082 358.835C353.36 358.839 352.636 358.843 351.908 358.848C329.042 358.712 305.19 358.587 282 358.587C258.81 358.587 234.958 358.712 212.092 358.848C211.364 358.843 210.64 358.839 209.918 358.835C188.544 358.711 169.638 358.587 152.829 358.587C136.041 358.587 113.802 358.635 95.7598 358.701C86.7397 358.734 78.7602 358.772 73.0322 358.812C70.1712 358.831 67.857 358.85 66.252 358.87C65.455 358.88 64.8034 358.891 64.3389 358.901C64.1177 358.907 63.8807 358.914 63.6738 358.923C63.5917 358.927 63.3927 358.936 63.165 358.956C63.0918 358.963 62.7707 358.99 62.373 359.06C62.2404 359.083 61.6589 359.183 60.9521 359.43C60.5333 359.588 59.4305 360.127 58.7715 360.545C57.5999 361.519 55.352 365.17 54.9189 367.928C54.9189 372.895 58.6452 375.24 59.0811 375.518C60.0558 376.139 60.9222 376.42 61.1904 376.506C61.8554 376.718 62.4002 376.802 62.5244 376.822C62.8998 376.882 63.2081 376.906 63.292 376.913C63.535 376.932 63.7677 376.943 63.9102 376.948C64.2342 376.961 64.6516 376.972 65.1172 376.981C66.0687 377 67.4433 377.018 69.1807 377.034C72.6656 377.067 77.7178 377.098 84.0137 377.123C96.6109 377.174 114.238 377.205 134.376 377.205C154.54 377.205 178.478 377.05 203.839 376.896C206.559 376.879 209.297 376.863 212.048 376.847C232.869 376.966 256.064 377.083 282 377.083C307.936 377.083 331.131 376.966 351.952 376.847C354.703 376.863 357.441 376.879 360.161 376.896C385.522 377.05 409.46 377.205 429.624 377.205Z" fill="url(#paint6_linear_296_5599)"/>
<path d="M130.796 368.312C225.156 368.485 339.214 368.479 433.116 368.312" stroke="url(#paint7_linear_296_5599)" stroke-width="18" stroke-linecap="round"/>
</g>
<defs>
<filter id="filter0_f_296_5599" x="48.9186" y="0" width="466.162" height="345.587" filterUnits="userSpaceOnUse" color-interpolation-filters="sRGB">
<feFlood flood-opacity="0" result="BackgroundImageFix"/>
<feBlend mode="normal" in="SourceGraphic" in2="BackgroundImageFix" result="shape"/>
<feGaussianBlur stdDeviation="3.5" result="effect1_foregroundBlur_296_5599"/>
</filter>
<filter id="filter1_f_296_5599" x="0.918945" y="304.587" width="562.162" height="126.853" filterUnits="userSpaceOnUse" color-interpolation-filters="sRGB">
<feFlood flood-opacity="0" result="BackgroundImageFix"/>
<feBlend mode="normal" in="SourceGraphic" in2="BackgroundImageFix" result="shape"/>
<feGaussianBlur stdDeviation="27" result="effect1_foregroundBlur_296_5599"/>
</filter>
<filter id="filter2_f_296_5599" x="48.9186" y="352.312" width="466.162" height="32.127" filterUnits="userSpaceOnUse" color-interpolation-filters="sRGB">
<feFlood flood-opacity="0" result="BackgroundImageFix"/>
<feBlend mode="normal" in="SourceGraphic" in2="BackgroundImageFix" result="shape"/>
<feGaussianBlur stdDeviation="3.5" result="effect1_foregroundBlur_296_5599"/>
</filter>
<linearGradient id="paint0_linear_296_5599" x1="282" y1="94.4404" x2="282" y2="338.587" gradientUnits="userSpaceOnUse">
<stop stop-color="#FFE47E"/>
<stop offset="1" stop-color="#FECE2F"/>
</linearGradient>
<linearGradient id="paint1_linear_296_5599" x1="130.796" y1="39.4491" x2="433.116" y2="39.4491" gradientUnits="userSpaceOnUse">
<stop stop-color="#FFDA44"/>
<stop offset="1" stop-color="#FECE2F"/>
</linearGradient>
<linearGradient id="paint2_linear_296_5599" x1="282" y1="93.4404" x2="282" y2="339.587" gradientUnits="userSpaceOnUse">
<stop stop-color="#FFE47E"/>
<stop offset="1" stop-color="#FECE2F"/>
</linearGradient>
<linearGradient id="paint3_linear_296_5599" x1="130.796" y1="39.4491" x2="433.116" y2="39.4491" gradientUnits="userSpaceOnUse">
<stop stop-color="#FFDA44"/>
<stop offset="1" stop-color="#FECE2F"/>
</linearGradient>
<linearGradient id="paint4_linear_296_5599" x1="282" y1="376.205" x2="282" y2="359.587" gradientUnits="userSpaceOnUse">
<stop stop-color="#D4AF3F"/>
<stop offset="1" stop-color="#FECE2F" stop-opacity="0"/>
</linearGradient>
<linearGradient id="paint5_linear_296_5599" x1="130.796" y1="368.376" x2="433.116" y2="368.376" gradientUnits="userSpaceOnUse">
<stop stop-color="#FFDA44"/>
<stop offset="1" stop-color="#FECE2F"/>
</linearGradient>
<linearGradient id="paint6_linear_296_5599" x1="282" y1="377.205" x2="282" y2="358.587" gradientUnits="userSpaceOnUse">
<stop stop-color="#D4AF3F"/>
<stop offset="1" stop-color="#FECE2F" stop-opacity="0"/>
</linearGradient>
<linearGradient id="paint7_linear_296_5599" x1="130.796" y1="368.376" x2="433.116" y2="368.376" gradientUnits="userSpaceOnUse">
<stop stop-color="#FFDA44"/>
<stop offset="1" stop-color="#FECE2F"/>
</linearGradient>
</defs>
</svg>
