<svg width="736" height="724" viewBox="0 0 736 724" fill="none" xmlns="http://www.w3.org/2000/svg">
<g opacity="0.6" filter="url(#filter0_f_296_4998)">
<mask id="mask0_296_4998" style="mask-type:alpha" maskUnits="userSpaceOnUse" x="136" y="135" width="464" height="453">
<ellipse cx="367.815" cy="361.969" rx="231.815" ry="226" fill="#D9D9D9"/>
</mask>
<g mask="url(#mask0_296_4998)">
<ellipse cx="381.16" cy="361.793" rx="235.238" ry="229.337" fill="url(#paint0_linear_296_4998)"/>
<g style="mix-blend-mode:overlay" filter="url(#filter1_f_296_4998)">
<ellipse cx="177.402" cy="210.068" rx="177.402" ry="210.068" transform="matrix(0.574841 -0.818265 0.83165 0.5553 214.82 232.713)" fill="white"/>
</g>
<g style="mix-blend-mode:soft-light" filter="url(#filter2_f_296_4998)">
<ellipse cx="177.402" cy="210.068" rx="177.402" ry="210.068" transform="matrix(0.574841 -0.818265 0.83165 0.5553 214.82 232.713)" fill="white"/>
</g>
<path d="M516.22 239.428C503.047 198.317 495.734 188.778 482.699 173.263C512.366 192.652 528.481 205.113 551.866 243.686C571.036 286.958 563.839 297.601 556.233 320.554C549.968 289.186 547.347 271.629 516.22 239.428Z" fill="url(#paint1_linear_296_4998)"/>
<path opacity="0.3" d="M218.05 276.352C234.979 222.098 245.19 209.228 263.482 188.219C220.876 215.359 197.849 232.606 165.691 284.239C140.041 341.696 151.318 355.039 163.951 384.339C171.279 343.194 195.142 182.926 218.05 276.352Z" fill="url(#paint2_linear_296_4998)"/>
<g opacity="0.3">
<path d="M242.052 527.828C273.198 558.704 282.467 564.496 298.09 573.549C272.146 566.547 256.888 561.097 222.375 535.681C187.047 504.893 184.075 493.48 173.865 471.419C195.812 496.198 207.671 510.352 242.052 527.828Z" fill="url(#paint3_linear_296_4998)" style="mix-blend-mode:overlay"/>
</g>
<g opacity="0.1">
<path d="M113.356 318.437C112.226 314.827 110.531 312.052 107.984 310.424C110.053 312.789 111.826 315.478 113.356 318.437C119.542 338.217 108.723 383.053 127.608 401.483C131.233 423.552 138.298 442.7 156.768 450.75C206.622 464.808 215.962 454.049 238.047 440.294C203.779 439.211 184.817 439.662 143.582 409.079C136.706 407.985 131.52 405.301 127.608 401.483C122.887 372.736 124.003 339.032 113.356 318.437Z" fill="url(#paint4_linear_296_4998)" style="mix-blend-mode:overlay"/>
</g>
<g opacity="0.5">
<path d="M470.03 543.066C499.003 537.251 505.676 534.292 516.519 529.049C503.121 540.661 494.477 547.008 467.419 556.633C436.985 564.759 429.363 562.253 413.018 559.841C435.167 556.836 447.574 555.49 470.03 543.066Z" fill="url(#paint5_linear_296_4998)" style="mix-blend-mode:overlay"/>
</g>
<g filter="url(#filter3_f_296_4998)">
<ellipse cx="64.4096" cy="167.344" rx="64.4096" ry="167.344" transform="matrix(0.353675 -0.935368 0.941073 0.338203 271.476 437.804)" fill="url(#paint6_radial_296_4998)" fill-opacity="0.5"/>
</g>
</g>
</g>
<mask id="mask1_296_4998" style="mask-type:alpha" maskUnits="userSpaceOnUse" x="187" y="163" width="409" height="409">
<ellipse cx="391.564" cy="367.192" rx="204.084" ry="203.914" fill="#D9D9D9"/>
</mask>
<g mask="url(#mask1_296_4998)">
<ellipse cx="403.297" cy="367.063" rx="207.097" ry="206.925" fill="url(#paint7_linear_296_4998)"/>
<g style="mix-blend-mode:overlay" filter="url(#filter4_f_296_4998)">
<ellipse cx="158.792" cy="186.369" rx="158.792" ry="186.369" transform="matrix(0.565385 -0.824827 0.825265 0.564745 256.872 250.564)" fill="white"/>
</g>
<g style="mix-blend-mode:soft-light" filter="url(#filter5_f_296_4998)">
<ellipse cx="158.792" cy="186.369" rx="158.792" ry="186.369" transform="matrix(0.565385 -0.824827 0.825265 0.564745 256.872 250.564)" fill="white"/>
</g>
<path d="M522.255 256.604C510.658 219.51 504.22 210.903 492.744 196.904C518.862 214.399 533.05 225.642 553.637 260.446C570.514 299.489 564.178 309.092 557.481 329.801C551.966 301.499 549.659 285.658 522.255 256.604Z" fill="url(#paint8_linear_296_4998)"/>
<path opacity="0.3" d="M259.669 289.932C274.573 240.979 283.562 229.367 299.666 210.411C262.157 234.899 241.885 250.46 213.574 297.048C190.992 348.889 200.92 360.929 212.042 387.366C218.493 350.242 239.501 205.635 259.669 289.932Z" fill="url(#paint9_linear_296_4998)"/>
<g opacity="0.3">
<path d="M280.85 516.814C308.269 544.672 316.43 549.898 330.184 558.066C307.344 551.75 293.911 546.831 263.527 523.9C232.425 496.12 229.808 485.823 220.82 465.918C240.141 488.275 250.582 501.046 280.85 516.814Z" fill="url(#paint10_linear_296_4998)" style="mix-blend-mode:overlay"/>
</g>
<g opacity="0.1">
<path d="M167.537 327.953C166.543 324.696 165.05 322.192 162.809 320.723C164.629 322.857 166.19 325.283 167.537 327.953C172.984 345.8 163.459 386.254 180.085 402.883C183.276 422.796 189.496 440.072 205.756 447.336C249.646 460.02 257.869 450.312 277.312 437.901C247.144 436.925 230.45 437.331 194.148 409.737C188.095 408.75 183.529 406.328 180.085 402.883C175.928 376.946 176.911 346.536 167.537 327.953Z" fill="url(#paint11_linear_296_4998)" style="mix-blend-mode:overlay"/>
</g>
<g opacity="0.5">
<path d="M481.531 530.585C507.038 525.339 512.914 522.669 522.459 517.938C510.664 528.415 503.054 534.142 479.233 542.826C452.439 550.159 445.73 547.897 431.34 545.721C450.839 543.01 461.762 541.795 481.531 530.585Z" fill="url(#paint12_linear_296_4998)" style="mix-blend-mode:overlay"/>
</g>
<g filter="url(#filter6_f_296_4998)">
<ellipse cx="57.9406" cy="147.748" rx="57.9406" ry="147.748" transform="matrix(0.346129 -0.938187 0.938374 0.345623 306.743 435.611)" fill="url(#paint13_radial_296_4998)" fill-opacity="0.5"/>
</g>
</g>
<defs>
<filter id="filter0_f_296_4998" x="0.419998" y="0.388748" width="734.79" height="723.16" filterUnits="userSpaceOnUse" color-interpolation-filters="sRGB">
<feFlood flood-opacity="0" result="BackgroundImageFix"/>
<feBlend mode="normal" in="SourceGraphic" in2="BackgroundImageFix" result="shape"/>
<feGaussianBlur stdDeviation="67.79" result="effect1_foregroundBlur_296_4998"/>
</filter>
<filter id="filter1_f_296_4998" x="-238.317" y="-509.524" width="1459.64" height="1427.45" filterUnits="userSpaceOnUse" color-interpolation-filters="sRGB">
<feFlood flood-opacity="0" result="BackgroundImageFix"/>
<feBlend mode="normal" in="SourceGraphic" in2="BackgroundImageFix" result="shape"/>
<feGaussianBlur stdDeviation="263.748" result="effect1_foregroundBlur_296_4998"/>
</filter>
<filter id="filter2_f_296_4998" x="-238.317" y="-509.524" width="1459.64" height="1427.45" filterUnits="userSpaceOnUse" color-interpolation-filters="sRGB">
<feFlood flood-opacity="0" result="BackgroundImageFix"/>
<feBlend mode="normal" in="SourceGraphic" in2="BackgroundImageFix" result="shape"/>
<feGaussianBlur stdDeviation="263.748" result="effect1_foregroundBlur_296_4998"/>
</filter>
<filter id="filter3_f_296_4998" x="287.322" y="346.218" width="328.834" height="175.872" filterUnits="userSpaceOnUse" color-interpolation-filters="sRGB">
<feFlood flood-opacity="0" result="BackgroundImageFix"/>
<feBlend mode="normal" in="SourceGraphic" in2="BackgroundImageFix" result="shape"/>
<feGaussianBlur stdDeviation="2.63748" result="effect1_foregroundBlur_296_4998"/>
</filter>
<filter id="filter4_f_296_4998" x="-205.16" y="-470.688" width="1411.23" height="1391.05" filterUnits="userSpaceOnUse" color-interpolation-filters="sRGB">
<feFlood flood-opacity="0" result="BackgroundImageFix"/>
<feBlend mode="normal" in="SourceGraphic" in2="BackgroundImageFix" result="shape"/>
<feGaussianBlur stdDeviation="263.748" result="effect1_foregroundBlur_296_4998"/>
</filter>
<filter id="filter5_f_296_4998" x="-205.16" y="-470.688" width="1411.23" height="1391.05" filterUnits="userSpaceOnUse" color-interpolation-filters="sRGB">
<feFlood flood-opacity="0" result="BackgroundImageFix"/>
<feBlend mode="normal" in="SourceGraphic" in2="BackgroundImageFix" result="shape"/>
<feGaussianBlur stdDeviation="263.748" result="effect1_foregroundBlur_296_4998"/>
</filter>
<filter id="filter6_f_296_4998" x="320.062" y="352.46" width="290.759" height="159.716" filterUnits="userSpaceOnUse" color-interpolation-filters="sRGB">
<feFlood flood-opacity="0" result="BackgroundImageFix"/>
<feBlend mode="normal" in="SourceGraphic" in2="BackgroundImageFix" result="shape"/>
<feGaussianBlur stdDeviation="2.63748" result="effect1_foregroundBlur_296_4998"/>
</filter>
<linearGradient id="paint0_linear_296_4998" x1="481.133" y1="132.456" x2="321.692" y2="365.487" gradientUnits="userSpaceOnUse">
<stop stop-color="#FFDA44"/>
<stop offset="1" stop-color="#FECE2F"/>
</linearGradient>
<linearGradient id="paint1_linear_296_4998" x1="523.408" y1="173.263" x2="548.144" y2="304.793" gradientUnits="userSpaceOnUse">
<stop stop-color="white"/>
<stop offset="1" stop-color="white" stop-opacity="0"/>
</linearGradient>
<linearGradient id="paint2_linear_296_4998" x1="203.387" y1="190.913" x2="182.643" y2="364.262" gradientUnits="userSpaceOnUse">
<stop stop-color="white"/>
<stop offset="1" stop-color="white" stop-opacity="0"/>
</linearGradient>
<linearGradient id="paint3_linear_296_4998" x1="278.555" y1="586.672" x2="170.335" y2="504.599" gradientUnits="userSpaceOnUse">
<stop stop-color="white" stop-opacity="0"/>
<stop offset="1" stop-color="white"/>
</linearGradient>
<linearGradient id="paint4_linear_296_4998" x1="167.357" y1="457.639" x2="217.299" y2="430.936" gradientUnits="userSpaceOnUse">
<stop stop-color="white" stop-opacity="0"/>
<stop offset="1" stop-color="white"/>
</linearGradient>
<linearGradient id="paint5_linear_296_4998" x1="516.982" y1="544.444" x2="432.109" y2="577.224" gradientUnits="userSpaceOnUse">
<stop stop-color="white"/>
<stop offset="1" stop-color="white" stop-opacity="0"/>
</linearGradient>
<radialGradient id="paint6_radial_296_4998" cx="0" cy="0" r="1" gradientUnits="userSpaceOnUse" gradientTransform="translate(55.0547 27.3055) rotate(45.669) scale(114.125 290.757)">
<stop stop-color="#FFCF32"/>
<stop offset="1" stop-color="#E9B300"/>
</radialGradient>
<linearGradient id="paint7_linear_296_4998" x1="491.31" y1="160.138" x2="346.203" y2="367.073" gradientUnits="userSpaceOnUse">
<stop stop-color="#FFDA44"/>
<stop offset="1" stop-color="#FECE2F"/>
</linearGradient>
<linearGradient id="paint8_linear_296_4998" x1="528.584" y1="196.904" x2="551.418" y2="315.377" gradientUnits="userSpaceOnUse">
<stop stop-color="white"/>
<stop offset="1" stop-color="white" stop-opacity="0"/>
</linearGradient>
<linearGradient id="paint9_linear_296_4998" x1="246.76" y1="212.842" x2="227.592" y2="369.139" gradientUnits="userSpaceOnUse">
<stop stop-color="white"/>
<stop offset="1" stop-color="white" stop-opacity="0"/>
</linearGradient>
<linearGradient id="paint10_linear_296_4998" x1="312.986" y1="569.907" x2="216.014" y2="498.15" gradientUnits="userSpaceOnUse">
<stop stop-color="white" stop-opacity="0"/>
<stop offset="1" stop-color="white"/>
</linearGradient>
<linearGradient id="paint11_linear_296_4998" x1="215.078" y1="453.552" x2="259.52" y2="430.366" gradientUnits="userSpaceOnUse">
<stop stop-color="white" stop-opacity="0"/>
<stop offset="1" stop-color="white"/>
</linearGradient>
<linearGradient id="paint12_linear_296_4998" x1="522.867" y1="531.829" x2="447.679" y2="560.163" gradientUnits="userSpaceOnUse">
<stop stop-color="white"/>
<stop offset="1" stop-color="white" stop-opacity="0"/>
</linearGradient>
<radialGradient id="paint13_radial_296_4998" cx="0" cy="0" r="1" gradientUnits="userSpaceOnUse" gradientTransform="translate(49.5253 24.1082) rotate(45.1335) scale(101.694 259.156)">
<stop stop-color="#FFCF32"/>
<stop offset="1" stop-color="#E9B300"/>
</radialGradient>
</defs>
</svg>
