<svg width="14" height="15" viewBox="0 0 14 15" fill="none" xmlns="http://www.w3.org/2000/svg">
<path d="M2.74365 10.3021C2.81698 9.97543 2.68365 9.50877 2.45031 9.27543L0.830313 7.65543C0.323646 7.14877 0.123646 6.60877 0.270313 6.1421C0.423646 5.67543 0.89698 5.35543 1.60365 5.23543L3.68365 4.88877C3.98365 4.83543 4.35031 4.56877 4.49031 4.29543L5.63698 1.99543C5.97031 1.33543 6.42365 0.968765 6.91698 0.968765C7.41031 0.968765 7.86365 1.33543 8.19698 1.99543L9.34365 4.29543C9.43031 4.46877 9.61031 4.63543 9.80365 4.74877L2.62365 11.9288C2.53031 12.0221 2.37031 11.9354 2.39698 11.8021L2.74365 10.3021Z" fill="#1A191A"/>
<path d="M11.3839 9.27537C11.1439 9.51537 11.0106 9.97537 11.0906 10.302L11.5506 12.3087C11.7439 13.142 11.6239 13.7687 11.2106 14.0687C11.0439 14.1887 10.8439 14.2487 10.6106 14.2487C10.2706 14.2487 9.8706 14.122 9.4306 13.862L7.47727 12.702C7.1706 12.522 6.66394 12.522 6.35727 12.702L4.40393 13.862C3.66394 14.2954 3.0306 14.3687 2.62394 14.0687C2.4706 13.9554 2.35727 13.802 2.28394 13.602L10.3906 5.49537C10.6973 5.1887 11.1306 5.0487 11.5506 5.12203L12.2239 5.23537C12.9306 5.35537 13.4039 5.67537 13.5573 6.14203C13.7039 6.6087 13.5039 7.1487 12.9973 7.65537L11.3839 9.27537Z" fill="#1A191A"/>
</svg>
