<svg width="254" height="250" viewBox="0 0 254 250" fill="none" xmlns="http://www.w3.org/2000/svg">
<g filter="url(#filter0_ii_2078_4122)">
<circle cx="125.451" cy="125.045" r="56.7752" fill="#D9D9D9"/>
<circle cx="125.451" cy="125.045" r="56.7752" fill="url(#paint0_linear_2078_4122)"/>
</g>
<g opacity="0.7">
<mask id="mask0_2078_4122" style="mask-type:alpha" maskUnits="userSpaceOnUse" x="68" y="68" width="115" height="114">
<circle cx="125.451" cy="125.045" r="56.7752" fill="#D9D9D9"/>
<circle cx="125.451" cy="125.045" r="56.7752" fill="url(#paint1_linear_2078_4122)"/>
</mask>
<g mask="url(#mask0_2078_4122)">
<g opacity="0.5" filter="url(#filter1_f_2078_4122)">
<circle cx="125.45" cy="125.044" r="42.0557" fill="white"/>
</g>
<g opacity="0.8" filter="url(#filter2_f_2078_4122)">
<path d="M90.4758 110.326C59.5355 144.945 113.869 203.647 148.582 154.729L90.4758 110.326Z" fill="white"/>
</g>
<g filter="url(#filter3_f_2078_4122)">
<circle cx="146.48" cy="91.3999" r="12.6167" fill="white"/>
</g>
</g>
</g>
<path d="M62.0208 67.1572C99.9162 56.74 121.562 35.1698 165.509 51.3279C214.495 69.3012 225.489 140.939 196.373 166.367C161.081 197.204 120.807 220.635 80.2063 197.452C39.6055 174.269 16.7213 79.5952 62.0208 67.1572Z" stroke="url(#paint2_linear_2078_4122)" stroke-miterlimit="10"/>
<path d="M62.0208 67.1572C99.9162 56.74 121.562 35.1698 165.509 51.3279C214.495 69.3012 225.489 140.939 196.373 166.367C161.081 197.204 120.807 220.635 80.2063 197.452C39.6055 174.269 16.7213 79.5952 62.0208 67.1572Z" stroke="url(#paint3_linear_2078_4122)" stroke-miterlimit="10"/>
<path d="M63.3941 68.2559C102.758 58.5529 122.449 36.9919 166.787 51.1865C214.574 66.4751 221.508 137.418 197.651 166.223C169 200.977 122.84 213.922 81.4861 197.308C39.5789 180.565 17.6965 79.6536 63.3941 68.2559Z" stroke="url(#paint4_linear_2078_4122)" stroke-miterlimit="10"/>
<path d="M63.3941 68.2559C102.758 58.5529 122.449 36.9919 166.787 51.1865C214.574 66.4751 221.508 137.418 197.651 166.223C169 200.977 122.84 213.922 81.4861 197.308C39.5789 180.565 17.6965 79.6536 63.3941 68.2559Z" stroke="url(#paint5_linear_2078_4122)" stroke-miterlimit="10"/>
<path d="M64.8124 69.3819C105.625 60.3192 123.233 38.8812 168.111 51.0723C214.642 63.7701 217.505 133.825 198.946 166.154C176.851 204.65 124.796 207.23 82.7835 197.238C39.4482 186.928 18.6026 79.6118 64.8124 69.3819Z" stroke="url(#paint6_linear_2078_4122)" stroke-miterlimit="10"/>
<path d="M64.8124 69.3819C105.625 60.3192 123.233 38.8812 168.111 51.0723C214.642 63.7701 217.505 133.825 198.946 166.154C176.851 204.65 124.796 207.23 82.7835 197.238C39.4482 186.928 18.6026 79.6118 64.8124 69.3819Z" stroke="url(#paint7_linear_2078_4122)" stroke-miterlimit="10"/>
<path d="M66.266 70.4616C108.473 62.133 124.119 40.8246 169.368 50.9786C214.645 61.0857 213.491 130.158 200.231 166.013C184.663 208.297 126.678 200.681 84.0691 197.096C39.2706 193.386 19.5559 79.7182 66.266 70.4616Z" stroke="url(#paint8_linear_2078_4122)" stroke-miterlimit="10"/>
<path d="M66.266 70.4616C108.473 62.133 124.119 40.8246 169.368 50.9786C214.645 61.0857 213.491 130.158 200.231 166.013C184.663 208.297 126.678 200.681 84.0691 197.096C39.2706 193.386 19.5559 79.7182 66.266 70.4616Z" stroke="url(#paint9_linear_2078_4122)" stroke-miterlimit="10"/>
<path d="M67.6861 71.5871C111.363 63.9726 124.87 42.8806 170.695 50.8639C214.682 58.5479 209.398 126.511 201.557 165.897C192.374 211.89 128.499 194.225 85.3686 197.027C39.0794 199.963 20.5031 79.8236 67.6861 71.5871Z" stroke="url(#paint10_linear_2078_4122)" stroke-miterlimit="10"/>
<path d="M67.6861 71.5871C111.363 63.9726 124.87 42.8806 170.695 50.8639C214.682 58.5479 209.398 126.511 201.557 165.897C192.374 211.89 128.499 194.225 85.3686 197.027C39.0794 199.963 20.5031 79.8236 67.6861 71.5871Z" stroke="url(#paint11_linear_2078_4122)" stroke-miterlimit="10"/>
<path d="M69.1079 72.7134C114.226 65.8598 125.643 45.0111 171.948 50.7698C214.619 56.0776 205.231 122.885 202.81 165.802C200.088 215.484 130.437 187.897 86.65 196.886C38.8823 206.663 21.4716 80.0036 69.1079 72.7134Z" stroke="url(#paint12_linear_2078_4122)" stroke-miterlimit="10"/>
<path d="M69.1079 72.7134C114.226 65.8598 125.643 45.0111 171.948 50.7698C214.619 56.0776 205.231 122.885 202.81 165.802C200.088 215.484 130.437 187.897 86.65 196.886C38.8823 206.663 21.4716 80.0036 69.1079 72.7134Z" stroke="url(#paint13_linear_2078_4122)" stroke-miterlimit="10"/>
<path d="M70.5124 73.7658C117.119 67.7 126.484 47.2422 173.279 50.6557C214.653 53.6612 201.067 119.258 204.141 165.688C207.701 219.144 132.443 181.67 87.9809 196.771C38.8016 213.489 22.4501 80.0629 70.5124 73.7658Z" stroke="url(#paint14_linear_2078_4122)" stroke-miterlimit="10"/>
<path d="M70.5124 73.7658C117.119 67.7 126.484 47.2422 173.279 50.6557C214.653 53.6612 201.067 119.258 204.141 165.688C207.701 219.144 132.443 181.67 87.9809 196.771C38.8016 213.489 22.4501 80.0629 70.5124 73.7658Z" stroke="url(#paint15_linear_2078_4122)" stroke-miterlimit="10"/>
<path d="M154.754 208.163C116.825 198.372 87.254 206.364 57.4218 170.529C24.1776 130.655 50.8176 62.9474 88.7621 55.2619C134.798 46.0151 181.352 45.6455 204.743 85.8872C228.12 126.181 200.179 219.822 154.754 208.163Z" stroke="url(#paint16_linear_2078_4122)" stroke-miterlimit="10"/>
<path d="M154.754 208.163C116.825 198.372 87.254 206.364 57.4218 170.529C24.1776 130.655 50.8176 62.9474 88.7621 55.2619C134.798 46.0151 181.352 45.6455 204.743 85.8872C228.12 126.181 200.179 219.822 154.754 208.163Z" stroke="url(#paint17_linear_2078_4122)" stroke-miterlimit="10"/>
<path d="M154.136 206.49C115.267 195.386 87.3944 204.387 56.2654 170.001C22.6882 133.008 52.489 67.9834 87.6062 54.7325C129.871 38.8307 176.21 50.4504 203.589 85.3584C231.289 120.743 199.369 219.274 154.136 206.49Z" stroke="url(#paint18_linear_2078_4122)" stroke-miterlimit="10"/>
<path d="M154.136 206.49C115.267 195.386 87.3944 204.387 56.2654 170.001C22.6882 133.008 52.489 67.9834 87.6062 54.7325C129.871 38.8307 176.21 50.4504 203.589 85.3584C231.289 120.743 199.369 219.274 154.136 206.49Z" stroke="url(#paint19_linear_2078_4122)" stroke-miterlimit="10"/>
<path d="M153.467 204.805C113.644 192.44 87.6175 202.321 55.0579 169.462C21.253 135.378 54.0951 73.0604 86.3991 54.1918C124.931 31.7009 171.175 55.2859 202.384 84.8181C234.632 115.297 198.532 218.833 153.467 204.805Z" stroke="url(#paint20_linear_2078_4122)" stroke-miterlimit="10"/>
<path d="M153.467 204.805C113.644 192.44 87.6175 202.321 55.0579 169.462C21.253 135.378 54.0951 73.0604 86.3991 54.1918C124.931 31.7009 171.175 55.2859 202.384 84.8181C234.632 115.297 198.532 218.833 153.467 204.805Z" stroke="url(#paint21_linear_2078_4122)" stroke-miterlimit="10"/>
<path d="M152.783 203.172C112.087 189.456 87.9066 200.217 53.9025 168.938C19.8983 137.659 55.7249 78.2571 85.244 53.6661C120.014 24.6905 166.258 60.098 201.23 84.2927C238.054 109.761 197.774 218.302 152.783 203.172Z" stroke="url(#paint22_linear_2078_4122)" stroke-miterlimit="10"/>
<path d="M152.783 203.172C112.087 189.456 87.9066 200.217 53.9025 168.938C19.8983 137.659 55.7249 78.2571 85.244 53.6661C120.014 24.6905 166.258 60.098 201.23 84.2927C238.054 109.761 197.774 218.302 152.783 203.172Z" stroke="url(#paint23_linear_2078_4122)" stroke-miterlimit="10"/>
<path d="M152.114 201.485C110.531 186.47 88.2113 198.059 52.7483 168.411C18.6119 139.898 57.4613 83.4797 84.0901 53.1385C115.137 17.7445 161.384 64.7516 200.076 83.7654C241.558 104.132 196.965 217.755 152.114 201.485Z" stroke="url(#paint24_linear_2078_4122)" stroke-miterlimit="10"/>
<path d="M152.114 201.485C110.531 186.47 88.2113 198.059 52.7483 168.411C18.6119 139.898 57.4613 83.4797 84.0901 53.1385C115.137 17.7445 161.384 64.7516 200.076 83.7654C241.558 104.132 196.965 217.755 152.114 201.485Z" stroke="url(#paint25_linear_2078_4122)" stroke-miterlimit="10"/>
<path d="M151.43 199.852C109.054 183.396 88.648 195.825 51.5401 167.873C17.3908 142.102 59.1962 88.7048 82.882 52.5994C110.325 10.7624 156.537 69.303 198.869 83.2265C245.089 98.4009 196.235 217.119 151.43 199.852Z" stroke="url(#paint26_linear_2078_4122)" stroke-miterlimit="10"/>
<path d="M151.43 199.852C109.054 183.396 88.648 195.825 51.5401 167.873C17.3908 142.102 59.1962 88.7048 82.882 52.5994C110.325 10.7624 156.537 69.303 198.869 83.2265C245.089 98.4009 196.235 217.119 151.43 199.852Z" stroke="url(#paint27_linear_2078_4122)" stroke-miterlimit="10"/>
<path d="M150.759 198.166C107.509 180.359 89.0456 193.525 50.3838 167.347C16.1591 144.134 60.983 93.9431 81.7258 52.0736C105.603 3.85975 151.718 73.7493 197.713 82.7009C248.542 92.5366 195.424 216.572 150.759 198.166Z" stroke="url(#paint28_linear_2078_4122)" stroke-miterlimit="10"/>
<path d="M150.759 198.166C107.509 180.359 89.0456 193.525 50.3838 167.347C16.1591 144.134 60.983 93.9431 81.7258 52.0736C105.603 3.85975 151.718 73.7493 197.713 82.7009C248.542 92.5366 195.424 216.572 150.759 198.166Z" stroke="url(#paint29_linear_2078_4122)" stroke-miterlimit="10"/>
<path d="M213.655 145.123C186.055 172.833 178.2 202.164 131.891 209.888C80.2915 218.531 34.4734 162.03 46.8552 125.677C61.8552 81.6005 84.9279 41.4668 131.891 41.4668C178.855 41.4668 246.655 112.011 213.655 145.123Z" stroke="url(#paint30_linear_2078_4122)" stroke-miterlimit="10"/>
<path d="M213.655 145.123C186.055 172.833 178.2 202.164 131.891 209.888C80.2915 218.531 34.4734 162.03 46.8552 125.677C61.8552 81.6005 84.9279 41.4668 131.891 41.4668C178.855 41.4668 246.655 112.011 213.655 145.123Z" stroke="url(#paint31_linear_2078_4122)" stroke-miterlimit="10"/>
<path d="M211.908 144.852C182.672 172.671 176.508 201.029 130.854 210.644C81.6539 221.015 39.7086 163.11 45.8176 126.433C53.0722 82.2481 86.563 48.3262 130.854 42.2224C175.69 36.0106 245.781 112.443 211.908 144.852Z" stroke="url(#paint32_linear_2078_4122)" stroke-miterlimit="10"/>
<path d="M211.908 144.852C182.672 172.671 176.508 201.029 130.854 210.644C81.6539 221.015 39.7086 163.11 45.8176 126.433C53.0722 82.2481 86.563 48.3262 130.854 42.2224C175.69 36.0106 245.781 112.443 211.908 144.852Z" stroke="url(#paint33_linear_2078_4122)" stroke-miterlimit="10"/>
<path d="M210.108 144.637C179.29 172.563 174.872 199.787 129.763 211.4C82.9627 223.392 44.9991 164.244 44.7264 127.135C44.3992 82.9505 88.2536 55.0244 129.763 42.9249C172.581 30.4472 245.017 112.929 210.108 144.637Z" stroke="url(#paint34_linear_2078_4122)" stroke-miterlimit="10"/>
<path d="M210.108 144.637C179.29 172.563 174.872 199.787 129.763 211.4C82.9627 223.392 44.9991 164.244 44.7264 127.135C44.3992 82.9505 88.2536 55.0244 129.763 42.9249C172.581 30.4472 245.017 112.929 210.108 144.637Z" stroke="url(#paint35_linear_2078_4122)" stroke-miterlimit="10"/>
<path d="M208.308 144.367C175.908 172.401 173.127 198.544 128.727 212.102C84.3268 225.714 50.345 165.433 43.6905 127.892C35.7814 83.6528 89.9449 61.6144 128.727 43.6811C169.472 24.7756 244.145 113.308 208.308 144.367Z" stroke="url(#paint36_linear_2078_4122)" stroke-miterlimit="10"/>
<path d="M208.308 144.367C175.908 172.401 173.127 198.544 128.727 212.102C84.3268 225.714 50.345 165.433 43.6905 127.892C35.7814 83.6528 89.9449 61.6144 128.727 43.6811C169.472 24.7756 244.145 113.308 208.308 144.367Z" stroke="url(#paint37_linear_2078_4122)" stroke-miterlimit="10"/>
<path d="M206.51 144.096C172.473 172.238 171.437 197.139 127.637 212.858C85.5827 227.928 55.7464 166.566 42.6009 128.647C27.2737 84.4083 91.6372 68.0955 127.637 44.4366C166.31 18.9951 243.273 113.739 206.51 144.096Z" stroke="url(#paint38_linear_2078_4122)" stroke-miterlimit="10"/>
<path d="M206.51 144.096C172.473 172.238 171.437 197.139 127.637 212.858C85.5827 227.928 55.7464 166.566 42.6009 128.647C27.2737 84.4083 91.6372 68.0955 127.637 44.4366C166.31 18.9951 243.273 113.739 206.51 144.096Z" stroke="url(#paint39_linear_2078_4122)" stroke-miterlimit="10"/>
<path d="M204.708 143.88C169.035 172.023 169.69 195.736 126.599 213.615C86.89 230.09 61.1992 167.647 41.5629 129.35C18.7629 85.0573 93.1628 74.5242 126.599 45.1396C163.09 13.1082 242.344 114.064 204.708 143.88Z" stroke="url(#paint40_linear_2078_4122)" stroke-miterlimit="10"/>
<path d="M204.708 143.88C169.035 172.023 169.69 195.736 126.599 213.615C86.89 230.09 61.1992 167.647 41.5629 129.35C18.7629 85.0573 93.1628 74.5242 126.599 45.1396C163.09 13.1082 242.344 114.064 204.708 143.88Z" stroke="url(#paint41_linear_2078_4122)" stroke-miterlimit="10"/>
<path d="M202.964 143.61C165.6 171.86 167.837 194.169 125.51 214.317C88.0915 232.142 66.6552 168.728 40.4735 130.106C10.3099 85.6513 94.5824 80.8979 125.51 45.8957C159.71 7.16635 241.473 114.442 202.964 143.61Z" stroke="url(#paint42_linear_2078_4122)" stroke-miterlimit="10"/>
<path d="M202.964 143.61C165.6 171.86 167.837 194.169 125.51 214.317C88.0915 232.142 66.6552 168.728 40.4735 130.106C10.3099 85.6513 94.5824 80.8979 125.51 45.8957C159.71 7.16635 241.473 114.442 202.964 143.61Z" stroke="url(#paint43_linear_2078_4122)" stroke-miterlimit="10"/>
<defs>
<filter id="filter0_ii_2078_4122" x="68.6758" y="57.8992" width="113.551" height="136.884" filterUnits="userSpaceOnUse" color-interpolation-filters="sRGB">
<feFlood flood-opacity="0" result="BackgroundImageFix"/>
<feBlend mode="normal" in="SourceGraphic" in2="BackgroundImageFix" result="shape"/>
<feColorMatrix in="SourceAlpha" type="matrix" values="0 0 0 0 0 0 0 0 0 0 0 0 0 0 0 0 0 0 127 0" result="hardAlpha"/>
<feOffset dy="12.963"/>
<feGaussianBlur stdDeviation="12.963"/>
<feComposite in2="hardAlpha" operator="arithmetic" k2="-1" k3="1"/>
<feColorMatrix type="matrix" values="0 0 0 0 0.996078 0 0 0 0 0.819608 0 0 0 0 0.243137 0 0 0 0.9 0"/>
<feBlend mode="normal" in2="shape" result="effect1_innerShadow_2078_4122"/>
<feColorMatrix in="SourceAlpha" type="matrix" values="0 0 0 0 0 0 0 0 0 0 0 0 0 0 0 0 0 0 127 0" result="hardAlpha"/>
<feOffset dy="-10.3704"/>
<feGaussianBlur stdDeviation="12.963"/>
<feComposite in2="hardAlpha" operator="arithmetic" k2="-1" k3="1"/>
<feColorMatrix type="matrix" values="0 0 0 0 0.807843 0 0 0 0 0.333333 0 0 0 0 0.45098 0 0 0 1 0"/>
<feBlend mode="normal" in2="effect1_innerShadow_2078_4122" result="effect2_innerShadow_2078_4122"/>
</filter>
<filter id="filter1_f_2078_4122" x="44.5056" y="44.0994" width="161.891" height="161.889" filterUnits="userSpaceOnUse" color-interpolation-filters="sRGB">
<feFlood flood-opacity="0" result="BackgroundImageFix"/>
<feBlend mode="normal" in="SourceGraphic" in2="BackgroundImageFix" result="shape"/>
<feGaussianBlur stdDeviation="19.4444" result="effect1_foregroundBlur_2078_4122"/>
</filter>
<filter id="filter2_f_2078_4122" x="42.4041" y="71.4373" width="145.067" height="140.862" filterUnits="userSpaceOnUse" color-interpolation-filters="sRGB">
<feFlood flood-opacity="0" result="BackgroundImageFix"/>
<feBlend mode="normal" in="SourceGraphic" in2="BackgroundImageFix" result="shape"/>
<feGaussianBlur stdDeviation="19.4444" result="effect1_foregroundBlur_2078_4122"/>
</filter>
<filter id="filter3_f_2078_4122" x="113.123" y="58.0425" width="66.7159" height="66.7159" filterUnits="userSpaceOnUse" color-interpolation-filters="sRGB">
<feFlood flood-opacity="0" result="BackgroundImageFix"/>
<feBlend mode="normal" in="SourceGraphic" in2="BackgroundImageFix" result="shape"/>
<feGaussianBlur stdDeviation="10.3704" result="effect1_foregroundBlur_2078_4122"/>
</filter>
<linearGradient id="paint0_linear_2078_4122" x1="68.6758" y1="125.045" x2="182.226" y2="125.045" gradientUnits="userSpaceOnUse">
<stop stop-color="#FED13E"/>
<stop offset="1" stop-color="#E63F5A"/>
</linearGradient>
<linearGradient id="paint1_linear_2078_4122" x1="68.6758" y1="125.045" x2="182.226" y2="125.045" gradientUnits="userSpaceOnUse">
<stop stop-color="#FED13E"/>
<stop offset="1" stop-color="#E63F5A"/>
</linearGradient>
<linearGradient id="paint2_linear_2078_4122" x1="155.466" y1="240.431" x2="2.80286" y2="151.311" gradientUnits="userSpaceOnUse">
<stop stop-color="#00290E"/>
<stop offset="1" stop-color="#00BD42"/>
</linearGradient>
<linearGradient id="paint3_linear_2078_4122" x1="198.364" y1="166.991" x2="45.6982" y2="77.8689" gradientUnits="userSpaceOnUse">
<stop stop-color="#FED13E"/>
<stop offset="1" stop-color="#E63F5A"/>
</linearGradient>
<linearGradient id="paint4_linear_2078_4122" x1="155.337" y1="239.873" x2="4.35748" y2="151.736" gradientUnits="userSpaceOnUse">
<stop stop-color="#00290E"/>
<stop offset="1" stop-color="#00BD42"/>
</linearGradient>
<linearGradient id="paint5_linear_2078_4122" x1="198.383" y1="166.14" x2="47.3976" y2="77.9991" gradientUnits="userSpaceOnUse">
<stop stop-color="#FED13E"/>
<stop offset="1" stop-color="#E63F5A"/>
</linearGradient>
<linearGradient id="paint6_linear_2078_4122" x1="155.659" y1="240.299" x2="5.56911" y2="152.681" gradientUnits="userSpaceOnUse">
<stop stop-color="#00290E"/>
<stop offset="1" stop-color="#00BD42"/>
</linearGradient>
<linearGradient id="paint7_linear_2078_4122" x1="199.038" y1="166" x2="48.9351" y2="78.3745" gradientUnits="userSpaceOnUse">
<stop stop-color="#FED13E"/>
<stop offset="1" stop-color="#E63F5A"/>
</linearGradient>
<linearGradient id="paint8_linear_2078_4122" x1="156.928" y1="241.721" x2="6.61649" y2="153.974" gradientUnits="userSpaceOnUse">
<stop stop-color="#00290E"/>
<stop offset="1" stop-color="#00BD42"/>
</linearGradient>
<linearGradient id="paint9_linear_2078_4122" x1="200.736" y1="166.681" x2="50.4209" y2="78.9311" gradientUnits="userSpaceOnUse">
<stop stop-color="#FED13E"/>
<stop offset="1" stop-color="#E63F5A"/>
</linearGradient>
<linearGradient id="paint10_linear_2078_4122" x1="158.747" y1="243.811" x2="7.51665" y2="155.527" gradientUnits="userSpaceOnUse">
<stop stop-color="#00290E"/>
<stop offset="1" stop-color="#00BD42"/>
</linearGradient>
<linearGradient id="paint11_linear_2078_4122" x1="203.056" y1="167.906" x2="51.8266" y2="79.623" gradientUnits="userSpaceOnUse">
<stop stop-color="#FED13E"/>
<stop offset="1" stop-color="#E63F5A"/>
</linearGradient>
<linearGradient id="paint12_linear_2078_4122" x1="160.724" y1="246.351" x2="8.28693" y2="157.362" gradientUnits="userSpaceOnUse">
<stop stop-color="#00290E"/>
<stop offset="1" stop-color="#00BD42"/>
</linearGradient>
<linearGradient id="paint13_linear_2078_4122" x1="205.615" y1="169.425" x2="53.188" y2="80.4422" gradientUnits="userSpaceOnUse">
<stop stop-color="#FED13E"/>
<stop offset="1" stop-color="#E63F5A"/>
</linearGradient>
<linearGradient id="paint14_linear_2078_4122" x1="162.808" y1="249.134" x2="8.96656" y2="159.326" gradientUnits="userSpaceOnUse">
<stop stop-color="#00290E"/>
<stop offset="1" stop-color="#00BD42"/>
</linearGradient>
<linearGradient id="paint15_linear_2078_4122" x1="208.361" y1="171.127" x2="54.4878" y2="81.3003" gradientUnits="userSpaceOnUse">
<stop stop-color="#FED13E"/>
<stop offset="1" stop-color="#E63F5A"/>
</linearGradient>
<linearGradient id="paint16_linear_2078_4122" x1="161.421" y1="11.2311" x2="249.142" y2="163.912" gradientUnits="userSpaceOnUse">
<stop stop-color="#00290E"/>
<stop offset="1" stop-color="#03EA54"/>
</linearGradient>
<linearGradient id="paint17_linear_2078_4122" x1="45.6171" y1="103.399" x2="210.908" y2="148.341" gradientUnits="userSpaceOnUse">
<stop stop-color="#FED13E"/>
<stop offset="1" stop-color="#E63F5A"/>
</linearGradient>
<linearGradient id="paint18_linear_2078_4122" x1="161.248" y1="11.7772" x2="248.005" y2="162.781" gradientUnits="userSpaceOnUse">
<stop stop-color="#00290E"/>
<stop offset="1" stop-color="#2EF774"/>
</linearGradient>
<linearGradient id="paint19_linear_2078_4122" x1="46.1834" y1="102.768" x2="211.172" y2="147.628" gradientUnits="userSpaceOnUse">
<stop stop-color="#FED13E"/>
<stop offset="1" stop-color="#E63F5A"/>
</linearGradient>
<linearGradient id="paint20_linear_2078_4122" x1="161.181" y1="11.2482" x2="247.43" y2="161.366" gradientUnits="userSpaceOnUse">
<stop stop-color="#00290E"/>
<stop offset="1" stop-color="#49DC7D"/>
</linearGradient>
<linearGradient id="paint21_linear_2078_4122" x1="46.7529" y1="101.912" x2="211.551" y2="146.72" gradientUnits="userSpaceOnUse">
<stop stop-color="#FED13E"/>
<stop offset="1" stop-color="#E63F5A"/>
</linearGradient>
<linearGradient id="paint22_linear_2078_4122" x1="160.806" y1="9.39026" x2="247.184" y2="159.733" gradientUnits="userSpaceOnUse">
<stop stop-color="#00290E"/>
<stop offset="1" stop-color="#00BD42"/>
</linearGradient>
<linearGradient id="paint23_linear_2078_4122" x1="47.3753" y1="100.865" x2="212.034" y2="145.634" gradientUnits="userSpaceOnUse">
<stop stop-color="#FED13E"/>
<stop offset="1" stop-color="#E63F5A"/>
</linearGradient>
<linearGradient id="paint24_linear_2078_4122" x1="160.288" y1="6.6739" x2="247.195" y2="157.938" gradientUnits="userSpaceOnUse">
<stop stop-color="#00290E"/>
<stop offset="1" stop-color="#00BD42"/>
</linearGradient>
<linearGradient id="paint25_linear_2078_4122" x1="48.037" y1="99.6606" x2="212.569" y2="144.396" gradientUnits="userSpaceOnUse">
<stop stop-color="#FED13E"/>
<stop offset="1" stop-color="#E63F5A"/>
</linearGradient>
<linearGradient id="paint26_linear_2078_4122" x1="159.859" y1="3.49328" x2="247.461" y2="155.965" gradientUnits="userSpaceOnUse">
<stop stop-color="#00290E"/>
<stop offset="1" stop-color="#00BD42"/>
</linearGradient>
<linearGradient id="paint27_linear_2078_4122" x1="48.6745" y1="98.3106" x2="213.149" y2="143.03" gradientUnits="userSpaceOnUse">
<stop stop-color="#FED13E"/>
<stop offset="1" stop-color="#E63F5A"/>
</linearGradient>
<linearGradient id="paint28_linear_2078_4122" x1="159.463" y1="0.0474409" x2="247.872" y2="153.926" gradientUnits="userSpaceOnUse">
<stop stop-color="#00290E"/>
<stop offset="1" stop-color="#85FFAF"/>
</linearGradient>
<linearGradient id="paint29_linear_2078_4122" x1="49.2548" y1="96.9056" x2="213.69" y2="141.614" gradientUnits="userSpaceOnUse">
<stop stop-color="#FED13E"/>
<stop offset="1" stop-color="#E63F5A"/>
</linearGradient>
<linearGradient id="paint30_linear_2078_4122" x1="44.8343" y1="41.4689" x2="222.409" y2="41.469" gradientUnits="userSpaceOnUse">
<stop stop-color="#00290E"/>
<stop offset="1" stop-color="#86FFB0"/>
</linearGradient>
<linearGradient id="paint31_linear_2078_4122" x1="133.601" y1="41.4668" x2="133.601" y2="210.775" gradientUnits="userSpaceOnUse">
<stop stop-color="#FED13E"/>
<stop offset="1" stop-color="#E63F5A"/>
</linearGradient>
<linearGradient id="paint32_linear_2078_4122" x1="45.2264" y1="41.8875" x2="220.847" y2="41.8875" gradientUnits="userSpaceOnUse">
<stop stop-color="#00290E"/>
<stop offset="1" stop-color="#4BFF8A"/>
</linearGradient>
<linearGradient id="paint33_linear_2078_4122" x1="133.038" y1="41.8652" x2="133.038" y2="211.868" gradientUnits="userSpaceOnUse">
<stop stop-color="#FED13E"/>
<stop offset="1" stop-color="#E63F5A"/>
</linearGradient>
<linearGradient id="paint34_linear_2078_4122" x1="44.7292" y1="41.6803" x2="219.318" y2="41.6803" gradientUnits="userSpaceOnUse">
<stop stop-color="#00290E"/>
<stop offset="1" stop-color="#00BD42"/>
</linearGradient>
<linearGradient id="paint35_linear_2078_4122" x1="132.026" y1="41.6504" x2="132.026" y2="212.977" gradientUnits="userSpaceOnUse">
<stop stop-color="#FED13E"/>
<stop offset="1" stop-color="#E63F5A"/>
</linearGradient>
<linearGradient id="paint36_linear_2078_4122" x1="42.9148" y1="41.0754" x2="217.763" y2="41.0754" gradientUnits="userSpaceOnUse">
<stop stop-color="#00290E"/>
<stop offset="1" stop-color="#00BD42"/>
</linearGradient>
<linearGradient id="paint37_linear_2078_4122" x1="130.339" y1="41.0605" x2="130.339" y2="214.066" gradientUnits="userSpaceOnUse">
<stop stop-color="#FED13E"/>
<stop offset="1" stop-color="#E63F5A"/>
</linearGradient>
<linearGradient id="paint38_linear_2078_4122" x1="40.2806" y1="40.1672" x2="216.199" y2="40.1672" gradientUnits="userSpaceOnUse">
<stop stop-color="#00290E"/>
<stop offset="1" stop-color="#00BD42"/>
</linearGradient>
<linearGradient id="paint39_linear_2078_4122" x1="128.241" y1="40.1465" x2="128.241" y2="215.193" gradientUnits="userSpaceOnUse">
<stop stop-color="#FED13E"/>
<stop offset="1" stop-color="#E63F5A"/>
</linearGradient>
<linearGradient id="paint40_linear_2078_4122" x1="37.2811" y1="38.9499" x2="214.603" y2="38.9499" gradientUnits="userSpaceOnUse">
<stop stop-color="#00290E"/>
<stop offset="1" stop-color="#00BD42"/>
</linearGradient>
<linearGradient id="paint41_linear_2078_4122" x1="125.95" y1="38.9355" x2="125.95" y2="216.325" gradientUnits="userSpaceOnUse">
<stop stop-color="#FED13E"/>
<stop offset="1" stop-color="#E63F5A"/>
</linearGradient>
<linearGradient id="paint42_linear_2078_4122" x1="34.0693" y1="37.5718" x2="213.027" y2="37.5718" gradientUnits="userSpaceOnUse">
<stop stop-color="#00290E"/>
<stop offset="1" stop-color="#34FD7A"/>
</linearGradient>
<linearGradient id="paint43_linear_2078_4122" x1="123.554" y1="37.5664" x2="123.554" y2="217.408" gradientUnits="userSpaceOnUse">
<stop stop-color="#FED13E"/>
<stop offset="1" stop-color="#E63F5A"/>
</linearGradient>
</defs>
</svg>
