<svg width="211" height="278" viewBox="0 0 211 278" fill="none" xmlns="http://www.w3.org/2000/svg">
<path d="M114.335 66.9607C114.141 67.3757 113.646 67.5553 113.231 67.3611C112.814 67.1668 112.634 66.6753 112.828 66.2574C112.852 66.2074 120.828 48.6367 140.644 48.6367C145.3 48.6367 149.506 49.3755 153.146 50.7058C157.732 52.3833 161.417 55.0057 163.956 58.2844C166.514 61.5895 167.912 65.551 167.912 69.8833C167.912 72.3879 167.444 75.019 166.458 77.7179C166.302 78.1477 165.825 78.3684 165.396 78.2123C164.966 78.0564 164.742 77.5825 164.898 77.1529C165.817 74.6453 166.252 72.2055 166.252 69.8833C166.252 65.9248 164.978 62.3106 162.644 59.2968C160.295 56.2624 156.866 53.8314 152.581 52.2627C149.126 51 145.109 50.2996 140.644 50.2996C121.896 50.2996 114.356 66.9108 114.335 66.9607Z" fill="black"/>
<path d="M119.522 63.4852C119.501 63.0261 119.857 62.6435 120.316 62.6259C120.772 62.6052 121.158 62.9613 121.176 63.4205C121.176 63.444 121.546 71.9468 119.463 72.5883C119.027 72.7237 118.562 72.4765 118.427 72.0409C118.294 71.6024 118.538 71.1403 118.977 71.005C119.825 70.743 119.522 63.5059 119.522 63.4852Z" fill="black"/>
<path d="M112.192 69.4708C112.23 69.0146 112.631 68.6762 113.087 68.7115C113.546 68.7498 113.884 69.153 113.846 69.6092C113.846 69.6269 113.252 76.19 118.014 76.3814C118.47 76.399 118.826 76.7845 118.808 77.2407C118.791 77.697 118.405 78.053 117.949 78.0353C111.436 77.7763 112.189 69.4973 112.192 69.4708Z" fill="black"/>
<path d="M118.056 75.5585C118.035 75.0994 118.388 74.7109 118.844 74.6903C119.303 74.6697 119.689 75.0229 119.713 75.4791C119.713 75.5291 120.49 92.564 122.897 95.3895C123.374 95.9516 123.907 96.7227 124.525 97.6174C127.271 101.591 131.8 108.145 139.382 106.838C144.211 106.005 148.273 104.396 151.296 102.106C154.192 99.9102 156.128 97.0877 156.864 93.7237C158.471 86.3717 162.818 79.2787 162.833 79.2581C163.071 78.8696 163.58 78.746 163.972 78.9844C164.36 79.2228 164.484 79.732 164.245 80.1234C164.233 80.1411 160.037 86.9927 158.486 94.0739C157.662 97.8411 155.507 100.993 152.293 103.427C149.062 105.879 144.756 107.595 139.658 108.475C131.041 109.961 126.135 102.859 123.162 98.5591C122.573 97.7057 122.064 96.9669 121.637 96.4666C118.856 93.2027 118.058 75.6086 118.056 75.5585Z" fill="black"/>
<path d="M128.434 61.2139C127.99 61.3169 127.543 61.0432 127.437 60.5988C127.331 60.1544 127.607 59.71 128.052 59.6041C128.072 59.5981 135.886 57.6439 139.236 63.9688C139.451 64.3749 139.295 64.8752 138.889 65.0872C138.485 65.302 137.982 65.1461 137.77 64.7399C135.03 59.5658 128.452 61.2081 128.434 61.2139Z" fill="black"/>
<path d="M151.643 68.1771C151.214 68.3331 150.737 68.1124 150.581 67.6827C150.425 67.2501 150.649 66.7762 151.078 66.6203C151.105 66.6114 160.538 63.1003 163.478 68.4686C163.696 68.8718 163.548 69.3721 163.145 69.5928C162.745 69.8107 162.242 69.6635 162.024 69.2603C159.775 65.1575 151.667 68.1683 151.643 68.1771Z" fill="black"/>
<path d="M144.573 71.8742C144.655 71.4239 145.085 71.1266 145.535 71.209C145.985 71.2915 146.283 71.7211 146.2 72.1714C146.197 72.1891 145.005 78.5345 145.7 80.221C145.762 80.374 145.797 80.4563 145.832 80.5388C146.088 81.1391 146.356 81.7808 146.465 82.4606C146.748 84.2618 145.991 85.9512 141.509 86.6546C141.058 86.7252 140.635 86.4132 140.564 85.9629C140.496 85.5126 140.805 85.0888 141.256 85.0182C144.396 84.5267 144.973 83.6349 144.829 82.7138C144.755 82.237 144.525 81.6925 144.308 81.1833C144.252 81.048 144.193 80.9126 144.169 80.8508C143.287 78.7052 144.567 71.8918 144.573 71.8742Z" fill="black"/>
<path d="M130.291 87.7513C129.855 87.607 129.617 87.1391 129.761 86.7035C129.905 86.268 130.373 86.0325 130.809 86.1738C130.832 86.1826 138.57 88.7432 142.987 89.2406C144.721 89.4348 146.472 89.2965 147.891 89.1846C149.262 89.0757 150.348 88.9903 151.049 89.2494C151.911 89.5702 152.235 90.1588 151.849 91.1978C151.802 91.3214 151.743 91.445 151.67 91.5716C151.028 92.6665 148.983 94.2322 146.454 95.2359C143.932 96.2366 140.877 96.7281 138.164 95.7186C137.731 95.5596 137.307 95.3595 136.898 95.1181C131.438 91.9248 130.382 90.3766 130.379 90.3708C130.114 89.9971 130.205 89.4791 130.579 89.2171C130.956 88.9522 131.471 89.0435 131.736 89.4173C131.739 89.4232 132.595 90.6857 137.734 93.6907C138.06 93.882 138.396 94.0409 138.743 94.1675C141.012 95.0121 143.644 94.5707 145.845 93.6965C148.026 92.8312 149.733 91.5862 150.233 90.7504C149.786 90.6975 148.985 90.7623 148.02 90.8388C146.537 90.9565 144.7 91.1007 142.808 90.8888C138.202 90.3706 130.314 87.7601 130.291 87.7513Z" fill="black"/>
<path d="M115.397 59.7881C115.27 60.2266 114.811 60.4827 114.373 60.3561C113.934 60.2295 113.681 59.7734 113.805 59.3349C113.819 59.2877 118.425 43.1622 123.193 41.2051C123.617 41.0315 124.1 41.2316 124.273 41.6554C124.447 42.0792 124.247 42.5619 123.823 42.7355C119.797 44.3866 115.409 59.7439 115.397 59.7881Z" fill="black"/>
<path d="M117.345 48.325C117.572 48.7224 117.433 49.2285 117.036 49.4552C116.639 49.6848 116.132 49.5465 115.903 49.1491C115.897 49.1344 112.974 44.1076 113.089 38.1212C113.098 37.7415 113.172 37.353 113.307 36.9557C114.205 34.3422 118.131 30.8457 123.855 28.0938C129.48 25.3891 136.893 23.3407 144.908 23.4966C149.075 23.579 153.399 24.253 157.713 25.7363C168.921 29.5889 173.041 36.9056 173.877 44.6961C174.701 52.3571 172.299 60.4184 170.41 66.0251C170.263 66.4606 169.795 66.6932 169.359 66.5489C168.926 66.4047 168.694 65.9338 168.838 65.5011C170.681 60.0416 173.018 52.2069 172.229 44.8727C171.455 37.6679 167.62 30.8956 157.175 27.3079C153.022 25.8776 148.869 25.23 144.875 25.1506C137.146 25.0005 129.995 26.9754 124.57 29.5859C119.249 32.1465 115.647 35.2545 114.879 37.4942C114.793 37.7385 114.749 37.9592 114.746 38.1535C114.637 43.666 117.336 48.3102 117.345 48.325Z" fill="black"/>
<path d="M112.183 30.3836C112.539 30.6692 112.601 31.1901 112.315 31.5491C112.03 31.9052 111.509 31.967 111.15 31.6816C111.126 31.6639 103.118 25.4098 108.884 20.6919C110.296 19.5352 111.939 17.5721 113.707 15.4589C118.146 10.1524 123.332 3.9512 128.641 5.89662C131.378 6.90022 134.239 5.02541 137.047 3.18008C140.767 0.74023 144.41 -1.64967 148.275 1.526C151.174 3.90697 155.103 3.75694 158.661 3.62155C162.667 3.47142 166.251 3.33602 168.088 6.48522C169.127 8.26587 171.434 8.97511 174.124 9.8022C178.934 11.2797 184.858 13.1014 188.216 21.7131C190.874 28.5294 191.101 34.6776 189.052 39.9547C186.98 45.2877 182.607 49.6935 176.085 52.9722C175.678 53.1753 175.181 53.0105 174.975 52.6013C174.772 52.1922 174.937 51.6948 175.346 51.4917C181.485 48.4044 185.588 44.2986 187.507 39.3572C189.402 34.4715 189.173 28.7295 186.671 22.3104C183.607 14.4493 178.104 12.7599 173.636 11.3855C170.613 10.4554 168.02 9.66079 166.655 7.31512C165.319 5.02831 162.202 5.14605 158.72 5.27843C154.865 5.42265 150.612 5.58452 147.224 2.80328C144.305 0.404658 141.161 2.46481 137.956 4.56919C134.801 6.63826 131.593 8.74555 128.07 7.45352C123.856 5.90835 119.073 11.6269 114.979 16.5213C113.157 18.7021 111.462 20.7271 109.937 21.9779C105.779 25.3774 112.162 30.369 112.183 30.3836Z" fill="black"/>
<path d="M174.877 22.3546C175.183 22.0161 175.71 21.9925 176.048 22.2986C176.387 22.6077 176.41 23.1315 176.101 23.47C176.09 23.4877 171.222 28.7883 171.015 31.5401C170.983 31.9992 170.589 32.3436 170.13 32.3113C169.673 32.2789 169.329 31.8815 169.361 31.4254C169.609 28.0879 174.862 22.3722 174.877 22.3546Z" fill="black"/>
<path d="M171.763 16.1335C172.019 15.7568 172.534 15.6567 172.911 15.9157C173.29 16.1717 173.387 16.6838 173.131 17.0635L165.464 28.3387C165.208 28.7184 164.693 28.8154 164.317 28.5594C163.937 28.3034 163.84 27.7883 164.096 27.4116L171.763 16.1335Z" fill="black"/>
<path d="M172.522 40.378C172.184 40.6841 171.66 40.6576 171.354 40.3191C171.048 39.9807 171.074 39.4568 171.413 39.1507C171.428 39.1389 175.989 35.0067 177.158 34.1885C177.532 33.9267 178.05 34.0179 178.309 34.3916C178.57 34.7654 178.479 35.2834 178.105 35.5425C177.019 36.3047 172.534 40.3663 172.522 40.378Z" fill="black"/>
<path d="M149.002 10.0171C149.276 9.6492 149.794 9.57268 150.161 9.84346C150.526 10.1172 150.606 10.6351 150.332 11.003C150.317 11.0237 144.925 18.2197 147.009 21.9457C147.23 22.346 147.086 22.8521 146.686 23.0729C146.288 23.2936 145.782 23.1524 145.561 22.752C142.951 18.0813 148.984 10.0376 149.002 10.0171Z" fill="black"/>
<path d="M136.434 15.2056C136.458 14.7495 136.846 14.3963 137.302 14.4169C137.759 14.4404 138.112 14.826 138.091 15.2851C138.088 15.3086 137.679 23.4965 138.739 23.8938C139.168 24.0528 139.386 24.5296 139.227 24.9592C139.065 25.386 138.588 25.6038 138.162 25.4448C135.957 24.6207 136.434 15.2321 136.434 15.2056Z" fill="black"/>
<path d="M116.96 88.4137C117.34 88.1635 117.855 88.2666 118.108 88.6492C118.361 89.0289 118.255 89.5439 117.875 89.797C117.846 89.8147 108.413 95.9982 107.984 104.372C107.975 104.51 107.981 104.666 107.992 104.837C108.357 109.204 115.471 117.354 122.87 124.441C130.216 131.484 137.709 137.417 139.131 137.555C140.549 137.417 144.464 134.927 147.678 131.999C150.05 129.841 151.984 127.499 152.11 125.806C152.446 121.348 151.436 106.005 151.433 105.961C151.404 105.502 151.751 105.11 152.21 105.081C152.666 105.051 153.061 105.399 153.087 105.855C153.09 105.899 154.108 121.365 153.764 125.93C153.602 128.102 151.439 130.822 148.793 133.226C145.332 136.375 140.941 139.071 139.248 139.212C139.198 139.215 139.14 139.215 139.072 139.212C137.409 139.127 129.357 132.952 121.719 125.636C114.09 118.322 106.741 109.808 106.338 104.972C106.321 104.745 106.315 104.516 106.326 104.286C106.8 95.0681 116.931 88.4343 116.96 88.4137Z" fill="black"/>
<path d="M147.597 106.191C147.63 105.735 148.024 105.388 148.48 105.42C148.939 105.45 149.284 105.844 149.254 106.303C149.251 106.312 149.01 110.17 145.575 114.435C143.909 116.501 144.686 120.595 145.44 124.553C146.02 127.603 146.585 130.578 146.076 132.815C145.975 133.262 145.534 133.542 145.087 133.442C144.639 133.342 144.36 132.897 144.46 132.453C144.892 130.549 144.36 127.738 143.812 124.857C142.988 120.53 142.138 116.059 144.283 113.396C147.391 109.54 147.597 106.2 147.597 106.191Z" fill="black"/>
<path d="M122.917 101.978C122.596 101.652 122.602 101.128 122.928 100.807C123.255 100.486 123.779 100.489 124.1 100.816C124.117 100.833 130.295 107.014 130.763 116.126C131.228 125.176 128.847 128.99 128.838 129.002C128.603 129.391 128.094 129.517 127.702 129.279C127.314 129.043 127.187 128.534 127.425 128.146C127.431 128.134 129.547 124.752 129.109 116.211C128.673 107.732 122.934 101.993 122.917 101.978Z" fill="black"/>
<path d="M130.916 135.548C131.36 135.657 131.634 136.104 131.528 136.548C131.419 136.993 130.972 137.267 130.527 137.158C130.474 137.146 112.027 132.59 116.156 142.811C118.537 148.706 120.691 154.378 122.027 159.693C123.378 165.073 123.893 170.097 122.963 174.633C121.18 183.327 121.963 200.768 121.965 200.818C121.983 201.277 121.63 201.662 121.174 201.683C120.715 201.701 120.329 201.348 120.308 200.891C120.308 200.838 119.517 183.2 121.342 174.303C122.216 170.041 121.715 165.256 120.417 160.093C119.102 154.863 116.971 149.26 114.616 143.426C109.272 130.194 130.854 135.533 130.916 135.548Z" fill="black"/>
<path d="M123.711 190.285C123.602 189.84 123.876 189.39 124.321 189.281C124.765 189.172 125.212 189.443 125.321 189.887C125.324 189.896 125.892 192.271 127.161 191.064C127.85 190.408 127.867 189.325 127.529 188.445C127.402 188.107 127.223 187.809 127.011 187.58C126.834 187.386 126.637 187.247 126.44 187.194C126.131 187.109 125.751 187.262 125.336 187.783C125.051 188.142 124.53 188.201 124.171 187.915C123.812 187.63 123.753 187.109 124.038 186.75C124.936 185.623 125.942 185.34 126.867 185.59C127.382 185.729 127.847 186.038 128.232 186.456C128.585 186.841 128.88 187.327 129.08 187.854C129.627 189.281 129.542 191.088 128.303 192.265C124.945 195.459 123.717 190.299 123.711 190.285Z" fill="black"/>
<path d="M152.47 191.862C152.359 191.417 152.632 190.97 153.077 190.861C153.521 190.749 153.968 191.023 154.077 191.467C154.08 191.473 154.648 193.848 155.917 192.642C156.605 191.988 156.623 190.905 156.288 190.022C156.158 189.687 155.979 189.386 155.77 189.157C155.59 188.962 155.393 188.824 155.196 188.771C154.887 188.689 154.507 188.842 154.092 189.36C153.807 189.719 153.286 189.778 152.927 189.495C152.568 189.21 152.509 188.689 152.794 188.33C153.692 187.2 154.698 186.92 155.625 187.167C156.138 187.306 156.603 187.615 156.988 188.035C157.344 188.421 157.636 188.904 157.839 189.43C158.383 190.858 158.298 192.665 157.059 193.842C153.704 197.036 152.473 191.876 152.47 191.862Z" fill="black"/>
<path d="M146.837 148.504C146.728 148.06 146.998 147.613 147.443 147.504C147.887 147.395 148.338 147.666 148.446 148.11C148.446 148.116 149.017 150.491 150.283 149.287C150.972 148.631 150.989 147.548 150.654 146.665C150.524 146.329 150.345 146.029 150.136 145.799C149.956 145.605 149.759 145.467 149.562 145.414C149.256 145.332 148.873 145.485 148.458 146.006C148.173 146.362 147.652 146.423 147.293 146.138C146.937 145.853 146.875 145.332 147.16 144.973C148.061 143.845 149.064 143.563 149.991 143.813C150.507 143.951 150.969 144.257 151.354 144.678C151.71 145.064 152.002 145.546 152.205 146.076C152.749 147.501 152.664 149.308 151.425 150.485C148.07 153.678 146.84 148.519 146.837 148.504Z" fill="black"/>
<path d="M119.548 146.476C119.439 146.032 119.709 145.581 120.154 145.472C120.598 145.363 121.046 145.634 121.157 146.079C121.157 146.087 121.728 148.46 122.994 147.256C123.683 146.6 123.7 145.516 123.365 144.636C123.235 144.298 123.056 144.001 122.847 143.771C122.667 143.574 122.47 143.439 122.273 143.386C121.967 143.3 121.584 143.453 121.169 143.974C120.884 144.333 120.363 144.392 120.004 144.107C119.647 143.821 119.586 143.3 119.871 142.941C120.769 141.814 121.775 141.532 122.702 141.782C123.218 141.92 123.68 142.229 124.065 142.647C124.421 143.033 124.713 143.515 124.916 144.045C125.46 145.472 125.375 147.28 124.136 148.457C120.781 151.65 119.55 146.491 119.548 146.476Z" fill="black"/>
<path d="M159.139 172.814C158.683 172.814 158.312 172.443 158.312 171.987C158.312 171.531 158.683 171.16 159.139 171.16C159.172 171.16 170.341 171.16 172.284 171.887C172.713 172.049 172.931 172.526 172.772 172.953C172.61 173.382 172.136 173.6 171.707 173.438C170.044 172.814 159.172 172.814 159.139 172.814Z" fill="black"/>
<path d="M103.804 102.429C104.231 102.261 104.713 102.473 104.878 102.899C105.046 103.326 104.834 103.806 104.407 103.974C104.363 103.991 88.3496 110.307 82.1837 111.676C80.7446 111.997 79.2464 112.12 77.6954 112.247C72.6185 112.668 66.9412 113.133 63.1269 120.929C60.1602 126.992 50.6067 137.455 40.8237 148.171C33.2187 156.5 25.4752 164.982 20.6544 171.575C18.7178 174.224 16.6899 176.823 14.7269 179.345C5.82978 190.761 -1.7754 200.524 3.34279 209.7C9.48222 220.711 17.5435 216.263 17.567 216.249C17.9702 216.034 18.4705 216.187 18.6854 216.59C18.9002 216.994 18.7472 217.494 18.344 217.709C18.3175 217.723 8.83476 222.947 1.89482 210.504C-3.756 200.371 4.16106 190.211 13.4202 178.326C15.3539 175.845 17.3463 173.288 19.3153 170.595C24.195 163.926 31.965 155.414 39.5995 147.055C49.3061 136.422 58.7859 126.039 61.6408 120.202C65.873 111.555 72.0418 111.049 77.5603 110.593C79.073 110.469 80.5358 110.349 81.8278 110.06C87.8404 108.724 103.76 102.446 103.804 102.429Z" fill="black"/>
<path d="M29.0929 200.397C29.034 199.944 29.3549 199.529 29.8081 199.47C30.2613 199.411 30.6763 199.732 30.7351 200.185C30.744 200.238 33.1544 219.074 37.5161 220.596C37.9488 220.746 38.1754 221.22 38.0253 221.649C37.8752 222.082 37.4043 222.312 36.9716 222.159C31.6357 220.299 29.1017 200.456 29.0929 200.397Z" fill="black"/>
<path d="M33.7172 206.785C33.4347 207.144 32.9108 207.203 32.5547 206.917C32.1956 206.632 32.1368 206.111 32.4222 205.752C32.4634 205.702 46.77 187.646 49.3512 186.663C49.6279 186.557 49.7603 186.463 49.7838 186.386C49.7867 186.368 49.7779 186.336 49.7573 186.289C49.7014 186.171 49.5955 186.047 49.4484 185.924C48.8951 185.468 47.9239 185.159 46.8378 185.326C45.2986 185.562 43.0147 184.829 40.4659 184.011C37.6847 183.119 34.5679 182.115 32.1103 182.289C29.6175 182.463 25.5294 185.356 22.2478 189.609C19.6196 193.017 17.5594 197.278 17.321 201.687C17.0178 207.268 17.945 213.539 20.5026 218.287C22.5333 222.057 25.606 224.856 29.9236 225.521C34.8828 226.283 37.7759 226.333 39.1238 225.68C40.0921 225.206 39.9951 224.064 39.1915 222.283C39.0032 221.865 39.1915 221.374 39.6065 221.186C40.0244 220.997 40.516 221.186 40.7043 221.604C41.9315 224.332 41.8904 226.177 39.8419 227.172C38.1761 227.981 34.9799 227.978 29.6763 227.16C24.773 226.407 21.3089 223.278 19.0426 219.072C16.332 214.043 15.349 207.45 15.6669 201.602C15.9259 196.819 18.1303 192.24 20.938 188.596C24.4934 183.984 29.0906 180.835 31.9984 180.632C34.765 180.441 38.0465 181.494 40.972 182.433C43.3206 183.187 45.4249 183.864 46.5904 183.684C48.1709 183.44 49.6366 183.934 50.4989 184.646C50.8403 184.929 51.1022 185.253 51.2612 185.594C51.4525 186.006 51.4996 186.436 51.373 186.86C51.2052 187.419 50.7491 187.905 49.9427 188.214C47.7855 189.035 33.7584 206.735 33.7172 206.785Z" fill="black"/>
<path d="M34.4195 214.622C33.978 214.746 33.5218 214.487 33.3983 214.048C33.2746 213.607 33.5308 213.148 33.9722 213.024C34.0635 213 65.5934 204.071 70.0493 204.657C70.5025 204.718 70.8234 205.133 70.7645 205.587C70.7056 206.04 70.2877 206.358 69.8344 206.299C65.7228 205.757 34.5107 214.596 34.4195 214.622Z" fill="black"/>
<path d="M42.7328 222.995C42.2766 222.977 41.9205 222.592 41.9381 222.135C41.9558 221.679 42.3413 221.323 42.7975 221.341C42.8328 221.341 55.25 221.95 50.9088 211.546C50.7322 211.125 50.9324 210.639 51.3562 210.463C51.7771 210.289 52.2627 210.489 52.4394 210.91C57.7929 223.736 42.777 222.998 42.7328 222.995Z" fill="black"/>
<path d="M79.6071 198.679C80.0634 198.723 80.3959 199.129 80.3488 199.582C80.3047 200.038 79.9014 200.371 79.4453 200.327C79.404 200.321 64.8561 198.832 64.6677 199.776C64.6618 199.797 64.6589 199.809 64.6589 199.815C64.6383 200.13 65.0621 200.495 65.636 200.827C66.3835 201.26 67.3459 201.575 68.1377 201.734C68.3966 201.787 68.6262 201.819 68.8116 201.831C70.4892 201.948 87.4358 204.482 87.483 204.488C87.9362 204.556 88.2511 204.977 88.1834 205.43C88.1186 205.883 87.6978 206.195 87.2446 206.131C87.1945 206.122 70.295 203.597 68.7027 203.488C68.432 203.467 68.1288 203.426 67.811 203.361C66.878 203.176 65.7242 202.793 64.806 202.26C63.717 201.633 62.9312 200.774 63.0048 199.706C63.0107 199.614 63.0224 199.529 63.0372 199.453C63.5258 197.016 79.56 198.673 79.6071 198.679Z" fill="black"/>
<path d="M81.6811 200.622C81.3133 200.351 81.2337 199.833 81.5045 199.465C81.7753 199.094 82.2933 199.015 82.6611 199.286C82.6847 199.303 90.8519 205.307 91.058 207.253C91.108 207.706 90.7784 208.115 90.3222 208.165C89.866 208.212 89.4599 207.882 89.4098 207.426C89.2803 206.217 81.7047 200.639 81.6811 200.622Z" fill="black"/>
<path d="M87.1108 208.588C86.7017 208.388 86.531 207.891 86.7341 207.478C86.9372 207.069 87.4347 206.902 87.8437 207.105C87.8673 207.114 95.543 210.945 95.5018 207.346C95.4488 202.746 87.6083 195.447 87.5876 195.426C87.2521 195.111 87.2374 194.588 87.5494 194.255C87.8643 193.922 88.3882 193.905 88.7208 194.22C88.7473 194.24 97.097 202.01 97.1558 207.331C97.2293 213.656 87.1403 208.603 87.1108 208.588Z" fill="black"/>
<path d="M93.733 193.458C93.4298 193.117 93.4593 192.593 93.7977 192.29C94.1391 191.984 94.6631 192.013 94.9661 192.355C94.9926 192.384 103.969 202.341 103.401 205.89C103.281 206.638 103.095 207.376 102.848 208.062C102.436 209.189 101.844 210.187 101.058 210.873C100.205 211.62 99.1542 211.994 97.8946 211.794C97.6032 211.747 97.306 211.668 96.9999 211.559C96.5701 211.403 96.3465 210.926 96.5025 210.496C96.6584 210.066 97.1352 209.846 97.5649 210.002C97.7738 210.075 97.9711 210.128 98.1535 210.158C98.8746 210.272 99.478 210.058 99.9695 209.628C100.529 209.136 100.97 208.377 101.288 207.497C101.503 206.908 101.662 206.276 101.765 205.631C102.209 202.868 93.7594 193.485 93.733 193.458Z" fill="black"/>
<path d="M101.47 191.194C101.202 190.823 101.284 190.305 101.652 190.037C102.023 189.769 102.538 189.849 102.809 190.22C102.833 190.252 111.106 201.551 111.7 205.759C111.948 207.519 111.477 208.856 110.726 209.847C109.525 211.44 107.574 212.093 106.844 212.217C105.387 212.458 102.894 209.771 102.886 209.765C102.574 209.43 102.594 208.906 102.927 208.594C103.262 208.282 103.786 208.299 104.098 208.635C104.104 208.641 105.996 210.677 106.57 210.58C107.103 210.492 108.522 210.015 109.405 208.847C109.914 208.17 110.235 207.24 110.058 205.986C109.522 202.189 101.493 191.223 101.47 191.194Z" fill="black"/>
<path d="M112.048 209.224C111.753 208.874 111.8 208.35 112.151 208.056C112.501 207.761 113.025 207.808 113.319 208.162C113.325 208.168 115.306 210.566 116.589 208.868C117.307 207.917 116.851 204.992 115.897 201.857C114.776 198.158 112.954 194.291 111.488 192.881C110.482 191.916 109.578 190.465 108.634 188.949C106.8 186.009 104.796 182.792 102.094 183.395C101.096 183.619 100.154 183.816 99.1861 184.022C94.9155 184.92 90.1006 185.935 89.0823 186.953C87.3724 188.663 53.8617 188.545 53.7645 188.545C53.3083 188.545 52.9375 188.175 52.9375 187.718C52.9375 187.262 53.3084 186.891 53.7645 186.891C53.8587 186.891 86.6866 187 87.9079 185.779C89.2706 184.416 94.3475 183.345 98.8476 182.397C99.9043 182.176 100.931 181.959 101.735 181.779C105.582 180.92 107.912 184.658 110.04 188.072C110.932 189.502 111.786 190.868 112.636 191.689C114.29 193.278 116.289 197.446 117.481 201.378C118.57 204.962 118.988 208.447 117.91 209.869C115.359 213.244 112.056 209.236 112.048 209.224Z" fill="black"/>
<path d="M73.2995 139.236C73.482 138.818 73.9706 138.627 74.3914 138.809C74.8093 138.992 75.0006 139.48 74.8181 139.898C74.8122 139.916 72.2076 145.773 73.5261 155.011C74.5179 161.945 66.1447 173.25 60.9735 180.231C58.8486 183.104 57.2946 185.199 57.2946 185.576C57.2946 186.032 56.9267 186.403 56.4676 186.403C56.0114 186.403 55.6406 186.032 55.6406 185.576C55.6406 184.652 57.33 182.371 59.6433 179.245C64.6584 172.473 72.7815 161.507 71.8867 155.247C70.5006 145.54 73.2937 139.254 73.2995 139.236Z" fill="black"/>
<path d="M53.8563 152.459C53.9593 152.014 54.4067 151.735 54.8511 151.841C55.2985 151.944 55.5751 152.388 55.4721 152.836C55.4545 152.903 49.9124 176.525 53.1146 181.761C53.353 182.152 53.2293 182.661 52.8409 182.9C52.4495 183.138 51.9403 183.015 51.7019 182.623C48.1407 176.805 53.8387 152.529 53.8563 152.459Z" fill="black"/>
<path d="M75.5514 177.049C75.9016 176.751 76.4255 176.796 76.7198 177.146C77.0141 177.496 76.9729 178.017 76.6227 178.314C76.605 178.329 70.8835 183.17 70.2861 184.365C70.083 184.774 69.5857 184.939 69.1765 184.736C68.7674 184.53 68.6025 184.036 68.8056 183.627C69.5621 182.117 75.5337 177.063 75.5514 177.049Z" fill="black"/>
<path d="M118.787 205.684C118.334 205.628 118.007 205.216 118.06 204.763C118.113 204.306 118.528 203.98 118.982 204.036C119.055 204.044 144.575 207.079 151.736 207.414C152.53 207.452 153.54 207.488 154.744 207.529C159.47 207.694 167.12 207.962 173.962 208.721C182.53 209.675 189.911 211.493 189.511 215.099C188.775 221.718 185.129 222.892 185.117 222.895C184.684 223.042 184.213 222.81 184.066 222.377C183.919 221.945 184.152 221.474 184.587 221.327C184.593 221.324 187.245 220.476 187.863 214.916C188.119 212.606 181.47 211.223 173.78 210.369C166.964 209.613 159.379 209.348 154.691 209.183C153.446 209.139 152.401 209.104 151.665 209.068C144.39 208.727 118.861 205.693 118.787 205.684Z" fill="black"/>
<path d="M118.934 211.322C118.475 211.29 118.134 210.893 118.166 210.433C118.201 209.977 118.599 209.636 119.055 209.668C119.161 209.677 155.706 212.497 161.342 214.566C164.112 215.584 167.579 216.823 170.513 217.771C173.383 218.695 175.737 219.354 176.388 219.26C176.841 219.195 177.262 219.51 177.326 219.963C177.391 220.416 177.073 220.837 176.62 220.902C175.693 221.035 173.085 220.34 170.007 219.348C166.993 218.377 163.526 217.135 160.771 216.122C155.353 214.133 119.037 211.331 118.934 211.322Z" fill="black"/>
<path d="M149.465 209.065C149.506 208.609 149.912 208.276 150.366 208.32C150.822 208.362 151.154 208.765 151.113 209.221L150.886 211.531C150.842 211.988 150.439 212.323 149.986 212.279C149.53 212.235 149.194 211.831 149.238 211.378L149.465 209.065Z" fill="black"/>
<path d="M177.58 219.605C177.438 219.169 177.677 218.702 178.113 218.56C178.548 218.419 179.016 218.657 179.157 219.093C179.163 219.116 181.918 227.372 180.997 236.457C180.953 236.914 180.547 237.246 180.09 237.199C179.637 237.155 179.305 236.749 179.349 236.296C180.232 227.563 177.589 219.629 177.58 219.605Z" fill="black"/>
<path d="M182.391 221.62C182.382 221.164 182.747 220.784 183.203 220.776C183.659 220.767 184.036 221.129 184.048 221.588L184.383 237.148C184.392 237.604 184.03 237.984 183.574 237.993C183.118 238.002 182.738 237.637 182.729 237.181L182.391 221.62Z" fill="black"/>
<path d="M178.421 228.443C178.88 228.414 179.274 228.761 179.304 229.217C179.336 229.673 178.989 230.068 178.533 230.1C178.383 230.109 126.642 233.541 127.407 236.51C127.413 236.528 127.734 236.575 128.349 236.749C133.288 238.126 149.716 238.859 166.481 238.85C183.254 238.841 200.312 238.088 206.493 236.498C207.649 236.201 208.309 235.969 208.35 235.819C209.418 231.99 186.185 231.23 186.12 231.227C185.661 231.213 185.305 230.83 185.317 230.374C185.331 229.918 185.714 229.558 186.17 229.573C186.244 229.573 211.587 230.386 209.948 236.257C209.727 237.043 208.659 237.652 206.902 238.102C200.586 239.727 183.365 240.495 166.481 240.504C149.59 240.513 132.982 239.759 127.908 238.344C126.692 238.005 125.962 237.535 125.803 236.919C124.538 231.996 178.268 228.455 178.421 228.443Z" fill="black"/>
<path d="M125.787 239.068C125.732 238.612 126.058 238.2 126.514 238.147C126.968 238.091 127.38 238.417 127.436 238.874C127.442 238.93 129.761 259.249 140.047 266.251C144.918 269.568 152.614 271.448 160.852 272.105C170.123 272.846 180.039 272.031 187.393 269.971C194.204 268.064 200.017 261.651 203.943 255.026C207.854 248.427 209.882 241.714 209.146 239.08C209.023 238.641 209.279 238.182 209.72 238.058C210.162 237.935 210.618 238.191 210.741 238.632C211.583 241.637 209.496 248.907 205.37 255.87C201.273 262.784 195.157 269.491 187.9 271.548C187.861 271.563 187.823 271.575 187.785 271.584C180.256 273.682 170.149 274.512 160.72 273.759C152.226 273.082 144.241 271.113 139.111 267.619C128.195 260.188 125.793 239.127 125.787 239.068Z" fill="black"/>
<path d="M132.235 248.592C131.779 248.589 131.411 248.215 131.414 247.759C131.417 247.302 131.791 246.935 132.25 246.938C132.297 246.938 149.27 247.052 153.567 251.232C155.389 253 161.178 252.344 166.917 251.691C172.586 251.046 178.213 250.405 180.75 252.159C183.334 253.942 188.97 252.356 193.632 251.04C196.79 250.149 199.536 249.375 201.023 249.787C201.464 249.907 201.723 250.364 201.602 250.805C201.479 251.246 201.023 251.506 200.581 251.382C199.545 251.096 197.002 251.812 194.08 252.636C189.079 254.045 183.037 255.75 179.808 253.522C177.784 252.123 172.462 252.73 167.1 253.339C160.975 254.037 154.8 254.737 152.414 252.418C148.593 248.703 132.282 248.592 132.235 248.592Z" fill="black"/>
<path d="M54.06 224.958C54.0747 224.502 54.4573 224.143 54.9164 224.161C55.3727 224.176 55.7288 224.558 55.714 225.017C55.7081 225.144 54.1277 269.709 51.0344 273.753C50.7577 274.118 50.2368 274.185 49.8719 273.909C49.5098 273.632 49.4392 273.111 49.7159 272.746C52.4883 269.123 54.0541 225.085 54.06 224.958Z" fill="black"/>
<path d="M27.8898 277.007C27.4336 277.046 27.0333 276.707 26.9951 276.248C26.9569 275.792 27.2983 275.392 27.7544 275.353L139.506 266.106C139.962 266.071 140.362 266.409 140.4 266.865C140.439 267.324 140.097 267.725 139.641 267.763L27.8898 277.007Z" fill="black"/>
<path d="M120.366 214.144C120.374 213.688 120.754 213.323 121.21 213.332C121.666 213.341 122.031 213.721 122.022 214.177C122.02 214.312 120.972 261.332 116.113 265.744C115.774 266.053 115.25 266.026 114.941 265.688C114.635 265.349 114.659 264.825 114.997 264.516C119.33 260.584 120.363 214.277 120.366 214.144Z" fill="black"/>
<path d="M121.588 244.302C121.226 244.023 121.158 243.505 121.438 243.143C121.718 242.781 122.239 242.713 122.601 242.993C122.607 242.996 124.419 244.402 124.89 243.658C125.22 243.134 124.843 241.759 124.258 240.729C124.09 240.432 123.907 240.179 123.722 239.994C123.593 239.864 123.481 239.779 123.398 239.764H123.395C123.384 239.761 123.345 239.802 123.272 239.905C123.001 240.276 122.486 240.356 122.115 240.088C121.747 239.82 121.665 239.302 121.933 238.934C122.45 238.225 123.071 238.01 123.728 238.142C124.149 238.228 124.54 238.472 124.89 238.819C125.185 239.114 125.461 239.49 125.7 239.911C126.527 241.374 126.942 243.508 126.291 244.541C124.843 246.839 121.597 244.311 121.588 244.302Z" fill="black"/>
<path d="M167.492 220.692C167.341 220.26 167.568 219.786 168.001 219.636C168.433 219.486 168.904 219.715 169.054 220.145C169.06 220.157 170.449 224.086 170.679 227.005C170.714 227.465 170.373 227.862 169.917 227.9C169.461 227.936 169.06 227.594 169.025 227.138C168.81 224.418 167.495 220.701 167.492 220.692Z" fill="black"/>
<path d="M154.399 117.249C153.96 117.125 153.704 116.666 153.828 116.224C153.955 115.783 154.414 115.527 154.855 115.653C154.867 115.656 159.682 116.981 162.448 121.79C164.017 124.518 167.987 126.634 172.382 128.977C174.833 130.284 177.411 131.658 179.784 133.239C183.245 135.546 185.846 137.459 187.595 140.067C189.355 142.692 190.191 145.938 190.073 150.865C189.979 154.771 191.297 161.575 193.072 168.63C195.515 178.348 198.808 188.484 200.489 192.231C202.872 197.549 200.942 203.274 199.397 207.862C198.952 209.178 198.543 210.393 198.284 211.479C197.183 216.109 197.628 226.56 197.628 226.589C197.645 227.046 197.289 227.431 196.833 227.449C196.377 227.466 195.991 227.11 195.974 226.654C195.971 226.625 195.517 215.935 196.668 211.094C196.933 209.981 197.363 208.71 197.825 207.335C199.282 203.018 201.098 197.635 198.976 192.905C197.266 189.085 193.925 178.828 191.462 169.033C189.661 161.861 188.321 154.906 188.419 150.824C188.527 146.277 187.783 143.325 186.217 140.988C184.64 138.633 182.167 136.823 178.862 134.622C176.502 133.047 173.991 131.708 171.601 130.437C166.989 127.979 162.819 125.754 161.015 122.614C158.593 118.402 154.411 117.255 154.399 117.249Z" fill="black"/>
<path d="M177.031 149.719C177.028 149.262 177.399 148.889 177.855 148.889C178.311 148.886 178.685 149.257 178.685 149.713C178.688 149.78 178.915 172.931 174.297 181.24C169.9 189.154 170.565 205.571 170.568 205.618C170.583 206.074 170.227 206.457 169.77 206.474C169.311 206.489 168.929 206.133 168.911 205.677C168.911 205.627 168.225 188.759 172.849 180.436C177.255 172.51 177.031 149.783 177.031 149.719Z" fill="black"/>
<path d="M182.442 155.362C182.44 154.906 182.807 154.532 183.264 154.529C183.72 154.523 184.094 154.891 184.097 155.348C184.099 155.4 184.329 173.713 176.662 182.074C176.356 182.413 175.832 182.436 175.497 182.127C175.158 181.818 175.135 181.294 175.444 180.959C182.663 173.083 182.442 155.412 182.442 155.362Z" fill="black"/>
<path d="M184.177 207.69C183.794 207.943 183.282 207.84 183.029 207.458C182.776 207.075 182.879 206.563 183.262 206.31C183.288 206.292 192.4 200.215 195.279 201.259C195.708 201.415 195.932 201.892 195.776 202.322C195.62 202.752 195.143 202.972 194.714 202.816C192.63 202.06 184.201 207.675 184.177 207.69Z" fill="black"/>
<path fill-rule="evenodd" clip-rule="evenodd" d="M133.966 66.1433L135.244 66.314C136.215 66.4434 136.901 67.3471 136.771 68.3183L136.353 71.4203C136.224 72.3915 135.32 73.0773 134.349 72.9477L133.074 72.777C132.103 72.6447 131.417 71.7441 131.547 70.7727L131.965 67.6706C132.094 66.6995 132.998 66.0108 133.966 66.1433Z" fill="black"/>
<path fill-rule="evenodd" clip-rule="evenodd" d="M155.06 69.696L156.334 69.8667C157.306 69.9963 157.994 70.8998 157.862 71.8681L157.447 74.9731C157.314 75.9414 156.414 76.63 155.443 76.5006L154.168 76.327C153.197 76.1975 152.511 75.2969 152.641 74.3256L153.059 71.2235C153.188 70.2522 154.089 69.5635 155.06 69.696Z" fill="black"/>
</svg>
