<svg width="269" height="350" viewBox="0 0 269 350" fill="none" xmlns="http://www.w3.org/2000/svg">
<path d="M259.328 76.8066H42.4862C37.7002 76.8066 33.8203 80.6065 33.8203 85.2938V230.896C33.8203 235.583 37.7002 239.383 42.4862 239.383H259.328C264.114 239.383 267.994 235.583 267.994 230.896V85.2938C267.994 80.6065 264.114 76.8066 259.328 76.8066Z" fill="white"/>
<path d="M259.324 239.676H42.4824C37.5424 239.676 33.5234 235.737 33.5234 230.896V85.2937C33.5234 80.4522 37.5424 76.5137 42.4824 76.5137H259.324C264.264 76.5137 268.283 80.4523 268.283 85.2937V230.896C268.283 235.737 264.264 239.676 259.324 239.676ZM42.4824 77.0995C37.8654 77.0995 34.1093 80.7755 34.1093 85.2937V230.896C34.1093 235.414 37.8654 239.09 42.4824 239.09H259.324C263.941 239.09 267.697 235.414 267.697 230.896V85.2937C267.697 80.7755 263.941 77.0995 259.324 77.0995H42.4824Z" fill="black"/>
<path d="M43.5989 234.63C40.7183 234.63 38.375 232.349 38.375 229.546V86.3551C38.375 83.552 40.7184 81.2715 43.5989 81.2715H258.206C261.087 81.2715 263.43 83.552 263.43 86.3551V229.546C263.43 232.349 261.087 234.63 258.206 234.63H43.5989Z" fill="white"/>
<path d="M258.21 234.923H43.6026C40.5607 234.923 38.0859 232.511 38.0859 229.546V86.3549C38.0859 83.3904 40.5607 80.9785 43.6026 80.9785H258.21C261.252 80.9785 263.727 83.3904 263.727 86.3549V229.546C263.727 232.511 261.252 234.923 258.21 234.923ZM43.6026 81.5643C40.8838 81.5643 38.6717 83.7133 38.6717 86.3548V229.546C38.6717 232.188 40.8838 234.337 43.6026 234.337H258.21C260.929 234.337 263.141 232.188 263.141 229.546V86.3549C263.141 83.7133 260.929 81.5644 258.21 81.5644L43.6026 81.5643Z" fill="black"/>
<path d="M235.612 155.687C235.612 156.758 234.743 157.627 233.671 157.627H200.01C198.939 157.627 198.07 156.758 198.07 155.687C198.07 154.615 198.939 153.746 200.01 153.746H233.671C234.743 153.746 235.612 154.615 235.612 155.687Z" fill="black"/>
<path d="M197.93 122.37C197.93 121.144 198.926 120.146 200.152 120.146H236.83C238.055 120.146 239.053 121.144 239.053 122.37C239.053 123.595 238.055 124.593 236.83 124.593H200.152C198.926 124.593 197.93 123.595 197.93 122.37Z" fill="black"/>
<path d="M197.789 139.426C197.789 138.201 198.786 137.203 200.011 137.203H245.515C246.741 137.203 247.739 138.201 247.739 139.426C247.739 140.652 246.741 141.65 245.515 141.65H200.011C198.786 141.65 197.789 140.652 197.789 139.426Z" fill="black"/>
<path d="M198.875 94.3502C198.875 93.1246 199.873 92.127 201.098 92.127H222.578C223.804 92.127 224.802 93.1246 224.802 94.3502C224.802 95.5758 223.804 96.5734 222.578 96.5734H201.098C199.873 96.5734 198.875 95.5759 198.875 94.3502Z" fill="black"/>
<path d="M197.93 105.454C197.93 104.228 198.926 103.23 200.152 103.23H254.945C256.171 103.23 257.168 104.228 257.168 105.454C257.168 106.679 256.171 107.677 254.945 107.677H200.152C198.926 107.677 197.93 106.679 197.93 105.454Z" fill="black"/>
<path d="M150.812 98.9473H107.11C105.769 98.9473 104.672 100.044 104.672 101.385V117.197C104.672 118.476 105.831 119.67 107.11 119.67L112.504 119.602L114.726 124.764C114.843 125.036 115.227 125.037 115.347 124.767L117.591 119.67H151.053C152.196 119.67 153.122 118.744 153.122 117.601V101.257C153.122 99.9812 152.088 98.9473 150.812 98.9473Z" fill="white"/>
<path d="M146.959 106.82H112.035C111.873 106.82 111.742 106.689 111.742 106.527C111.742 106.365 111.873 106.234 112.035 106.234H146.959C147.121 106.234 147.252 106.365 147.252 106.527C147.252 106.689 147.121 106.82 146.959 106.82Z" fill="black"/>
<path d="M146.955 111.488H139.652C139.491 111.488 139.359 111.357 139.359 111.195C139.359 111.033 139.491 110.902 139.652 110.902H146.955C147.116 110.902 147.248 111.033 147.248 111.195C147.248 111.357 147.116 111.488 146.955 111.488Z" fill="black"/>
<path d="M134.99 111.488H112.035C111.873 111.488 111.742 111.357 111.742 111.195C111.742 111.033 111.873 110.902 112.035 110.902H134.99C135.151 110.902 135.283 111.033 135.283 111.195C135.283 111.357 135.152 111.488 134.99 111.488Z" fill="black"/>
<path d="M115.041 125.262C115.04 125.262 115.039 125.262 115.038 125.262C114.783 125.26 114.561 125.114 114.461 124.88L112.316 119.897L107.117 119.963C105.685 119.963 104.383 118.644 104.383 117.197V101.385C104.383 99.8793 105.608 98.6543 107.114 98.6543H150.816C152.251 98.6543 153.418 99.8214 153.418 101.256V117.601C153.418 118.903 152.359 119.963 151.057 119.963H117.786L115.618 124.885C115.516 125.117 115.295 125.262 115.041 125.262ZM112.508 119.309C112.624 119.309 112.73 119.379 112.777 119.486L114.999 124.648C115.002 124.656 115.011 124.676 115.04 124.676C115.04 124.676 115.04 124.676 115.041 124.676C115.07 124.676 115.079 124.656 115.082 124.649L117.327 119.552C117.374 119.445 117.479 119.377 117.595 119.377H151.057C152.036 119.377 152.833 118.58 152.833 117.602V101.257C152.833 100.145 151.928 99.2403 150.816 99.2403H107.114C105.931 99.2403 104.969 100.203 104.969 101.385V117.197C104.969 118.318 106.011 119.377 107.114 119.377L112.504 119.309C112.505 119.309 112.506 119.309 112.508 119.309Z" fill="black"/>
<path d="M176.488 138.047H132.783C131.518 138.047 130.492 139.072 130.492 140.337V156.442C130.492 157.722 131.54 158.769 132.82 158.769H166.509L169.568 163.178C170.04 163.858 171.092 163.671 171.3 162.87L172.366 158.769H176.726C177.95 158.769 178.942 157.777 178.942 156.553V140.501C178.942 139.151 177.838 138.047 176.488 138.047Z" fill="white"/>
<path d="M172.631 146.066H137.707C137.545 146.066 137.414 145.935 137.414 145.773C137.414 145.612 137.545 145.48 137.707 145.48H172.631C172.793 145.48 172.924 145.612 172.924 145.773C172.924 145.935 172.793 146.066 172.631 146.066Z" fill="black"/>
<path d="M172.627 150.732H165.324C165.162 150.732 165.031 150.601 165.031 150.439C165.031 150.277 165.162 150.146 165.324 150.146H172.627C172.789 150.146 172.92 150.278 172.92 150.439C172.92 150.601 172.789 150.732 172.627 150.732Z" fill="black"/>
<path d="M160.662 150.732H137.707C137.545 150.732 137.414 150.601 137.414 150.439C137.414 150.277 137.545 150.146 137.707 150.146H160.662C160.824 150.146 160.955 150.278 160.955 150.439C160.955 150.601 160.824 150.732 160.662 150.732Z" fill="black"/>
<path d="M170.407 164.188C170.035 164.188 169.688 164.009 169.469 163.694L166.357 159.209H132.784C131.279 159.209 130.055 157.984 130.055 156.48V140.63C130.055 139.125 131.279 137.9 132.784 137.9H176.489C177.923 137.9 179.09 139.067 179.09 140.501V156.846C179.09 158.149 178.03 159.209 176.727 159.209H172.594L171.523 163.329C171.409 163.768 171.06 164.09 170.613 164.17C170.544 164.182 170.475 164.188 170.407 164.188ZM132.784 138.486C131.602 138.486 130.64 139.448 130.64 140.629V156.479C130.64 157.661 131.602 158.623 132.784 158.623H166.51C166.606 158.623 166.696 158.67 166.751 158.749L169.95 163.36C170.079 163.545 170.287 163.632 170.511 163.593C170.733 163.553 170.899 163.399 170.956 163.181L172.084 158.842C172.118 158.713 172.234 158.623 172.368 158.623H176.727C177.707 158.623 178.504 157.825 178.504 156.845V140.501C178.504 139.39 177.6 138.486 176.489 138.486H132.784V138.486Z" fill="black"/>
<path d="M251.024 169.709H201.899C199.96 169.709 198.383 171.286 198.383 173.224V223.144C198.383 225.082 199.96 226.659 201.899 226.659H251.024C252.963 226.659 254.539 225.082 254.539 223.144V173.224C254.539 171.286 252.963 169.709 251.024 169.709ZM253.953 223.144C253.953 224.759 252.639 226.073 251.024 226.073H201.899C200.283 226.073 198.969 224.759 198.969 223.144V173.224C198.969 171.609 200.283 170.295 201.899 170.295H251.024C252.639 170.295 253.953 171.609 253.953 173.224V223.144Z" fill="black"/>
<path d="M250.269 215.468C250 215.893 249.541 216.148 249.039 216.152L204.227 216.513H204.214C203.676 216.513 203.198 216.234 202.934 215.764C202.667 215.291 202.68 214.732 202.965 214.271L211.739 200.077C211.973 199.701 212.358 199.451 212.798 199.393C213.238 199.335 213.675 199.477 213.998 199.781L222.043 207.377C222.232 207.555 222.487 207.642 222.746 207.612C223.005 207.584 223.236 207.446 223.381 207.23L236.081 188.504C236.382 188.06 236.881 187.822 237.415 187.864C237.95 187.908 238.404 188.225 238.629 188.711L250.361 214.066C250.571 214.521 250.537 215.045 250.269 215.468Z" fill="black"/>
<path d="M226.614 188.209C225.816 190.748 223.11 192.16 220.571 191.362C218.032 190.563 216.621 187.858 217.418 185.319C218.216 182.78 220.921 181.369 223.461 182.166C226 182.964 227.412 185.669 226.614 188.209Z" fill="black"/>
<path d="M45.5993 93.6168C45.1631 93.548 44.8189 93.2039 44.75 92.7676C44.9528 93.1202 45.2468 93.414 45.5993 93.6168Z" fill="white"/>
<path d="M44.75 90.0787C44.8197 89.6415 45.1639 89.2973 45.6011 89.2285C45.2476 89.4314 44.9537 89.7253 44.75 90.0787Z" fill="white"/>
<path d="M44.739 90.2408C44.739 90.185 44.7437 90.1311 44.752 90.0781C44.5568 90.4155 44.4453 90.8068 44.4453 91.2241V91.621C44.4453 92.0374 44.5569 92.4296 44.752 92.767C44.7436 92.714 44.739 92.6592 44.739 92.6043V90.2408Z" fill="black"/>
<path d="M45.3208 100.77C44.8828 100.701 44.5367 100.356 44.4688 99.918C44.6715 100.272 44.9664 100.567 45.3208 100.77Z" fill="white"/>
<path d="M44.4688 97.2349C44.5375 96.7968 44.8826 96.4517 45.3208 96.3828C44.9664 96.5857 44.6715 96.8805 44.4688 97.2349Z" fill="white"/>
<path d="M44.4569 97.3932C44.4569 97.3384 44.4615 97.2854 44.4698 97.2324C44.2755 97.5689 44.1641 97.9592 44.1641 98.3756V98.7734C44.1641 99.1898 44.2756 99.5802 44.4698 99.9166C44.4614 99.8646 44.4569 99.8116 44.4569 99.7568V97.3932Z" fill="black"/>
<path d="M74.7887 98.3767V98.7745C74.7887 99.1909 74.6771 99.5812 74.4829 99.9177C74.4151 100.355 74.0693 100.7 73.6315 100.769C73.2941 100.963 72.9037 101.075 72.4873 101.075H46.4696C46.0532 101.075 45.6628 100.963 45.3253 100.769C44.9713 100.567 44.6766 100.272 44.4739 99.9177C44.4655 99.8656 44.4609 99.8127 44.4609 99.7578V97.3942C44.4609 97.3393 44.4656 97.2863 44.4739 97.2334C44.6765 96.8792 44.9712 96.5846 45.3253 96.3819C45.6627 96.1877 46.0531 96.0762 46.4696 96.0762H72.4873C72.9037 96.0762 73.2941 96.1877 73.6315 96.3819C74.0692 96.4508 74.4141 96.7955 74.4829 97.2334C74.6771 97.5698 74.7887 97.9603 74.7887 98.3767Z" fill="black"/>
<path d="M44.7473 92.7662C44.7389 92.7132 44.7344 92.6583 44.7344 92.6035V90.2399C44.7344 90.1841 44.739 90.1302 44.7473 90.0772C44.9509 89.724 45.2446 89.4302 45.5978 89.2276C45.9352 89.0334 46.3256 88.9219 46.742 88.9219H65.772C66.1884 88.9219 66.5788 89.0334 66.9162 89.2276C67.354 89.2964 67.6988 89.6413 67.7677 90.0791C67.962 90.4164 68.0734 90.8068 68.0734 91.2232V91.6201C68.0734 92.0365 67.9619 92.4268 67.7677 92.7643C67.6989 93.2011 67.355 93.545 66.9181 93.6148C66.5807 93.8099 66.1894 93.9215 65.772 93.9215H46.742C46.3246 93.9215 45.9334 93.8099 45.596 93.6148C45.2437 93.4121 44.9499 93.1185 44.7473 92.7662Z" fill="black"/>
<path d="M258.21 234.925H43.6026C40.5607 234.925 38.0859 232.513 38.0859 229.548V86.3569C38.0859 83.3923 40.5607 80.9805 43.6026 80.9805H258.21C261.252 80.9805 263.727 83.3923 263.727 86.3569V229.548C263.727 232.513 261.252 234.925 258.21 234.925ZM43.6026 81.5663C40.8838 81.5663 38.6717 83.7153 38.6717 86.3568V229.548C38.6717 232.19 40.8838 234.339 43.6026 234.339H258.21C260.929 234.339 263.141 232.19 263.141 229.548V86.3569C263.141 83.7153 260.929 81.5664 258.21 81.5664L43.6026 81.5663Z" fill="black"/>
<path d="M56.196 320.902C56.196 320.902 54.7735 332.257 57.7584 335.192L58.7188 336.479L56.2133 337.829C53.0307 339.545 49.1338 339.264 46.2413 337.111L45.8516 336.821L46.3567 335.356C47.2554 332.751 48.4855 324.806 48.0579 322.178L56.196 320.902Z" fill="white"/>
<path d="M52.6816 339.249C50.3513 339.462 47.9715 338.831 46.0375 337.391L45.6477 337.101C45.5265 337.01 45.4774 336.852 45.5269 336.709L46.032 335.244C46.9081 332.704 48.1316 324.773 47.7185 322.235C47.7037 322.143 47.7259 322.05 47.78 321.975C47.8343 321.9 47.9163 321.85 48.0078 321.835L56.1459 320.56C56.2537 320.546 56.3635 320.578 56.4417 320.654C56.5199 320.73 56.5582 320.838 56.5447 320.947C56.5307 321.058 55.1774 332.164 58.0059 334.945C58.0187 334.958 58.0303 334.971 58.0409 334.985L59.0013 336.272C59.0617 336.353 59.0839 336.456 59.0621 336.555C59.0404 336.654 58.9767 336.738 58.8877 336.786L56.3821 338.137C55.2178 338.764 53.9569 339.133 52.6816 339.249ZM46.2668 336.695L46.4529 336.833C49.2288 338.9 52.9967 339.172 56.0522 337.525L58.2033 336.365L57.4992 335.421C54.7645 332.685 55.5668 323.509 55.8025 321.318L48.4491 322.47C48.7417 325.432 47.5705 332.915 46.6892 335.471L46.2668 336.695Z" fill="black"/>
<path d="M58.101 331.316L59.6877 332.485C62.8517 334.818 66.5293 336.34 70.4034 336.921L71.1422 337.032C71.4237 337.074 71.6664 337.254 71.7905 337.513L71.8537 337.644C72.5548 339.106 71.5506 343.001 66.234 345.41C64.8537 346.035 61.0065 346.012 55.34 346.525C52.8822 346.747 50.348 346.972 48.8793 347.102C47.4371 347.23 45.9742 346.972 44.7049 346.267C43.2865 345.479 41.9377 344.064 42.2166 341.552C42.4901 339.089 44.0049 334.177 44.8948 332.299C45.0669 331.936 45.503 331.818 45.8448 332.027L47.1796 334.602C48.0832 336.345 50.0398 337.34 51.9311 336.87C52.0498 336.841 52.1692 336.806 52.2895 336.767C53.4948 336.373 54.4841 335.491 55.1339 334.394L56.8003 331.581C57.0714 331.124 57.6739 331.001 58.101 331.316Z" fill="white"/>
<path d="M63.4724 346.272C62.6247 346.349 61.6275 346.414 60.4795 346.49C58.9857 346.588 57.2927 346.699 55.375 346.872C52.9169 347.094 50.3823 347.32 48.9135 347.449C47.3373 347.589 45.8247 347.285 44.5397 346.572C42.5516 345.468 41.6299 343.719 41.8745 341.515C42.1469 339.062 43.632 334.161 44.5843 332.152C44.7082 331.89 44.9271 331.701 45.2007 331.62C45.4767 331.538 45.7785 331.578 46.0295 331.731C46.0836 331.764 46.1278 331.811 46.157 331.868L47.4918 334.443C48.3363 336.072 50.1686 336.951 51.8511 336.534C51.9611 336.507 52.0723 336.475 52.1843 336.438C53.2558 336.088 54.1981 335.299 54.8385 334.218L56.5048 331.405C56.6843 331.102 56.9841 330.889 57.3275 330.819C57.671 330.751 58.0289 330.829 58.3109 331.037C58.3111 331.037 58.3111 331.037 58.3111 331.037L59.8977 332.207C63.0036 334.496 66.6554 336.008 70.4586 336.579L71.1975 336.689C71.5933 336.749 71.9335 337 72.1077 337.364L72.1708 337.495C72.5058 338.193 72.4735 339.249 72.0843 340.318C71.6242 341.582 70.2716 343.965 66.3811 345.727C65.7863 345.997 64.8176 346.149 63.4724 346.272ZM45.4607 332.274C45.4402 332.276 45.4198 332.28 45.3997 332.286C45.3174 332.31 45.2509 332.368 45.2125 332.449C44.3017 334.371 42.8263 339.242 42.5657 341.591C42.3511 343.522 43.129 344.993 44.8772 345.964C46.0403 346.61 47.4148 346.884 48.8522 346.757C50.3208 346.627 52.8547 346.402 55.3122 346.18C57.2387 346.006 58.9361 345.894 60.4339 345.796C63.2241 345.613 65.2396 345.481 66.0942 345.094C69.7527 343.437 71.008 341.241 71.4307 340.08C71.8153 339.023 71.7413 338.207 71.544 337.796L71.4808 337.664C71.4066 337.509 71.262 337.402 71.0944 337.377L70.3556 337.266C66.4408 336.679 62.6818 335.123 59.4852 332.766L57.8985 331.597C57.7722 331.503 57.6182 331.469 57.4659 331.5C57.3122 331.531 57.1834 331.624 57.103 331.759L55.4366 334.573C54.7102 335.799 53.6321 336.696 52.401 337.098C52.2731 337.14 52.1455 337.177 52.0189 337.209C49.9957 337.711 47.8815 336.705 46.8747 334.763L45.5927 332.29C45.5494 332.275 45.5047 332.27 45.4607 332.274Z" fill="black"/>
<path d="M51.4136 344.58C46.8171 344.999 44.3301 342.78 44.2225 342.682C44.0809 342.552 44.0708 342.332 44.2004 342.19C44.3298 342.049 44.549 342.039 44.6909 342.168C44.7172 342.192 47.2709 344.449 51.8928 343.827C55.3323 343.363 60.4442 342.959 63.186 342.759C64.8183 342.643 66.3135 342.062 67.5084 341.087C67.9049 340.763 68.1992 340.45 68.3827 340.155C68.4846 339.993 68.6992 339.944 68.8617 340.045C69.0246 340.146 69.0741 340.361 68.9726 340.524C68.7484 340.883 68.4037 341.253 67.948 341.625C66.642 342.691 65.012 343.325 63.2367 343.452C60.5031 343.652 55.4069 344.055 51.9857 344.515C51.7918 344.542 51.6006 344.563 51.4136 344.58Z" fill="black"/>
<path d="M19.6879 323.578C19.6879 323.578 16.9545 330.689 18.351 334.458L18.6812 335.976L7.17969 330.178L8.30992 329.292C10.5478 327.5 12.6612 324.74 13.2277 322.234L19.6879 323.578Z" fill="white"/>
<path d="M18.7167 336.322C18.6531 336.328 18.588 336.316 18.5287 336.286L7.02719 330.488C6.92091 330.435 6.84958 330.331 6.83765 330.212C6.82584 330.094 6.8756 329.978 6.96912 329.904L8.09947 329.019C10.5032 327.094 12.3857 324.4 12.8926 322.158C12.9346 321.973 13.1165 321.855 13.3023 321.894L19.7624 323.238C19.8623 323.259 19.948 323.322 19.9967 323.412C20.0457 323.501 20.0527 323.608 20.0161 323.703C19.9893 323.773 17.3461 330.736 18.6808 334.337C18.6864 334.352 18.6911 334.368 18.6944 334.384L19.0246 335.902C19.0532 336.033 19.0039 336.169 18.8979 336.25C18.8444 336.292 18.7814 336.316 18.7167 336.322ZM7.82875 330.114L18.1904 335.337L18.0202 334.555C16.7841 331.17 18.6735 325.388 19.2264 323.836L13.4873 322.643C12.8483 324.957 10.9373 327.637 8.5312 329.563L7.82875 330.114Z" fill="black"/>
<path d="M19.3865 332.088L19.7555 333.947C20.4863 337.627 22.093 341.075 24.4371 343.993L26.2383 346.234C26.4098 346.448 26.4655 346.733 26.3872 346.996L26.3473 347.129C25.9045 348.615 22.6973 350.699 17.402 348.922C14.1261 347.823 10.5599 343.87 0.7137 336.148C0.20483 335.749 0.28062 334.929 0.642469 334.392C1.96182 332.435 5.29342 327.876 8.51958 326.554C8.87863 326.407 9.28579 326.595 9.39487 326.97L10.4436 330.581C10.9142 332.201 12.6003 333.129 14.2035 332.65L18.2986 331.426C18.7832 331.281 19.2871 331.588 19.3865 332.088Z" fill="white"/>
<path d="M22.1001 349.917C20.8465 350.031 19.2447 349.908 17.2894 349.252C15.1512 348.534 12.9936 346.721 9.07694 343.429C6.85971 341.566 4.10043 339.247 0.496971 336.421C-0.176442 335.893 -0.10542 334.876 0.352231 334.197C1.66059 332.256 5.06239 327.594 8.38549 326.232C8.6505 326.124 8.94983 326.132 9.20572 326.256C9.45818 326.377 9.64792 326.603 9.72641 326.873L10.775 330.484C10.978 331.182 11.4394 331.757 12.0741 332.103C12.7003 332.444 13.4205 332.52 14.1019 332.316L18.1969 331.092C18.5201 330.996 18.8711 331.04 19.1605 331.215C19.4527 331.39 19.6587 331.684 19.7255 332.02C19.7255 332.02 19.7255 332.02 19.7255 332.02L20.0944 333.878C20.8114 337.49 22.4061 340.911 24.7059 343.775L26.5072 346.016C26.7504 346.319 26.8292 346.722 26.7183 347.095L26.6784 347.228C26.4656 347.942 25.7627 348.667 24.7982 349.168C24.2333 349.461 23.3357 349.805 22.1001 349.917ZM8.74246 326.852C8.71105 326.855 8.67974 326.863 8.64894 326.875C5.5021 328.165 2.2015 332.698 0.9286 334.586C0.65374 334.994 0.587072 335.609 0.925904 335.874C4.53869 338.707 7.30295 341.03 9.52423 342.897C13.3758 346.134 15.4975 347.917 17.5106 348.593C21.1495 349.813 23.4379 349.091 24.478 348.551C25.4207 348.062 25.8887 347.444 26.0123 347.03L26.0521 346.896C26.098 346.742 26.0654 346.576 25.9654 346.451L24.1642 344.21C21.7944 341.26 20.1513 337.734 19.4125 334.014L19.0436 332.156C19.0145 332.009 18.9287 331.886 18.8022 331.81C18.6783 331.736 18.5338 331.717 18.3963 331.759L14.3012 332.983C13.4404 333.238 12.5318 333.144 11.7417 332.714C10.9429 332.279 10.3627 331.556 10.1077 330.678L9.05911 327.067C9.03506 326.984 8.9798 326.918 8.90369 326.881C8.85268 326.857 8.79762 326.847 8.74246 326.852Z" fill="black"/>
<path d="M22.7525 346.766C22.7356 346.768 22.7185 346.768 22.7011 346.767L21.8365 346.719C18.96 346.559 16.1561 345.446 13.9414 343.585L3.60047 334.893C3.45355 334.769 3.43458 334.55 3.55806 334.403C3.68186 334.257 3.90084 334.237 4.04786 334.361L14.3888 343.052C16.489 344.818 19.1477 345.873 21.8752 346.025L22.7397 346.073C22.9314 346.083 23.078 346.248 23.0674 346.439C23.0578 346.614 22.9211 346.751 22.7525 346.766Z" fill="black"/>
<path d="M52.2673 208.108C59.9048 209.496 64.6338 210.34 64.6338 210.34C64.6338 210.34 54.6479 264.936 51.5674 278.668C48.7751 291.115 25.6542 319.782 21.6147 325.526C21.1975 326.12 19.921 326.796 19.921 326.796C17.375 327.663 14.5604 326.885 12.8034 324.83C12.8034 324.83 11.8154 323.059 11.9221 322.103L12.7082 315.057C16.0883 292.62 25.3879 280.82 27.6596 257.511C31.0883 222.33 35.2956 214.074 36.1554 211.347C38.8193 202.899 52.2673 208.108 52.2673 208.108Z" fill="black"/>
<path d="M77.0647 206.842C79.5209 219.206 80.7045 240.822 80.3805 250.664C79.4883 277.758 60.7771 317.464 57.3912 325.489C56.9578 326.516 56.0547 327.27 54.9703 327.495C51.8641 328.139 50.6287 327.464 48.948 326.788C47.7415 326.302 46.9585 325.155 46.8122 323.853C43.8694 297.66 47.412 274.677 51.9066 259.833C53.6401 254.108 53.2247 222.47 51.8892 211.175L77.0647 206.842Z" fill="black"/>
<path d="M45.0514 297.511C45.0305 297.512 45.0092 297.513 44.9873 297.511C44.7963 297.493 44.6557 297.323 44.6734 297.132C46.0067 282.775 47.4091 273.823 49.3627 267.198C52.0941 257.937 53.1098 248.464 52.3813 239.041L52.0199 234.365C52.0051 234.173 52.145 233.993 52.3396 233.991C52.531 233.977 52.6981 234.12 52.713 234.311L53.0744 238.987C53.8092 248.494 52.7848 258.053 50.0295 267.395C48.0891 273.974 46.6943 282.887 45.3656 297.196C45.35 297.366 45.215 297.496 45.0514 297.511Z" fill="white"/>
<path d="M98.4609 150.84C98.9531 149.615 99.1751 148.853 99.2391 148.509C99.2391 148.509 99.4254 148.081 99.3134 147.542C98.9667 145.877 97.8914 141.812 98.9182 140.115C100.638 137.273 103.457 138.533 103.457 138.533C103.457 138.533 104.461 135.939 106.122 136.73C107.397 137.337 108.719 138.801 108.735 141.262C108.756 144.616 108.48 147.848 105.121 150.071C104.469 150.503 103.977 151.14 103.74 151.889L98.4609 150.84Z" fill="white"/>
<path d="M103.775 152.236C103.743 152.239 103.709 152.238 103.676 152.231L98.3969 151.182C98.2955 151.162 98.2082 151.098 98.1591 151.007C98.1099 150.916 98.1036 150.807 98.1423 150.712C98.7257 149.259 98.8708 148.61 98.9012 148.446C98.9061 148.42 98.9138 148.395 98.9243 148.371C98.9247 148.37 99.0635 148.029 98.9769 147.614C98.9387 147.429 98.8914 147.216 98.8389 146.979C98.3905 144.953 97.6403 141.563 98.6246 139.936C100.124 137.459 102.426 137.851 103.274 138.101C103.514 137.613 104.061 136.681 104.886 136.353C105.34 136.173 105.808 136.194 106.276 136.417C106.93 136.729 109.066 137.998 109.086 141.26C109.107 144.59 108.833 148.035 105.317 150.362C104.726 150.753 104.285 151.333 104.075 151.995C104.032 152.131 103.912 152.224 103.775 152.236ZM98.941 150.581L103.52 151.491C103.805 150.801 104.298 150.202 104.933 149.782C108.162 147.645 108.411 144.534 108.391 141.264C108.373 138.407 106.539 137.312 105.977 137.045C105.686 136.907 105.414 136.892 105.143 136.999C104.449 137.275 103.928 138.291 103.785 138.659C103.751 138.747 103.681 138.819 103.593 138.855C103.505 138.891 103.406 138.89 103.319 138.851C103.216 138.805 100.754 137.759 99.2194 140.295C98.379 141.684 99.1197 145.031 99.5176 146.829C99.5707 147.069 99.6186 147.285 99.6576 147.472C99.772 148.022 99.631 148.468 99.5781 148.608C99.531 148.844 99.3838 149.436 98.941 150.581Z" fill="black"/>
<path d="M95.6952 155.543L90.5469 150.251L93.2238 147.881C93.3715 147.75 93.5479 147.657 93.7381 147.607L94.0828 147.519C94.5167 147.407 94.8592 147.068 94.974 146.636C95.0363 146.402 95.1672 146.19 95.35 146.028L115.234 128.398C115.398 128.253 115.58 128.13 115.776 128.032L121.787 125.039L118.732 130.724C118.566 131.034 118.36 131.321 118.119 131.578L100.005 150.937C99.8507 151.102 99.654 151.222 99.4371 151.284L99.3827 151.299C98.9658 151.418 98.6389 151.747 98.5245 152.164L98.4667 152.374C98.4137 152.566 98.3141 152.744 98.1767 152.891L95.6952 155.543Z" fill="white"/>
<path d="M95.7226 155.889C95.7133 155.89 95.7039 155.89 95.6945 155.891C95.5995 155.891 95.5082 155.853 95.4419 155.785L90.2936 150.493C90.2275 150.425 90.1919 150.333 90.1956 150.238C90.199 150.143 90.2413 150.054 90.3124 149.991L92.9893 147.621C93.1774 147.454 93.405 147.333 93.6472 147.271L93.9923 147.182C94.3052 147.101 94.5512 146.858 94.6342 146.547C94.7141 146.246 94.8804 145.977 95.1153 145.768L114.999 128.138C115.185 127.973 115.393 127.832 115.617 127.721L121.628 124.728C121.764 124.66 121.927 124.688 122.032 124.797C122.138 124.906 122.161 125.07 122.089 125.204L119.034 130.889C118.854 131.224 118.63 131.536 118.368 131.816L100.255 151.174C100.057 151.385 99.806 151.539 99.5285 151.618L99.4741 151.634C99.1745 151.719 98.9375 151.957 98.8555 152.256L98.7976 152.466C98.7299 152.712 98.6014 152.941 98.4263 153.129L95.9447 155.781C95.8864 155.843 95.8071 155.881 95.7226 155.889ZM91.0461 150.27L95.6862 155.039L97.9189 152.653C98.0175 152.548 98.0897 152.419 98.1275 152.282L98.1854 152.072C98.3313 151.54 98.7521 151.117 99.2835 150.965L99.3375 150.95C99.494 150.905 99.6359 150.818 99.7476 150.699L117.861 131.341C118.082 131.105 118.27 130.842 118.422 130.56L120.959 125.838L115.927 128.343C115.758 128.427 115.601 128.533 115.46 128.658L95.5766 146.289C95.4445 146.406 95.3507 146.557 95.3059 146.726C95.1585 147.279 94.7215 147.712 94.1656 147.856L93.8206 147.944C93.6843 147.979 93.5561 148.047 93.4499 148.141L91.0461 150.27Z" fill="black"/>
<path d="M116.909 129.924C116.812 129.933 116.711 129.901 116.636 129.828L115.27 128.506C115.132 128.372 115.128 128.152 115.262 128.014C115.396 127.876 115.616 127.873 115.753 128.006L117.119 129.329C117.257 129.462 117.261 129.682 117.127 129.82C117.067 129.882 116.989 129.917 116.909 129.924Z" fill="black"/>
<path d="M86.1002 154.413L90.618 150.148L95.7306 155.531L91.2129 159.796C90.3852 160.577 89.0931 160.557 88.3269 159.75L85.9888 157.288C85.2227 156.482 85.2726 155.194 86.1002 154.413Z" fill="black"/>
<path d="M90.0039 160.705C89.3057 160.769 88.5914 160.529 88.079 159.99L85.7407 157.528C85.312 157.077 85.0854 156.482 85.1025 155.855C85.1202 155.21 85.3912 154.608 85.8657 154.16L90.3833 149.896C90.5226 149.764 90.742 149.77 90.874 149.909L95.9867 155.292C96.0502 155.359 96.0846 155.448 96.0822 155.541C96.0797 155.633 96.0404 155.72 95.9733 155.784L91.4557 160.049C91.042 160.439 90.5275 160.657 90.0039 160.705ZM90.6086 150.639L86.3429 154.666C86.0038 154.986 85.8101 155.415 85.7976 155.874C85.7854 156.315 85.9443 156.732 86.2448 157.049L88.5831 159.511C89.2165 160.177 90.2909 160.191 90.9783 159.543L95.2423 155.518L90.6086 150.639Z" fill="black"/>
<path d="M89.778 158.141C89.673 158.151 89.5652 158.113 89.4889 158.029C89.3597 157.887 89.3702 157.667 89.5121 157.538L92.0278 155.251C92.1702 155.121 92.3898 155.132 92.5189 155.274C92.6481 155.416 92.6376 155.636 92.4957 155.765L89.98 158.052C89.9219 158.105 89.8505 158.135 89.778 158.141Z" fill="white"/>
<path d="M99.2353 148.511C99.2353 148.511 99.5824 144.838 101.745 142.305C103.07 140.753 103.862 134.466 106.901 137.172C107.555 137.755 108.006 138.108 108.43 139.106C108.662 139.652 109.031 141.03 109.036 141.72C109.057 145.077 108.476 147.856 105.107 150.08C104.458 150.508 103.972 151.145 103.736 151.89C103.585 152.368 102.07 181.101 96.4857 185.094C90.1375 189.634 77.1016 175.745 77.1016 175.745L86.2688 164.155C86.2688 164.155 91.4758 169.554 92.171 169.773C92.7041 169.94 99.2353 148.511 99.2353 148.511Z" fill="white"/>
<path d="M94.0675 186.329C87.2431 186.951 77.327 176.489 76.852 175.983C76.734 175.857 76.726 175.664 76.8328 175.529L86.0002 163.94C86.0623 163.861 86.1517 163.812 86.2557 163.808C86.3558 163.803 86.4532 163.842 86.5229 163.914C88.7606 166.234 91.2807 168.712 92.0832 169.314C92.9508 167.551 96.5581 156.114 98.8969 148.441C98.9411 148.026 99.3664 144.561 101.484 142.079C101.836 141.668 102.17 140.826 102.524 139.936C103.196 138.245 103.891 136.496 105.151 136.198C105.771 136.051 106.439 136.292 107.135 136.912L107.265 137.027C107.858 137.552 108.327 137.968 108.754 138.971C109.005 139.563 109.383 140.978 109.387 141.718C109.41 145.277 108.723 148.111 105.302 150.37C104.718 150.755 104.281 151.332 104.072 151.995C104.061 152.063 104.015 152.642 103.956 153.375C102.455 172.236 100.011 183.003 96.6918 185.377C95.8986 185.944 95.0126 186.243 94.0675 186.329ZM77.5664 175.722C79.2483 177.449 90.6804 188.822 96.2874 184.811C98.4492 183.265 101.414 176.547 103.263 153.32C103.367 152.018 103.381 151.875 103.409 151.785C103.667 150.971 104.203 150.262 104.92 149.79C108.09 147.696 108.714 145.151 108.692 141.722C108.688 141.095 108.34 139.773 108.114 139.242C107.749 138.384 107.373 138.051 106.804 137.548L106.673 137.431C106.155 136.97 105.695 136.783 105.311 136.875C104.404 137.09 103.72 138.81 103.17 140.193C102.794 141.138 102.439 142.032 102.013 142.531C99.9462 144.952 99.5888 148.507 99.5854 148.543C99.5832 148.566 99.5786 148.589 99.5718 148.612C99.5557 148.664 97.9592 153.9 96.301 159.112C92.9046 169.789 92.5895 169.955 92.3594 170.076C92.277 170.119 92.1587 170.132 92.0706 170.104C91.3943 169.892 87.7773 166.209 86.299 164.683L77.5664 175.722Z" fill="black"/>
<path d="M17.4588 222.686C17.3174 223.244 17.8942 224.266 17.8664 224.715C17.7652 226.353 15.5692 228.841 13.9364 230.476C12.6379 231.777 11.9676 233.596 12.13 235.437C12.1683 235.871 12.2329 236.341 12.3049 236.847C12.47 238.007 12.153 238.66 11.6772 239.02C10.7426 239.726 9.38824 239.124 9.15631 237.968C8.6493 235.441 7.71399 230.193 8.25894 228.263C8.61727 226.994 9.98566 225.251 11.2848 223.807C12.5617 222.388 13.1664 220.484 12.9841 218.574C12.3537 211.97 14.2608 192.345 17.3291 178.412L28.6327 183.41C28.6327 183.41 22.6965 201.99 17.4588 222.686Z" fill="white"/>
<path d="M10.9499 239.664C10.6689 239.69 10.3786 239.65 10.0951 239.542C9.43412 239.291 8.95676 238.728 8.81783 238.036C8.24706 235.193 7.37271 230.13 7.92679 228.168C8.23949 227.061 9.28315 225.515 11.0285 223.575C12.2271 222.243 12.8146 220.432 12.6404 218.607C12.0218 212.127 13.8248 192.719 16.9918 178.337C17.0142 178.235 17.0812 178.149 17.1742 178.102C17.2674 178.055 17.3766 178.052 17.4718 178.094L28.7754 183.092C28.9377 183.164 29.02 183.346 28.9659 183.516C28.9067 183.701 22.9731 202.323 17.7981 222.771C17.7413 222.995 17.8899 223.445 18.009 223.806C18.1283 224.167 18.2314 224.479 18.2155 224.737C18.1095 226.452 15.965 228.939 14.1847 230.722C12.9472 231.962 12.3252 233.669 12.4784 235.406C12.5164 235.836 12.5819 236.31 12.6514 236.799C12.8153 237.95 12.5589 238.791 11.8892 239.297C11.6071 239.51 11.2849 239.634 10.9499 239.664ZM17.5799 178.902C14.4824 193.18 12.7243 212.172 13.3323 218.542C13.5249 220.559 12.8735 222.564 11.5453 224.04C9.89519 225.874 8.87516 227.367 8.59564 228.358C8.06209 230.247 9.04987 235.66 9.49923 237.899C9.59099 238.356 9.90587 238.727 10.3416 238.892C10.7348 239.042 11.146 238.987 11.4698 238.742C11.9226 238.4 12.0884 237.779 11.963 236.897C11.8921 236.399 11.8253 235.914 11.7857 235.467C11.6144 233.525 12.3095 231.616 13.6926 230.231C16.0895 227.829 17.4493 225.863 17.5216 224.694C17.5293 224.57 17.4292 224.267 17.3488 224.024C17.186 223.53 17.0175 223.021 17.1239 222.6C21.9461 203.547 27.4263 186.077 28.209 183.602L17.5799 178.902Z" fill="black"/>
<path d="M34.2712 149.936C45.2902 145.253 64.8795 145.321 71.1682 149.14C79.3374 154.101 87.4007 162.593 90.5817 166.124C91.4661 167.105 91.7162 168.506 91.2309 169.737C89.1445 175.029 84.6226 188.045 81.1901 185.982C77.7734 183.929 73.3004 179.88 73.7415 182.174C74.9114 188.258 77.8262 208.675 77.8262 208.675C77.8262 208.675 74.5629 210.143 74.6678 212.915L75.0039 220.415C74.999 221.292 74.121 221.887 73.3148 221.557C66.8291 218.901 42.032 218.05 32.4342 213.878C31.2843 213.378 30.579 212.199 30.6792 210.941C31.1836 204.61 36.1829 190.878 32.9528 183.181C32.6195 182.387 30.9733 185.949 28.7936 188.178C28.4434 188.537 27.8955 188.605 27.477 188.33L15.8733 180.691C14.8457 180.015 14.3815 178.74 14.7339 177.556C16.4677 171.731 22.3795 154.989 34.2712 149.936Z" fill="white"/>
<path d="M73.921 221.989C73.674 222.012 73.4215 221.976 73.1846 221.878C70.3692 220.726 63.8265 219.889 56.8996 219.003C47.9056 217.853 37.7113 216.55 32.2973 214.197C31.0112 213.638 30.2222 212.318 30.3343 210.913C30.485 209.022 31.0182 206.543 31.6354 203.672C33.0553 197.07 34.8172 188.876 32.7268 183.544C32.4804 183.816 32.0761 184.414 31.7104 184.954C30.986 186.024 30.0844 187.357 29.0438 188.421C28.5769 188.899 27.8386 188.983 27.2876 188.62L15.6839 180.982C14.5363 180.226 14.0095 178.776 14.4024 177.456C16.3957 170.76 22.3086 154.642 34.1368 149.615C45.5848 144.751 65.1225 145.061 71.3502 148.843C79.5815 153.841 87.7231 162.43 90.8415 165.891C91.8202 166.977 92.0939 168.499 91.5559 169.864C91.3447 170.4 91.1085 171.015 90.8508 171.686C88.7521 177.151 85.5804 185.409 82.5933 186.438C82.036 186.628 81.5048 186.576 81.0126 186.28C79.9618 185.648 78.8358 184.847 77.747 184.072C76.3891 183.106 74.5415 181.791 74.0648 181.834C74.0646 181.834 74.0645 181.834 74.0645 181.834C74.0587 181.873 74.0552 181.956 74.0845 182.108C75.2426 188.131 78.1428 208.421 78.1719 208.626C78.1939 208.779 78.1117 208.928 77.9708 208.992C77.9403 209.005 74.922 210.401 75.0167 212.901L75.3527 220.399C75.3502 220.948 75.0863 221.44 74.6474 221.732C74.4269 221.88 74.1768 221.966 73.921 221.989ZM32.7704 182.722C32.8026 182.719 32.8347 182.719 32.8675 182.722C32.9528 182.731 33.1629 182.779 33.275 183.046C35.5939 188.572 33.7759 197.026 32.3153 203.818C31.7031 206.665 31.1746 209.123 31.0273 210.969C30.939 212.078 31.5608 213.119 32.5744 213.559C37.8976 215.873 48.0398 217.17 56.9879 218.314C64.2641 219.244 70.5481 220.047 73.4483 221.235C73.7203 221.347 74.0171 221.317 74.2619 221.154C74.5121 220.988 74.6565 220.717 74.658 220.413L74.3223 212.931C74.2258 210.381 76.661 208.89 77.4484 208.475C77.1113 206.124 74.4872 187.884 73.4019 182.239C73.3089 181.756 73.3987 181.422 73.6687 181.249C74.3276 180.825 75.5886 181.683 78.1504 183.506C79.2284 184.273 80.3432 185.067 81.371 185.684C81.6835 185.872 82.0097 185.904 82.3674 185.78C85.0479 184.858 88.4009 176.127 90.2023 171.437C90.4606 170.764 90.6976 170.147 90.9095 169.609C91.35 168.492 91.1261 167.245 90.3252 166.357C87.2273 162.919 79.142 154.388 70.9895 149.437C65.0233 145.814 45.4784 145.552 34.409 150.256C22.5282 155.305 16.6022 172.504 15.0689 177.655C14.7627 178.684 15.1729 179.813 16.0664 180.401L27.6701 188.04C27.9476 188.223 28.3084 188.18 28.5467 187.936C29.5439 186.916 30.426 185.612 31.1347 184.565C32.0122 183.268 32.3778 182.758 32.7704 182.722Z" fill="black"/>
<path d="M47.3909 147.789L46.3672 135.104L57.2697 138.991L58.0563 146.429C58.2358 148.427 56.6896 149.752 56.6896 149.752C54.7944 151.559 51.8277 151.655 49.5056 150.446L48.9678 150.167C48.0682 149.698 47.4725 148.8 47.3909 147.789Z" fill="white"/>
<path d="M53.3659 151.58C52.0514 151.7 50.6491 151.432 49.349 150.755L48.8112 150.475C47.7993 149.949 47.1402 148.955 47.0482 147.818C47.0482 147.817 47.0482 147.817 47.0482 147.817L46.0246 135.132C46.015 135.014 46.066 134.9 46.1595 134.828C46.2531 134.756 46.3766 134.736 46.4878 134.776L57.3903 138.664C57.5162 138.709 57.6051 138.822 57.6192 138.955L58.4057 146.393C58.5997 148.55 56.9883 149.958 56.9196 150.017C55.9624 150.929 54.71 151.458 53.3659 151.58ZM47.7411 147.762C47.8137 148.659 48.3336 149.443 49.1319 149.858L49.6697 150.138C51.9988 151.35 54.7881 151.088 56.4534 149.501C56.4806 149.477 57.8745 148.248 57.7136 146.461L56.9507 139.245L46.7606 135.612L47.7411 147.762Z" fill="black"/>
<path d="M58.7735 115.369C56.0209 115.562 58.7258 118.401 48.5741 116.629C44.4122 115.903 47.034 120.387 45.9509 120.221C41.9505 119.605 40.704 121.069 39.895 121.85C38.9601 122.753 38.1705 124.726 38.6238 126.405C39.2221 128.621 42.3051 128.922 44.5719 133.475C46.1638 136.673 46.1385 138.743 47.5495 139.059C48.9762 139.378 49.7501 137.43 51.3348 137.661C53.3856 137.961 53.4308 141.421 55.5395 142.589C56.8687 143.325 59.7497 143.377 64.0012 140.604C64.6902 140.154 64.9614 139.276 64.6435 138.517C64.2362 137.545 63.7151 136.319 63.1188 135.189C60.2771 129.807 58.0905 128.787 58.6361 127.229C59.4722 124.841 63.9042 125.582 64.3749 123.649C64.8638 121.64 62.5422 115.105 58.7735 115.369Z" fill="black"/>
<path d="M51.524 129.691C51.9807 130.329 52.3921 130.998 52.7566 131.693C53.4389 132.994 54.6266 135.218 55.3872 136.414C56.33 137.896 60.7678 135.82 62.1398 135.13C62.3608 135.019 62.4409 134.744 62.3155 134.531L61.6412 133.231L62.7374 132.799C62.8653 132.727 62.9795 132.629 63.0543 132.503C63.2414 132.187 63.1939 131.807 62.9674 131.551C61.7921 130.224 59.7263 128.055 58.4779 125.208C58.3505 124.917 58.0657 124.727 57.7484 124.725C56.6583 124.718 54.1044 124.943 51.8458 126.939C51.0505 127.641 50.9062 128.828 51.524 129.691Z" fill="white"/>
<path d="M57.0879 137.259C56.1929 137.341 55.4588 137.178 55.0913 136.601C54.3174 135.384 53.1017 133.105 52.446 131.854C52.0901 131.175 51.684 130.516 51.2388 129.894C50.5179 128.886 50.6787 127.504 51.6133 126.678C53.9846 124.583 56.6929 124.37 57.7481 124.377C58.2004 124.38 58.6108 124.651 58.7938 125.068C59.9096 127.613 61.7049 129.62 62.8928 130.948L63.225 131.321C63.5588 131.698 63.6095 132.244 63.3508 132.68C63.2506 132.849 63.0966 132.995 62.9053 133.102C62.8915 133.11 62.8772 133.117 62.8623 133.123L62.1248 133.413L62.6214 134.371C62.7209 134.539 62.7486 134.763 62.6881 134.968C62.6278 135.172 62.484 135.345 62.2933 135.44C60.8469 136.167 58.7051 137.112 57.0879 137.259ZM51.8042 129.489C52.268 130.137 52.6911 130.824 53.0618 131.531C53.7124 132.772 54.9177 135.032 55.678 136.227C56.1856 137.025 58.7185 136.46 61.9812 134.819C62.0065 134.806 62.017 134.786 62.0215 134.771C62.0258 134.755 62.0281 134.732 62.0132 134.706L61.3302 133.391C61.2849 133.304 61.2787 133.201 61.3132 133.109C61.3478 133.017 61.4198 132.944 61.5114 132.907L62.5832 132.485C62.6594 132.439 62.718 132.384 62.7532 132.325C62.857 132.15 62.8377 131.931 62.7048 131.781L62.3751 131.411C61.1576 130.05 59.3177 127.994 58.1573 125.347C58.0846 125.181 57.9223 125.073 57.7443 125.072C56.7691 125.066 54.2654 125.263 52.0736 127.199C51.4071 127.788 51.2913 128.772 51.8042 129.489Z" fill="black"/>
<path d="M51.5856 134.957C48.9331 136.454 47.4965 133.987 47.839 132.304C47.9831 131.596 48.8841 131.364 49.3703 131.899L51.6742 134.431C51.8221 134.593 51.7769 134.849 51.5856 134.957Z" fill="white"/>
<path d="M184.579 4.00095C184.448 4.00095 184.323 3.92371 184.269 3.79493C184.197 3.62376 184.277 3.42634 184.448 3.35439L186.853 2.34245C187.024 2.27143 187.221 2.35034 187.294 2.52214C187.366 2.69332 187.285 2.89072 187.114 2.96268L184.709 3.97461C184.666 3.99234 184.622 4.00095 184.579 4.00095Z" fill="black"/>
<path d="M178.977 6.35828C178.846 6.35828 178.721 6.28104 178.667 6.15227C178.595 5.98109 178.676 5.78368 178.847 5.71172L181.252 4.69979C181.422 4.62887 181.62 4.70798 181.692 4.87947C181.764 5.05065 181.684 5.24806 181.512 5.32001L179.107 6.33195C179.065 6.34978 179.021 6.35828 178.977 6.35828Z" fill="black"/>
<path d="M184.669 8.67593C184.538 8.67593 184.413 8.59869 184.359 8.47023L183.347 6.06658C183.275 5.89509 183.355 5.69799 183.526 5.62562C183.697 5.5546 183.895 5.63381 183.967 5.80499L184.979 8.20864C185.051 8.38013 184.971 8.57723 184.8 8.6496C184.757 8.66733 184.713 8.67593 184.669 8.67593Z" fill="black"/>
<path d="M182.31 3.07632C182.179 3.07632 182.054 2.99908 182 2.87062L180.987 0.466967C180.915 0.295477 180.996 0.0983792 181.167 0.0260094C181.338 -0.0450126 181.535 0.0341982 181.608 0.205377L182.62 2.60903C182.692 2.78052 182.612 2.97762 182.441 3.04999C182.398 3.06782 182.354 3.07632 182.31 3.07632Z" fill="black"/>
</svg>
