<svg width="303" height="237" viewBox="0 0 303 237" fill="none" xmlns="http://www.w3.org/2000/svg">
<path d="M129.732 136.999C123.597 135.903 117.478 134.703 111.361 133.51C110.777 133.396 110.193 133.283 109.61 133.168C108.715 132.993 108.333 134.363 109.231 134.54C114.227 135.52 119.226 136.486 124.229 137.426C125.936 137.747 127.644 138.065 129.354 138.37C130.249 138.53 130.634 137.16 129.732 136.999Z" fill="black"/>
<path d="M172.987 144.915C166.873 143.695 160.683 142.852 154.548 141.744C153.653 141.582 153.269 142.953 154.17 143.115C160.305 144.224 166.495 145.066 172.608 146.287C173.503 146.465 173.885 145.094 172.987 144.915Z" fill="black"/>
<path d="M124.335 147.267C119.681 146.357 115.038 145.391 110.391 144.446C109.826 144.331 109.26 144.216 108.695 144.101C107.801 143.919 107.419 145.29 108.317 145.473C112.598 146.344 116.879 147.214 121.162 148.079C122.093 148.267 123.024 148.456 123.957 148.638C124.851 148.814 125.234 147.443 124.335 147.267Z" fill="black"/>
<path d="M169.069 156.025C161.531 154.447 153.95 153.075 146.387 151.623C144.124 151.188 141.862 150.749 139.602 150.301C138.708 150.124 138.325 151.495 139.223 151.673C147.212 153.256 155.223 154.724 163.215 156.293C165.042 156.651 166.869 157.015 168.691 157.397C169.584 157.584 169.966 156.213 169.069 156.025Z" fill="black"/>
<path d="M302.016 96.3938C288.506 83.9092 274.313 72.1392 259.356 61.4247C246.765 52.406 233.61 44.0699 219.729 37.1719C204.891 29.798 189.121 24.4578 172.746 21.8011C158.577 19.5022 144.132 19.1414 129.855 20.5912C120.85 21.5058 112.012 23.2366 103.184 25.186C102.57 25.3217 101.955 25.4558 101.34 25.5844C100.444 25.7714 100.823 27.1429 101.718 26.9562C109.745 25.2792 117.705 23.4827 125.856 22.4663C139.345 20.7844 153.028 20.6795 166.525 22.3384C183.308 24.4015 199.66 29.2635 214.959 36.4421C228.436 42.7651 241.213 50.5537 253.451 59.0046C268.274 69.2405 282.339 80.5611 295.738 92.594C297.507 94.183 299.264 95.7856 301.01 97.3994C301.681 98.0202 302.69 97.0165 302.016 96.3938Z" fill="black"/>
<path d="M301.886 170.47C296.865 169.484 291.843 168.496 286.822 167.506C286.963 167.615 287.105 167.724 287.247 167.833C284.495 162.028 281.805 156.193 278.953 150.436C276.676 145.838 274.298 141.265 271.485 136.968C269.189 133.458 266.573 130.101 263.393 127.345C260.412 124.763 256.981 122.787 253.24 121.533C248.917 120.084 244.309 119.596 239.768 119.586C232.545 119.571 225.315 119.635 218.092 119.686C211.554 119.732 204.982 119.83 198.48 120.584C193.729 121.135 188.653 121.937 184.454 124.378C182.849 125.311 181.394 126.541 180.388 128.116C179.415 129.639 178.936 131.489 178.227 133.145C176.183 137.914 173.913 142.582 171.961 147.392C170.969 149.836 170.042 152.314 169.33 154.855C168.758 156.897 168.285 159.032 168.289 161.163C168.295 164.239 169.895 166.848 172.174 168.823C174.941 171.22 178.44 172.642 181.912 173.672C187.32 175.278 192.981 176.017 198.584 176.531C204.432 177.067 210.308 177.258 216.173 177.534C221.742 177.795 227.311 178.059 232.88 178.323C243.567 178.83 254.255 179.339 264.942 179.851C268.329 180.013 271.716 180.175 275.102 180.337C275.922 180.376 276.744 180.402 277.563 180.455C278.6 180.523 279.638 180.823 280.655 181.033C281.685 181.247 282.716 181.461 283.746 181.674C285.799 182.099 287.851 182.524 289.903 182.948C293.789 183.75 297.675 184.552 301.561 185.352C302.455 185.535 302.837 184.164 301.939 183.98C297.712 183.11 293.485 182.238 289.259 181.365C287.204 180.94 285.149 180.515 283.095 180.089C281.252 179.708 279.348 179.131 277.466 179.028C274.963 178.891 272.457 178.788 269.953 178.668C259.606 178.173 249.259 177.679 238.913 177.187C227.464 176.643 216.002 176.223 204.561 175.552C198.063 175.171 191.512 174.568 185.165 173.064C181.264 172.139 177.255 170.874 173.992 168.468C171.735 166.805 169.809 164.419 169.717 161.506C169.648 159.308 170.164 157.111 170.764 155.012C171.516 152.382 172.49 149.817 173.529 147.289C175.53 142.417 177.867 137.691 179.892 132.829C180.593 131.146 181.063 129.349 182.279 127.942C183.548 126.474 185.24 125.454 187.003 124.684C191.972 122.512 197.671 121.971 203.019 121.588C210.088 121.082 217.188 121.094 224.271 121.088C228.183 121.085 232.096 121.089 236.008 121.05C238.88 121.021 241.74 120.962 244.604 121.225C248.909 121.62 253.193 122.659 257.032 124.684C264.949 128.86 269.999 136.646 274.172 144.286C277.075 149.601 279.661 155.085 282.246 160.56C282.968 162.089 283.688 163.619 284.41 165.148C284.786 165.945 285.161 166.741 285.538 167.537C285.771 168.029 285.926 168.701 286.488 168.887C286.939 169.036 287.459 169.079 287.925 169.17C289.002 169.382 290.079 169.595 291.156 169.807C294.607 170.486 298.057 171.165 301.508 171.843C302.402 172.017 302.785 170.647 301.886 170.47Z" fill="black"/>
<path d="M99.432 32.9371C109.562 30.4295 119.673 27.9869 130.076 26.9015C144.884 25.3569 159.855 26.3024 174.348 29.7185C189.265 33.2343 203.382 39.25 216.742 46.6869C230.354 54.2636 243.257 63.1099 255.559 72.6513C269.911 83.7821 283.485 95.9147 296.288 108.794C297.936 110.451 299.569 112.122 301.192 113.803C301.828 114.463 302.834 113.457 302.197 112.798C289.289 99.4158 275.58 86.7937 261.056 75.182C248.572 65.2019 235.488 55.9107 221.673 47.8591C208.71 40.3044 195.057 33.9308 180.583 29.8607C165.654 25.6628 150.077 23.9786 134.603 25.0814C123.57 25.8679 112.791 28.1303 102.084 30.8092C101.074 31.0618 100.064 31.3152 99.0538 31.5653C98.1656 31.7853 98.5419 33.1574 99.432 32.9371Z" fill="black"/>
<path d="M112.922 74.4421C114.775 67.4836 116.886 60.5905 119.01 53.7106C121.165 46.7302 123.361 39.7589 125.705 32.8392C126.121 31.6094 126.543 30.3813 126.984 29.16C127.139 28.7304 127.297 28.3015 127.462 27.8754C127.525 27.7131 127.589 27.5517 127.655 27.3904C127.744 27.1679 127.625 27.4546 127.688 27.3094C127.714 27.2497 127.74 27.1903 127.768 27.1314C128.146 26.3051 126.921 25.5816 126.539 26.4135C125.8 28.0246 125.263 29.7419 124.689 31.4157C123.653 34.4399 122.66 37.479 121.679 40.5215C119.241 48.0787 116.883 55.6628 114.624 63.2753C113.56 66.86 112.513 70.4508 111.551 74.064C111.315 74.9497 112.687 75.3275 112.922 74.4421Z" fill="black"/>
<path d="M98.6212 20.1022C114.448 15.5682 130.793 12.8972 147.247 12.2646C165.288 11.5713 183.597 13.21 201.141 17.5407C213.544 20.6023 225.355 26.0324 236.685 31.8349C248.963 38.123 260.849 45.1745 272.456 52.6224C281.536 58.45 290.482 64.5156 299.141 70.9563C299.876 71.5029 300.608 72.0531 301.337 72.6073C302.066 73.1611 302.775 71.9264 302.055 71.3789C293.885 65.1685 285.4 59.3593 276.81 53.7489C265.248 46.1974 253.408 39.0402 241.197 32.5822C229.678 26.49 217.723 20.796 205.176 17.1534C197.149 14.8229 188.806 13.3984 180.526 12.3312C171.564 11.1761 162.524 10.6311 153.488 10.699C136.804 10.8243 120.136 13.0258 103.977 17.1714C102.059 17.6639 100.147 18.185 98.2431 18.7304C97.3644 18.9824 97.7379 20.3553 98.6212 20.1022Z" fill="black"/>
<path d="M146.801 12.2689C153.18 11.8145 159.571 11.535 165.964 11.3555C173.998 11.1293 182.036 11.0626 190.073 11.0913C199.885 11.1265 209.696 11.3062 219.504 11.5784C231.321 11.9064 243.134 12.37 254.942 12.9242C268.896 13.579 282.843 14.3616 296.785 15.2325C298.628 15.3478 300.472 15.4647 302.315 15.5827C303.229 15.6412 303.225 14.2186 302.315 14.1603C288.104 13.2491 273.887 12.4249 259.663 11.7281C247.605 11.1372 235.542 10.6369 223.474 10.2711C213.437 9.96689 203.396 9.75469 193.354 9.68582C185.107 9.62939 176.858 9.66794 168.613 9.86398C162.03 10.0205 155.448 10.275 148.876 10.7044C148.184 10.7498 147.492 10.797 146.801 10.8463C145.893 10.9113 145.886 12.3342 146.801 12.2689Z" fill="black"/>
<path d="M260.883 125.487C260.828 116.443 260.736 107.4 260.623 98.3564C260.544 91.9447 260.454 85.5329 260.354 79.1214C260.336 77.9487 260.317 76.7757 260.297 75.6028C260.282 74.6885 258.859 74.6857 258.875 75.6028C258.933 79.0464 258.984 82.4903 259.034 85.9342C259.15 93.9082 259.25 101.882 259.332 109.856C259.385 115.066 259.429 120.277 259.46 125.487C259.466 126.402 260.888 126.404 260.883 125.487Z" fill="black"/>
<path d="M117.941 114.597C116.6 120.886 115.31 127.186 114.105 133.502C114.03 133.895 113.955 134.288 113.881 134.682C113.714 135.577 115.085 135.96 115.253 135.06C116.05 130.781 116.913 126.514 117.789 122.251C118.288 119.824 118.796 117.398 119.312 114.975C119.503 114.082 118.132 113.701 117.941 114.597Z" fill="black"/>
<path d="M260.068 82.3718C249.854 74.4578 239.414 66.7998 228.466 59.9256C219.393 54.2288 209.94 49.0541 199.958 45.1255C194.259 42.8822 188.386 40.9991 182.521 39.2423C176.518 37.4445 170.41 35.8839 164.177 35.1454C158.93 34.5241 153.443 34.4976 148.352 36.0796C146.278 36.7244 144.057 37.6143 142.342 38.9783C141.152 39.9249 140.24 41.2236 139.434 42.4981C136.832 46.612 135.025 51.2609 133.337 55.8056C131.105 61.8126 129.202 67.9413 127.447 74.1022C126.975 75.7593 126.516 77.4199 126.067 79.0832C125.828 79.968 127.2 80.3457 127.439 79.4616C129.152 73.1192 131.008 66.8111 133.137 60.5952C134.847 55.6037 136.685 50.5972 139.127 45.9101C139.957 44.3174 140.856 42.7075 142.009 41.322C143.103 40.0092 144.451 39.22 146.001 38.4964C150.599 36.3495 155.838 35.9666 160.84 36.2672C166.847 36.6282 172.769 37.975 178.553 39.5773C184.654 41.2675 190.709 43.2322 196.66 45.392C206.403 48.9285 215.637 53.7745 224.486 59.1403C235.086 65.5674 245.191 72.7903 255.049 80.295C256.392 81.3167 257.729 82.3446 259.063 83.3778C259.777 83.9318 260.791 82.9321 260.068 82.3718Z" fill="black"/>
<path d="M118.297 75.159C120.185 68.0373 122.398 60.9981 124.678 53.9935C126.966 46.9608 129.332 39.9407 131.997 33.0399C132.865 30.79 133.713 28.4721 134.891 26.3603C135.338 25.5601 134.11 24.8419 133.663 25.6424C132.628 27.4972 131.861 29.5178 131.083 31.4889C129.866 34.5705 128.737 37.6865 127.635 40.8108C124.971 48.3669 122.477 55.9865 120.137 63.6491C119.009 67.3424 117.915 71.0477 116.925 74.7806C116.691 75.6667 118.062 76.0445 118.297 75.159Z" fill="black"/>
<path d="M163.193 135.232C164.149 138.238 164.93 141.296 165.587 144.38C165.777 145.275 167.149 144.896 166.958 144.002C166.302 140.918 165.52 137.86 164.565 134.854C164.289 133.985 162.915 134.356 163.193 135.232Z" fill="black"/>
<path d="M202.95 84.2638C208.938 85.8507 213.585 90.3102 217.104 95.229C220.783 100.372 223.505 106.149 225.929 111.967C227.041 114.637 228.079 117.338 229.195 120.006C229.344 120.363 229.665 120.61 230.07 120.503C230.405 120.414 230.715 119.982 230.566 119.628C228.356 114.341 226.355 108.974 223.811 103.832C220.926 98.0016 217.404 92.1837 212.438 87.8837C209.79 85.5909 206.729 83.7933 203.328 82.8921C202.442 82.6574 202.065 84.0293 202.95 84.2638Z" fill="black"/>
<path d="M165.444 82.5485C164.933 78.8078 164.412 75.0639 164.1 71.3003C163.869 68.5188 163.586 65.5155 164.195 62.7617C164.292 62.3239 164.411 61.8804 164.611 61.4768C164.679 61.3387 164.756 61.2041 164.84 61.0748C164.939 60.9223 164.989 60.862 165.034 60.8094C165.475 60.297 165.861 60.0049 166.411 59.6694C167.802 58.8211 169.386 58.3365 170.965 57.957C175.177 56.9448 179.598 56.736 183.914 56.8402C187.828 56.9349 191.885 57.2464 195.641 58.4198C196.325 58.6333 196.869 58.8298 197.459 59.1298C197.714 59.2598 197.958 59.4042 198.196 59.5631C198.245 59.5951 198.291 59.629 198.337 59.6635C198.353 59.6753 198.274 59.6068 198.388 59.7058C198.472 59.779 198.553 59.8543 198.632 59.9334C198.672 59.9733 198.708 60.0166 198.745 60.0588C198.833 60.1587 198.675 59.9544 198.748 60.0607C198.86 60.2229 198.957 60.3948 199.054 60.5661C199.333 61.0605 199.58 61.573 199.806 62.0937C200.323 63.2896 200.725 64.5387 201.074 65.7927C201.89 68.7211 202.408 71.7425 202.633 74.7736C202.74 76.2239 202.78 77.6814 202.715 79.1344C202.668 80.1693 202.62 81.2638 202.34 82.2667C202.288 82.4535 202.393 82.2079 202.282 82.4024C202.229 82.4974 202.175 82.5899 202.117 82.6824C201.997 82.8737 202.142 82.6763 202.003 82.8321C201.927 82.9169 201.852 83.0012 201.77 83.0814C201.361 83.4878 201.091 83.6649 200.538 83.9871C199.291 84.7134 198.002 85.1652 196.597 85.5808C192.857 86.6872 188.937 87.2143 185.052 87.4581C181.088 87.707 177.032 87.6844 173.11 86.9996C171.593 86.7347 169.937 86.3397 168.598 85.7496C167.999 85.4856 167.418 85.1727 166.889 84.786C166.625 84.594 166.076 84.0465 165.912 83.7919C165.611 83.3252 165.529 83.1352 165.444 82.5485C165.313 81.6461 163.942 82.0297 164.072 82.9266C164.478 85.7255 167.657 87.0705 170.034 87.7591C173.851 88.865 177.957 89.0657 181.91 89.0045C186.183 88.9382 190.496 88.5028 194.667 87.5521C196.357 87.1671 198.032 86.6873 199.63 86.0111C200.797 85.5175 202.011 84.9112 202.888 83.973C204.088 82.6918 204.063 80.791 204.138 79.1346C204.278 76.0038 203.966 72.8467 203.424 69.7652C202.916 66.8811 202.186 64.0019 201.007 61.314C200.651 60.5028 200.271 59.6001 199.655 58.9453C199.267 58.5321 198.766 58.2104 198.267 57.9482C196.828 57.1929 195.214 56.7696 193.633 56.4393C191.547 56.0038 189.423 55.7465 187.301 55.5856C182.663 55.2337 177.949 55.3262 173.349 56.0455C171.408 56.3491 169.457 56.7709 167.629 57.5031C166.234 58.0615 164.813 58.7932 163.87 60.0009C162.53 61.7178 162.473 64.2345 162.455 66.3124C162.423 69.9428 162.859 73.5792 163.309 77.1755C163.549 79.0943 163.811 81.0101 164.072 82.9263C164.124 83.3096 164.611 83.5116 164.947 83.4231C165.358 83.3148 165.495 82.9272 165.444 82.5485Z" fill="black"/>
<path d="M157.865 105.515C157.482 103.758 157.4 101.936 157.443 100.143C157.49 98.2219 157.698 96.2799 158.246 94.4324C159.139 91.4197 161.364 89.0107 163.843 87.1757C164.59 86.6225 165.447 86.1655 166.143 85.5474C166.828 84.9381 165.819 83.935 165.137 84.5414C165.068 84.6023 165.041 84.6162 165.139 84.5445C165.086 84.5835 165.032 84.6225 164.978 84.6603C164.812 84.7749 164.644 84.8875 164.477 85.0002C164.036 85.2977 163.598 85.5987 163.17 85.9143C161.948 86.8149 160.788 87.8062 159.785 88.9496C158.61 90.2894 157.654 91.804 157.057 93.4886C156.393 95.3628 156.148 97.4104 156.049 99.3871C155.941 101.553 156.03 103.77 156.493 105.894C156.688 106.788 158.06 106.409 157.865 105.515Z" fill="black"/>
<path d="M203.272 87.8349C205.598 92.4073 207.751 97.0699 209.866 101.743C211.992 106.442 214.092 111.164 215.98 115.965C216.546 117.402 217.205 118.888 217.51 120.411C217.69 121.308 219.061 120.928 218.882 120.032C218.624 118.747 218.09 117.494 217.62 116.276C216.785 114.11 215.887 111.969 214.975 109.834C212.765 104.658 210.449 99.5246 208.054 94.4309C206.9 91.9782 205.729 89.5328 204.5 87.1171C204.085 86.301 202.857 87.02 203.272 87.8349Z" fill="black"/>
<path d="M163.645 88.5268C165.435 89.7685 166.671 92.2061 167.605 94.2833C169.001 97.3871 169.996 100.675 170.901 103.95C172.848 110.993 174.221 118.173 175.886 125.284C176.498 127.897 177.065 130.63 178.198 133.079C178.582 133.91 179.809 133.188 179.426 132.361C179.264 132.012 179.144 131.699 178.974 131.215C178.794 130.701 178.632 130.18 178.478 129.657C178.091 128.339 177.758 127.006 177.438 125.671C176.634 122.308 175.923 118.923 175.174 115.547C173.587 108.386 172.033 101.052 169.145 94.2791C168.062 91.738 166.701 88.92 164.363 87.2985C163.609 86.7755 162.898 88.0082 163.645 88.5268Z" fill="black"/>
<path d="M167.636 61.5799C170.765 62.7762 171.501 66.9211 171.833 69.8275C172.311 74.0132 171.945 78.2496 170.775 82.2947C170.52 83.1758 171.893 83.5521 172.147 82.6729C173.432 78.2314 173.777 73.557 173.148 68.9764C172.678 65.5566 171.572 61.5687 168.014 60.2081C167.158 59.8811 166.788 61.2556 167.636 61.5799Z" fill="black"/>
<path d="M159.131 89.7042C155.538 92.4303 152.901 96.6058 152.19 101.08C152.048 101.975 153.418 102.361 153.562 101.458C154.211 97.371 156.545 93.4393 159.849 90.9325C160.569 90.386 159.861 89.1501 159.131 89.7042Z" fill="black"/>
<path d="M259.819 87.296C256.989 87.3044 253.695 87.2122 251.218 85.6537C250.421 85.1525 249.755 84.4399 249.427 83.5466C248.956 82.267 248.856 80.7613 248.711 79.4117C248.52 77.6376 248.434 75.8526 248.3 74.0738C248.231 73.1667 246.808 73.1591 246.877 74.0738C247.007 75.7817 247.092 77.4949 247.266 79.1995C247.422 80.7114 247.538 82.3771 248.02 83.8237C248.854 86.3258 251.295 87.5799 253.715 88.1469C255.708 88.6136 257.779 88.7242 259.82 88.7185C260.735 88.7157 260.736 87.2932 259.819 87.296Z" fill="black"/>
<path d="M242.804 119.996C242.337 114.366 242.393 108.668 242.624 103.028C242.717 100.736 242.827 98.4297 243.125 96.1528C243.428 93.8318 244.336 91.6781 245.764 89.8076C246.542 88.7881 247.454 87.8694 248.419 87.0272C248.953 86.5606 249.569 86.1525 250.063 85.6425C250.7 84.9846 249.695 83.9777 249.057 84.6368C248.635 85.0727 248.111 85.4239 247.65 85.8174C246.795 86.5459 245.987 87.3289 245.258 88.1846C243.57 90.1695 242.279 92.5314 241.849 95.1228C241.493 97.2734 241.373 99.4688 241.264 101.643C241.116 104.576 241.054 107.514 241.055 110.451C241.056 113.633 241.118 116.823 241.382 119.996C241.457 120.902 242.88 120.909 242.804 119.996Z" fill="black"/>
<path d="M248.148 88.6055C251.58 90.8392 253.407 95.0955 254.717 98.8088C256.276 103.229 257.252 107.833 258.162 112.422C258.558 114.415 258.922 116.417 259.398 118.393C259.612 119.282 260.984 118.905 260.77 118.014C259.795 113.966 259.158 109.842 258.197 105.789C257.106 101.187 255.777 96.4578 253.355 92.3564C252.211 90.4191 250.768 88.6148 248.866 87.3772C248.097 86.8766 247.383 88.1076 248.148 88.6055Z" fill="black"/>
<path d="M243.803 90.1221C242.154 91.5626 240.895 93.3613 240.002 95.3568C238.224 99.3293 237.599 103.754 237.294 108.061C237.008 112.092 237.058 116.142 237.257 120.176C237.302 121.087 238.724 121.092 238.679 120.176C238.378 114.061 238.324 107.786 239.523 101.754C240.124 98.7315 241.027 95.7479 242.844 93.2399C243.055 92.9481 243.052 92.9507 243.307 92.647C243.472 92.4502 243.644 92.2583 243.821 92.0716C244.134 91.7406 244.465 91.4277 244.809 91.128C245.5 90.5246 244.491 89.5222 243.803 90.1221Z" fill="black"/>
<path d="M159.355 138.356C159.538 139.867 159.797 141.366 160.149 142.847C160.235 143.209 160.667 143.459 161.024 143.343C161.401 143.222 161.613 142.857 161.52 142.469C161.355 141.773 161.208 141.074 161.082 140.371C160.957 139.675 160.856 139.006 160.778 138.356C160.733 137.988 160.483 137.627 160.066 137.645C159.72 137.661 159.308 137.961 159.355 138.356Z" fill="black"/>
<path d="M70.168 69.7231C70.1199 69.72 70.0724 69.7143 70.0247 69.7099C69.8392 69.6928 70.0946 69.7225 69.9945 69.7071C69.9093 69.6944 69.8241 69.6811 69.7391 69.6667C69.1858 69.5712 68.6398 69.433 68.1022 69.2721C66.0592 68.6596 64.1363 67.6916 62.3312 66.5649C60.1055 65.1761 58.0569 63.4985 56.5842 61.3034C55.5421 59.7503 54.7527 57.9843 54.115 56.231C53.0428 53.2833 52.3787 50.1958 51.7924 47.1203C51.6213 46.2222 50.2501 46.6026 50.421 47.4987C51.3414 52.3282 52.4517 57.4302 55.1123 61.6471C56.5366 63.9042 58.4903 65.7183 60.6963 67.1989C62.7054 68.5475 64.8727 69.6999 67.1721 70.4687C68.129 70.7885 69.1534 71.0848 70.1678 71.1457C71.0822 71.2004 71.079 69.7778 70.168 69.7231Z" fill="black"/>
<path d="M68.2312 40.6856C68.5499 41.9637 69.0573 43.6001 68.4767 44.8807C68.1199 45.6675 67.272 46.0377 66.8448 46.7739C65.8133 48.5518 67.6044 50.4818 69.0561 51.3271C69.8491 51.7885 70.5658 50.5595 69.7743 50.0989C69.2523 49.7948 68.7537 49.3843 68.3892 48.8966C68.1499 48.5768 67.9261 48.1532 67.9817 47.7513C68.0241 47.4451 68.2351 47.2664 68.4995 47.0266C69.2419 46.3531 69.8385 45.6476 70.0315 44.6297C70.3061 43.1828 69.9529 41.7109 69.603 40.3074C69.3813 39.4197 68.0092 39.7958 68.2312 40.6856Z" fill="black"/>
<path fill-rule="evenodd" clip-rule="evenodd" d="M58.9375 42.5396C58.9346 41.2326 59.645 40.162 60.5952 40.041C61.5457 40.0387 62.3794 40.9875 62.3825 42.4132C62.3856 43.7198 61.675 44.7908 60.7248 44.9117C59.8933 44.9136 59.0591 43.8461 58.9375 42.5396Z" fill="black"/>
<path d="M49.4254 38.1663C48.2188 38.0746 46.9582 38.2843 46.0519 39.1451C45.2858 39.8728 44.9649 40.9128 44.8499 41.9347C44.5772 44.3557 45.3637 46.8216 47.0504 48.5888C48.2173 49.8115 49.7562 50.6094 51.4005 50.964C52.293 51.1566 52.6743 49.7854 51.7786 49.5922C48.9455 48.9809 46.5733 46.76 46.2781 43.7892C46.1811 42.8147 46.1511 41.717 46.5842 40.8113C47.1213 39.6884 48.2879 39.5023 49.4254 39.5886C50.3386 39.6583 50.3339 38.2353 49.4254 38.1663Z" fill="black"/>
<path d="M65.221 33.7144C63.3877 32.7712 61.3375 32.5355 59.333 33.0078C58.4164 33.2237 57.4561 33.5687 56.6626 34.0883C55.8998 34.5879 56.6116 35.8201 57.3805 35.3164C58.0734 34.8626 58.7108 34.6358 59.5192 34.4267C61.1994 33.9923 62.9527 34.1448 64.503 34.9425C65.3157 35.3605 66.0363 34.1336 65.221 33.7144Z" fill="black"/>
<path d="M90.6527 38.9012C91.8152 38.8102 93.0485 38.9778 93.6779 40.0758C94.1945 40.9772 94.2037 42.1248 94.086 43.1283C93.7336 46.133 91.5046 48.3898 88.5883 49.0327C87.6949 49.2296 88.0729 50.6013 88.9667 50.4044C91.8228 49.7747 94.1833 47.7706 95.1249 44.9818C95.7827 43.0338 95.8803 40.3732 94.4544 38.7308C93.5108 37.644 92.0244 37.3713 90.6527 37.4787C89.746 37.5497 89.7384 38.973 90.6527 38.9012Z" fill="black"/>
<path d="M48.3619 43.4134C48.465 43.4657 48.5611 43.529 48.6528 43.5991C48.6049 43.5621 48.5569 43.5249 48.5088 43.4879C48.7453 43.6723 48.9474 43.8966 49.1301 44.1329C49.0931 44.085 49.0559 44.0368 49.0189 43.989C49.1633 44.1771 49.3009 44.374 49.4169 44.5813C49.5033 44.7355 49.6726 44.8614 49.8419 44.908C50.0121 44.955 50.2388 44.9337 50.3899 44.8365C50.5418 44.7386 50.6753 44.5928 50.7168 44.4115C50.7596 44.2226 50.7411 44.0348 50.645 43.8632C50.5692 43.7276 50.4823 43.597 50.3929 43.4696C50.1785 43.1642 49.9442 42.8616 49.6666 42.6099C49.4892 42.449 49.2945 42.2938 49.0797 42.1853C48.9088 42.0989 48.7209 42.0617 48.5317 42.1136C48.3668 42.159 48.1881 42.2867 48.1068 42.4404C48.0195 42.6055 47.9758 42.8056 48.035 42.9884C48.0902 43.1588 48.1968 43.3303 48.3619 43.4134Z" fill="black"/>
<path d="M91.4904 41.8505C91.297 41.9491 91.1221 42.0873 90.959 42.2288C90.8289 42.3418 90.7095 42.4668 90.598 42.5978C90.3858 42.8469 90.189 43.1124 90.0168 43.3908C89.9874 43.4381 89.9585 43.4855 89.9316 43.5342C89.8409 43.6982 89.8095 43.9001 89.8599 44.0825C89.9053 44.2473 90.0328 44.426 90.1868 44.5075C90.3518 44.5946 90.5517 44.6384 90.7348 44.579C90.909 44.5227 91.0689 44.4163 91.1599 44.2521C91.2791 44.0368 91.4215 43.8322 91.5712 43.6374C91.5342 43.6853 91.4971 43.7332 91.4601 43.7812C91.6409 43.5479 91.8409 43.3262 92.0749 43.1444C92.0267 43.1817 91.9788 43.2187 91.9309 43.2557C92.0185 43.1891 92.1102 43.1289 92.2083 43.0787C92.3617 43.0002 92.4903 42.8163 92.5352 42.6536C92.582 42.4834 92.5609 42.2568 92.4634 42.1057C92.3655 41.9538 92.2196 41.8202 92.0384 41.7787C91.8458 41.735 91.6673 41.7602 91.4904 41.8505Z" fill="black"/>
<path d="M57.9905 42.0879C58.132 41.9797 58.2836 41.8874 58.4423 41.807C58.4851 41.7852 58.7326 41.6787 58.6034 41.7294C58.704 41.6901 58.8048 41.6526 58.9074 41.6187C59.1265 41.5463 59.3502 41.4875 59.5758 41.4401C59.6941 41.4152 59.8132 41.3947 59.9326 41.3754C59.9566 41.3717 59.9809 41.3683 60.005 41.3646C59.9501 41.372 59.9481 41.3726 59.9992 41.3664C60.0608 41.3597 60.1225 41.353 60.1841 41.3475C60.4325 41.3257 60.6823 41.3173 60.9314 41.3248C61.0554 41.3282 61.1797 41.3356 61.3029 41.3473C61.3521 41.352 61.4012 41.3568 61.45 41.3633C61.3378 41.3487 61.4949 41.3722 61.5148 41.3756C61.7508 41.4171 61.9803 41.4779 62.2065 41.5562C62.2444 41.5695 62.3542 41.6141 62.2624 41.5747C62.315 41.5974 62.3666 41.6226 62.4176 41.6486C62.5283 41.705 62.634 41.7688 62.7374 41.8382C63.0567 42.0522 63.5249 41.9 63.7104 41.583C63.9148 41.2333 63.7752 40.8243 63.4553 40.61C62.5155 39.9797 61.2897 39.8286 60.1841 39.9251C59.195 40.0117 58.0799 40.2442 57.2726 40.8596C56.9678 41.0923 56.8067 41.4724 57.0175 41.833C57.1929 42.133 57.683 42.322 57.9905 42.0879Z" fill="black"/>
<path d="M70.0786 55.1113C68.038 55.1216 65.9884 55.2396 63.9614 55.479C63.5045 55.533 63.1501 55.89 63.2755 56.3794C63.7761 58.3329 65.2216 60.2165 67.0151 61.1291C68.5823 61.9264 70.4903 62.1313 72.1562 61.5207C73.588 60.9955 74.736 59.9982 75.6298 58.7802C76.1447 58.0781 76.5901 57.2932 76.8847 56.471C77.0039 56.1388 76.7485 55.6509 76.388 55.5961C74.3046 55.2783 72.1856 55.1146 70.0786 55.1113C69.1631 55.1099 69.1619 56.5324 70.0786 56.5338C72.0512 56.5368 74.0817 56.6736 76.0097 56.9674C75.8442 56.6759 75.6786 56.3843 75.513 56.0925C75.5008 56.127 75.4902 56.1881 75.4662 56.214C75.3817 56.3067 75.4774 56.1901 75.4694 56.2084C75.4369 56.2827 75.4041 56.3566 75.3697 56.43C75.1948 56.8048 74.9944 57.1681 74.7733 57.5174C74.1468 58.5064 73.3168 59.3817 72.2711 59.9275C69.7739 61.2307 66.8376 60.0034 65.4286 57.7301C65.046 57.1124 64.8169 56.6639 64.6473 56.001C64.4185 56.3011 64.1901 56.6011 63.9613 56.9012C65.9885 56.6617 68.0379 56.5438 70.0785 56.5335C70.9937 56.5291 70.9955 55.1067 70.0786 55.1113Z" fill="black"/>
<path d="M70.2884 71.1435C71.0362 71.1384 71.8151 70.9306 72.5252 70.7188C74.6205 70.0935 76.5966 69.0542 78.4279 67.8737C80.7736 66.3614 82.8865 64.5527 84.5861 62.3301C85.8135 60.7252 86.726 58.9641 87.4471 57.0809C88.6373 53.9709 89.3244 50.6764 89.9318 47.4112C90.0983 46.5164 88.7273 46.1327 88.56 47.0331C87.6907 51.708 86.7315 56.7272 84.0019 60.7245C82.572 62.8186 80.702 64.6011 78.6202 66.0382C76.789 67.3021 74.822 68.4467 72.7083 69.1676C72.0839 69.3806 71.4482 69.5523 70.7988 69.6683C70.6948 69.6868 70.5101 69.7072 70.6636 69.6904C70.5978 69.6975 70.5321 69.705 70.4661 69.7111C70.4074 69.7164 70.3478 69.7206 70.2888 69.721C69.3736 69.7269 69.3715 71.1494 70.2884 71.1435Z" fill="black"/>
<path fill-rule="evenodd" clip-rule="evenodd" d="M80.2033 42.4911C80.2005 41.1845 79.4851 40.1166 78.5346 40C77.5841 40.002 76.7546 40.9545 76.7578 42.3803C76.7606 43.6869 77.4757 44.7548 78.4265 44.8714C79.377 44.869 80.0875 43.7982 80.2033 42.4911Z" fill="black"/>
<path d="M74.2469 34.9206C75.7928 34.1169 77.5461 33.9521 79.228 34.3802C80.0373 34.5863 80.6756 34.8088 81.3709 35.2595C82.1412 35.7591 82.8549 34.528 82.0888 34.0314C81.2933 33.5155 80.3313 33.1734 79.4141 32.9621C77.4068 32.4999 75.3592 32.7403 73.5288 33.6923C72.7165 34.1148 73.4349 35.3428 74.2469 34.9206Z" fill="black"/>
<path d="M81.8703 40.8044C81.0555 40.1879 79.9524 39.9346 78.9549 39.8371C77.8463 39.7288 76.5983 39.8939 75.6868 40.5792C75.3801 40.8097 75.2217 41.1937 75.4314 41.5522C75.608 41.8542 76.0955 42.0395 76.4044 41.8073C76.5883 41.6694 76.7859 41.5475 76.998 41.4581C76.88 41.5079 77.0864 41.4292 77.0892 41.4283C77.134 41.413 77.1788 41.3987 77.224 41.3851C77.3381 41.351 77.4543 41.3224 77.5709 41.2986C77.6417 41.284 77.7129 41.2714 77.7846 41.2607C77.7066 41.2724 77.7719 41.2621 77.8126 41.2584C77.9348 41.247 78.0568 41.2372 78.1793 41.233C78.4382 41.2245 78.6975 41.2343 78.9549 41.2595C79.1446 41.278 79.2846 41.3002 79.5547 41.3603C79.7785 41.4101 80.0002 41.472 80.2173 41.5464C80.2689 41.564 80.3203 41.5823 80.3713 41.6015C80.3873 41.6075 80.5482 41.6716 80.4632 41.6361C80.3788 41.6011 80.5313 41.6672 80.5468 41.6744C80.5914 41.6952 80.6358 41.7167 80.6794 41.7392C80.8452 41.8236 81.0037 41.92 81.1522 42.0326C81.4588 42.2643 81.9477 42.0809 82.1252 41.7774C82.339 41.4129 82.1778 41.0371 81.8703 40.8044Z" fill="black"/>
<path d="M72.0616 26.0218C73.3918 27.1097 73.7174 28.8328 74.137 30.4126C74.5344 31.9078 75.1338 33.2443 76.3724 34.2314C77.4393 35.0816 78.6704 35.5276 79.9729 35.8624C81.0239 36.1329 82.0896 36.4019 83.0283 36.9667C84.3859 37.783 85.058 39.1246 85.3375 40.6478C85.5026 41.5469 86.8739 41.166 86.7093 40.2694C86.4445 38.8275 85.8272 37.4315 84.711 36.4465C83.7792 35.6243 82.6359 35.1333 81.4544 34.7868C80.3439 34.4611 79.1945 34.2752 78.1661 33.7197C76.6754 32.9148 75.9576 31.7087 75.5304 30.1159C75.0385 28.2817 74.6129 26.28 73.0675 25.016C72.3645 24.4411 71.3523 25.4416 72.0616 26.0218Z" fill="black"/>
<path d="M88.7268 36.2959C89.7126 38.2158 89.2138 40.5093 87.6645 41.9711C86.9973 42.6006 88.0044 43.6052 88.6702 42.9769C89.5817 42.1171 90.2494 40.9696 90.521 39.744C90.8376 38.3156 90.6208 36.8751 89.9548 35.5781C89.7796 35.2366 89.3003 35.1368 88.9817 35.323C88.6351 35.5257 88.5505 35.9529 88.7268 36.2959Z" fill="black"/>
<path d="M64.5022 23.6393C65.1245 22.6845 66.297 21.7133 67.5227 21.9129C68.913 22.1391 69.2716 24.1456 69.4841 25.272C69.8157 27.0293 69.782 28.8318 69.9653 30.6063C70.1046 31.9544 70.279 33.4213 71.0816 34.5602C71.9732 35.8248 73.4249 36.3771 74.8955 36.6537C75.7901 36.822 76.1736 35.4515 75.2736 35.2822C74.0093 35.0442 72.7112 34.6415 72.0607 33.4419C71.2786 31.999 71.3279 30.0785 71.2312 28.4842C71.1193 26.6409 71.0101 24.7339 70.3205 22.999C69.7722 21.6188 68.8716 20.4925 67.2708 20.471C65.6046 20.4486 64.1448 21.5852 63.274 22.9215C62.7727 23.6906 64.0037 24.4042 64.5022 23.6393Z" fill="black"/>
<path d="M77.4629 25.1017C78.1671 27.0384 79.3306 28.8319 80.978 30.0937C82.3866 31.1724 84.2186 31.7697 85.9541 31.1654C86.8131 30.866 86.4435 29.4914 85.5759 29.7936C82.4526 30.8815 79.7598 27.2674 78.8348 24.7236C78.7035 24.3629 78.3514 24.1193 77.9599 24.2267C77.6118 24.3227 77.3309 24.7391 77.4629 25.1017Z" fill="black"/>
<path d="M63.7705 25.5377C63.5941 27.6019 63.0696 29.6459 61.9837 31.4256C61.1877 32.7302 60.1087 33.8386 58.8928 34.7585C57.8092 35.5782 56.6287 36.2512 55.4879 36.985C54.5359 37.5972 53.5643 38.2704 52.9322 39.2305C52.1855 40.3649 52.2296 41.7374 52.6665 42.9788C52.9684 43.8366 54.3433 43.4674 54.0382 42.6004C53.8302 42.0098 53.7339 41.6072 53.7673 41.0172C53.774 40.8997 53.8136 40.6962 53.8963 40.4491C53.9318 40.3433 54.0241 40.1649 54.1603 39.9484C54.6203 39.2168 55.5997 38.5946 56.4515 38.0567C59.0007 36.4474 61.5145 34.8636 63.1499 32.2433C64.411 30.2229 64.9917 27.8909 65.193 25.5375C65.2707 24.6254 63.8478 24.6307 63.7705 25.5377Z" fill="black"/>
<path d="M49.2138 34.7668C48.5629 36.5792 48.4531 38.5521 49.2418 40.3365C49.5451 41.0233 50.0027 41.7545 50.5999 42.2282C50.9004 42.4669 51.3123 42.5217 51.6055 42.2282C51.8533 41.9807 51.9081 41.4625 51.6055 41.2225C51.4578 41.1051 51.3268 40.9632 51.2032 40.8212C51.1664 40.7786 50.9787 40.533 51.1099 40.7132C51.0446 40.6235 50.9789 40.5349 50.9178 40.4425C50.7678 40.2163 50.6353 39.9788 50.5212 39.7325C50.5089 39.7061 50.4243 39.5036 50.4797 39.6413C50.4469 39.5594 50.4158 39.4765 50.3866 39.3929C50.3328 39.2379 50.2861 39.0802 50.246 38.9212C50.1495 38.5369 50.1198 38.3359 50.1021 37.9413C50.0586 36.9778 50.261 36.0485 50.5853 35.1452C50.7151 34.7836 50.439 34.3664 50.0886 34.2703C49.6938 34.1616 49.3439 34.404 49.2138 34.7668Z" fill="black"/>
<path d="M61.5582 1.07033C62.0151 1.96904 62.6695 2.79656 63.57 3.28175C64.4894 3.7772 65.5431 3.90686 66.5739 3.90748C66.9457 3.90763 67.3022 3.58008 67.2851 3.19625C67.2677 2.81071 66.9725 2.48517 66.5739 2.48502C66.3239 2.48471 66.074 2.47802 65.8247 2.45859C65.7082 2.44957 65.5923 2.43776 65.4765 2.42299C65.5707 2.43496 65.5531 2.43449 65.4702 2.41988C65.4158 2.4104 65.3614 2.40153 65.3073 2.39112C65.1082 2.35272 64.9112 2.30313 64.7187 2.23892C64.6681 2.22229 64.3755 2.09792 64.5572 2.18373C64.4669 2.14114 64.3761 2.10056 64.2881 2.05315C64.2009 2.0062 64.1154 1.95521 64.0325 1.90095C63.9979 1.87826 63.9643 1.854 63.9298 1.83084C63.7981 1.74223 63.9571 1.86084 63.9138 1.82198C63.7665 1.68906 63.6171 1.56469 63.483 1.41747C63.4101 1.33756 63.3406 1.25502 63.2739 1.16998C63.3813 1.30725 63.2657 1.15396 63.2515 1.13422C63.2181 1.08727 63.1858 1.03986 63.154 0.991666C63.0183 0.785992 62.8981 0.571145 62.7865 0.351635C62.6179 0.0192609 62.1232 -0.103243 61.8135 0.0965237C61.474 0.316034 61.3777 0.714946 61.5582 1.07033Z" fill="black"/>
<path d="M62.4148 3.68175C58.6189 3.68004 54.3155 3.05447 51.004 5.36974C48.1813 7.34346 47.1871 10.5004 45.5631 13.3646C44.6541 14.9674 43.4752 16.2551 41.7692 17.012C40.9341 17.3825 41.657 18.6083 42.4871 18.2403C45.5539 16.88 46.8713 13.9692 48.273 11.1345C48.9611 9.7433 49.7268 8.3709 50.8714 7.30009C52.257 6.00386 54.0078 5.35559 55.8752 5.14665C58.0467 4.90351 60.2368 5.10343 62.4148 5.10421C63.33 5.10452 63.3314 3.68206 62.4148 3.68175Z" fill="black"/>
<path d="M46.6677 15.2883C46.4765 16.0601 45.9597 16.7207 45.4411 17.3149C44.7213 18.1396 43.9247 18.894 43.1532 19.6691C41.6735 21.1553 40.0129 22.8439 39.5108 24.9525C39.2134 26.1996 39.4176 27.4296 39.9958 28.5636C40.4116 29.3795 41.6393 28.6606 41.2241 27.8457C39.9705 25.3863 41.8251 23.1037 43.4638 21.3859C44.3804 20.4253 45.3609 19.5256 46.2518 18.5402C47.0027 17.7097 47.7646 16.7762 48.0395 15.6663C48.2594 14.7779 46.8878 14.3989 46.6677 15.2883Z" fill="black"/>
<path d="M40.3793 31.53C40.2081 34.2118 40.8298 37.2298 42.2641 39.5076C42.9203 40.5498 43.7692 41.4311 44.7932 42.1148C45.5569 42.6246 46.2696 41.3929 45.5111 40.8865C42.6014 38.9441 41.5898 34.8497 41.8017 31.53C41.8597 30.6159 40.4371 30.6193 40.3793 31.53Z" fill="black"/>
<path d="M69.5618 3.07526C70.3417 1.97974 72.1807 1.64099 73.4247 1.47853C74.8585 1.29105 76.2861 1.54973 77.6078 2.11747C80.3207 3.28249 82.6043 5.2898 85.4947 6.07643C87.5964 6.64852 89.6577 6.2992 91.7155 5.72742C92.5962 5.48272 92.222 4.11001 91.3371 4.35595C89.3968 4.89493 87.5059 5.22559 85.5378 4.60732C84.0493 4.1397 82.6926 3.33815 81.3603 2.54343C80.0976 1.79023 78.8313 1.03003 77.4408 0.532401C75.9681 0.00539114 74.4162 -0.117733 72.8749 0.132403C71.2149 0.40166 69.3547 0.922917 68.3335 2.35735C67.8017 3.10449 69.0346 3.81541 69.5618 3.07526Z" fill="black"/>
<path d="M89.566 9.17721C92.7137 10.1661 95.3178 12.5753 96.624 15.6002C97.2088 16.9543 97.3665 18.357 97.5751 19.7995C97.7851 21.2527 98.0796 22.7016 98.656 24.0582C99.2987 25.5707 100.306 26.8033 101.844 27.4463C102.201 27.5957 102.622 27.2851 102.719 26.9496C102.836 26.5412 102.575 26.2219 102.222 26.0747C99.6483 24.9984 99.183 21.2834 98.8738 18.8871C98.6789 17.3751 98.3711 15.969 97.715 14.5813C97.027 13.1256 96.0421 11.7902 94.8688 10.6878C93.4624 9.3661 91.7845 8.38374 89.9437 7.80574C89.0686 7.53073 88.6943 8.9036 89.566 9.17721Z" fill="black"/>
<path d="M97.6134 27.8396C99.5199 31.9599 97.0425 37.0566 94.4278 40.2915C93.8574 40.9971 94.8578 42.0096 95.4338 41.2974C98.5009 37.5027 101.057 31.909 98.8418 27.1216C98.4578 26.2915 97.2312 27.0134 97.6134 27.8396Z" fill="black"/>
<path d="M48.7066 49.9542C50.111 51.381 50.9254 53.3541 51.3977 55.2716C51.8374 57.0566 52.0985 59.2214 51.3545 60.967C50.9996 61.7998 52.2246 62.5254 52.5826 61.685C53.4714 59.6001 53.317 57.218 52.8079 55.0535C52.2888 52.8461 51.3222 50.584 49.7122 48.9484C49.0691 48.2948 48.0636 49.3008 48.7066 49.9542Z" fill="black"/>
<path d="M53.7134 64.0279C53.7578 64.0188 53.8015 64.0036 53.8441 63.9881C54.0112 63.9274 54.1779 63.855 54.3324 63.7658C54.8115 63.4893 55.1946 63.0903 55.5147 62.6446C55.7664 62.2945 55.9462 61.9061 56.1065 61.5074C56.1707 61.3471 56.1179 61.1015 56.0347 60.9594C55.9484 60.8117 55.7791 60.6712 55.6097 60.6325C55.4275 60.5909 55.2232 60.6001 55.0617 60.704C54.8964 60.8108 54.8076 60.9477 54.7349 61.1293C54.7215 61.1624 54.708 61.1955 54.6942 61.2283C54.7182 61.1719 54.742 61.1152 54.7658 61.0587C54.6189 61.4049 54.4369 61.7348 54.2072 62.0331C54.2442 61.9853 54.2814 61.9374 54.3184 61.8892C54.1536 62.1003 53.9669 62.2932 53.755 62.4576C53.8032 62.4206 53.8511 62.3834 53.899 62.3464C53.737 62.4705 53.5619 62.5782 53.3737 62.6578C53.4301 62.634 53.4868 62.6099 53.5433 62.5861C53.4764 62.6141 53.4065 62.6419 53.3351 62.6565C53.1671 62.6911 52.9943 62.8389 52.9101 62.9832C52.8207 63.1358 52.7831 63.3603 52.8384 63.5315C52.9634 63.9178 53.3224 64.1081 53.7134 64.0279Z" fill="black"/>
<path d="M90.3256 49.1206C90.2995 51.5672 88.3574 53.5978 87.1887 55.5998C86.5389 56.7128 86.0122 57.9049 85.8598 59.1942C85.6902 60.629 86.0801 62.0179 86.7707 63.2692C87.2131 64.0709 88.442 63.354 87.9988 62.5512C87.374 61.4189 87.0674 60.1634 87.3429 58.8802C87.596 57.7014 88.1948 56.6466 88.8321 55.6367C90.0984 53.6291 91.7215 51.6089 91.748 49.1206C91.758 48.2049 90.3355 48.2043 90.3256 49.1206Z" fill="black"/>
<path d="M83.43 63.5408C83.8669 63.9713 84.3987 64.306 84.9571 64.5549C85.2575 64.6886 85.5667 64.8204 85.885 64.907C86.2437 65.0045 86.6743 64.7856 86.76 64.4101C86.8453 64.0353 86.6474 63.6397 86.2631 63.5352C86.048 63.4769 85.8376 63.3956 85.6321 63.3099C85.6889 63.3337 85.7453 63.3577 85.802 63.3814C85.3884 63.2069 84.9908 62.9923 84.6327 62.72C84.6805 62.7573 84.7287 62.7943 84.7766 62.8313C84.6571 62.7389 84.5433 62.6407 84.4355 62.535C84.1703 62.2733 83.691 62.2505 83.4299 62.535C83.1709 62.817 83.1469 63.2617 83.43 63.5408Z" fill="black"/>
<path d="M64.5867 17.3411C64.6534 14.934 65.1241 12.3557 66.6068 10.4151C67.0804 9.7951 67.6549 9.26389 68.2116 8.89328C68.4623 8.72631 68.7237 8.57536 68.9942 8.44275C69.0602 8.41026 69.3973 8.26382 69.2056 8.34201C69.3102 8.29942 69.4153 8.25838 69.5221 8.22122C69.7477 8.14256 69.9829 8.06794 70.2201 8.03343C70.6033 7.97762 70.806 7.49647 70.717 7.15849C70.6091 6.74948 70.2204 6.60677 69.842 6.66164C69.0548 6.77622 68.2599 7.17326 67.5995 7.59612C65.8979 8.68511 64.73 10.3726 64.0365 12.249C63.4366 13.8713 63.2118 15.62 63.1644 17.3413C63.1389 18.2568 64.5614 18.2562 64.5867 17.3411Z" fill="black"/>
<path d="M56.255 63.4543C56.345 64.5999 56.3893 65.7507 56.4103 66.8993C56.4459 68.8455 56.4596 70.8557 56.0639 72.7702C55.8794 73.6637 57.2502 74.0456 57.4357 73.1486C57.8497 71.1446 57.8682 69.0564 57.8348 67.0183C57.8153 65.8299 57.7706 64.6392 57.6773 63.4543C57.6061 62.5476 56.1832 62.5402 56.255 63.4543Z" fill="black"/>
<path d="M82.2727 63.8708C82.1847 65.0562 82.1454 66.2472 82.1312 67.4354C82.1071 69.4731 82.1343 71.5624 82.557 73.5639C82.7462 74.4592 84.1177 74.0802 83.9288 73.1858C83.5245 71.2727 83.5282 69.2634 83.5554 67.3166C83.5714 66.1677 83.6103 65.0169 83.6952 63.8708C83.7628 62.9576 82.34 62.9618 82.2727 63.8708Z" fill="black"/>
<path d="M47.7082 77.9197C40.9929 79.8448 34.3558 82.1995 28.3719 85.8625C25.3443 87.7157 22.1619 89.8297 19.9151 92.6175C17.7426 95.3134 16.008 98.35 14.639 101.525C13.364 104.482 12.5123 107.557 11.649 110.65C10.5911 114.439 9.56413 118.236 8.551 122.036C6.20013 130.856 3.88579 139.694 1.85843 148.594C1.18358 151.556 0.443901 154.558 0.136867 157.587C-0.400248 162.881 0.716888 168.294 2.20791 173.352C5.37945 184.11 10.6878 194.041 15.5203 204.109C15.9523 205.009 16.3776 205.912 16.7893 206.821C17.1661 207.654 18.3926 206.931 18.0174 206.103C16.038 201.729 13.8183 197.466 11.7428 193.138C9.21948 187.877 6.81823 182.543 4.89068 177.03C3.10771 171.932 1.61794 166.581 1.44677 161.151C1.34246 157.834 1.9842 154.653 2.68237 151.432C4.53608 142.879 6.75823 134.402 8.98784 125.942C10.7119 119.399 12.3854 112.821 14.3638 106.349C16.2153 100.292 19.4164 94.0983 24.5401 90.2088C30.1727 85.9327 36.5383 82.96 43.2371 80.7683C44.8432 80.2429 46.462 79.7569 48.0864 79.2913C48.9646 79.0393 48.5912 77.6665 47.7082 77.9197Z" fill="black"/>
<path d="M71.4233 91.9104C72.0801 95.906 72.85 99.8779 73.4204 103.889C74.4094 110.841 75.0264 117.852 75.1783 124.874C75.3616 133.36 74.618 141.793 73.9077 150.24C73.2567 157.982 72.5459 165.72 71.7885 173.453C71.2845 178.598 70.7637 183.741 70.2033 188.88C70.1638 189.244 70.1237 189.608 70.0832 189.972C69.9823 190.881 71.4057 190.873 71.5057 189.972C72.027 185.27 72.5062 180.563 72.9737 175.855C73.7241 168.301 74.429 160.743 75.08 153.18C75.8121 144.673 76.6696 136.146 76.6356 127.6C76.6067 120.325 76.0576 113.056 75.1108 105.845C74.5193 101.338 73.7324 96.8697 72.9429 92.3954C72.8923 92.1078 72.8425 91.8201 72.7949 91.5318C72.6469 90.6311 71.2761 91.0132 71.4233 91.9104Z" fill="black"/>
<path d="M148.641 147.247C149.682 145.981 150.218 144.373 149.882 142.74C149.469 140.735 147.777 139.308 146.133 138.258C142.337 135.833 137.589 135.013 133.185 135.921C131.769 136.213 129.753 136.803 129.107 138.269C128.74 139.098 129.966 139.823 130.335 138.987C130.737 138.076 132.009 137.682 132.922 137.442C134.777 136.954 136.794 136.872 138.694 137.085C140.62 137.301 142.526 137.91 144.242 138.808C145.72 139.582 147.374 140.626 148.171 142.147C148.872 143.487 148.577 145.096 147.635 146.241C147.059 146.942 148.059 147.955 148.641 147.247Z" fill="black"/>
<path d="M157.082 115.92C154.105 115.153 150.905 114.858 147.853 115.319C145.475 115.678 143.606 117.15 142.027 118.882C138.436 122.818 135.839 127.646 133.104 132.179C131.887 134.196 130.7 136.287 129.217 138.124C128.647 138.83 129.647 139.843 130.223 139.13C131.461 137.596 132.498 135.909 133.523 134.23C134.971 131.861 136.375 129.465 137.847 127.111C139.173 124.99 140.545 122.872 142.132 120.933C143.343 119.454 144.807 117.807 146.623 117.089C148.142 116.488 149.946 116.501 151.553 116.549C153.296 116.601 155.016 116.857 156.704 117.292C157.591 117.52 157.969 116.148 157.082 115.92Z" fill="black"/>
<path d="M90.7955 74.7922C93.6031 74.8957 96.423 74.7723 99.2318 74.7788C103.37 74.7886 107.516 74.8967 111.636 75.3108C115.323 75.6813 119.236 76.2119 122.632 77.7814C124.657 78.7168 126.305 80.242 127.948 81.7204C130.299 83.8344 132.518 86.0869 134.752 88.3221C139.186 92.7587 143.93 96.8142 148.789 100.776C153.625 104.719 158.508 108.622 163.025 112.936C165.028 114.849 166.93 116.78 167.757 119.497C168.416 121.659 168.356 123.953 167.817 126.134C167.013 129.385 165.32 132.524 162.973 134.842C160.052 137.727 156.715 140.227 153.399 142.637C152.039 143.625 150.666 144.6 149.251 145.509C148.225 146.168 147.33 147.029 146.155 147.416C145.074 147.773 144.062 147.651 143.119 147.003C142.362 146.483 141.65 147.716 142.401 148.231C144.35 149.57 146.722 149.069 148.534 147.749C148.77 147.577 148.991 147.389 149.216 147.204C149.314 147.123 149.282 147.162 149.199 147.216C149.337 147.127 149.482 147.045 149.622 146.958C150.221 146.583 150.809 146.189 151.393 145.789C154.923 143.377 158.365 140.79 161.611 138.005C162.904 136.895 164.224 135.75 165.297 134.418C166.337 133.126 167.189 131.65 167.884 130.147C169.841 125.911 170.452 120.996 168.136 116.762C166.676 114.093 164.205 112.044 161.984 110.024C159.596 107.851 157.127 105.77 154.634 103.719C149.702 99.6618 144.671 95.7162 139.969 91.3891C135.161 86.9647 130.86 81.9746 125.685 77.9566C122.84 75.7478 119.005 74.9399 115.526 74.3866C107.828 73.1623 100.031 73.4032 92.2671 73.392C91.7764 73.3913 91.2858 73.3878 90.7955 73.3697C89.88 73.336 89.8814 74.7585 90.7955 74.7922Z" fill="black"/>
<path d="M110.711 113.022C111.674 114.021 113.109 114.638 114.34 115.221C116.374 116.186 118.466 117.032 120.562 117.852C124.987 119.586 129.472 121.161 133.945 122.764C134.766 123.059 135.587 123.353 136.404 123.66C136.69 123.767 136.974 123.876 137.257 123.989C137.31 124.01 137.363 124.032 137.415 124.054C137.427 124.059 137.265 123.988 137.414 124.054C137.485 124.086 137.555 124.118 137.624 124.153C138.436 124.572 139.157 123.345 138.342 122.925C137.338 122.407 136.21 122.072 135.151 121.69C133.194 120.984 131.233 120.292 129.276 119.587C124.761 117.962 120.216 116.344 115.844 114.358C114.95 113.951 114.061 113.528 113.204 113.046C112.882 112.865 112.564 112.676 112.26 112.467C112.195 112.422 112.132 112.377 112.069 112.331C111.934 112.232 112.123 112.381 112.002 112.279C111.903 112.195 111.806 112.11 111.716 112.016C111.08 111.356 110.075 112.363 110.711 113.022Z" fill="black"/>
<path d="M112.014 99.836C111.52 100.637 111.3 101.615 111.114 102.526C110.81 104.022 110.635 105.547 110.483 107.065C110.035 111.541 109.845 116.045 109.639 120.538C109.086 132.616 108.539 144.686 107.648 156.745C107.275 161.809 106.888 166.871 106.524 171.936C106.271 175.452 105.968 178.977 105.866 182.502C105.796 184.884 106.001 187.29 106.105 189.667C106.292 193.956 106.487 198.245 106.668 202.534C107.094 212.674 107.49 222.821 107.549 232.971C107.556 234.051 107.557 235.131 107.552 236.211C107.549 237.127 108.971 237.128 108.975 236.211C109.017 226.249 108.645 216.285 108.246 206.333C107.944 198.793 107.515 191.256 107.29 183.715C107.209 180.997 107.507 178.246 107.693 175.538C108.027 170.664 108.397 165.792 108.761 160.919C109.647 149.041 110.333 137.162 110.852 125.262C111.07 120.268 111.265 115.269 111.632 110.283C111.845 107.374 111.953 104.252 112.852 101.451C112.993 101.012 113.004 100.941 113.242 100.554C113.724 99.7726 112.494 99.0575 112.014 99.836Z" fill="black"/>
<path d="M53.5144 68.6434C51.9306 70.9528 50.519 73.3753 49.0071 75.7314C48.3242 76.7957 47.2039 77.9688 47.0822 79.273C46.9579 80.6064 47.8351 82.0166 48.4198 83.1687C49.3135 84.9299 50.4419 86.4893 51.9354 87.7894C52.8151 88.5552 53.7547 89.2526 54.6909 89.947C55.1962 90.3219 55.7348 90.7265 56.4063 90.565C57.0367 90.4133 57.4329 89.8996 57.8109 89.4113C58.6769 88.2931 59.3984 87.0732 60.2045 85.9125C60.9549 84.8321 61.7927 83.714 62.9575 83.0549C63.7542 82.6039 63.038 81.3747 62.2396 81.8267C60.2802 82.9355 59.0626 85.0432 57.8606 86.8686C57.5711 87.3083 57.2801 87.7473 56.972 88.174C56.829 88.3724 56.6833 88.5687 56.5267 88.7567C56.3004 89.0287 56.1955 89.2549 55.8583 89.0482C54.9435 88.4868 54.0775 87.7403 53.2548 87.0516C51.9164 85.9309 50.8447 84.6598 50.0039 83.1276C49.7479 82.6611 49.51 82.1846 49.2817 81.7042C49.0095 81.1317 48.6626 80.522 48.5348 79.8965C48.391 79.1934 48.7508 78.6779 49.1298 78.1215C49.4542 77.6455 49.7732 77.166 50.0859 76.6821C51.6546 74.2532 53.1065 71.7472 54.7424 69.3619C55.2616 68.6044 54.0294 67.8924 53.5144 68.6434Z" fill="black"/>
<path d="M83.2709 68.2878C84.4492 69.9492 83.0054 72.1051 81.8816 73.3709C80.4069 75.0319 78.6959 76.5191 77.0217 77.9743C76.2567 78.6392 75.3162 79.243 74.8887 80.196C74.4694 81.1302 74.3066 82.201 74.0481 83.1888C73.7423 84.3575 73.4188 85.5212 73.0426 86.6695C72.5106 88.2932 71.9514 89.9073 71.4275 91.5336C71.8609 91.4771 72.2944 91.4204 72.7275 91.364C70.6104 87.5566 68.142 83.9602 65.8715 80.2456C65.0779 78.9471 63.8554 78.1265 62.6235 77.2563C60.8839 76.0274 59.0468 74.9038 57.3591 73.6126C56.2669 72.7768 54.903 71.6995 54.8029 70.2136C54.7617 69.5983 54.878 68.9014 55.2836 68.4174C55.7122 67.906 56.3525 67.5699 56.8803 67.1747C57.6045 66.6324 56.8963 65.3968 56.1624 65.9464C55.162 66.6954 54.0671 67.2894 53.6192 68.5287C53.1362 69.8646 53.3887 71.3774 54.2084 72.5208C55.5931 74.4529 57.884 75.7354 59.8198 77.0486C60.8206 77.7276 61.8232 78.4062 62.7953 79.1263C63.1701 79.4036 63.5413 79.6881 63.8892 79.9989C64.0125 80.1088 64.1314 80.2228 64.2457 80.3418C64.3698 80.4713 64.2835 80.358 64.3886 80.5334C65.2682 82.0009 66.2026 83.4357 67.1172 84.8821C68.6177 87.2552 70.1344 89.627 71.4992 92.0817C71.8082 92.6378 72.6177 92.4758 72.7991 91.912C73.6683 89.2133 74.6328 86.5511 75.3563 83.8081C75.6173 82.8191 75.7491 81.6682 76.1952 80.7476C76.4061 80.3126 76.8052 80.0258 77.1657 79.7198C77.6276 79.3278 78.086 78.932 78.5403 78.5312C80.251 77.0212 82.0615 75.4837 83.4687 73.6771C84.7539 72.0274 85.873 69.5069 84.4992 67.5695C83.9739 66.8289 82.7399 67.5388 83.2709 68.2878Z" fill="black"/>
<path d="M77.5957 82.9128C79.0797 83.6537 80.2324 84.8155 81.2824 86.0784C81.795 86.6954 82.2828 87.3325 82.7784 87.9631C83.2373 88.5467 83.7309 89.4053 84.4818 89.6321C85.6359 89.9809 86.7116 88.8574 87.4279 88.0899C88.3092 87.1453 89.0881 86.0943 89.7821 85.0059C91.4034 82.4624 92.8613 79.2888 92.7277 76.2005C92.6927 75.395 92.2927 75.0184 91.7771 74.4842C91.0882 73.7706 90.3877 73.0683 89.6835 72.3702C87.9706 70.672 86.259 68.8747 84.3173 67.4333C83.582 66.8872 82.872 68.1212 83.5994 68.6616C84.9967 69.6988 86.4432 71.1866 87.7606 72.4733C88.957 73.6422 90.1238 74.8379 91.2894 76.0368C91.4327 76.1845 91.2924 76.1361 91.2919 76.0253C91.2936 76.313 91.3074 76.6003 91.2919 76.8904C91.2519 77.6334 91.117 78.3646 90.9267 79.0833C90.5664 80.4459 90.0062 81.7437 89.33 82.9778C88.7217 84.0874 88.026 85.1604 87.2317 86.1467C86.6976 86.81 86.0431 87.5907 85.3912 88.0433C85.3014 88.1058 85.0665 88.2962 84.9532 88.2788C84.7559 88.2488 84.5902 87.9589 84.4751 87.8197C84.2404 87.5362 84.0123 87.2469 83.7847 86.9575C83.2509 86.2787 82.7267 85.592 82.1701 84.9314C81.0792 83.6368 79.8416 82.4475 78.3139 81.6848C77.4971 81.2769 76.7756 82.5033 77.5957 82.9128Z" fill="black"/>
<path d="M6.92031 156.263C8.89465 155.571 10.8948 154.905 12.9991 154.778C15.8854 154.603 18.5337 155.519 20.5411 157.636C21.1721 158.302 22.177 157.295 21.5468 156.631C19.3747 154.34 16.4335 153.22 13.2937 153.341C10.9519 153.43 8.73515 154.123 6.54207 154.891C5.68377 155.192 6.0533 156.566 6.92031 156.263Z" fill="black"/>
<path d="M27.6127 183.864C31.2393 185.482 35.1274 186.566 38.9669 187.541C44.6698 188.99 50.4781 190.057 56.328 190.694C59.515 191.041 62.7191 191.251 65.9251 191.274C69.2428 191.297 72.5501 191.062 75.853 190.766C82.1008 190.206 88.3451 189.368 94.4802 188.046C96.9777 187.508 99.4665 186.892 101.892 186.086C103.512 185.547 105.191 184.948 106.626 184.003C107.388 183.502 106.676 182.27 105.908 182.775C104.733 183.548 103.396 184.062 102.075 184.523C100.038 185.233 97.9468 185.79 95.8473 186.282C90.0723 187.636 84.1804 188.502 78.2833 189.109C74.9056 189.457 71.5083 189.764 68.1122 189.836C64.9776 189.904 61.8401 189.773 58.7171 189.504C52.8519 188.999 47.0268 188.007 41.3001 186.649C36.9407 185.616 32.3972 184.45 28.3308 182.635C27.5019 182.265 26.7774 183.491 27.6127 183.864Z" fill="black"/>
<path d="M30.1283 108.266C31.3685 112.602 31.6213 117.197 31.6647 121.684C31.7144 126.866 31.3906 132.048 30.9101 137.205C30.2049 144.774 29.1355 152.315 28.0515 159.838C27.0772 166.602 26.1084 173.421 26.1926 180.271C26.2038 181.185 27.6263 181.188 27.6151 180.271C27.538 174.003 28.3429 167.751 29.2302 161.558C29.7062 158.237 30.1031 155.265 30.5618 151.979C31.8896 142.466 33.04 132.877 33.0902 123.26C33.1168 118.14 32.9164 112.839 31.5 107.888C31.2487 107.009 29.8758 107.383 30.1283 108.266Z" fill="black"/>
<path d="M19.6818 205.462C19.1585 208.886 19.1775 212.356 19.3228 215.807C19.4946 219.881 19.8301 223.947 20.0081 228.021C20.1183 230.541 20.1715 233.063 20.1325 235.585C20.1183 236.5 21.5408 236.501 21.5549 235.585C21.6216 231.28 21.4044 226.982 21.138 222.686C20.9043 218.923 20.622 215.152 20.6592 211.378C20.6775 209.528 20.7734 207.671 21.0532 205.841C21.1902 204.945 19.8197 204.559 19.6818 205.462Z" fill="black"/>
<path d="M31.033 187.181C27.0055 194.511 22.6024 201.962 20.716 210.195C20.5117 211.086 21.8829 211.467 22.0875 210.573C23.9477 202.456 28.2899 195.127 32.2611 187.899C32.7023 187.097 31.4745 186.378 31.033 187.181Z" fill="black"/>
<path d="M31.2022 127.185C31.208 126.89 31.2004 127.128 31.1564 127.273C31.0978 127.465 31.0297 127.655 30.9633 127.845C30.7371 128.491 30.4989 129.133 30.2603 129.775C29.4965 131.833 28.7149 133.884 27.9355 135.936C26.066 140.858 24.1796 145.773 22.377 150.719C21.7634 152.403 21.1048 154.093 20.6301 155.823C20.3878 156.707 21.7597 157.084 22.0019 156.201C22.4092 154.715 22.9644 153.264 23.4875 151.817C24.3382 149.464 25.2165 147.12 26.0986 144.778C27.873 140.068 29.6849 135.373 31.4444 130.657C31.7322 129.886 32.0203 129.114 32.294 128.338C32.4206 127.98 32.6171 127.572 32.6245 127.185C32.6424 126.269 31.2199 126.269 31.2022 127.185Z" fill="black"/>
<path d="M20.4444 157.017C21.3108 160.616 22.1771 164.214 23.0435 167.814C24.413 173.503 25.7824 179.192 27.152 184.882C27.4676 186.194 27.7834 187.505 28.0989 188.816C28.2645 188.525 28.4301 188.233 28.5958 187.941C28.2319 188.011 27.8715 188.249 27.5589 188.439C26.9932 188.784 26.4531 189.171 25.9255 189.57C24.3544 190.76 22.8784 192.077 21.5346 193.519C18.6723 196.591 15.8128 200.747 16.3763 205.167C16.4582 205.809 16.5066 206.465 17.002 207.047C17.7823 207.963 19.107 208.086 20.2289 208.012C21.1379 207.953 21.1446 206.53 20.2289 206.59C19.6783 206.626 19.0896 206.647 18.5646 206.443C18.3278 206.352 18.0993 206.157 18.0435 206.081C18.0041 206.028 17.8878 205.79 17.9735 205.971C17.9465 205.914 17.9381 205.848 17.9234 205.787C18.0058 206.13 17.9143 205.753 17.8883 205.619C17.8426 205.382 17.7941 205.15 17.7683 204.911C17.566 203.035 18.1088 201.165 18.9504 199.504C20.6675 196.116 23.4819 193.245 26.4626 190.937C26.9933 190.526 27.5396 190.131 28.1073 189.773C28.3051 189.648 28.5062 189.53 28.7119 189.419C28.7901 189.377 29.0022 189.284 28.798 189.369C28.8551 189.345 28.9131 189.325 28.9737 189.313C29.3597 189.238 29.5547 188.788 29.4704 188.438C28.6042 184.839 27.738 181.24 26.8716 177.642C25.5021 171.952 24.1325 166.262 22.7631 160.573C22.4473 159.261 22.1318 157.95 21.8162 156.639C21.6019 155.749 20.23 156.126 20.4444 157.017Z" fill="black"/>
<path d="M18.1099 201.679C18.256 202.222 18.4717 202.749 18.6966 203.263C19.1199 204.229 19.6774 205.173 20.4319 205.918C20.9167 206.397 21.4804 206.767 22.1228 206.996C22.4847 207.124 22.9013 206.85 22.9977 206.499C23.1061 206.105 22.8642 205.753 22.5012 205.624C22.4743 205.614 22.2968 205.543 22.3877 205.583C22.4755 205.621 22.3272 205.553 22.3041 205.541C22.1853 205.481 22.0701 205.415 21.9589 205.343C21.9142 205.314 21.87 205.284 21.8267 205.253C21.7977 205.232 21.7693 205.21 21.7405 205.189C21.7457 205.193 21.8371 205.271 21.7789 205.218C21.6863 205.133 21.5869 205.056 21.4958 204.969C21.3111 204.792 21.1513 204.597 20.9842 204.405C20.9321 204.344 21.0078 204.436 21.0116 204.441C20.9898 204.412 20.9679 204.383 20.9463 204.354C20.9138 204.31 20.8821 204.265 20.8508 204.221C20.7731 204.11 20.6982 203.998 20.6263 203.883C20.3784 203.489 20.1626 203.075 19.9715 202.651C19.9527 202.608 19.9342 202.567 19.9157 202.525C19.9044 202.499 19.8887 202.47 19.8803 202.442C19.8786 202.437 19.9381 202.584 19.9095 202.511C19.8716 202.415 19.8315 202.321 19.7942 202.224C19.7379 202.079 19.6843 201.932 19.6336 201.784C19.5787 201.625 19.5254 201.463 19.4815 201.3C19.3817 200.929 18.9757 200.702 18.6066 200.804C18.2333 200.906 18.0096 201.306 18.1099 201.679Z" fill="black"/>
<path d="M27.5108 189.287C27.73 190.056 27.949 190.826 28.1682 191.596C28.1995 191.706 28.2309 191.816 28.2621 191.926C28.3639 192.283 28.7694 192.542 29.137 192.423C29.5013 192.304 29.7429 191.931 29.6339 191.547C29.4147 190.778 29.1955 190.009 28.9763 189.239C28.9447 189.129 28.9136 189.019 28.8824 188.909C28.7806 188.551 28.3751 188.293 28.0075 188.412C27.6434 188.53 27.4016 188.904 27.5108 189.287Z" fill="black"/>
<path d="M13.0867 192.828C13.1026 190.661 14.2158 188.562 15.5464 186.909C16.9684 185.143 18.8187 183.569 20.9926 182.835C21.855 182.543 21.4851 181.169 20.6142 181.463C18.1574 182.293 16.0331 184.01 14.4397 186.03C12.9171 187.96 11.6824 190.315 11.6641 192.828C11.6576 193.743 13.08 193.744 13.0867 192.828Z" fill="black"/>
<path d="M138.188 131.954C139.018 131.576 140.076 131.529 141.004 131.553C142.275 131.586 143.533 131.8 144.764 132.106C147.19 132.711 149.787 133.665 151.709 135.317C152.419 135.927 153.14 136.758 153.177 137.609C153.216 138.521 154.639 138.526 154.599 137.609C154.494 135.173 151.966 133.537 150.024 132.545C147.385 131.197 144.394 130.318 141.429 130.148C140.09 130.072 138.704 130.164 137.47 130.726C136.639 131.105 137.361 132.331 138.188 131.954Z" fill="black"/>
<path d="M132.15 136.612C130.69 138.199 129.25 139.817 128.022 141.595C126.973 143.113 125.9 144.613 124.843 146.127C123.194 148.488 121.647 150.921 120.193 153.407C119.146 155.198 118.084 156.998 117.296 158.92C116.375 161.166 115.721 163.522 115.15 165.879C114.773 167.439 114.386 169.018 114.145 170.606C113.806 172.847 113.813 175.124 113.719 177.383C113.661 178.781 113.549 180.184 113.585 181.585C113.609 182.53 113.664 183.636 114.223 184.441C114.793 185.261 115.949 185.503 116.809 184.981C117.77 184.396 118.185 183.139 118.495 182.127C118.984 180.53 119.235 178.885 119.476 177.236C119.692 175.755 119.873 174.235 120.38 172.82C120.689 171.956 119.315 171.585 119.008 172.441C118.133 174.883 118.118 177.563 117.56 180.082C117.319 181.173 117.071 182.464 116.421 183.402C116.16 183.777 115.675 184.049 115.371 183.602C114.893 182.897 114.996 181.698 115.003 180.898C115.015 179.503 115.114 178.109 115.168 176.716C115.245 174.7 115.236 172.658 115.568 170.663C116.181 166.984 117.131 163.231 118.484 159.758C119.177 157.978 120.149 156.324 121.103 154.673C122.391 152.442 123.753 150.254 125.195 148.12C126.443 146.273 127.777 144.49 129.025 142.643C130.242 140.84 131.685 139.216 133.155 137.618C133.775 136.945 132.771 135.937 132.15 136.612Z" fill="black"/>
<path d="M120.31 163.173C119.658 166.137 119.255 169.237 119.12 172.268C119.091 172.924 119.073 173.588 119.139 174.242C119.243 175.283 119.6 176.31 119.971 177.282C120.381 178.356 120.861 179.402 121.344 180.445C121.657 181.121 121.977 181.8 122.197 182.355C122.664 183.533 123.124 184.736 123.807 185.811C124.455 186.831 125.463 187.957 126.804 187.718C130.024 187.146 128.376 182.177 127.809 180.246C127.259 178.372 126.537 176.547 126.387 174.584C126.276 173.121 126.306 171.619 126.5 170.163C126.551 169.78 126.136 169.456 125.789 169.452C125.362 169.448 125.128 169.784 125.077 170.163C124.709 172.937 124.915 175.716 125.747 178.383C126.221 179.899 126.718 181.415 127.043 182.972C127.209 183.771 127.652 185.554 126.942 186.151C126.284 186.703 125.549 185.867 125.132 185.241C124.484 184.271 124.045 183.18 123.618 182.101C122.44 179.123 120.466 176.225 120.522 172.922C120.575 169.806 121.012 166.595 121.682 163.551C121.878 162.659 120.507 162.278 120.31 163.173Z" fill="black"/>
<path d="M125.581 165.022C125.348 167.899 124.96 170.798 125.201 173.687C125.451 176.684 126.886 179.645 128.677 182.028C128.571 181.887 128.804 182.209 128.85 182.274C128.979 182.455 129.107 182.637 129.237 182.818C129.561 183.265 129.896 183.708 130.258 184.126C130.921 184.896 131.796 185.775 132.864 185.878C134.039 185.992 134.86 185.017 135.016 183.931C135.241 182.362 134.629 180.664 134.05 179.232C133.656 178.257 133.213 177.335 132.934 176.313C132.441 174.508 132.313 172.646 132.41 170.783C132.457 169.868 131.035 169.871 130.987 170.783C130.849 173.432 131.186 176.108 132.21 178.567C132.642 179.607 133.099 180.609 133.384 181.707C133.538 182.297 134.065 184.253 133.104 184.469C132.523 184.6 131.645 183.562 131.263 183.12C130.751 182.526 130.323 181.873 129.855 181.246C128.307 179.175 126.904 176.535 126.645 173.929C126.351 170.965 126.765 167.976 127.003 165.022C127.077 164.11 125.654 164.115 125.581 165.022Z" fill="black"/>
<path d="M131.006 166.293C130.856 168.94 130.751 171.653 131.262 174.271C131.634 176.174 132.445 178.033 134.177 179.05C135.52 179.839 137.71 180.736 139.205 179.865C139.967 179.421 140.346 178.502 140.179 177.646C140.008 176.772 139.403 176.014 138.836 175.356C138.56 175.037 138.268 174.732 137.974 174.429C137.771 174.219 137.532 173.848 137.287 173.698C137.365 173.745 137.338 173.95 137.322 173.637C137.307 173.351 137.256 173.064 137.234 172.778C137.179 172.052 137.164 171.323 137.173 170.595C137.199 168.526 137.368 166.438 137.975 164.453C138.468 162.84 138.998 161.254 139.37 159.606C139.684 158.214 139.961 156.807 140.14 155.391C140.301 154.115 140.385 152.829 140.753 151.59C141.366 149.527 142.889 147.96 144.3 146.395C145.708 144.834 147.16 143.212 148.822 141.912C149.542 141.348 148.529 140.348 147.816 140.906C146.432 141.989 145.213 143.312 144.021 144.596C142.774 145.938 141.514 147.314 140.466 148.82C139.164 150.689 139.007 153.016 138.741 155.202C138.457 157.531 137.925 159.872 137.233 162.114C136.846 163.364 136.391 164.59 136.16 165.883C135.718 168.355 135.585 170.995 135.881 173.491C135.923 173.85 135.932 174.207 136.134 174.514C136.309 174.781 136.554 175.01 136.775 175.237C137.362 175.841 137.978 176.441 138.431 177.156C138.7 177.58 139.05 178.234 138.529 178.613C137.989 179.005 137.008 178.694 136.448 178.515C135.723 178.284 134.855 177.887 134.346 177.448C133.522 176.739 133.09 175.719 132.816 174.691C132.097 171.986 132.272 169.057 132.429 166.293C132.48 165.378 131.057 165.381 131.006 166.293Z" fill="black"/>
<path d="M118.419 156.643C116.748 159.122 115.214 161.702 113.734 164.299C113.119 165.379 112.494 166.464 111.965 167.59C111.477 168.628 111.036 169.854 111.174 171.02C111.369 172.65 112.831 173.16 114.297 172.968C114.681 172.918 115.004 172.677 115.008 172.257C115.012 171.911 114.678 171.496 114.297 171.546C113.863 171.603 113.22 171.711 112.84 171.417C112.572 171.209 112.56 170.817 112.573 170.497C112.608 169.562 113.021 168.636 113.438 167.813C114.637 165.45 116.011 163.166 117.393 160.906C118.123 159.711 118.865 158.522 119.648 157.36C120.161 156.6 118.929 155.886 118.419 156.643Z" fill="black"/>
<path d="M73.811 201.495C73.61 206.771 73.3005 212.083 72.531 217.311C72.276 219.044 72.026 220.873 71.3801 222.514C71.1054 223.211 70.4943 223.973 69.9729 224.599C69.1894 225.539 68.3567 226.446 67.6674 227.46C66.8704 228.634 66.4332 229.866 66.3085 231.275C66.2075 232.421 65.9 233.529 65.7927 234.677C65.7078 235.587 67.1308 235.582 67.2152 234.677C67.3102 233.66 67.5844 232.681 67.6943 231.667C67.8308 230.407 68.0979 229.389 68.8023 228.318C69.9491 226.575 71.7579 225.187 72.602 223.254C73.2887 221.682 73.5579 219.916 73.8205 218.233C74.211 215.729 74.4716 213.205 74.6832 210.68C74.9397 207.623 75.1169 204.56 75.2335 201.495C75.2683 200.579 73.846 200.581 73.811 201.495Z" fill="black"/>
<path d="M36.4238 70.6897C36.0653 67.7648 35.2625 63.1066 31.654 62.6631C31.654 63.1372 31.654 63.6114 31.654 64.0855C35.2622 63.6406 36.0653 58.9838 36.4238 56.058C35.9496 56.058 35.4755 56.058 35.0013 56.058C35.3597 58.984 36.1629 63.6405 39.7716 64.0855C39.7716 63.6114 39.7716 63.1372 39.7716 62.6631C36.1629 63.1068 35.3598 67.7644 35.0013 70.6897C34.8903 71.5963 36.3136 71.5882 36.4238 70.6897C36.4272 70.6614 36.4418 70.5544 36.4267 70.6632C36.4124 70.7665 36.4516 70.4919 36.4597 70.4381C36.5056 70.1325 36.5572 69.8279 36.6139 69.5239C36.7806 68.6278 36.9859 67.7342 37.2793 66.8706C37.5698 66.0162 37.977 65.1666 38.7131 64.6068C38.9477 64.4286 39.2143 64.2789 39.492 64.1793C39.5974 64.1415 40.1662 64.037 39.7716 64.0854C40.6843 63.9731 40.6859 62.7759 39.7716 62.6631C40.1464 62.7094 39.6448 62.621 39.5324 62.5829C39.2597 62.4902 39.0018 62.3491 38.7687 62.1801C37.9997 61.6231 37.5771 60.7537 37.2793 59.8772C36.9929 59.0343 36.7905 58.1624 36.6256 57.288C36.567 56.9771 36.5138 56.6653 36.4661 56.3525C36.4501 56.2469 36.435 56.1412 36.4201 56.035C36.4333 56.1286 36.4344 56.1451 36.4238 56.058C36.312 55.1456 35.1134 55.1438 35.0013 56.058C34.9979 56.0863 34.983 56.1933 34.9982 56.0845C35.0124 55.9811 34.9732 56.2558 34.9651 56.3094C34.9192 56.6152 34.8676 56.9199 34.8112 57.2237C34.6445 58.1196 34.439 59.0135 34.1455 59.8771C33.8551 60.7313 33.4477 61.5811 32.7123 62.1411C32.4779 62.3195 32.2108 62.4691 31.9335 62.5689C31.8284 62.6067 31.2594 62.7114 31.6538 62.6628C30.7416 62.7753 30.7392 63.9727 31.6538 64.0852C31.279 64.0392 31.7807 64.1269 31.8929 64.1651C32.1656 64.2575 32.4236 64.399 32.6565 64.5678C33.4254 65.1245 33.8475 65.9941 34.1455 66.8705C34.4322 67.7134 34.6343 68.5853 34.7991 69.4595C34.8578 69.7704 34.9112 70.0823 34.9586 70.3949C34.9746 70.5008 34.9898 70.6065 35.0046 70.7124C34.9915 70.6188 34.9904 70.6023 35.0012 70.6893C35.1111 71.5865 36.5349 71.5977 36.4238 70.6897Z" fill="black"/>
<path d="M12.5106 47.1893C12.2948 45.4332 11.7989 42.9205 9.67761 42.654C9.67761 43.1282 9.67761 43.6023 9.67761 44.0765C11.7989 43.8088 12.2948 41.2976 12.5106 39.5408C12.0364 39.5408 11.5623 39.5408 11.0881 39.5408C11.3039 41.2978 11.7995 43.8088 13.9209 44.0765C13.9209 43.6023 13.9209 43.1282 13.9209 42.654C11.8 42.9205 11.3039 45.4332 11.0881 47.1893C11.041 47.5712 11.4485 47.9005 11.7993 47.9005C12.2228 47.9005 12.4636 47.5725 12.5106 47.1893C12.5173 47.135 12.5358 47.0529 12.4967 47.2899C12.5039 47.2473 12.5085 47.2042 12.5152 47.1616C12.5398 47.005 12.5647 46.8488 12.5934 46.6932C12.6772 46.2383 12.7803 45.7847 12.9249 45.345C13.0517 44.9604 13.2202 44.5575 13.547 44.2982C13.6125 44.2464 13.6868 44.2049 13.7595 44.1634C13.802 44.1402 13.8453 44.1189 13.8895 44.0992C13.8276 44.1253 13.8188 44.1304 13.8631 44.114C13.9601 44.0832 14.2895 44.0299 13.9209 44.0762C14.8336 43.9616 14.835 42.7691 13.9209 42.6537C14.2823 42.6993 13.9853 42.6537 13.8892 42.6253C13.8189 42.5988 13.8189 42.6007 13.8893 42.631C13.8453 42.6111 13.8018 42.5898 13.7594 42.5667C13.6879 42.5256 13.6131 42.4855 13.548 42.4342C13.221 42.1758 13.0514 41.7693 12.9247 41.3847C12.7845 40.9583 12.6834 40.5186 12.6009 40.0776C12.5709 39.9171 12.5435 39.7564 12.519 39.5952C12.5113 39.5434 12.5048 39.4913 12.4964 39.4397C12.5347 39.6777 12.5169 39.5946 12.5103 39.5405C12.3982 38.6281 11.2 38.6262 11.0878 39.5405C11.081 39.5946 11.0623 39.6768 11.1015 39.4397C11.0945 39.4823 11.0898 39.5254 11.0831 39.5683C11.0583 39.7245 11.0335 39.8808 11.0049 40.0367C10.9211 40.4916 10.8181 40.9452 10.6732 41.3848C10.5466 41.7696 10.378 42.1727 10.0513 42.4317C9.98589 42.4838 9.91158 42.525 9.83882 42.5667C9.79623 42.5898 9.75285 42.6111 9.7087 42.631C9.77073 42.6046 9.7796 42.5998 9.73529 42.6159C9.63828 42.6467 9.30855 42.7002 9.6773 42.6537C8.76506 42.7688 8.76257 43.9613 9.6773 44.0762C9.31586 44.0308 9.61279 44.0762 9.70886 44.1049C9.77928 44.1311 9.77897 44.1293 9.7087 44.0992C9.75285 44.1188 9.79623 44.1402 9.83882 44.1634C9.91034 44.2041 9.98511 44.2445 10.0499 44.2958C10.3769 44.5542 10.5466 44.9607 10.6732 45.345C10.8137 45.7715 10.9145 46.2111 10.9973 46.6523C11.0275 46.8124 11.0548 46.9733 11.0791 47.1349C11.0869 47.1865 11.0934 47.2384 11.1016 47.29C11.0635 47.052 11.0813 47.1353 11.0879 47.1894C11.1347 47.5708 11.3813 47.9007 11.7992 47.9007C12.1473 47.9005 12.5578 47.5731 12.5106 47.1893Z" fill="black"/>
<path d="M109.771 58.4126C109.431 55.6338 108.668 51.2555 105.248 50.8311C105.248 51.3053 105.248 51.7794 105.248 52.2536C108.668 51.8292 109.43 47.45 109.771 44.6713C109.297 44.6713 108.823 44.6713 108.349 44.6713C108.689 47.4496 109.452 51.8292 112.872 52.2536C112.872 51.7794 112.872 51.3053 112.872 50.8311C109.452 51.2555 108.689 55.6341 108.349 58.4126C108.238 59.3193 109.661 59.3112 109.771 58.4126C109.775 58.3868 109.778 58.3608 109.781 58.3354C109.752 58.546 109.792 58.2662 109.803 58.1925C109.845 57.9123 109.892 57.6327 109.944 57.3539C110.097 56.525 110.286 55.6986 110.553 54.8984C110.823 54.0874 111.199 53.2712 111.897 52.7388C112.11 52.5762 112.355 52.4378 112.606 52.3451C112.711 52.3063 113.258 52.2056 112.872 52.2536C113.784 52.1404 113.786 50.9448 112.872 50.8313C113.239 50.8768 112.761 50.7934 112.646 50.7532C112.394 50.6656 112.153 50.533 111.938 50.3747C111.215 49.8432 110.829 49.0138 110.553 48.1858C110.292 47.4056 110.106 46.6004 109.955 45.7928C109.901 45.5066 109.852 45.2198 109.809 44.932C109.8 44.877 109.761 44.6015 109.775 44.7005C109.79 44.808 109.775 44.6992 109.771 44.6713C109.659 43.7589 108.461 43.7571 108.349 44.6713C108.346 44.6973 108.342 44.7229 108.339 44.7486C108.368 44.5379 108.328 44.8181 108.317 44.8915C108.275 45.1717 108.228 45.4513 108.176 45.73C108.023 46.5589 107.834 47.3855 107.567 48.1857C107.296 48.9968 106.92 49.8127 106.222 50.3458C106.009 50.5084 105.764 50.6468 105.513 50.7396C105.408 50.7784 104.861 50.879 105.247 50.831C104.335 50.9441 104.333 52.1399 105.247 52.2534C104.879 52.2079 105.358 52.2915 105.473 52.3315C105.725 52.4192 105.966 52.5518 106.181 52.7099C106.904 53.2412 107.291 54.0701 107.567 54.8983C107.827 55.6782 108.013 56.4835 108.165 57.2913C108.218 57.5772 108.267 57.8643 108.311 58.1521C108.319 58.2071 108.359 58.4827 108.345 58.3834C108.33 58.276 108.345 58.3851 108.349 58.4126C108.459 59.3096 109.883 59.3207 109.771 58.4126Z" fill="black"/>
</svg>
