<svg width="33" height="33" viewBox="0 0 33 33" fill="none" xmlns="http://www.w3.org/2000/svg">
<rect width="33" height="33" rx="6.6" fill="url(#paint0_radial_1492_9906)"/>
<path d="M12.3404 17.4975C12.3404 17.4975 12.3404 27.8629 12.3404 28.7216C12.3403 30.117 6.2192 28.128 8.36081 21.3737M23.4587 4.85205V29.1521" stroke="white" stroke-width="2.01094" stroke-linecap="round" stroke-linejoin="round"/>
<path d="M12.8213 3.95117H12.8242C13.4448 3.95117 13.9089 4.16693 14.2568 4.48926C14.6055 4.81232 14.8389 5.24437 14.9951 5.67871C15.1513 6.11288 15.2304 6.54759 15.2695 6.87402C15.2891 7.03688 15.2988 7.17261 15.3037 7.26758C15.3061 7.31502 15.307 7.35259 15.3076 7.37793C15.3079 7.3906 15.3085 7.40074 15.3086 7.40723V7.41602L15.3418 7.41699H15.3086C15.3085 8.73489 14.8991 10.2384 14.4893 11.4141C14.2845 12.0015 14.0794 12.5063 13.9258 12.8643C13.849 13.0432 13.785 13.1858 13.7402 13.2832C13.7179 13.3318 13.7004 13.3693 13.6885 13.3945C13.6826 13.407 13.6779 13.4164 13.6748 13.4229C13.6733 13.4261 13.6727 13.4291 13.6719 13.4307L13.6709 13.4326L12.8242 14.9453L11.9785 13.4326V13.4316L11.9775 13.4307L11.96 13.3955C11.948 13.3709 11.9306 13.3344 11.9082 13.2871C11.8634 13.1922 11.7996 13.0531 11.7227 12.8779C11.5688 12.5277 11.3634 12.0318 11.1582 11.4502C10.7477 10.2864 10.3379 8.78154 10.3379 7.41113V7.40137C10.338 7.39492 10.3386 7.38542 10.3389 7.37305C10.3395 7.34775 10.3403 7.31013 10.3428 7.2627C10.3477 7.16783 10.3574 7.03191 10.377 6.86914C10.4161 6.54323 10.4952 6.10918 10.6514 5.67578C10.8076 5.2422 11.0411 4.81078 11.3896 4.48828C11.7374 4.16658 12.201 3.95128 12.8213 3.95117Z" fill="#FFFCF3" stroke="white" stroke-width="0.0671026"/>
<path d="M7.41016 21.1083L9.2974 21.7373C12.5752 13.162 12.9349 21.0374 23.8633 16.603L23.3336 15.7422C15.5197 20.1789 10.9506 11.9346 7.41016 21.1083Z" fill="white" stroke="white" stroke-width="0.0668753"/>
<path d="M23.3311 4.02246C23.711 3.86041 24.2728 3.81968 25.0117 4.00781L24.7109 4.12305L24.7344 4.18555C24.9124 4.11748 25.0956 4.22455 25.1914 4.3584L25.2764 4.67969C25.156 4.66043 25.0756 4.68499 25.0176 4.72852C24.9856 4.75252 24.962 4.78078 24.9434 4.80469C24.9233 4.83037 24.9115 4.84687 24.8994 4.85742L24.8525 4.89844L24.9121 4.91504L25.4268 5.05762L25.5029 5.27148L22.7383 4.76855C22.7501 4.4726 22.9465 4.18665 23.3311 4.02246Z" fill="white" stroke="white" stroke-width="0.0668753"/>
<path d="M23.9742 16.9317C24.2558 16.9249 24.5949 16.8891 25.0006 16.8279L24.7174 16.7103L24.7424 16.6485C24.9186 16.721 25.1045 16.6186 25.2037 16.4873L25.2968 16.1683C25.1759 16.1844 25.0962 16.1579 25.0393 16.1129C25.0079 16.088 24.9851 16.0592 24.9671 16.0348C24.9477 16.0087 24.9362 15.9919 24.9245 15.981L24.8787 15.9388L24.9386 15.9237L25.4558 15.7943L25.5383 15.5824L22.7608 16.0139C22.7635 16.235 22.7983 16.4103 22.8723 16.5452C22.9489 16.6846 23.0695 16.7842 23.2476 16.8478C23.4268 16.9118 23.6647 16.9392 23.9742 16.9317Z" fill="white" stroke="white" stroke-width="0.0668753"/>
<g opacity="0.28" filter="url(#filter0_f_1492_9906)">
<mask id="mask0_1492_9906" style="mask-type:alpha" maskUnits="userSpaceOnUse" x="10" y="4" width="5" height="5">
<path d="M12.6396 4.09277C13.7416 4.09277 14.6357 5.01136 14.6357 6.14453C14.6357 7.27765 13.7416 8.19629 12.6396 8.19629C11.5379 8.19605 10.6446 7.2775 10.6445 6.14453C10.6445 5.0115 11.5379 4.09301 12.6396 4.09277Z" fill="#D9D9D9" stroke="white" stroke-width="0.00787646"/>
</mask>
<g mask="url(#mask0_1492_9906)">
<path d="M12.7559 4.06055C13.874 4.06073 14.7803 4.99275 14.7803 6.14258C14.7803 7.29239 13.874 8.22443 12.7559 8.22461C11.6376 8.22461 10.7305 7.2925 10.7305 6.14258C10.7305 4.99264 11.6376 4.06055 12.7559 4.06055Z" fill="url(#paint1_linear_1492_9906)" stroke="white" stroke-width="0.00787646"/>
<g style="mix-blend-mode:overlay" filter="url(#filter1_f_1492_9906)">
<ellipse cx="1.58646" cy="1.8429" rx="1.58646" ry="1.8429" transform="matrix(0.554431 -0.83223 0.817653 0.575712 11.3203 4.96973)" fill="white"/>
<path d="M12.2033 3.6513C12.6877 2.92474 13.7533 2.80849 14.584 3.39334C15.4148 3.97828 15.6944 5.0417 15.2105 5.76861C14.7262 6.49554 13.6601 6.61242 12.8292 6.02738C11.9984 5.44233 11.7191 4.37819 12.2033 3.6513Z" stroke="white" stroke-width="0.00787646"/>
</g>
<g style="mix-blend-mode:soft-light" filter="url(#filter2_f_1492_9906)">
<ellipse cx="1.58646" cy="1.8429" rx="1.58646" ry="1.8429" transform="matrix(0.554431 -0.83223 0.817653 0.575712 11.3203 4.96973)" fill="white"/>
<path d="M12.2033 3.6513C12.6877 2.92474 13.7533 2.80849 14.584 3.39334C15.4148 3.97828 15.6944 5.0417 15.2105 5.76861C14.7262 6.49554 13.6601 6.61242 12.8292 6.02738C11.9984 5.44233 11.7191 4.37819 12.2033 3.6513Z" stroke="white" stroke-width="0.00787646"/>
</g>
<path d="M13.9258 5.03051C13.8122 4.65659 13.7492 4.56983 13.6367 4.42871C13.8926 4.60506 14.0316 4.7184 14.2333 5.06924C14.3986 5.46281 14.3366 5.55961 14.271 5.76837C14.2169 5.48307 14.1943 5.32339 13.9258 5.03051Z" fill="url(#paint2_linear_1492_9906)" stroke="white" stroke-width="0.00787646"/>
<path opacity="0.3" d="M11.3542 5.36459C11.5002 4.87113 11.5883 4.75407 11.7461 4.56299C11.3786 4.80983 11.18 4.9667 10.9026 5.43632C10.6814 5.95891 10.7787 6.08027 10.8876 6.34677C10.9508 5.97254 11.1566 4.51484 11.3542 5.36459Z" fill="url(#paint3_linear_1492_9906)" stroke="white" stroke-width="0.00787646"/>
<g opacity="0.3">
<path d="M11.5596 7.65349C11.8283 7.93432 11.9082 7.987 12.043 8.06934C11.8192 8.00566 11.6876 7.95608 11.3899 7.72492C11.0852 7.44489 11.0596 7.34109 10.9715 7.14044C11.1608 7.36581 11.2631 7.49454 11.5596 7.65349Z" fill="url(#paint4_linear_1492_9906)" style="mix-blend-mode:overlay"/>
<path d="M11.5596 7.65349C11.8283 7.93432 11.9082 7.987 12.043 8.06934C11.8192 8.00566 11.6876 7.95608 11.3899 7.72492C11.0852 7.44489 11.0596 7.34109 10.9715 7.14044C11.1608 7.36581 11.2631 7.49454 11.5596 7.65349Z" stroke="white" stroke-width="0.00787646"/>
</g>
<g opacity="0.1">
<path d="M10.4491 5.74833C10.4394 5.7155 10.4248 5.69025 10.4028 5.67545C10.4207 5.69696 10.4359 5.72141 10.4491 5.74833C10.5025 5.92823 10.4092 6.33603 10.5721 6.50366C10.6033 6.70439 10.6643 6.87854 10.8236 6.95176C11.2536 7.07962 11.3341 6.98177 11.5246 6.85666C11.2291 6.84681 11.0655 6.85091 10.7099 6.57275C10.6505 6.5628 10.6058 6.53838 10.5721 6.50366C10.5314 6.2422 10.541 5.93565 10.4491 5.74833Z" fill="url(#paint5_linear_1492_9906)" style="mix-blend-mode:overlay"/>
<path d="M10.4028 5.67545C10.57 5.78817 10.312 6.50599 10.7099 6.57275C11.0655 6.85091 11.2291 6.84681 11.5246 6.85666C11.3341 6.98177 11.2536 7.07962 10.8236 6.95176C10.427 6.76946 10.6401 5.96151 10.4028 5.67545Z" stroke="white" stroke-width="0.00787646"/>
</g>
<g opacity="0.5">
<path d="M13.5248 7.79009C13.7747 7.7372 13.8323 7.71029 13.9258 7.6626C13.8102 7.76822 13.7357 7.82594 13.5023 7.91348C13.2398 7.9874 13.174 7.9646 13.0331 7.94266C13.2241 7.91534 13.3311 7.90309 13.5248 7.79009Z" fill="url(#paint6_linear_1492_9906)" style="mix-blend-mode:overlay"/>
<path d="M13.5248 7.79009C13.7747 7.7372 13.8323 7.71029 13.9258 7.6626C13.8102 7.76822 13.7357 7.82594 13.5023 7.91348C13.2398 7.9874 13.174 7.9646 13.0331 7.94266C13.2241 7.91534 13.3311 7.90309 13.5248 7.79009Z" stroke="white" stroke-width="0.00787646"/>
</g>
<g filter="url(#filter3_f_1492_9906)">
<ellipse cx="0.582126" cy="1.45259" rx="0.582126" ry="1.45259" transform="matrix(0.337526 -0.941316 0.935103 0.354375 11.8125 6.83398)" fill="url(#paint7_radial_1492_9906)" fill-opacity="0.5"/>
<path d="M12.0126 6.28749C12.0392 6.21318 12.1024 6.15637 12.194 6.11713C12.2856 6.07791 12.4055 6.0561 12.5458 6.05309C12.8264 6.0471 13.1874 6.11461 13.562 6.25652C13.9367 6.39853 14.2546 6.58829 14.4644 6.78019C14.5692 6.87609 14.6467 6.97267 14.6916 7.06363C14.7365 7.15462 14.7487 7.23997 14.722 7.31428C14.6954 7.38855 14.6322 7.44542 14.5406 7.48465C14.449 7.52385 14.3291 7.54568 14.1888 7.54868C13.9081 7.55468 13.5465 7.48693 13.1717 7.34491C12.7972 7.20292 12.48 7.01342 12.2702 6.82159C12.1654 6.72571 12.088 6.62908 12.0431 6.53815C11.9981 6.44719 11.986 6.36179 12.0126 6.28749Z" stroke="white" stroke-width="0.00787646"/>
</g>
</g>
</g>
<mask id="mask1_1492_9906" style="mask-type:alpha" maskUnits="userSpaceOnUse" x="11" y="4" width="4" height="5">
<path d="M12.8506 4.53613C13.8204 4.53639 14.6064 5.322 14.6064 6.29102C14.6064 7.26004 13.8204 8.04564 12.8506 8.0459C11.8806 8.0459 11.0938 7.2602 11.0938 6.29102C11.0938 5.32184 11.8806 4.53613 12.8506 4.53613Z" fill="#D9D9D9" stroke="white" stroke-width="0.00787646"/>
</mask>
<g mask="url(#mask1_1492_9906)">
<path d="M12.9463 4.5083C13.9306 4.5083 14.7285 5.30603 14.7285 6.28955C14.7283 7.2729 13.9305 8.06982 12.9463 8.06982C11.9621 8.06976 11.1643 7.27286 11.1641 6.28955C11.1641 5.30607 11.962 4.50837 12.9463 4.5083Z" fill="url(#paint8_linear_1492_9906)" stroke="white" stroke-width="0.00787646"/>
<g style="mix-blend-mode:overlay" filter="url(#filter4_f_1492_9906)">
<ellipse cx="1.36961" cy="1.60747" rx="1.36961" ry="1.60747" transform="matrix(0.565385 -0.824827 0.825265 0.564745 11.6875 5.28369)" fill="white"/>
<path d="M12.4648 4.15659C12.8909 3.53495 13.8292 3.43483 14.5606 3.93528C15.2919 4.43577 15.5376 5.3461 15.1115 5.96775C14.6852 6.58905 13.7475 6.68864 13.0163 6.18825C12.2851 5.68786 12.0391 4.77822 12.4648 4.15659Z" stroke="white" stroke-width="0.00787646"/>
</g>
<g style="mix-blend-mode:soft-light" filter="url(#filter5_f_1492_9906)">
<ellipse cx="1.36961" cy="1.60747" rx="1.36961" ry="1.60747" transform="matrix(0.565385 -0.824827 0.825265 0.564745 11.6875 5.28369)" fill="white"/>
<path d="M12.4648 4.15659C12.8909 3.53495 13.8292 3.43483 14.5606 3.93528C15.2919 4.43577 15.5376 5.3461 15.1115 5.96775C14.6852 6.58905 13.7475 6.68864 13.0163 6.18825C12.2851 5.68786 12.0391 4.77822 12.4648 4.15659Z" stroke="white" stroke-width="0.00787646"/>
</g>
<path d="M13.9733 5.33621C13.8733 5.01627 13.8177 4.94203 13.7188 4.82129C13.944 4.97218 14.0664 5.06916 14.244 5.36935C14.3895 5.7061 14.3349 5.78893 14.2771 5.96755C14.2296 5.72344 14.2096 5.58681 13.9733 5.33621Z" fill="url(#paint9_linear_1492_9906)" stroke="white" stroke-width="0.00787646"/>
<path opacity="0.3" d="M11.7097 5.62484C11.8382 5.20262 11.9158 5.10246 12.0547 4.93896C11.7312 5.15017 11.5563 5.28439 11.3121 5.68622C11.1174 6.13336 11.203 6.23721 11.2989 6.46523C11.3545 6.14503 11.5358 4.89777 11.7097 5.62484Z" fill="url(#paint10_linear_1492_9906)" stroke="white" stroke-width="0.00787646"/>
<g opacity="0.3">
<path d="M11.8909 7.58022C12.1274 7.82051 12.1978 7.86558 12.3164 7.93604C12.1194 7.88155 12.0035 7.83913 11.7415 7.64134C11.4732 7.40174 11.4506 7.31292 11.3731 7.14123C11.5398 7.33407 11.6298 7.44422 11.8909 7.58022Z" fill="url(#paint11_linear_1492_9906)" style="mix-blend-mode:overlay"/>
<path d="M11.8909 7.58022C12.1274 7.82051 12.1978 7.86558 12.3164 7.93604C12.1194 7.88155 12.0035 7.83913 11.7415 7.64134C11.4732 7.40174 11.4506 7.31292 11.3731 7.14123C11.5398 7.33407 11.6298 7.44422 11.8909 7.58022Z" stroke="white" stroke-width="0.00787646"/>
</g>
<g opacity="0.1">
<path d="M10.9193 5.95237C10.9108 5.92427 10.8979 5.90267 10.8786 5.89C10.8943 5.90841 10.9077 5.92933 10.9193 5.95237C10.9663 6.1063 10.8842 6.45523 11.0276 6.59865C11.0551 6.7704 11.1087 6.91941 11.249 6.98206C11.6275 7.09147 11.6985 7.00774 11.8662 6.90069C11.606 6.89227 11.462 6.89577 11.1489 6.65777C11.0967 6.64925 11.0573 6.62836 11.0276 6.59865C10.9917 6.37494 11.0002 6.11264 10.9193 5.95237Z" fill="url(#paint12_linear_1492_9906)" style="mix-blend-mode:overlay"/>
<path d="M10.8786 5.89C11.0258 5.98645 10.7986 6.60064 11.1489 6.65777C11.462 6.89577 11.606 6.89227 11.8662 6.90069C11.6985 7.00774 11.6275 7.09147 11.249 6.98206C10.8998 6.82608 11.0874 6.13477 10.8786 5.89Z" stroke="white" stroke-width="0.00787646"/>
</g>
<g opacity="0.5">
<path d="M13.6236 7.70088C13.8436 7.65563 13.8942 7.63261 13.9766 7.5918C13.8748 7.68217 13.8092 7.73156 13.6037 7.80646C13.3726 7.86971 13.3148 7.8502 13.1906 7.83143C13.3588 7.80805 13.453 7.79757 13.6236 7.70088Z" fill="url(#paint13_linear_1492_9906)" style="mix-blend-mode:overlay"/>
<path d="M13.6236 7.70088C13.8436 7.65563 13.8942 7.63261 13.9766 7.5918C13.8748 7.68217 13.8092 7.73156 13.6037 7.80646C13.3726 7.86971 13.3148 7.8502 13.1906 7.83143C13.3588 7.80805 13.453 7.79757 13.6236 7.70088Z" stroke="white" stroke-width="0.00787646"/>
</g>
<g filter="url(#filter6_f_1492_9906)">
<ellipse cx="0.499749" cy="1.27436" rx="0.499749" ry="1.27436" transform="matrix(0.346129 -0.938187 0.938374 0.345623 12.1172 6.88037)" fill="url(#paint14_radial_1492_9906)" fill-opacity="0.5"/>
<path d="M12.2939 6.41263C12.3173 6.34942 12.3723 6.30065 12.4527 6.26714C12.5333 6.23359 12.6396 6.21545 12.7632 6.21289C13.0102 6.20782 13.3278 6.26579 13.6575 6.38723C13.9872 6.50869 14.2665 6.67052 14.4511 6.8346C14.5435 6.91669 14.6125 6.9994 14.652 7.0772C14.6914 7.1548 14.7016 7.22762 14.6783 7.29086C14.655 7.35408 14.5998 7.40281 14.5195 7.43635C14.4389 7.4699 14.3327 7.48804 14.2091 7.4906C13.962 7.49572 13.6442 7.43865 13.3144 7.31717C12.9846 7.1957 12.7058 7.033 12.5211 6.86889C12.4288 6.7868 12.3597 6.70408 12.3202 6.62629C12.2809 6.54869 12.2706 6.47586 12.2939 6.41263Z" stroke="white" stroke-width="0.00787646"/>
</g>
</g>
<defs>
<filter id="filter0_f_1492_9906" x="8.90854" y="2.35678" width="7.46418" height="7.5755" filterUnits="userSpaceOnUse" color-interpolation-filters="sRGB">
<feFlood flood-opacity="0" result="BackgroundImageFix"/>
<feBlend mode="normal" in="SourceGraphic" in2="BackgroundImageFix" result="shape"/>
<feGaussianBlur stdDeviation="0.866044" result="effect1_foregroundBlur_1492_9906"/>
</filter>
<filter id="filter1_f_1492_9906" x="8.81035" y="-0.133983" width="9.79336" height="9.68886" filterUnits="userSpaceOnUse" color-interpolation-filters="sRGB">
<feFlood flood-opacity="0" result="BackgroundImageFix"/>
<feBlend mode="normal" in="SourceGraphic" in2="BackgroundImageFix" result="shape"/>
<feGaussianBlur stdDeviation="1.57529" result="effect1_foregroundBlur_1492_9906"/>
</filter>
<filter id="filter2_f_1492_9906" x="8.81035" y="-0.133983" width="9.79336" height="9.68886" filterUnits="userSpaceOnUse" color-interpolation-filters="sRGB">
<feFlood flood-opacity="0" result="BackgroundImageFix"/>
<feBlend mode="normal" in="SourceGraphic" in2="BackgroundImageFix" result="shape"/>
<feGaussianBlur stdDeviation="1.57529" result="effect1_foregroundBlur_1492_9906"/>
</filter>
<filter id="filter3_f_1492_9906" x="11.9646" y="6.01732" width="2.8052" height="1.56692" filterUnits="userSpaceOnUse" color-interpolation-filters="sRGB">
<feFlood flood-opacity="0" result="BackgroundImageFix"/>
<feBlend mode="normal" in="SourceGraphic" in2="BackgroundImageFix" result="shape"/>
<feGaussianBlur stdDeviation="0.0157529" result="effect1_foregroundBlur_1492_9906"/>
</filter>
<filter id="filter4_f_1492_9906" x="9.10332" y="0.46172" width="9.37148" height="9.20009" filterUnits="userSpaceOnUse" color-interpolation-filters="sRGB">
<feFlood flood-opacity="0" result="BackgroundImageFix"/>
<feBlend mode="normal" in="SourceGraphic" in2="BackgroundImageFix" result="shape"/>
<feGaussianBlur stdDeviation="1.57529" result="effect1_foregroundBlur_1492_9906"/>
</filter>
<filter id="filter5_f_1492_9906" x="9.10332" y="0.46172" width="9.37148" height="9.20009" filterUnits="userSpaceOnUse" color-interpolation-filters="sRGB">
<feFlood flood-opacity="0" result="BackgroundImageFix"/>
<feBlend mode="normal" in="SourceGraphic" in2="BackgroundImageFix" result="shape"/>
<feGaussianBlur stdDeviation="1.57529" result="effect1_foregroundBlur_1492_9906"/>
</filter>
<filter id="filter6_f_1492_9906" x="12.2458" y="6.17699" width="2.48098" height="1.34963" filterUnits="userSpaceOnUse" color-interpolation-filters="sRGB">
<feFlood flood-opacity="0" result="BackgroundImageFix"/>
<feBlend mode="normal" in="SourceGraphic" in2="BackgroundImageFix" result="shape"/>
<feGaussianBlur stdDeviation="0.0157529" result="effect1_foregroundBlur_1492_9906"/>
</filter>
<radialGradient id="paint0_radial_1492_9906" cx="0" cy="0" r="1" gradientUnits="userSpaceOnUse" gradientTransform="translate(1.45303 2.29256) rotate(44.2274) scale(44.0244)">
<stop offset="0.0606751" stop-color="#FFDC80"/>
<stop offset="0.25" stop-color="#FECE2F"/>
<stop offset="0.50179" stop-color="#FC9106"/>
<stop offset="0.75" stop-color="#E94057"/>
<stop offset="1" stop-color="#C13584"/>
</radialGradient>
<linearGradient id="paint1_linear_1492_9906" x1="13.6178" y1="4.05664" x2="12.1413" y2="6.10307" gradientUnits="userSpaceOnUse">
<stop stop-color="#FFDA44"/>
<stop offset="1" stop-color="#FECE2F"/>
</linearGradient>
<linearGradient id="paint2_linear_1492_9906" x1="13.9878" y1="4.42871" x2="14.2242" y2="5.62046" gradientUnits="userSpaceOnUse">
<stop stop-color="white"/>
<stop offset="1" stop-color="white" stop-opacity="0"/>
</linearGradient>
<linearGradient id="paint3_linear_1492_9906" x1="11.2278" y1="4.58749" x2="11.0291" y2="6.16167" gradientUnits="userSpaceOnUse">
<stop stop-color="white"/>
<stop offset="1" stop-color="white" stop-opacity="0"/>
</linearGradient>
<linearGradient id="paint4_linear_1492_9906" x1="11.8745" y1="8.1887" x2="10.9054" y2="7.49177" gradientUnits="userSpaceOnUse">
<stop stop-color="white" stop-opacity="0"/>
<stop offset="1" stop-color="white"/>
</linearGradient>
<linearGradient id="paint5_linear_1492_9906" x1="10.9149" y1="7.01442" x2="11.3555" y2="6.791" gradientUnits="userSpaceOnUse">
<stop stop-color="white" stop-opacity="0"/>
<stop offset="1" stop-color="white"/>
</linearGradient>
<linearGradient id="paint6_linear_1492_9906" x1="13.9298" y1="7.80263" x2="13.188" y2="8.07429" gradientUnits="userSpaceOnUse">
<stop stop-color="white"/>
<stop offset="1" stop-color="white" stop-opacity="0"/>
</linearGradient>
<radialGradient id="paint7_radial_1492_9906" cx="0" cy="0" r="1" gradientTransform="matrix(0.720777 0.708615 -1.84423 1.79857 0.497578 0.237019)" gradientUnits="userSpaceOnUse">
<stop stop-color="#FFCF32"/>
<stop offset="1" stop-color="#E9B300"/>
</radialGradient>
<linearGradient id="paint8_linear_1492_9906" x1="13.7055" y1="4.50439" x2="12.454" y2="6.28925" gradientUnits="userSpaceOnUse">
<stop stop-color="#FFDA44"/>
<stop offset="1" stop-color="#FECE2F"/>
</linearGradient>
<linearGradient id="paint9_linear_1492_9906" x1="14.0279" y1="4.82129" x2="14.2248" y2="5.84314" gradientUnits="userSpaceOnUse">
<stop stop-color="white"/>
<stop offset="1" stop-color="white" stop-opacity="0"/>
</linearGradient>
<linearGradient id="paint10_linear_1492_9906" x1="11.5984" y1="4.95993" x2="11.433" y2="6.30802" gradientUnits="userSpaceOnUse">
<stop stop-color="white"/>
<stop offset="1" stop-color="white" stop-opacity="0"/>
</linearGradient>
<linearGradient id="paint11_linear_1492_9906" x1="12.1681" y1="8.03817" x2="11.3317" y2="7.41924" gradientUnits="userSpaceOnUse">
<stop stop-color="white" stop-opacity="0"/>
<stop offset="1" stop-color="white"/>
</linearGradient>
<linearGradient id="paint12_linear_1492_9906" x1="11.3294" y1="7.03568" x2="11.7127" y2="6.8357" gradientUnits="userSpaceOnUse">
<stop stop-color="white" stop-opacity="0"/>
<stop offset="1" stop-color="white"/>
</linearGradient>
<linearGradient id="paint13_linear_1492_9906" x1="13.9801" y1="7.71161" x2="13.3316" y2="7.956" gradientUnits="userSpaceOnUse">
<stop stop-color="white"/>
<stop offset="1" stop-color="white" stop-opacity="0"/>
</linearGradient>
<radialGradient id="paint14_radial_1492_9906" cx="0" cy="0" r="1" gradientTransform="matrix(0.61878 0.621671 -1.58326 1.57789 0.427166 0.207938)" gradientUnits="userSpaceOnUse">
<stop stop-color="#FFCF32"/>
<stop offset="1" stop-color="#E9B300"/>
</radialGradient>
</defs>
</svg>
