<svg width="76" height="75" viewBox="0 0 76 75" fill="none" xmlns="http://www.w3.org/2000/svg">
<rect x="0.75" width="74.5" height="74.5" rx="14.9" fill="url(#paint0_linear_179_6099)"/>
<g filter="url(#filter0_f_179_6099)">
<path d="M56.3887 26.2231C59.363 26.2231 61.8607 27.9579 63.5674 30.4868C65.2739 33.0155 66.2627 36.4235 66.2627 40.0679C66.2626 43.8443 64.4036 47.9881 62.0791 51.1479C60.9075 52.7405 59.5811 54.1337 58.2441 55.1401C56.9351 56.1254 55.4851 56.8374 54.0898 56.8374C53.0733 56.8371 52.2551 56.1645 51.6543 55.4907C51.0164 54.7754 50.3963 53.8003 49.793 52.7095C48.587 50.5289 47.3048 47.616 45.9912 44.8062C45.9685 44.7575 45.9447 44.7093 45.9219 44.6606C44.5909 47.287 43.3185 49.8119 42.2207 51.8247C41.4901 53.1641 40.812 54.3223 40.2207 55.1548C39.9275 55.5675 39.627 55.9402 39.3271 56.2212C39.0791 56.4536 38.6133 56.8374 38 56.8374C37.3855 56.8373 36.9193 56.4513 36.6738 56.2202C36.3753 55.9393 36.0765 55.5663 35.7842 55.1538C35.1945 54.3217 34.5172 53.1641 33.7871 51.8247C32.6889 49.8099 31.4153 47.2815 30.082 44.6519C30.0579 44.7033 30.0329 44.7546 30.0088 44.8062C28.6953 47.6159 27.413 50.5289 26.207 52.7095C25.6038 53.8002 24.9835 54.7755 24.3457 55.4907C23.7449 56.1644 22.9267 56.8372 21.9102 56.8374C20.5149 56.8373 19.0648 56.1254 17.7559 55.1401C16.4189 54.1337 15.0925 52.7406 13.9209 51.1479C11.5964 47.9882 9.73745 43.8443 9.7373 40.0679C9.7373 36.4237 10.7262 33.0154 12.4326 30.4868C14.1393 27.958 16.6371 26.2233 19.6113 26.2231C20.7101 26.2232 21.7052 26.9623 22.5107 27.7642C23.369 28.6186 24.2609 29.8004 25.1562 31.1567C26.7371 33.5514 28.4189 36.6292 30.0439 39.7554C30.7843 38.3477 31.5541 37.018 32.3535 35.8755C33.1325 34.7623 33.9727 33.7768 34.8809 33.061C35.7918 32.3431 36.8382 31.8453 38 31.8452C39.1619 31.8452 40.2081 32.3431 41.1191 33.061C42.0274 33.7768 42.8675 34.7622 43.6465 35.8755C44.4473 37.02 45.2184 38.3518 45.96 39.7622C47.5848 36.6339 49.2662 33.553 50.8467 31.1567C51.7412 29.8005 52.6325 28.6186 53.4902 27.7642C54.2952 26.9623 55.2899 26.2233 56.3887 26.2231ZM19.6113 28.4185C17.5707 28.4186 15.6796 29.5999 14.252 31.7153C12.8242 33.8312 11.9326 36.797 11.9326 40.0679C11.9328 43.2067 13.5214 46.9 15.6895 49.8472C16.7638 51.3075 17.9452 52.5349 19.0762 53.3862C20.2353 54.2587 21.2159 54.642 21.9102 54.6421C21.9401 54.6417 22.1997 54.5997 22.708 54.0298C23.1817 53.4985 23.7077 52.6928 24.2861 51.647C25.444 49.5532 26.6698 46.7657 28.0205 43.8765C28.284 43.3128 28.5536 42.7463 28.8262 42.1821C28.8005 42.1321 28.7747 42.0818 28.749 42.0317C26.9239 38.4791 25.0466 34.9747 23.3242 32.3657C22.4609 31.0579 21.6647 30.0195 20.9619 29.3198C20.2066 28.5679 19.7664 28.4186 19.6113 28.4185ZM56.3887 28.4185C56.2335 28.4188 55.7934 28.5684 55.0391 29.3198C54.3369 30.0194 53.5421 31.0582 52.6797 32.3657C50.9589 34.9747 49.0827 38.479 47.2588 42.0317C47.2318 42.0843 47.2047 42.1373 47.1777 42.1899C47.449 42.7515 47.7172 43.3153 47.9795 43.8765C49.3302 46.7658 50.5559 49.5532 51.7139 51.647C52.2923 52.6929 52.8183 53.4985 53.292 54.0298C53.7989 54.5982 54.0586 54.6415 54.0898 54.6421C54.7841 54.6421 55.7646 54.2587 56.9238 53.3862C58.0547 52.5349 59.2362 51.3075 60.3105 49.8472C62.4786 46.9 64.0672 43.2068 64.0674 40.0679C64.0674 36.7968 63.1759 33.8312 61.748 31.7153C60.3203 29.5998 58.4295 28.4185 56.3887 28.4185ZM38 34.0405C37.4903 34.0406 36.91 34.2561 36.2393 34.7847C35.5659 35.3154 34.8684 36.111 34.1523 37.1343C33.1684 38.5405 32.2133 40.2864 31.2793 42.1646C32.9012 45.3452 34.4236 48.4051 35.7148 50.7739C36.437 52.0988 37.0636 53.1623 37.5752 53.8843C37.7403 54.1173 37.8835 54.2974 38.002 54.4331C38.1209 54.2974 38.2646 54.117 38.4307 53.8833C38.9433 53.1617 39.5714 52.0985 40.2939 50.7739C41.5847 48.4075 43.1043 45.35 44.7236 42.1724C43.7884 40.2913 42.8329 38.5424 41.8477 37.1343C41.1315 36.1108 40.4342 35.3154 39.7607 34.7847C39.0899 34.256 38.5098 34.0405 38 34.0405Z" fill="#FFFCF3"/>
<g filter="url(#filter1_f_179_6099)">
<path d="M18.9257 23.8087C30.4732 15.614 45.0007 15.6138 56.9207 23.8087" stroke="#FFFCF3" stroke-width="1.98667" stroke-linecap="round"/>
</g>
</g>
<path d="M56.3887 26.2231C59.363 26.2231 61.8607 27.9579 63.5674 30.4868C65.2739 33.0155 66.2627 36.4235 66.2627 40.0679C66.2626 43.8443 64.4036 47.9881 62.0791 51.1479C60.9075 52.7405 59.5811 54.1337 58.2441 55.1401C56.9351 56.1254 55.4851 56.8374 54.0898 56.8374C53.0733 56.8371 52.2551 56.1645 51.6543 55.4907C51.0164 54.7754 50.3963 53.8003 49.793 52.7095C48.587 50.5289 47.3048 47.616 45.9912 44.8062C45.9685 44.7575 45.9447 44.7093 45.9219 44.6606C44.5909 47.287 43.3185 49.8119 42.2207 51.8247C41.4901 53.1641 40.812 54.3223 40.2207 55.1548C39.9275 55.5675 39.627 55.9402 39.3271 56.2212C39.0791 56.4536 38.6133 56.8374 38 56.8374C37.3855 56.8373 36.9193 56.4513 36.6738 56.2202C36.3753 55.9393 36.0765 55.5663 35.7842 55.1538C35.1945 54.3217 34.5172 53.1641 33.7871 51.8247C32.6889 49.8099 31.4153 47.2815 30.082 44.6519C30.0579 44.7033 30.0329 44.7546 30.0088 44.8062C28.6953 47.6159 27.413 50.5289 26.207 52.7095C25.6038 53.8002 24.9835 54.7755 24.3457 55.4907C23.7449 56.1644 22.9267 56.8372 21.9102 56.8374C20.5149 56.8373 19.0648 56.1254 17.7559 55.1401C16.4189 54.1337 15.0925 52.7406 13.9209 51.1479C11.5964 47.9882 9.73745 43.8443 9.7373 40.0679C9.7373 36.4237 10.7262 33.0154 12.4326 30.4868C14.1393 27.958 16.6371 26.2233 19.6113 26.2231C20.7101 26.2232 21.7052 26.9623 22.5107 27.7642C23.369 28.6186 24.2609 29.8004 25.1562 31.1567C26.7371 33.5514 28.4189 36.6292 30.0439 39.7554C30.7843 38.3477 31.5541 37.018 32.3535 35.8755C33.1325 34.7623 33.9727 33.7768 34.8809 33.061C35.7918 32.3431 36.8382 31.8453 38 31.8452C39.1619 31.8452 40.2081 32.3431 41.1191 33.061C42.0274 33.7768 42.8675 34.7622 43.6465 35.8755C44.4473 37.02 45.2184 38.3518 45.96 39.7622C47.5848 36.6339 49.2662 33.553 50.8467 31.1567C51.7412 29.8005 52.6325 28.6186 53.4902 27.7642C54.2952 26.9623 55.2899 26.2233 56.3887 26.2231ZM19.6113 28.4185C17.5707 28.4186 15.6796 29.5999 14.252 31.7153C12.8242 33.8312 11.9326 36.797 11.9326 40.0679C11.9328 43.2067 13.5214 46.9 15.6895 49.8472C16.7638 51.3075 17.9452 52.5349 19.0762 53.3862C20.2353 54.2587 21.2159 54.642 21.9102 54.6421C21.9401 54.6417 22.1997 54.5997 22.708 54.0298C23.1817 53.4985 23.7077 52.6928 24.2861 51.647C25.444 49.5532 26.6698 46.7657 28.0205 43.8765C28.284 43.3128 28.5536 42.7463 28.8262 42.1821C28.8005 42.1321 28.7747 42.0818 28.749 42.0317C26.9239 38.4791 25.0466 34.9747 23.3242 32.3657C22.4609 31.0579 21.6647 30.0195 20.9619 29.3198C20.2066 28.5679 19.7664 28.4186 19.6113 28.4185ZM56.3887 28.4185C56.2335 28.4188 55.7934 28.5684 55.0391 29.3198C54.3369 30.0194 53.5421 31.0582 52.6797 32.3657C50.9589 34.9747 49.0827 38.479 47.2588 42.0317C47.2318 42.0843 47.2047 42.1373 47.1777 42.1899C47.449 42.7515 47.7172 43.3153 47.9795 43.8765C49.3302 46.7658 50.5559 49.5532 51.7139 51.647C52.2923 52.6929 52.8183 53.4985 53.292 54.0298C53.7989 54.5982 54.0586 54.6415 54.0898 54.6421C54.7841 54.6421 55.7646 54.2587 56.9238 53.3862C58.0547 52.5349 59.2362 51.3075 60.3105 49.8472C62.4786 46.9 64.0672 43.2068 64.0674 40.0679C64.0674 36.7968 63.1759 33.8312 61.748 31.7153C60.3203 29.5998 58.4295 28.4185 56.3887 28.4185ZM38 34.0405C37.4903 34.0406 36.91 34.2561 36.2393 34.7847C35.5659 35.3154 34.8684 36.111 34.1523 37.1343C33.1684 38.5405 32.2133 40.2864 31.2793 42.1646C32.9012 45.3452 34.4236 48.4051 35.7148 50.7739C36.437 52.0988 37.0636 53.1623 37.5752 53.8843C37.7403 54.1173 37.8835 54.2974 38.002 54.4331C38.1209 54.2974 38.2646 54.117 38.4307 53.8833C38.9433 53.1617 39.5714 52.0985 40.2939 50.7739C41.5847 48.4075 43.1043 45.35 44.7236 42.1724C43.7884 40.2913 42.8329 38.5424 41.8477 37.1343C41.1315 36.1108 40.4342 35.3154 39.7607 34.7847C39.0899 34.256 38.5098 34.0405 38 34.0405Z" fill="#FFFCF3"/>
<path d="M18.9257 23.8087C30.4732 15.614 45.0007 15.6138 56.9207 23.8087" stroke="#FFFCF3" stroke-width="1.98667" stroke-linecap="round"/>
<defs>
<filter id="filter0_f_179_6099" x="7.5421" y="14.474" width="60.9158" height="44.5586" filterUnits="userSpaceOnUse" color-interpolation-filters="sRGB">
<feFlood flood-opacity="0" result="BackgroundImageFix"/>
<feBlend mode="normal" in="SourceGraphic" in2="BackgroundImageFix" result="shape"/>
<feGaussianBlur stdDeviation="1.0976" result="effect1_foregroundBlur_179_6099"/>
</filter>
<filter id="filter1_f_179_6099" x="15.737" y="14.4739" width="44.3723" height="12.5236" filterUnits="userSpaceOnUse" color-interpolation-filters="sRGB">
<feFlood flood-opacity="0" result="BackgroundImageFix"/>
<feBlend mode="normal" in="SourceGraphic" in2="BackgroundImageFix" result="shape"/>
<feGaussianBlur stdDeviation="1.09763" result="effect1_foregroundBlur_179_6099"/>
</filter>
<linearGradient id="paint0_linear_179_6099" x1="8.5" y1="5" x2="75" y2="81.5" gradientUnits="userSpaceOnUse">
<stop stop-color="#FECE2F"/>
<stop offset="1" stop-color="#FCB916"/>
</linearGradient>
</defs>
</svg>
