<svg width="326" height="282" viewBox="0 0 326 282" fill="none" xmlns="http://www.w3.org/2000/svg">
<path d="M323.676 219.891L322.364 223.039C320.525 227.453 316.873 230.861 312.342 232.391L293.864 238.631H25.3084L9.10393 233.662C4.73964 232.324 1.62345 228.472 1.22572 223.925L0.543767 216.125C0.448261 214.911 0.678286 213.692 1.21036 212.596C1.86672 211.244 2.1001 209.725 1.88013 208.238L0.439262 198.497C0.150275 196.544 1.16958 194.631 2.95187 193.781L6.64939 192.018C26.9856 182.32 48.761 175.986 71.1261 173.263L80.5257 172.119L91.2322 166.362C151.021 134.21 221.838 129.653 285.254 153.877L324.467 168.855L322.339 187.492L324.818 200.281C325.264 202.584 325.489 204.924 325.489 207.27V210.827C325.488 213.938 324.872 217.019 323.676 219.891Z" fill="white"/>
<path d="M283.269 162.416C283.998 162.033 283.933 160.968 283.163 160.674L273.397 156.947C217.327 135.548 141.42 136.375 87.6719 177.585L218.699 173.047C233.909 172.52 249.082 171.211 264.159 169.125C271.799 168.064 279.769 164.252 283.269 162.416Z" fill="white"/>
<path d="M87.6731 177.977C87.5081 177.977 87.36 177.873 87.3042 177.717C87.2468 177.557 87.2996 177.377 87.4346 177.274C112.576 157.997 144.457 146.283 179.633 143.397C211.138 140.814 244.488 145.495 273.538 156.581L283.304 160.308C283.806 160.5 284.139 160.952 284.17 161.49C284.202 162.026 283.927 162.514 283.452 162.763C279.501 164.835 271.748 168.468 264.213 169.513C249.186 171.593 233.878 172.914 218.713 173.438L87.6866 177.976C87.6823 177.977 87.6777 177.977 87.6731 177.977ZM196.124 143.412C160.051 143.412 121.569 152.498 88.8919 177.15L218.686 172.655C233.824 172.131 249.105 170.813 264.106 168.737C271.8 167.669 279.944 163.718 283.088 162.068C283.29 161.963 283.402 161.764 283.388 161.536C283.375 161.307 283.239 161.122 283.025 161.041L273.259 157.314C251.793 149.121 224.715 143.412 196.124 143.412Z" fill="black"/>
<path d="M300.735 184.702C300.735 184.702 295.818 189.142 322.331 187.596L324.472 168.826C324.472 168.826 310.32 176.592 300.735 184.702Z" fill="white"/>
<path d="M312.49 188.316C304.904 188.316 300.742 187.523 300.082 185.945C299.799 185.269 300.195 184.663 300.474 184.411C300.477 184.409 300.481 184.406 300.484 184.403C309.989 176.36 324.143 168.56 324.285 168.482C324.414 168.411 324.571 168.418 324.692 168.5C324.813 168.582 324.88 168.725 324.863 168.87L322.722 187.64C322.701 187.83 322.546 187.976 322.356 187.987C318.599 188.206 315.307 188.316 312.49 188.316ZM300.998 184.995C300.959 185.033 300.67 185.329 300.807 185.647C301.081 186.286 303.423 188.281 321.981 187.223L323.997 169.541C321.088 171.182 309.267 178 300.998 184.995Z" fill="black"/>
<path d="M302.32 186.996C304.834 187.774 310.4 188.291 322.331 187.595L323.001 181.72C323.001 181.72 324.2 174.023 317.438 176.926C309.942 180.143 302.32 186.996 302.32 186.996Z" fill="black"/>
<path d="M26.963 230.236L269.466 225.623L323.915 219.303C323.839 219.499 323.76 219.695 323.679 219.89L322.368 223.038C320.528 227.452 316.876 230.858 312.345 232.388L300.679 236.325C296.168 237.848 291.439 238.625 286.678 238.625H29.1272C26.5976 238.625 24.082 238.248 21.6635 237.507L9.10729 233.659C5.92808 232.684 3.41123 230.382 2.125 227.439L26.963 230.236Z" fill="white"/>
<path d="M286.679 239.016H29.1285C26.5585 239.016 24.0087 238.634 21.5501 237.881L8.99353 234.033C5.75483 233.04 3.12075 230.693 1.76726 227.595C1.71095 227.467 1.7279 227.318 1.81087 227.206C1.89402 227.093 2.02977 227.035 2.17029 227.049L26.9826 229.843L269.46 225.231L323.871 218.913C324.005 218.895 324.142 218.954 324.226 219.063C324.31 219.171 324.331 219.316 324.282 219.444C324.204 219.644 324.125 219.842 324.042 220.041L322.731 223.189C320.849 227.705 317.11 231.193 312.472 232.759L300.806 236.697C296.245 238.236 291.493 239.016 286.679 239.016ZM2.78269 227.907C4.11182 230.484 6.4253 232.425 9.22302 233.283L21.7796 237.131C24.1635 237.862 26.636 238.232 29.1283 238.232H286.679C291.407 238.232 296.075 237.466 300.555 235.954L312.221 232.016C316.645 230.522 320.212 227.195 322.007 222.887L323.306 219.768L269.513 226.012L26.9714 230.628C26.9564 230.628 26.9374 230.627 26.9201 230.625L2.78269 227.907Z" fill="black"/>
<path d="M34.4959 190.244C34.7806 190.035 34.6666 189.586 34.3167 189.541C32.4429 189.3 28.0464 188.862 23.2649 189.277C18.3652 189.704 10.993 193.327 7.89389 194.952C7.06436 195.387 6.70334 196.381 7.0573 197.248L7.26543 197.758C7.67958 198.773 8.66694 199.437 9.76339 199.437H16.3732C19.9796 199.437 23.4925 198.289 26.4035 196.161L34.4959 190.244Z" fill="white"/>
<path d="M7.95312 194.918C11.0891 193.277 18.3934 189.7 23.259 189.277C25.2037 189.108 27.0849 189.081 28.7584 189.123L22.8832 193.261C20.5951 194.872 17.9485 195.902 15.173 196.26L10.9237 196.808C10.13 196.911 9.33928 196.598 8.82997 195.981L7.95312 194.918Z" fill="black"/>
<path d="M16.3692 199.829H9.75918C8.49784 199.829 7.37525 199.074 6.89861 197.906L6.68924 197.393C6.25708 196.334 6.69507 195.136 7.7082 194.604L7.77334 194.57C10.763 193.005 18.2533 189.319 23.2268 188.887C28.0963 188.464 32.6144 188.928 34.3307 189.148C34.6557 189.189 34.9182 189.421 35.0001 189.738C35.0816 190.054 34.9637 190.384 34.6996 190.577L26.6308 196.477C23.6318 198.67 20.0833 199.829 16.3692 199.829ZM8.13683 195.265L8.07169 195.299C7.41868 195.641 7.13623 196.414 7.4148 197.097L7.62417 197.61C7.97971 198.481 8.81772 199.045 9.759 199.045H16.369C19.9159 199.045 23.3043 197.938 26.1684 195.844L34.2371 189.944C32.5394 189.709 28.0877 189.251 23.2948 189.667C18.4625 190.088 11.0848 193.722 8.13683 195.265Z" fill="black"/>
<path d="M163.531 183.126L187.453 182.385C189.996 182.306 192.468 181.53 194.599 180.142L195.975 179.246L171.941 179.966C168.865 180.059 165.907 181.17 163.531 183.126Z" fill="white"/>
<path d="M163.533 183.518C163.37 183.518 163.223 183.417 163.166 183.264C163.107 183.107 163.154 182.93 163.283 182.823C165.713 180.822 168.784 179.668 171.931 179.574L195.965 178.854C196.151 178.852 196.298 178.961 196.351 179.128C196.403 179.296 196.338 179.478 196.191 179.574L194.815 180.47C192.622 181.898 190.081 182.695 187.467 182.776L163.545 183.518C163.541 183.518 163.536 183.518 163.533 183.518ZM194.592 179.679L171.954 180.358C169.389 180.435 166.876 181.257 164.76 182.696L187.442 181.992C189.913 181.916 192.314 181.162 194.386 179.813L194.592 179.679Z" fill="black"/>
<path d="M11.5038 224.807C11.4069 224.807 11.3089 224.8 11.2105 224.786C9.29285 224.504 4.7522 223.103 4.01041 216.191C3.85647 214.759 4.6906 213.369 6.03808 212.81C7.59406 212.166 11.1318 211.879 13.8259 211.752C14.4071 211.725 14.9769 211.951 15.3819 212.373C15.78 212.788 15.9791 213.353 15.9281 213.922C15.5824 217.795 14.1673 221.632 13.3546 223.574C13.038 224.329 12.3026 224.807 11.5038 224.807ZM13.9211 212.534C13.9015 212.534 13.882 212.534 13.8624 212.535C11.7082 212.637 7.86574 212.902 6.33801 213.534C5.30952 213.96 4.67294 215.019 4.78963 216.108C5.44846 222.246 9.1668 223.693 11.3246 224.01C11.8757 224.092 12.4152 223.788 12.6315 223.271C13.4266 221.371 14.8106 217.62 15.1471 213.853C15.1785 213.504 15.0606 213.171 14.8156 212.916C14.5815 212.671 14.2579 212.534 13.9211 212.534Z" fill="black"/>
<path d="M10.9062 224.337C11.03 224.361 11.149 224.381 11.2623 224.398C11.9951 224.506 12.7067 224.107 12.9929 223.424C13.7472 221.622 15.1922 217.759 15.538 213.888C15.6248 212.916 14.8174 212.098 13.8427 212.144C13.2159 212.174 12.4702 212.216 11.6862 212.276L11.6902 212.309C12.1713 216.153 11.9485 220.053 11.0328 223.817L10.9062 224.337Z" fill="black"/>
<path d="M90.4079 224.575C90.4079 205.637 75.0556 190.285 56.118 190.285C37.1801 190.285 21.8281 205.637 21.8281 224.575C21.8281 229.518 22.8759 234.215 24.7582 238.46L25.3129 238.63H87.4036C89.3335 234.341 90.4079 229.584 90.4079 224.575Z" fill="white"/>
<path d="M87.4046 239.022H25.3138C25.2748 239.022 25.2362 239.016 25.1991 239.005L24.6444 238.835C24.5357 238.801 24.4469 238.723 24.401 238.619C22.4346 234.184 21.4375 229.459 21.4375 224.575C21.4375 205.451 36.9955 189.893 56.1191 189.893C75.2427 189.893 90.8012 205.451 90.8012 224.575C90.8012 229.526 89.7788 234.309 87.7624 238.791C87.6987 238.932 87.5588 239.022 87.4046 239.022ZM25.3725 238.238H87.1502C89.0527 233.925 90.0173 229.329 90.0173 224.575C90.0173 205.883 74.8106 190.677 56.1191 190.677C37.428 190.677 22.2213 205.883 22.2213 224.575C22.2213 229.288 23.1714 233.851 25.0455 238.138L25.3725 238.238Z" fill="black"/>
<path d="M296.756 224.575C296.756 205.63 281.398 190.271 262.452 190.271C243.507 190.271 228.148 205.63 228.148 224.575C228.148 229.584 229.222 234.341 231.152 238.63H293.753C295.682 234.341 296.756 229.584 296.756 224.575Z" fill="white"/>
<path d="M293.755 239.022H231.153C230.998 239.022 230.858 238.932 230.795 238.791C228.78 234.309 227.758 229.527 227.758 224.575C227.758 205.443 243.322 189.879 262.454 189.879C281.585 189.879 297.15 205.443 297.15 224.575C297.15 229.526 296.128 234.309 294.112 238.791C294.049 238.932 293.909 239.022 293.755 239.022ZM231.407 238.238H293.5C295.401 233.924 296.365 229.329 296.365 224.575C296.365 205.876 281.153 190.663 262.453 190.663C243.754 190.663 228.541 205.876 228.541 224.575C228.542 229.33 229.506 233.925 231.407 238.238Z" fill="black"/>
<path d="M100.924 173.987L106.145 167.696C106.879 166.811 107.97 166.299 109.12 166.299H113.767C115.738 166.299 117.393 167.782 117.609 169.741L117.956 172.884C118.05 173.735 117.859 174.594 117.413 175.324C116.72 176.457 115.495 177.156 114.168 177.174C109.186 177.243 97.2294 177.367 97.4885 176.978C97.7466 176.591 99.5656 175.158 100.322 174.569C100.544 174.397 100.745 174.202 100.924 173.987Z" fill="white"/>
<path d="M117.954 172.884L117.607 169.741C117.391 167.782 115.735 166.299 113.764 166.299H109.117C107.967 166.299 106.877 166.811 106.142 167.696L100.922 173.987C100.922 173.987 110.684 172.742 117.954 172.884Z" fill="white"/>
<path d="M100.923 174.378C100.782 174.378 100.649 174.301 100.58 174.174C100.502 174.034 100.519 173.859 100.622 173.735L105.842 167.445C106.654 166.467 107.848 165.906 109.119 165.906H113.766C115.94 165.906 117.76 167.536 117.998 169.697L118.345 172.841C118.358 172.953 118.321 173.065 118.245 173.148C118.169 173.231 118.056 173.271 117.948 173.276C110.794 173.137 101.07 174.362 100.973 174.375C100.956 174.376 100.94 174.378 100.923 174.378ZM109.119 166.69C108.082 166.69 107.107 167.147 106.446 167.946L101.852 173.48C104.449 173.181 111.703 172.419 117.517 172.485L117.219 169.783C117.024 168.02 115.54 166.69 113.766 166.69H109.119Z" fill="black"/>
<path d="M100.924 173.987L106.145 167.696C106.879 166.811 107.97 166.299 109.12 166.299H113.767C115.738 166.299 117.393 167.782 117.609 169.741L117.956 172.884C118.05 173.735 117.859 174.594 117.413 175.324C116.72 176.457 115.495 177.156 114.168 177.174C109.186 177.243 97.2294 177.367 97.4885 176.978C97.7466 176.591 99.5656 175.158 100.322 174.569C100.544 174.397 100.745 174.202 100.924 173.987Z" fill="white"/>
<path d="M104.681 177.646C97.3889 177.646 97.2638 177.413 97.1405 177.187C97.0713 177.059 97.0796 176.882 97.1605 176.761C97.3729 176.442 98.3551 175.6 100.08 174.26C100.278 174.105 100.46 173.929 100.621 173.735L105.841 167.445C106.653 166.467 107.847 165.906 109.118 165.906H113.765C115.939 165.906 117.759 167.536 117.997 169.697L118.344 172.841C118.447 173.773 118.234 174.728 117.745 175.528C116.978 176.784 115.642 177.545 114.171 177.566C110.109 177.622 107.025 177.646 104.681 177.646ZM98.2712 176.742C100.14 176.878 105.954 176.895 114.16 176.782C115.36 176.765 116.45 176.143 117.076 175.12C117.475 174.466 117.649 173.688 117.565 172.926L117.218 169.783C117.023 168.02 115.538 166.69 113.764 166.69H109.117C108.08 166.69 107.106 167.147 106.444 167.946L101.223 174.236C101.027 174.473 100.803 174.689 100.56 174.878C99.4304 175.757 98.6965 176.364 98.2712 176.742Z" fill="black"/>
<path d="M286.89 239.022H29.5014C26.6821 239.022 23.8858 238.603 21.19 237.776L8.9916 234.036C4.45219 232.644 1.25162 228.688 0.837825 223.958L0.155699 216.159C0.0547212 214.872 0.298511 213.582 0.86042 212.425C1.48465 211.137 1.70408 209.709 1.49471 208.294L0.0538339 198.554C-0.262339 196.417 0.835532 194.356 2.78536 193.427L6.48269 191.664C26.8971 181.928 48.631 175.606 71.0807 172.874L80.4074 171.739L91.0489 166.016C150.986 133.785 221.824 129.227 285.397 153.51L322.062 167.515C323.729 168.152 324.752 169.835 324.55 171.609L322.738 187.477L325.205 200.206C325.655 202.528 325.883 204.904 325.883 207.269V210.826C325.883 214.006 325.263 217.106 324.04 220.041L322.729 223.189C320.846 227.707 317.107 231.196 312.47 232.762L300.603 236.769C296.176 238.264 291.562 239.022 286.89 239.022ZM201.872 138.871C163.757 138.871 125.791 148.223 91.4203 166.706L80.7137 172.464C80.6708 172.487 80.6236 172.502 80.5754 172.507L71.1757 173.652C48.8102 176.374 27.1582 182.672 6.8204 192.37L3.12307 194.133C1.48553 194.914 0.563843 196.644 0.829351 198.439L2.27023 208.179C2.5029 209.75 2.25911 211.337 1.5655 212.766C1.0645 213.798 0.847006 214.949 0.936862 216.093L1.61864 223.889C2.00454 228.3 4.98868 231.988 9.2211 233.286L21.4195 237.026C24.0408 237.83 26.7601 238.238 29.5012 238.238H286.89C291.476 238.238 296.006 237.494 300.352 236.026L312.219 232.019C316.643 230.525 320.21 227.197 322.005 222.887L323.317 219.739C324.499 216.9 325.099 213.901 325.099 210.825V207.269C325.099 204.954 324.876 202.627 324.435 200.355L321.957 187.566C321.949 187.526 321.947 187.486 321.952 187.447L323.771 171.519C323.933 170.101 323.115 168.756 321.782 168.247L285.117 154.242C258.213 143.965 230.001 138.871 201.872 138.871Z" fill="black"/>
<path d="M284.084 246.211C296.033 234.262 296.033 214.887 284.084 202.937C272.134 190.987 252.759 190.987 240.809 202.937C228.859 214.887 228.859 234.262 240.809 246.211C252.759 258.161 272.134 258.161 284.084 246.211Z" fill="#FBAE17"/>
<path d="M276.994 239.127C285.032 231.09 285.032 218.059 276.994 210.021C268.957 201.984 255.926 201.984 247.889 210.021C239.851 218.059 239.851 231.09 247.889 239.127C255.926 247.164 268.957 247.164 276.994 239.127Z" fill="white"/>
<path d="M262.442 245.547C250.877 245.547 241.469 236.138 241.469 224.574C241.469 213.01 250.877 203.602 262.442 203.602C274.006 203.602 283.415 213.01 283.415 224.574C283.415 236.138 274.006 245.547 262.442 245.547ZM262.442 204.385C251.31 204.385 242.253 213.442 242.253 224.574C242.253 235.706 251.31 244.763 262.442 244.763C273.574 244.763 282.631 235.706 282.631 224.574C282.631 213.442 273.574 204.385 262.442 204.385Z" fill="black"/>
<path d="M262.446 241.091C271.567 241.091 278.962 233.696 278.962 224.575C278.962 215.453 271.567 208.059 262.446 208.059C253.324 208.059 245.93 215.453 245.93 224.575C245.93 233.696 253.324 241.091 262.446 241.091Z" fill="white"/>
<path d="M262.447 241.482C253.124 241.482 245.539 233.897 245.539 224.574C245.539 215.251 253.124 207.666 262.447 207.666C271.77 207.666 279.355 215.251 279.355 224.574C279.355 233.897 271.77 241.482 262.447 241.482ZM262.447 208.45C253.556 208.45 246.323 215.683 246.323 224.574C246.323 233.465 253.556 240.698 262.447 240.698C271.338 240.698 278.571 233.465 278.571 224.574C278.571 215.683 271.338 208.45 262.447 208.45Z" fill="black"/>
<path d="M77.7476 246.21C89.6975 234.26 89.6975 214.885 77.7476 202.935C65.7977 190.985 46.4231 190.985 34.4732 202.935C22.5233 214.885 22.5233 234.26 34.4732 246.209C46.4231 258.159 65.7977 258.159 77.7476 246.21Z" fill="#FBAE17"/>
<path d="M70.6583 239.125C78.6956 231.088 78.6956 218.057 70.6583 210.02C62.621 201.982 49.59 201.982 41.5528 210.02C33.5155 218.057 33.5155 231.088 41.5528 239.125C49.59 247.162 62.621 247.162 70.6583 239.125Z" fill="white"/>
<path d="M56.1058 245.547C44.5414 245.547 35.1328 236.138 35.1328 224.574C35.1328 213.01 44.5414 203.602 56.1058 203.602C67.6702 203.602 77.0788 213.01 77.0788 224.574C77.0788 236.138 67.6702 245.547 56.1058 245.547ZM56.1058 204.385C44.9736 204.385 35.9168 213.442 35.9168 224.574C35.9168 235.706 44.9736 244.763 56.1058 244.763C67.2381 244.763 76.2948 235.706 76.2948 224.574C76.2948 213.442 67.2381 204.385 56.1058 204.385Z" fill="black"/>
<path d="M56.1098 241.091C65.2313 241.091 72.6258 233.696 72.6258 224.575C72.6258 215.453 65.2313 208.059 56.1098 208.059C46.9882 208.059 39.5938 215.453 39.5938 224.575C39.5938 233.696 46.9882 241.091 56.1098 241.091Z" fill="white"/>
<path d="M56.1109 241.482C46.7881 241.482 39.2031 233.897 39.2031 224.574C39.2031 215.251 46.7881 207.666 56.1109 207.666C65.434 207.666 73.019 215.251 73.019 224.574C73.019 233.897 65.4342 241.482 56.1109 241.482ZM56.1109 208.45C47.2203 208.45 39.9871 215.683 39.9871 224.574C39.9871 233.465 47.2203 240.698 56.1109 240.698C65.0019 240.698 72.235 233.465 72.235 224.574C72.2352 215.683 65.0021 208.45 56.1109 208.45Z" fill="black"/>
<path d="M234.731 255.618L234.253 264.421L228.367 265.414L227.844 255.031L234.731 255.618Z" fill="white"/>
<path d="M228.369 265.806C228.28 265.806 228.193 265.775 228.123 265.719C228.036 265.649 227.983 265.545 227.977 265.434L227.454 255.051C227.448 254.938 227.492 254.828 227.573 254.749C227.654 254.671 227.766 254.629 227.879 254.641L234.766 255.228C234.977 255.246 235.135 255.428 235.124 255.639L234.646 264.442C234.636 264.626 234.501 264.777 234.32 264.808L228.434 265.8C228.412 265.804 228.391 265.806 228.369 265.806ZM228.259 255.46L228.738 264.954L233.88 264.086L234.32 255.976L228.259 255.46Z" fill="black"/>
<path d="M228.206 280.3C230.691 280.523 234.755 281.03 239.474 280.132C241.016 279.838 241.971 278.276 241.519 276.772C240.259 272.574 238.05 264.599 234.768 261.017L234.057 262.77L232.945 261.228C232.786 260.974 232.516 260.81 232.217 260.788L229.878 260.61C229.39 260.573 228.954 260.917 228.878 261.401L228.812 262.457L227.242 260.934L226.843 270.241C226.765 272.055 226.559 273.455 226.226 275.24L225.813 277.45C225.697 278.895 226.761 280.171 228.206 280.3Z" fill="white"/>
<path d="M233.807 281.037C231.861 281.037 230.167 280.878 228.834 280.752L228.172 280.69C226.523 280.543 225.29 279.075 225.424 277.418C225.425 277.404 225.427 277.391 225.429 277.377L225.841 275.168C226.169 273.412 226.374 272.04 226.452 270.224L226.852 260.917C226.859 260.762 226.955 260.627 227.099 260.57C227.242 260.513 227.406 260.544 227.517 260.652L228.475 261.582L228.488 261.376C228.599 260.659 229.214 260.162 229.909 260.219L232.248 260.397C232.67 260.428 233.055 260.661 233.279 261.02L233.962 261.966L234.406 260.87C234.457 260.745 234.568 260.655 234.7 260.631C234.833 260.607 234.968 260.653 235.059 260.752C238.178 264.157 240.336 271.415 241.626 275.752L241.896 276.66C242.142 277.48 242.028 278.371 241.583 279.105C241.136 279.841 240.395 280.356 239.548 280.517C237.484 280.91 235.545 281.037 233.807 281.037ZM226.204 277.5C226.116 278.722 227.026 279.801 228.242 279.909L228.908 279.971C231.389 280.205 235.137 280.558 239.402 279.747C240.03 279.627 240.581 279.245 240.913 278.698C241.243 278.154 241.328 277.493 241.145 276.884L240.874 275.976C239.663 271.901 237.673 265.208 234.891 261.76L234.422 262.917C234.368 263.049 234.247 263.142 234.105 263.159C233.962 263.176 233.824 263.114 233.741 262.999L232.628 261.457C232.522 261.287 232.363 261.191 232.189 261.178L229.85 261.001C229.567 260.981 229.311 261.182 229.266 261.462L229.204 262.481C229.195 262.634 229.097 262.767 228.954 262.822C228.812 262.876 228.65 262.844 228.54 262.738L227.598 261.823L227.236 270.257C227.156 272.112 226.938 273.566 226.613 275.311L226.204 277.5Z" fill="black"/>
<path d="M233.557 278.353C230.264 278.353 227.778 277.79 227.616 277.752C227.405 277.703 227.274 277.493 227.323 277.282C227.371 277.071 227.585 276.939 227.793 276.988C227.854 277.003 234.003 278.393 239.723 276.782C239.93 276.724 240.148 276.845 240.206 277.053C240.265 277.262 240.144 277.478 239.935 277.537C237.736 278.156 235.505 278.353 233.557 278.353Z" fill="black"/>
<path d="M230.462 271.832C230.249 271.832 230.074 271.661 230.07 271.447C230.066 271.231 230.239 271.052 230.455 271.048L236.014 270.951C236.226 270.944 236.409 271.12 236.413 271.336C236.417 271.553 236.244 271.731 236.028 271.735L230.469 271.832C230.467 271.832 230.465 271.832 230.462 271.832Z" fill="black"/>
<path d="M206.765 252.355L206.522 265.179L199.398 265.538L198.422 252.776L206.765 252.355Z" fill="white"/>
<path d="M199.399 265.93C199.195 265.93 199.024 265.773 199.008 265.568L198.032 252.806C198.024 252.701 198.059 252.596 198.129 252.517C198.199 252.438 198.298 252.39 198.403 252.384L206.747 251.964C206.858 251.956 206.961 251.998 207.039 252.074C207.117 252.149 207.16 252.254 207.158 252.363L206.915 265.186C206.911 265.392 206.749 265.56 206.543 265.57L199.419 265.93C199.412 265.93 199.406 265.93 199.399 265.93ZM198.845 253.147L199.761 265.127L206.139 264.806L206.367 252.768L198.845 253.147Z" fill="black"/>
<path d="M208.743 272.297C208.821 273.505 208.049 274.608 206.885 274.942C202.837 276.102 193.718 278.689 191.106 279.214C187.716 279.895 183.465 279.06 181.559 277.153C179.654 275.246 185.259 270.18 187.946 268.305C191.938 265.519 195.641 260.223 197.29 259.91C198.939 259.597 202.281 264.257 202.281 264.257L207.24 261.874C207.24 261.874 208.343 266.171 208.743 272.297Z" fill="white"/>
<path d="M188.65 279.841C185.724 279.841 182.783 278.931 181.283 277.43C180.904 277.051 180.739 276.562 180.79 275.978C181.015 273.437 185.558 269.495 187.723 267.983C189.682 266.617 191.552 264.654 193.202 262.923C194.982 261.055 196.268 259.705 197.218 259.525C198.873 259.21 201.527 262.574 202.407 263.763L207.072 261.521C207.179 261.471 207.301 261.469 207.407 261.519C207.514 261.568 207.592 261.663 207.621 261.777C207.632 261.82 208.737 266.179 209.135 272.272C209.225 273.656 208.325 274.937 206.994 275.318C203.12 276.429 193.822 279.068 191.184 279.598C190.365 279.763 189.508 279.841 188.65 279.841ZM197.47 260.285C197.433 260.285 197.398 260.288 197.364 260.295C196.662 260.428 195.256 261.903 193.769 263.464C192.094 265.222 190.195 267.214 188.172 268.627C185.516 270.481 181.744 274.091 181.571 276.047C181.541 276.395 181.628 276.666 181.838 276.876C183.611 278.651 187.649 279.509 191.029 278.83C193.639 278.306 202.913 275.673 206.778 274.565C207.757 274.285 208.419 273.342 208.352 272.323C208.034 267.45 207.261 263.707 206.972 262.438L202.452 264.611C202.279 264.693 202.075 264.64 201.964 264.486C200.682 262.7 198.49 260.285 197.47 260.285Z" fill="black"/>
<path d="M188.424 276.555C186.641 276.555 185.093 276.301 184.006 275.665C183.819 275.555 183.757 275.315 183.866 275.128C183.976 274.941 184.216 274.878 184.403 274.988C189.351 277.887 205.678 271.919 205.843 271.858C206.044 271.783 206.271 271.887 206.346 272.091C206.421 272.293 206.317 272.519 206.114 272.594C205.571 272.794 195.279 276.555 188.424 276.555Z" fill="black"/>
<path d="M196.789 269.337C196.703 269.337 196.615 269.308 196.542 269.249L192.754 266.163C192.586 266.026 192.561 265.779 192.697 265.611C192.834 265.444 193.081 265.418 193.249 265.555L197.037 268.641C197.205 268.777 197.23 269.024 197.094 269.193C197.016 269.287 196.904 269.337 196.789 269.337Z" fill="black"/>
<path d="M232.316 167.547C232.316 167.547 236.538 207.383 238.389 221.116C240.24 234.847 237.501 257.209 237.501 257.209L226.474 257.186C226.474 257.186 224.916 237.342 223.72 227.02C223.427 224.489 222.726 222.025 221.663 219.71C219.993 216.072 217.375 209.805 216.177 203.936C214.344 194.956 208.933 180.899 208.933 180.899C208.933 180.899 208.722 252.434 208.638 258.057C208.638 258.057 200.034 258.876 196.844 257.087C196.844 257.087 190.054 231.349 190.127 217.156C190.2 202.963 187.562 167.841 187.562 167.841L232.316 167.547Z" fill="white"/>
<path d="M204.282 258.641C201.613 258.641 198.397 258.408 196.653 257.43C196.561 257.378 196.493 257.291 196.466 257.188C196.398 256.93 189.664 231.238 189.736 217.155C189.808 203.14 187.199 168.223 187.173 167.872C187.165 167.764 187.202 167.657 187.276 167.577C187.349 167.497 187.453 167.451 187.561 167.451L232.315 167.156C232.316 167.156 232.317 167.156 232.317 167.156C232.518 167.156 232.686 167.307 232.707 167.507C232.75 167.905 236.95 207.495 238.779 221.064C240.615 234.689 237.918 257.034 237.891 257.258C237.866 257.455 237.7 257.602 237.502 257.602C237.501 257.602 237.501 257.602 237.501 257.602L226.475 257.579C226.27 257.579 226.101 257.421 226.085 257.218C226.069 257.02 224.514 237.263 223.332 227.067C223.045 224.597 222.364 222.177 221.307 219.875C219.777 216.539 217.024 210.043 215.794 204.016C214.397 197.175 210.871 187.256 209.32 183.048C209.284 195.02 209.106 253.054 209.031 258.065C209.028 258.264 208.875 258.43 208.676 258.449C208.511 258.465 206.603 258.641 204.282 258.641ZM197.181 256.823C199.967 258.241 206.648 257.823 208.252 257.698C208.338 250.01 208.541 181.602 208.543 180.899C208.543 180.71 208.678 180.549 208.864 180.515C209.049 180.479 209.233 180.583 209.301 180.759C209.355 180.9 214.744 194.95 216.562 203.859C217.777 209.809 220.503 216.242 222.02 219.548C223.112 221.925 223.815 224.425 224.11 226.977C225.206 236.424 226.62 254.055 226.838 256.796L237.153 256.818C237.486 253.937 239.7 233.768 238.002 221.169C236.264 208.276 232.389 171.929 231.965 167.943L187.986 168.232C188.282 172.25 190.588 203.949 190.52 217.159C190.451 230.548 196.603 254.593 197.181 256.823Z" fill="black"/>
<path d="M228.492 223.418C227.862 223.418 227.229 223.311 226.626 223.094C226.423 223.02 226.317 222.795 226.391 222.592C226.464 222.388 226.688 222.282 226.893 222.356C228.279 222.857 229.845 222.676 231.082 221.872C231.263 221.754 231.506 221.806 231.624 221.987C231.742 222.169 231.69 222.411 231.509 222.53C230.606 223.116 229.551 223.418 228.492 223.418Z" fill="black"/>
<path d="M231.029 179.448C231.015 179.448 231.002 179.447 230.988 179.446C228.954 179.233 226.538 177.807 225.859 174.444C225.817 174.232 225.954 174.025 226.166 173.982C226.38 173.94 226.585 174.077 226.628 174.289C227.223 177.236 229.313 178.482 231.069 178.667C231.285 178.689 231.441 178.882 231.418 179.097C231.397 179.299 231.227 179.448 231.029 179.448Z" fill="black"/>
<path d="M202.29 245.073C202.086 245.073 201.914 244.915 201.899 244.708C201.46 238.318 193.486 226.657 193.405 226.54C193.282 226.362 193.328 226.118 193.506 225.995C193.684 225.872 193.928 225.917 194.051 226.096C194.384 226.581 202.227 238.052 202.682 244.654C202.696 244.87 202.534 245.057 202.317 245.072C202.308 245.073 202.299 245.073 202.29 245.073Z" fill="black"/>
<path d="M191.425 110.722C189.012 103.769 185.455 104.719 182.894 106.742C181.054 108.196 179.816 110.291 179.402 112.6C179.059 114.505 178.356 117.28 176.934 119.87C174.273 124.716 164.437 126.666 161.006 126.652C159.509 126.647 155.493 121.842 152.916 122.656C151.064 123.241 154.517 126.18 154.085 126.391C152.482 127.176 150.96 127.007 149.507 127C147.149 126.99 145.043 126.353 144.161 126.348C143.043 126.341 142.669 127.485 143.131 128.503C143.793 129.957 145.237 132.161 147.624 132.93C151.891 134.304 159.188 133.017 161.733 132.523C163.672 132.146 186.522 133.565 189.432 124.03C190.037 122.047 192.441 113.648 191.425 110.722Z" fill="white"/>
<path d="M152.519 133.933C150.684 133.933 148.927 133.761 147.504 133.302C144.734 132.409 143.274 129.762 142.775 128.664C142.454 127.959 142.473 127.183 142.824 126.641C143.111 126.198 143.582 125.955 144.152 125.955C144.156 125.955 144.16 125.955 144.164 125.955C144.532 125.957 145.051 126.052 145.707 126.171C146.708 126.353 148.079 126.602 149.509 126.608C149.721 126.609 149.935 126.613 150.15 126.617C151.272 126.64 152.431 126.664 153.612 126.174C153.508 126.026 153.361 125.837 153.241 125.682C152.586 124.838 151.771 123.788 152.022 122.984C152.094 122.753 152.288 122.443 152.799 122.282C154.562 121.722 156.791 123.409 158.58 124.762C159.551 125.498 160.556 126.257 161.009 126.259C161.02 126.259 161.032 126.259 161.044 126.259C164.473 126.259 174.045 124.32 176.592 119.681C177.993 117.129 178.684 114.383 179.017 112.53C179.453 110.107 180.743 107.942 182.652 106.434C184.377 105.071 185.99 104.596 187.45 105.023C189.232 105.543 190.694 107.417 191.797 110.593C192.884 113.724 190.331 122.43 189.808 124.144C187.281 132.427 170.446 132.712 164.109 132.819C162.979 132.838 162.086 132.853 161.809 132.907C159.473 133.361 155.864 133.933 152.519 133.933ZM144.152 126.739C143.849 126.739 143.624 126.85 143.482 127.067C143.278 127.382 143.281 127.882 143.489 128.34C143.945 129.342 145.271 131.759 147.745 132.556C151.593 133.795 158.115 132.826 161.66 132.138C162.004 132.07 162.836 132.056 164.096 132.035C170.277 131.93 186.697 131.652 189.058 123.915C189.371 122.89 192.085 113.812 191.056 110.85C190.042 107.927 188.754 106.22 187.23 105.775C186.029 105.423 184.652 105.853 183.138 107.049C181.38 108.438 180.19 110.434 179.789 112.668C179.445 114.579 178.731 117.413 177.279 120.058C174.538 125.05 164.729 127.043 161.045 127.043C161.032 127.043 161.019 127.043 161.006 127.043C160.291 127.041 159.327 126.311 158.107 125.387C156.462 124.142 154.415 122.593 153.035 123.029C152.807 123.101 152.779 123.189 152.77 123.218C152.641 123.631 153.434 124.652 153.86 125.201C154.337 125.815 154.575 126.123 154.503 126.435C154.472 126.569 154.383 126.681 154.258 126.742C152.802 127.455 151.447 127.428 150.134 127.401C149.923 127.397 149.714 127.392 149.506 127.392C148.006 127.385 146.597 127.129 145.567 126.942C144.973 126.834 144.46 126.74 144.159 126.739C144.157 126.739 144.155 126.739 144.152 126.739Z" fill="black"/>
<path d="M238.985 120.827C238.985 120.827 240.517 97.3301 226.555 92.222C213.113 87.3045 195.338 87.1986 185.741 93.557C181.003 96.6963 176.688 115.893 176.688 115.893L184.227 124.42C184.227 124.42 183.79 166.65 186.375 177.662C186.375 177.662 198.91 178.487 204.091 176.139C209.272 173.791 226.504 169.998 235.005 173.396L230.807 120.17L238.985 120.827Z" fill="black"/>
<path d="M222.998 163.379C222.982 163.379 222.966 163.378 222.95 163.376C202.542 160.821 195.914 147.034 195.849 146.895C195.758 146.699 195.843 146.466 196.039 146.375C196.236 146.283 196.469 146.368 196.56 146.565C196.623 146.7 203.09 160.1 223.047 162.598C223.262 162.625 223.414 162.821 223.387 163.036C223.362 163.234 223.193 163.379 222.998 163.379Z" fill="white"/>
<path d="M185.066 139.014L206.322 139.695C207.004 139.717 207.498 139.052 207.281 138.406L198.57 112.446C198.44 112.058 198.082 111.792 197.674 111.779L176.417 111.098C175.735 111.076 175.241 111.741 175.458 112.388L184.169 138.347C184.299 138.735 184.657 139.001 185.066 139.014Z" fill="white"/>
<path d="M206.354 140.088C206.34 140.088 206.325 140.088 206.31 140.087L185.054 139.406C184.484 139.388 183.98 139.013 183.798 138.472L175.087 112.513C174.944 112.088 175.019 111.619 175.287 111.259C175.554 110.898 175.975 110.684 176.43 110.707L197.687 111.388C198.257 111.406 198.762 111.782 198.942 112.322L207.654 138.281C207.796 138.707 207.722 139.175 207.454 139.535C207.195 139.883 206.787 140.088 206.354 140.088ZM176.386 111.49C176.198 111.49 176.028 111.576 175.915 111.727C175.799 111.883 175.768 112.079 175.83 112.263L184.542 138.223C184.619 138.455 184.835 138.615 185.079 138.623L206.335 139.304C206.531 139.312 206.709 139.224 206.825 139.068C206.941 138.911 206.972 138.716 206.91 138.531L198.199 112.572C198.122 112.34 197.905 112.18 197.661 112.171L176.405 111.49C176.399 111.49 176.392 111.49 176.386 111.49Z" fill="black"/>
<path d="M236.608 119.634L225.285 119.123C225.285 119.123 225.2 128.658 224.178 128.828C220.538 129.435 212.916 129.465 207.955 128.867C206.228 128.658 204.86 127.336 204.535 125.626C204.289 124.335 203.59 122.819 201.817 121.727C200.103 120.672 201.793 123.992 200.19 126.129C199.329 127.277 196.603 126.768 192.885 125.907C189.167 125.046 188.223 129.019 192.39 131.42C196.907 134.023 199.777 133.731 201.218 134.036C204.087 134.643 229.457 138.619 233.373 136.491C236.398 134.846 236.608 119.634 236.608 119.634Z" fill="white"/>
<path d="M228.451 137.508C219.398 137.508 202.568 134.723 201.133 134.42C200.846 134.359 200.478 134.322 200.052 134.279C198.365 134.107 195.815 133.849 192.191 131.76C189.565 130.246 188.916 128.166 189.426 126.873C189.804 125.912 190.934 125.054 192.97 125.526C196.317 126.301 199.146 126.863 199.873 125.895C200.585 124.945 200.575 123.689 200.567 122.772C200.561 122.006 200.556 121.453 200.974 121.217C201.328 121.017 201.74 121.222 202.019 121.394C203.581 122.355 204.582 123.794 204.917 125.554C205.214 127.116 206.452 128.291 207.999 128.478C212.884 129.067 220.356 129.054 224.048 128.453C224.523 127.846 224.854 123.18 224.89 119.12C224.891 119.014 224.935 118.912 225.012 118.839C225.089 118.766 225.194 118.722 225.299 118.732L236.623 119.243C236.834 119.253 237 119.428 236.997 119.64C236.975 121.221 236.694 135.131 233.557 136.836C232.673 137.316 230.83 137.508 228.451 137.508ZM191.904 126.181C191.045 126.181 190.405 126.526 190.155 127.16C189.765 128.15 190.358 129.799 192.582 131.081C196.061 133.086 198.51 133.334 200.132 133.498C200.58 133.544 200.967 133.583 201.295 133.653C204.218 134.271 229.43 138.185 233.182 136.146C235.431 134.925 236.115 124.432 236.206 120.009L225.668 119.533C225.655 120.32 225.614 122.131 225.502 123.937C225.21 128.663 224.718 129.136 224.239 129.216C220.51 129.838 212.878 129.856 207.905 129.256C206.018 129.029 204.507 127.599 204.146 125.7C203.85 124.14 202.996 122.916 201.608 122.062C201.503 121.997 201.429 121.962 201.379 121.942C201.345 122.119 201.348 122.485 201.351 122.765C201.359 123.736 201.371 125.204 200.5 126.365C199.487 127.718 196.666 127.187 192.793 126.29C192.478 126.217 192.18 126.181 191.904 126.181Z" fill="black"/>
<path d="M204.281 82.7689C205.442 83.7285 207.672 84.8592 209.326 83.919C210.558 83.2189 211.18 81.5349 211.041 79.6487C211.629 79.667 212.394 79.5872 212.917 79.0758C213.722 78.2886 213.495 76.9263 213.417 76.0276C213.055 71.879 215.437 71.1196 214.704 68.3289C214.128 66.1355 212.32 64.9027 211.983 64.6722C210.276 63.5081 209.183 63.9667 206.382 63.3821C201.67 62.3984 201.421 60.4015 198.357 60.5466C198.179 60.555 194.012 60.8114 192.742 63.7634C191.709 66.1644 193.197 68.9443 194.663 70.3703C196.56 72.2169 197.804 71.1944 199.693 72.7283C203.008 75.4205 200.834 79.9186 204.281 82.7689Z" fill="black"/>
<path d="M194.735 74.9027C195.656 74.0243 196.629 72.2865 196.929 71.05C198.025 66.536 202.124 65.7032 202.549 70.0941C202.662 71.2636 206.94 70.987 206.494 72.2432C205.331 75.5179 205.258 74.6563 207.187 75.7443C207.399 75.7423 207.612 75.7778 207.815 75.8606C208.796 76.259 209.201 77.5431 208.719 78.7291C208.427 79.4488 207.874 79.962 207.266 80.1689L207.522 85.2374C207.618 87.1374 208.853 88.7909 210.648 89.4211L212.395 90.0344C212.395 90.0344 204.677 95.6453 196.289 90.3352L197.346 89.7957C199.206 88.8458 200.362 86.9175 200.322 84.8285L200.281 83.8373C199.739 83.9132 199.21 83.903 198.715 83.7858C196.416 83.241 195.532 80.6683 195.754 77.4039L194.755 76.4949C194.288 76.0701 194.279 75.3386 194.735 74.9027Z" fill="white"/>
<path d="M203.898 92.996C201.515 92.996 198.827 92.4057 196.081 90.6671C195.962 90.5918 195.892 90.4585 195.899 90.3181C195.905 90.1773 195.987 90.0509 196.112 89.987L197.169 89.4477C198.884 88.5719 199.968 86.7624 199.932 84.8369L199.908 84.2697C199.456 84.295 199.026 84.2628 198.627 84.1678C196.338 83.6259 195.15 81.225 195.353 77.5683L194.492 76.7859C194.19 76.5107 194.013 76.1182 194.008 75.709C194.003 75.2998 194.17 74.9028 194.466 74.6203C194.466 74.62 194.466 74.62 194.466 74.62C195.309 73.8157 196.263 72.1388 196.549 70.9587C197.243 68.102 199.059 66.712 200.51 66.8138C201.845 66.9088 202.753 68.1211 202.94 70.0571C202.967 70.3353 204.086 70.5888 204.687 70.7251C205.672 70.9482 206.523 71.1412 206.819 71.6795C206.935 71.8908 206.951 72.1316 206.865 72.3757C206.695 72.8527 206.549 73.2427 206.428 73.5634C206.218 74.1234 206.036 74.6073 206.064 74.7252C206.098 74.7662 206.317 74.8694 206.511 74.9611C206.721 75.0597 206.978 75.1812 207.294 75.3552C207.528 75.3648 207.754 75.413 207.964 75.4988C209.143 75.9777 209.646 77.4934 209.084 78.8776C208.8 79.5778 208.295 80.1286 207.674 80.4267L207.915 85.2184C208.004 86.9673 209.128 88.4721 210.78 89.052L212.526 89.6653C212.664 89.7135 212.763 89.8341 212.784 89.9785C212.805 90.1224 212.745 90.2664 212.627 90.352C212.573 90.391 208.905 92.9956 203.898 92.996ZM197.097 90.3644C203.553 94.0607 209.546 91.267 211.5 90.136L210.52 89.7919C208.567 89.1064 207.236 87.3268 207.132 85.2585L206.877 80.19C206.868 80.0151 206.976 79.8555 207.142 79.7992C207.666 79.6203 208.121 79.1656 208.358 78.5827C208.757 77.5994 208.448 76.5416 207.669 76.225C207.522 76.1654 207.358 76.1428 207.192 76.1373C207.127 76.1354 207.056 76.1205 206.996 76.0868C206.665 75.9004 206.395 75.7726 206.177 75.67C205.007 75.1189 205.139 74.7674 205.695 73.2879C205.814 72.9704 205.958 72.5851 206.126 72.113C206.141 72.0721 206.135 72.0616 206.133 72.0576C206.006 71.8279 205.108 71.6242 204.514 71.4895C203.397 71.2365 202.242 70.9746 202.16 70.1325C202.013 68.6093 201.376 67.6612 200.455 67.5957C199.354 67.5168 197.896 68.7359 197.312 71.1437C196.991 72.4673 195.957 74.281 195.007 75.1867C194.866 75.3217 194.79 75.5035 194.792 75.6991C194.795 75.8944 194.876 76.0739 195.02 76.2053L196.02 77.1144C196.108 77.1951 196.155 77.3116 196.147 77.4309C195.92 80.7731 196.89 82.9508 198.808 83.4051C199.236 83.5062 199.715 83.5221 200.229 83.4499C200.337 83.4335 200.449 83.4663 200.534 83.5371C200.619 83.6079 200.67 83.7113 200.675 83.8215L200.716 84.8129C200.758 87.045 199.506 89.1347 197.526 90.1455L197.097 90.3644Z" fill="black"/>
<path d="M200.282 84.2301C200.1 84.2301 199.937 84.1023 199.899 83.9169C199.855 83.7049 199.992 83.4978 200.204 83.4542C203.091 82.8613 204.329 80.518 204.342 80.4941C204.441 80.3019 204.676 80.2258 204.869 80.3245C205.061 80.4228 205.138 80.6583 205.04 80.8507C204.984 80.9605 203.629 83.551 200.362 84.222C200.335 84.2275 200.308 84.2301 200.282 84.2301Z" fill="black"/>
<path d="M77.3558 1.93272C77.2547 1.93272 77.1537 1.89406 77.0771 1.81639L75.9414 0.667674C75.7891 0.513736 75.7907 0.26536 75.9444 0.113364C76.0987 -0.038632 76.3467 -0.0379315 76.4987 0.11636L77.6344 1.26507C77.7867 1.41901 77.7852 1.66739 77.6314 1.81938C77.555 1.89476 77.4554 1.93272 77.3558 1.93272Z" fill="black"/>
<path d="M82.7933 7.43692C82.6923 7.43692 82.5912 7.39791 82.5146 7.32059L81.3789 6.17153C81.2266 6.01759 81.2282 5.7692 81.3819 5.61721C81.5362 5.46451 81.7842 5.4668 81.9362 5.6202L83.0719 6.76927C83.2242 6.92321 83.2227 7.1716 83.0689 7.32359C82.9925 7.39933 82.8929 7.43692 82.7933 7.43692Z" fill="black"/>
<path d="M76.2201 7.4351C76.1205 7.4351 76.0209 7.39768 75.9445 7.32177C75.7906 7.16978 75.7891 6.92139 75.9415 6.76745L77.0771 5.61838C77.2291 5.4648 77.4772 5.46251 77.6314 5.61539C77.7854 5.76738 77.7868 6.01577 77.6345 6.16971L76.4988 7.31877C76.4222 7.39609 76.321 7.4351 76.2201 7.4351Z" fill="black"/>
<path d="M81.6576 1.93306C81.558 1.93306 81.4584 1.89563 81.382 1.81972C81.2281 1.66772 81.2266 1.41934 81.379 1.26541L82.5146 0.116693C82.6666 -0.0375983 82.9147 -0.0391814 83.0689 0.113697C83.2229 0.265694 83.2243 0.514069 83.072 0.668008L81.9363 1.81672C81.8597 1.8944 81.7585 1.93306 81.6576 1.93306Z" fill="black"/>
<path d="M104.392 41.7878C104.391 41.7878 104.39 41.7878 104.39 41.7878C104.173 41.7865 103.999 41.6102 104 41.3936L104.009 39.7783C104.01 39.5627 104.186 39.3887 104.401 39.3887C104.402 39.3887 104.403 39.3887 104.403 39.3887C104.62 39.3897 104.794 39.5663 104.793 39.7829L104.784 41.3982C104.783 41.6137 104.607 41.7878 104.392 41.7878Z" fill="black"/>
<path d="M104.353 49.5246C104.352 49.5246 104.351 49.5246 104.351 49.5246C104.134 49.5236 103.96 49.347 103.961 49.1304L103.97 47.5146C103.971 47.2991 104.147 47.125 104.362 47.125C104.363 47.125 104.364 47.125 104.364 47.125C104.581 47.1262 104.755 47.3026 104.754 47.5192L104.745 49.135C104.744 49.3506 104.568 49.5246 104.353 49.5246Z" fill="black"/>
<path d="M99.6966 44.875C99.481 44.875 99.3058 44.7008 99.3047 44.4854C99.3036 44.2688 99.478 44.0923 99.6943 44.0912L101.31 44.082C101.311 44.082 101.312 44.082 101.312 44.082C101.528 44.082 101.703 44.2563 101.704 44.4716C101.705 44.6882 101.531 44.8648 101.315 44.8658L99.6989 44.875C99.6982 44.875 99.6973 44.875 99.6966 44.875Z" fill="black"/>
<path d="M107.439 44.8321C107.223 44.8321 107.048 44.6578 107.047 44.4424C107.046 44.2258 107.22 44.0493 107.436 44.0482L109.052 44.0391C109.266 44.0502 109.445 44.2124 109.446 44.4287C109.448 44.6453 109.273 44.8218 109.057 44.8229L107.441 44.8321C107.44 44.8321 107.439 44.8321 107.439 44.8321Z" fill="black"/>
<path d="M55.5935 13.7179C53.9996 13.7179 52.7031 12.4215 52.7031 10.8276C52.7031 9.23397 53.9996 7.9375 55.5935 7.9375C57.1871 7.9375 58.4836 9.23397 58.4836 10.8276C58.4836 12.4215 57.1871 13.7179 55.5935 13.7179ZM55.5935 8.72131C54.4321 8.72131 53.4871 9.66612 53.4871 10.8274C53.4871 11.9888 54.4323 12.9338 55.5935 12.9338C56.7549 12.9338 57.6996 11.9886 57.6996 10.8274C57.6998 9.66612 56.7549 8.72131 55.5935 8.72131Z" fill="black"/>
</svg>
