<svg width="260" height="277" viewBox="0 0 260 277" fill="none" xmlns="http://www.w3.org/2000/svg">
<path d="M97.954 276.861C101.089 275.278 104.551 274.983 107.925 274.384C117.28 272.723 126.454 270.28 135.687 268.092C137.198 267.734 137.195 266.713 137.123 265.613C137.052 264.527 137.723 263.205 135.884 262.694C132.129 261.65 128.894 259.552 126.289 256.728C123.374 253.567 120.36 252.6 116.323 254.564C113.942 255.721 111.705 256.906 109.995 258.957C109.678 259.337 109.45 259.901 108.246 259.862C111.318 256.259 113.842 252.701 118.436 251.314C117.267 250.473 115.838 250.605 114.499 249.872C118.242 249.498 134.189 253.967 135.097 257.964C133.143 256.771 131.418 255.605 129.589 254.635C127.733 253.649 125.78 252.835 123.3 253.024C127.054 256.217 130.333 259.599 134.776 261.409C136.793 262.231 137.081 261.913 137.435 259.809C138.151 255.555 137.479 251.519 135.995 247.551C135.889 247.269 135.882 246.84 135.682 246.718C133.478 245.366 133.555 243.006 133.023 240.902C132.648 239.417 131.683 238.697 130.097 238.796C128.953 238.867 127.8 238.802 126.652 238.825C126.022 238.838 125.448 238.938 125.353 239.765C125.232 240.828 124.493 240.642 123.874 240.342C122.923 239.881 123.115 239.268 123.856 238.691C122.519 238.456 120.002 240.317 119.84 241.686C119.75 242.446 119.647 243.241 118.904 243.519C117.526 244.033 116.303 244.648 115.279 245.784C114.722 246.402 114.071 245.951 113.893 245.095C113.611 243.735 113.52 242.291 111.364 243.303C110.526 243.697 110.149 242.737 110.383 241.91C110.542 241.35 110.866 240.838 111.118 240.3C110.561 239.966 110.288 240.442 109.921 240.557L109.937 240.57C109.095 239.848 108.033 239.304 109.334 237.936C110.002 237.235 108.895 237.071 108.444 236.797C108.059 236.562 107.316 236.58 107.465 235.954C107.623 235.293 108.343 235.484 108.866 235.443C109.664 235.38 110.184 235.987 110.84 236.266C111.31 236.465 111.777 236.529 112.202 236.168C112.401 235.999 112.496 235.778 112.365 235.526C112.117 235.049 111.704 234.809 111.178 234.853C110.417 234.917 109.731 234.904 109.354 234.064C109.017 233.315 108.788 232.676 109.955 232.488C111.386 232.257 111.337 231.82 110.187 231.064C109.388 230.54 109.21 229.563 109.689 228.809C110.317 227.822 111.52 227.731 112.594 227.685C112.678 227.681 113.337 228.298 113.679 228.606C114.624 229.458 115.28 230.37 116.775 229.643C117.191 229.441 117.387 230.246 117.538 230.7C117.719 231.246 117.358 231.905 117.887 232.417C119.065 231.631 118.274 230.572 118.274 229.621C119.727 230.411 119.823 230.717 119.353 233.02C120.448 231.396 121.85 231.267 123.413 231.948C123.683 232.066 124.027 232.161 124.003 232.53C123.977 232.92 123.607 232.909 123.323 232.992C122.573 233.211 121.818 233.419 121.081 233.678C120.269 233.964 119.715 234.479 119.861 235.436C120 236.337 120.391 237.101 121.386 237.221C124.139 237.555 126.873 238.115 129.673 237.929C130.317 237.886 130.919 237.757 130.302 237.017C127.604 233.781 125.167 230.226 120.86 228.843C120.342 228.676 119.817 228.361 119.305 228.381C117.372 228.456 115.618 227.815 113.786 227.357C111.637 226.82 109.367 226.667 107.14 226.557C102.922 226.349 98.9761 225.03 95.0504 223.691C93.338 223.107 91.5733 223.34 89.8845 222.873C89.0001 222.628 88.0317 222.588 87.0961 221.614C88.6944 221.514 89.8736 222.4 91.4175 221.81C89.6363 220.83 88.0245 219.954 86.4258 219.056C86.0331 218.835 85.287 218.663 85.5651 218.106C85.9186 217.398 86.5131 217.99 86.9449 218.212C87.693 218.596 88.4013 219.058 89.2216 219.369C87.1256 216.71 85.667 213.357 81.7377 212.741C81.0608 212.635 80.394 212.532 80.6295 211.524C80.8331 210.652 79.865 210.366 79.5176 209.54C80.7979 209.639 80.7561 208.792 80.849 207.891C81.3998 202.541 81.9042 197.177 83.6919 192.05C83.9229 191.387 83.9986 190.397 84.7938 190.324C85.759 190.236 85.9238 191.304 86.1864 191.986C88.2912 197.458 90.3371 202.952 92.4226 208.431C93.6699 211.708 94.9598 214.971 96.7055 218.024C97.1412 218.786 97.4947 219.645 98.2961 220.112C99.0907 219.746 98.1135 218.424 99.1969 218.418C100.105 218.414 100.32 219.397 100.731 220.042C101.236 220.834 101.327 221.755 101.459 222.644C101.756 224.64 102.883 225.515 104.881 225.658C108.433 225.911 111.97 226.367 115.521 226.649C121.773 227.144 126.341 230.432 130.029 235.231C130.604 235.979 131.165 236.739 131.838 237.435C131.42 234.951 129.617 232.973 129.414 230.414C131.122 232.752 132.117 235.459 133.663 237.95C133.53 236.794 133.407 235.636 133.259 234.482C133.167 233.756 133.123 233.038 133.342 232.326C134.072 229.95 133.903 229.392 131.865 227.882C131.452 227.576 131.194 227.204 130.976 226.771C133.351 227.141 134.389 228.884 135.026 230.903C135.692 233.017 136.346 235.109 137.889 236.798C137.83 236.267 137.682 235.766 137.448 235.308C136.387 233.229 134.956 231.276 135.543 228.703C135.698 228.021 135.124 227.549 134.595 227.288C129.758 224.904 131.691 219.778 130.034 216.113C131.104 212.869 128.442 210.827 127.737 207.659C126.75 209.875 127.617 211.427 127.805 213.008C128.309 217.244 128.513 221.575 131.303 225.174C131.992 226.062 131.363 226.167 130.611 226.056C128.379 222.362 127.074 218.376 127.225 214.042C127.336 210.811 124.734 209.757 122.824 208.158C122.216 207.649 121.238 207.746 120.626 208.325C119.903 209.009 120.787 209.489 121.072 210.012C121.836 211.414 123.151 212.349 124.136 213.563C124.846 214.437 125.748 215.275 125.566 216.75C124.608 216.165 124.67 214.918 123.534 214.495C124.394 216.472 125.245 218.261 125.957 220.104C126.911 222.576 128.242 224.71 130.62 226.045C130.743 226.291 130.866 226.536 130.989 226.782C126.698 226.438 122.512 225.538 118.356 224.456C115.642 223.75 112.912 223.105 110.228 222.248C116.302 222.661 122.039 224.929 128.069 225.47C125.918 222.97 120.974 221.07 116.174 221.068C111.802 221.067 107.358 220.858 103.494 223.64C104.889 221.561 106.984 220.868 109.266 220.558C113.668 219.962 118.053 219.946 122.668 221.192C121.139 218.333 120.466 215.507 120.337 212.537C120.3 211.684 119.766 210.918 118.954 210.826C117.966 210.713 117.087 211.4 116.486 212.103C115.83 212.871 116.679 213.435 117.196 213.873C118.018 214.567 117.96 215.344 117.229 215.843C116.083 216.624 116.596 220.05 113.665 218.113C113.291 217.866 112.516 218.265 111.923 218.301C110.563 218.382 109.86 217.683 109.975 216.353C110.043 215.556 110.383 214.919 109.035 215.241C108.471 215.376 107.746 214.836 106.93 214.545C107.698 213.72 108.501 214.248 109.205 213.943C108.511 213.445 107.243 213.814 107.131 212.644C107.045 211.746 107.287 210.934 107.812 210.1C108.453 209.081 108.404 207.731 109.028 206.64C109.188 206.359 108.98 205.985 108.672 205.913C107.859 205.721 106.92 205.337 106.228 205.9C105.385 206.586 104.822 206.814 103.941 205.948C103.018 205.041 102.595 206.667 101.651 206.568C101.736 204.403 104.638 204.399 104.814 202.411C105.571 202.144 105.849 203.629 106.138 203.105C106.627 202.219 108.793 202.302 107.572 200.598C108.519 200.206 108.822 201.847 109.522 201.132C110.196 200.444 109.327 199.702 109.091 198.992C108.985 198.672 108.623 198.389 109.003 197.918C110.158 198.423 110.163 199.795 111.108 200.516C110.891 198.961 110.959 197.331 109.78 196.033C109.539 195.767 109.184 195.601 108.957 195.327C108.589 194.881 107.948 194.419 108.335 193.779C108.702 193.172 109.329 193.829 109.873 193.737C110.106 192.226 109.431 191.124 108.471 190.019C98.2379 178.245 87.5537 166.873 77.3888 155.036C74.1706 151.288 69.8067 149.472 64.7398 149.934C60.4066 150.329 57.6044 152.957 55.6007 156.572C53.4547 160.443 52.4936 164.691 51.96 169.035C50.8279 178.25 51.0988 187.492 51.4428 196.744C51.946 210.277 52.7647 223.814 52.1732 237.36C51.8427 244.927 51.9942 252.463 52.5616 260.004C52.619 260.768 52.5694 261.54 52.4618 262.315C51.727 260.678 51.6762 258.911 51.5459 257.202C50.7533 246.816 51.081 236.419 51.2939 226.019C51.4488 218.454 50.9465 210.951 48.7743 203.594C46.2046 194.89 44.2517 186.033 43.2272 176.991C42.2374 168.254 43.318 159.757 45.9012 151.391C47.7008 145.563 49.8446 139.818 50.5206 133.694C50.8186 130.994 50.662 128.267 50.841 125.48C50.5752 126.04 50.2801 126.588 50.0479 127.161C45.1276 139.326 39.9023 151.369 35.5198 163.746C33.0759 170.649 31.2905 177.753 29.223 184.767C28.5582 187.023 28.8702 189.568 28.7429 191.981C28.0679 204.775 26.7031 217.525 26.2496 230.332C26.1258 233.827 26.2308 237.331 25.8983 240.823C24.8014 224.011 27.0326 207.315 27.7853 190.557C22.4886 207.873 17.4648 225.258 12.9932 242.818C12.4974 241.923 12.8964 241.099 13.0802 240.29C16.6463 224.597 21.1457 209.158 25.715 193.735C26.7911 190.102 27.8282 186.463 28.3793 182.653C28.6617 180.701 29.938 178.714 30.4979 176.639C35.3041 158.822 42.8459 142.031 49.9587 125.087C51.4775 121.469 52.3357 117.756 53.0175 113.949C53.1771 113.058 53.2101 112.418 52.0155 112.871C49.8372 113.697 47.5612 113.954 45.2579 114.074C42.3765 114.223 39.8723 115.321 37.6218 117.087C36.5735 117.909 35.4647 118.658 34.2097 119.134C31.7676 120.059 29.6661 118.571 29.5714 115.868C29.6809 115.892 29.8468 115.878 29.8882 115.943C31.8378 119.014 32.7732 119.356 35.6245 117.141C39.3773 114.224 43.5439 112.843 48.2223 112.765C49.2053 112.749 50.1278 112.457 51.0485 112.155C53.9899 111.193 54.6077 110.148 54.1449 106.62C50.7235 109.669 46.7606 110.105 42.5543 109.334C38.7287 108.633 35.7841 106.551 33.5025 103.457C31.1934 100.326 29.4987 96.8724 28.0381 93.226C28.5898 120.564 29.9623 147.88 28.0647 175.208C32.6125 159.809 35.3803 143.868 42.5048 129.298C42.5719 129.161 42.7493 129.077 43.2731 128.627C42.3261 131.074 41.5397 133.068 40.782 135.072C36.1506 147.322 33.1743 160.05 29.9215 172.698C27.602 181.717 25.0354 190.646 21.8475 199.416C17.5163 211.333 14.9904 223.724 13.1341 236.249C11.9558 244.199 10.6082 252.126 9.71828 260.117C9.64783 260.75 9.45209 261.369 9.20126 261.971C8.76039 258.919 9.36183 255.929 9.7798 252.97C11.783 238.789 13.4982 224.554 17.2711 210.682C18.9558 204.487 21.0013 198.419 23.3227 192.44C25.7321 186.235 26.8483 179.808 27.2071 173.159C28.0193 158.109 27.9342 143.054 27.7475 127.999C27.611 116.999 27.1462 106.003 26.8597 95.0049C26.8249 93.6693 26.5267 92.294 27.7263 91.1134C28.22 90.6276 27.8661 89.5943 27.7365 88.8246C27.5848 87.9244 27.4628 87.0309 27.5819 86.1202C27.682 85.3547 28.0263 84.8913 28.8982 85.0131C33.4063 85.643 37.8153 86.6441 41.9997 88.4887C42.137 88.5492 42.217 88.7402 42.4246 88.9932C41.5678 89.1575 40.9156 88.8518 40.2479 88.6757C36.9744 87.8117 33.7088 86.9144 30.4189 86.1178C29.7814 85.9635 28.7881 85.1941 28.4116 86.3803C28.0936 87.3824 28.2544 88.405 29.3756 89.0347C31.0868 89.9957 32.9316 90.5461 34.8292 90.9524C36.7785 91.3699 38.7651 91.6484 40.6798 92.1857C43.6084 93.0076 45.9564 94.7629 47.6656 97.4334C47.0404 96.9806 46.3971 96.5505 45.7935 96.0706C43.569 94.3024 41.06 93.1737 38.2689 92.6635C35.3529 92.1305 32.4178 91.6564 29.7582 90.2357C28.899 89.7767 28.6688 90.1347 28.7133 90.9456C28.7266 91.1868 28.7152 91.4386 28.7815 91.6662C30.3524 97.0509 32.8232 101.995 37.1434 105.632C41.1081 108.969 45.8838 109.395 50.6681 107.609C56.0981 105.582 57.075 99.2456 52.6898 95.4673C50.8134 93.8505 48.5854 92.7591 46.4291 91.5148C46.8846 90.8612 47.301 91.2368 47.6212 91.3598C49.9573 92.2563 52.1404 93.4709 53.936 95.2052C56.1767 97.3692 57.0695 100.017 56.2371 103.144C55.7884 104.83 55.0822 106.473 55.1992 108.272C55.2176 108.553 55.2605 108.954 55.4428 109.077C55.8357 109.344 56.0954 108.931 56.3241 108.678C57.5024 107.375 58.6362 106.076 58.9132 104.209C59.0799 103.085 59.4859 101.983 59.8855 100.91C60.8854 98.2226 62.1664 95.6227 62.2809 92.6627C63.4061 96.4756 60.9781 99.6346 60.5017 103.21C62.6248 100.492 65.0896 98.0108 66.1519 94.6244C66.645 93.0521 66.1311 91.522 65.5013 90.0484C65.0267 88.9379 64.5361 87.827 64.1693 86.6789C61.9973 79.8784 67.404 75.3124 72.6378 75.3428C78.0503 75.3741 82.9855 73.7109 87.2661 70.332C88.7107 69.1917 89.6948 67.6412 90.5733 66.0462C92.7621 62.0726 95.8515 59.0209 99.8016 56.8016C101.697 55.7366 103.564 54.6282 105.159 53.1005C106.184 52.1189 106.14 51.1657 105.525 50.0269C104.973 49.0043 104.836 47.8772 103.051 48.0193C99.9486 48.2663 97.4567 46.2655 96.4807 42.8497C96.0057 41.1868 95.0484 40.2784 93.6149 39.6373C89.8062 37.9337 86.016 36.1867 82.1798 34.5472C79.145 33.2504 77.2976 33.7513 75.1095 36.2671C72.8094 38.9115 70.6591 41.7006 67.8178 43.8203C67.2448 44.2478 66.7222 44.7844 65.8849 44.8643C65.6946 44.3114 66.1733 44.1244 66.4454 43.9062C69.0107 41.8493 71.1053 39.3498 73.2155 36.8542C77.0859 32.2767 79.153 31.8679 84.5701 34.3823C87.367 35.6805 90.2057 36.8884 93.0161 38.1581C94.093 38.6447 94.7358 38.7452 94.4748 37.1609C94.1277 35.0538 94.9869 33.2465 96.2374 31.6202C97.0879 30.5143 98.0836 29.5336 99.2101 28.7064C103.48 25.5713 108.215 23.0213 111.673 18.8234C110.365 21.5344 108.216 23.4817 105.921 25.2869C103.311 27.3391 100.298 28.8471 97.9664 31.2815C95.3386 34.0249 94.8608 36.3869 96.323 39.8657C96.7441 40.8675 97.0858 41.9028 97.5089 42.9036C99.1394 46.7603 102.103 47.8296 105.765 45.8897C106.733 45.3769 107.736 44.9864 108.806 44.7304C109.193 44.6377 110.294 44.927 109.554 43.781C109.433 43.5926 109.982 43.4502 110.27 43.4671C112.362 43.589 114.01 42.6236 115.495 41.3116C117.98 39.1154 120.843 38.4004 124.092 38.9113C125.327 39.1054 126.593 39.1012 127.852 39.3913C125.199 40.4414 122.351 39.4191 119.684 40.1128C116.854 40.8488 115.155 43.5326 112.344 44.5156C116.524 45.1359 120.132 47.3084 124.092 48.469C126.93 49.3006 129.488 48.7106 131.854 47.1151C133.526 45.987 135.116 44.7355 136.963 43.3769C134.111 48.3949 129.696 50.123 122.068 49.2503C124.422 51.3632 126.92 52.7026 129.745 53.0846C134.609 53.7421 139.277 54.7448 143.154 58.0259C144.102 58.829 144.387 58.0092 144.635 57.2885C145.448 54.9313 145.711 52.4555 146.205 50.0285C147.032 45.9647 150.916 42.5712 154.539 42.683C154.887 42.6938 155.232 42.7896 155.566 42.844C155.594 43.6144 155.054 43.4844 154.686 43.5445C149.991 44.3094 147.426 47.2502 147.386 51.9505C147.367 54.1279 147.337 56.3064 147.387 58.4826C147.417 59.751 146.852 60.4769 145.743 61.0128C144.659 61.5368 143.874 61.3059 142.94 60.611C138.749 57.4918 134.416 54.728 129.03 53.9849C126.055 53.5745 123.423 52.0447 121.24 49.9518C118.098 46.9396 114.43 45.4308 110.071 45.6785C109.41 45.716 108.735 45.7694 108.099 45.9377C105.677 46.5791 105.452 46.9702 106.404 49.302C108.035 53.2948 109.142 57.4355 110.053 61.6366C110.945 65.7583 112.625 69.283 116.727 71.2036C118.452 72.0111 119.081 73.7142 119.501 75.4689C120.238 78.5486 120.014 81.7303 120.5 84.8363C120.538 85.0748 120.537 85.3189 120.564 85.5592C120.983 89.264 121.643 89.7083 125.033 88.3023C126.554 87.6715 127.431 88.1138 128.085 89.5065C129.473 92.4644 130.011 92.6074 132.743 90.8144C133.585 90.2624 134.406 89.6786 135.637 88.8343C134.92 90.7567 133.551 91.3359 132.443 92.1302C130.859 93.2655 130.639 94.0633 132.137 95.1453C133.677 96.2572 134.221 97.6565 134.43 99.4304C134.614 100.997 135.124 102.522 136.378 103.621C138.066 105.099 140.926 105.078 143.073 103.274C148.386 98.8131 152.883 93.5989 156.604 87.7451C157.871 85.7525 157.876 83.3936 158.099 81.0764C158.798 82.8236 158.821 84.5932 158.36 86.3739C157.847 88.3579 156.594 89.9298 155.376 91.5138C154.824 92.2326 154.273 92.9538 153.698 93.654C153.1 94.3821 152.982 94.903 153.967 95.4975C155.548 96.4515 155.564 98.2137 155.501 99.7292C155.39 102.399 155.965 104.209 159.002 104.716C160.237 104.922 161.392 105.857 162.482 106.607C163.464 107.283 164.023 107.142 164.667 106.161C167.091 102.472 169.591 98.8372 172.394 95.4149C177.387 89.3202 182.689 83.5263 188.81 78.5421C189.924 77.6344 189.877 77.1605 188.94 76.1706C186.419 73.5089 184.689 70.3013 183.168 66.9992C182.557 65.674 182.029 65.1254 180.346 65.5846C176.186 66.7188 172.075 65.6466 168.03 64.6259C166.653 64.2786 165.815 63.163 165.421 61.8166C165.101 60.7212 164.912 59.5873 164.602 58.1883C164.062 60.2376 163.585 62.0517 162.157 63.4315C160.302 65.2225 158.666 65.6697 157.152 64.6503C157.246 64.2705 157.572 64.2374 157.863 64.2289C160.751 64.1456 162.299 62.2736 163.008 59.8505C164.219 55.7167 163.911 51.5582 162.032 47.6494C160.424 44.3023 157.724 43.7448 154.762 45.9682C153.436 46.9635 152.47 48.279 151.551 49.6341C151.263 50.0573 151.138 50.6343 150.52 50.8354C150.106 50.0491 150.522 49.4653 150.844 48.9312C151.95 47.0946 153.366 45.5262 155.218 44.416C157.678 42.941 159.983 43.2962 161.866 45.472C164.183 48.1499 164.528 51.4684 164.804 54.8108C165.005 57.2428 165.893 59.5298 166.578 61.8399C167.057 63.4517 168.662 63.9261 170.236 64.0733C173.427 64.3718 176.167 62.7778 177.732 59.436C179.815 54.9871 180.644 50.3368 179.854 45.3848C178.921 39.5266 178.66 33.6104 178.734 27.6688C178.78 23.8977 178.439 20.1113 175.836 17.0458C172.137 12.689 167.548 10.2221 161.671 10.9176C158.631 11.2774 156.461 13.3431 154.191 15.139C153.101 16.0009 152.067 16.9371 151.052 17.8862C146.786 21.8725 141.916 22.4919 136.579 20.5094C135.503 20.1096 134.435 19.675 133.404 19.1714C129.614 17.319 125.86 17.2645 122.079 19.215C118.73 20.9431 116.014 23.2955 114.112 26.7993C115.286 27.1525 116.194 26.7219 117.089 26.5859C119.724 26.1851 122.248 26.4477 124.755 27.3641C127.243 28.2732 129.634 29.4787 132.355 29.6923C137.931 30.1298 142.821 28.2843 147.413 25.3532C148.118 24.9031 148.826 24.4593 149.543 24.0066C149.963 24.5974 149.501 24.7926 149.275 24.9661C142.331 30.297 134.871 32.9006 126.302 29.0958C120.669 26.5944 115.242 27.1525 109.908 29.9501C109.535 30.1456 109.156 30.3301 108.776 30.5109C108.74 30.5284 108.673 30.4824 108.62 30.4658C108.628 30.361 108.607 30.1781 108.649 30.1623C112.311 28.7836 113.579 25.0854 116.071 22.5821C118.239 20.4038 120.306 18.2961 121.771 15.4858C123.875 11.4475 127.695 9.23288 131.823 7.56447C134.653 6.42088 137.464 5.22987 140.194 3.81799C134.598 5.29883 128.741 5.77535 123.503 8.45191C120.391 10.0418 118.044 12.4263 116.367 15.4717C114.32 19.1867 111.904 22.6643 109.546 26.1802C108.366 27.9401 106.912 29.3317 104.771 29.8346C102.475 30.3736 100.227 31.0273 98.3078 32.5412C98.8163 31.1231 100.01 30.2613 101.272 30.0487C106.442 29.178 109.154 25.5449 111.541 21.4296C112.694 19.4427 114.043 17.5644 115.119 15.5389C118.044 10.0308 122.726 6.90124 128.609 5.38487C134.225 3.93733 139.915 2.81095 145.353 0.672077C149.161 -0.825974 152.851 0.435979 156.411 1.96288C159.267 3.18744 161.804 4.87912 164.319 7.31587C163.188 7.29445 162.709 6.74575 162.188 6.37668C158.944 4.07761 155.416 2.39446 151.55 1.4549C149.979 1.07321 148.576 1.11493 146.924 1.85034C141.513 4.25911 136.268 7.03087 130.748 9.20614C126.54 10.8641 123.443 13.8195 121.388 18.033C122.147 18.2463 122.622 17.7721 123.123 17.5811C126.586 16.2611 129.973 16.3558 133.331 17.952C135.461 18.965 137.624 19.8942 139.97 20.3344C143.111 20.9238 146.02 20.4019 148.558 18.4553C150.714 16.8013 152.77 15.0146 154.832 13.2417C159.448 9.27349 164.55 8.51481 170.007 11.1395C175.669 13.8625 179.7 18.1094 179.624 24.7079C179.479 37.3879 181.729 49.8772 182.201 62.4974C182.248 63.7553 183.149 64.5593 183.648 65.5696C185.309 68.9323 187.101 72.2184 189.477 75.16C190.419 76.3274 191.341 76.8482 192.686 75.8778C193.805 75.0715 194.488 75.864 195.132 76.5981C197.583 79.3911 199.468 82.574 201.172 85.843C207.352 97.7023 215.524 108.03 224.998 117.406C230.662 123.012 235.561 129.203 238.754 136.608C241.221 142.333 242.526 148.338 243.17 154.501C244.645 168.618 243.217 182.627 241.519 196.622C240.326 206.463 239.192 216.308 238.791 226.223C238.728 227.788 238.948 228.593 240.851 228.222C242.615 227.879 244.457 227.892 246.267 227.837C247.641 227.795 248.876 227.378 250.066 226.753C252.347 225.555 254.79 224.909 257.335 224.624C258.024 224.547 258.74 224.408 259.459 224.775C255.541 228.991 249.734 231.543 245.024 229.097C243.102 228.098 241.066 228.883 239.227 229.551C237.956 230.012 238.236 233.611 239.521 234.476C241.796 236.008 244.42 236.469 247.064 236.855C247.643 236.94 248.28 236.743 248.94 237.315C248.139 237.885 247.298 237.735 246.531 237.634C244.186 237.328 241.845 236.922 239.789 235.663C238.509 234.88 238.474 235.531 238.418 236.583C238.032 243.884 237.677 251.189 236.627 258.435C236.379 260.148 236.226 261.891 235.393 263.485C235.834 259.081 236.353 254.683 236.694 250.271C237.076 245.332 237.357 240.382 237.562 235.433C237.664 232.989 233.606 230.915 231.008 232.039C227.439 233.583 224.26 235.815 220.971 237.852C218.761 239.22 216.527 240.551 214.293 241.88C212.526 242.932 210.521 243.316 208.567 244.148C211.009 244.148 213.453 244.075 215.891 244.164C220.003 244.314 223.962 245.048 227.228 247.833C229.962 250.165 231.597 253.118 232.103 256.684C232.153 257.031 232.322 257.442 231.908 257.651C231.517 257.848 231.2 257.541 230.961 257.29C230.295 256.591 229.613 255.897 229.034 255.129C226.652 251.972 223.645 249.791 219.724 248.958C215.172 247.99 210.629 246.996 205.999 246.437C204.252 246.227 203.349 246.842 203.243 248.602C203.236 248.721 203.204 248.842 203.161 248.954C202.262 251.298 202.314 253.083 204.929 254.589C207.421 256.024 208.497 258.751 209.083 261.57C209.878 265.403 210.099 269.378 211.869 272.973C211.979 273.197 212.105 273.442 211.875 273.621C211.541 273.88 211.181 273.674 210.844 273.573C206.989 272.421 203.95 270.139 201.616 266.889C200.287 265.037 199.732 265.018 198.59 267.028C197.935 268.181 197.205 268.185 196.212 267.61C195.092 266.961 194.6 265.839 194.035 264.776C192.888 262.618 191.516 262.168 189.619 263.647C187.766 265.092 186.106 266.787 184.36 268.37C183.678 268.987 183.866 269.478 184.522 269.988C185.092 270.432 185.618 270.939 186.131 271.45C186.815 272.133 187.236 272.947 186.803 273.904C186.37 274.86 185.43 275.236 184.526 274.997C182.718 274.521 182.434 275.433 182.517 276.862C182.275 276.862 182.033 276.862 181.792 276.862C180.886 274.156 181.259 273.663 184.062 273.856C184.243 273.868 184.425 273.881 184.605 273.875C185.087 273.857 185.624 273.9 185.825 273.322C185.979 272.876 185.734 272.493 185.457 272.166C185.223 271.891 184.907 271.684 184.69 271.398C183.798 270.225 181.253 270.231 182.113 267.805C180.382 264.855 178.33 262.143 174.644 261.803C170.969 261.465 168.007 259.754 165.085 257.768C164.142 257.127 164.021 256.558 164.855 255.772C165.16 255.484 165.428 255.147 165.663 254.799C165.788 254.615 165.906 254.329 165.85 254.141C165.735 253.755 165.375 253.909 165.086 253.932C157.215 254.555 150.48 257.472 145.291 263.608C143.664 265.533 142.06 267.435 139.376 268.134C131.361 270.219 123.342 272.269 115.255 274.064C110.595 275.098 105.824 275.555 101.221 276.862C100.132 276.861 99.0429 276.861 97.954 276.861ZM141.514 243.114C140.846 243.439 141.043 244.008 141.118 244.536C141.907 250.16 143.543 255.611 144.542 261.192C144.604 261.54 144.701 261.942 145.149 261.988C145.56 262.029 145.788 261.693 146.018 261.422C146.526 260.825 146.58 260.117 146.506 259.371C146.375 258.051 146.339 256.718 146.133 255.411C145.765 253.077 145.903 250.625 144.699 248.361C144.051 249.331 144.422 250.508 143.296 251.739C143.623 248.354 144.341 245.268 141.501 243.102C142.024 243.385 142.549 243.665 143.069 243.952C143.416 244.144 143.699 244.239 143.924 243.757C144.37 242.8 143.853 239.381 143.107 238.539C142.73 238.113 142.232 237.833 142.076 238.59C141.768 240.076 140.793 241.498 141.514 243.114ZM183.968 193.717C185.854 190.941 187.42 188.106 189.632 185.781C192.027 183.264 193.314 180.284 194.077 177.005C194.501 175.182 194.87 173.341 195.155 171.491C195.699 167.967 196.822 164.686 198.972 161.805C200.599 159.625 202.252 157.464 203.871 155.278C205.821 152.645 208.355 150.895 211.561 150.19C212.139 150.063 212.981 149.466 213.335 150.27C213.61 150.894 212.637 151.113 212.277 151.562C211.938 151.986 211.521 152.35 211.2 152.786C206.236 159.533 203.193 167.233 200.225 174.968C200.207 175.014 200.345 175.12 200.411 175.198C209.979 166.915 222.139 161.027 226.944 162.563C224.499 163.26 223.447 165.251 222.149 166.896C215.189 175.715 206.602 181.983 195.292 183.677C192.493 184.097 190.895 185.478 189.348 187.481C186.275 191.457 184.252 195.991 182.152 200.508C182.896 199.944 183.531 199.311 184.13 198.645C186.99 195.455 190.357 193.107 194.649 192.307C200.17 191.279 205.146 189.089 209.475 185.473C209.848 185.162 210.319 184.511 210.844 185.01C211.248 185.394 210.738 185.908 210.491 186.292C206.949 191.801 202.409 195.832 195.608 196.822C190.756 197.527 186.286 199.263 182.383 202.379C180.558 203.836 179.507 205.644 179.222 207.862C178.926 210.159 178.861 212.485 178.691 214.869C179.35 214.386 178.899 213.491 179.705 213.006C180.019 215.418 178.341 217.323 178.236 219.947C179.315 217.587 180.112 215.564 181.159 213.679C181.646 212.8 181.749 212.177 181.196 211.382C180.557 210.466 180.205 209.456 180.307 208.311C180.386 207.425 180.792 206.788 181.681 206.631C182.521 206.484 183.255 206.769 183.658 207.574C183.982 208.222 184.216 208.914 184.529 209.568C184.743 210.015 185.073 210.516 185.628 210.191C186.105 209.911 185.773 209.403 185.582 209.06C184.831 207.711 185.24 206.487 185.935 205.293C186.136 204.946 186.315 204.46 186.863 204.608C187.322 204.731 187.51 205.151 187.588 205.571C187.76 206.499 187.754 207.387 186.841 207.998C186.523 208.211 186.279 208.529 186.537 208.905C186.643 209.06 186.957 209.163 187.162 209.142C187.56 209.101 187.785 208.801 187.845 208.406C187.881 208.169 187.861 207.921 187.903 207.685C188.031 206.974 187.684 205.752 188.665 205.795C189.47 205.831 188.848 207.041 189.098 207.678C189.136 207.774 189.226 207.85 189.298 207.941C190.131 207.478 189.963 205.993 190.876 205.931C192.551 205.816 194.385 205.716 195.903 206.28C197.3 206.799 197.407 206.493 197.468 205.343C197.491 204.921 197.657 204.472 198.178 204.419C198.613 204.374 198.727 204.782 198.945 205.068C199.545 205.853 201.107 205.785 201.776 204.946C201.977 204.695 202.173 204.705 202.385 204.818C203.404 205.361 203.841 204.546 204.27 203.94C204.722 203.302 204.975 202.611 205.997 202.611C206.587 202.611 206.926 201.868 206.667 201.36C206.315 200.67 205.862 201.298 205.523 201.534C204.899 201.967 204.364 202.151 203.824 201.403C202.902 200.125 203.719 199.114 204.32 198.092C204.559 197.686 204.987 197.218 205.499 197.608C206.241 198.172 206.16 198.961 205.801 199.741C205.73 199.895 205.618 200.064 205.864 200.222C206.626 199.991 207.53 200.43 208.252 199.73C208.692 199.304 209.049 198.422 209.844 198.907C210.659 199.404 210.831 200.713 210.696 201.221C210.058 203.619 209.686 206.13 208.353 208.319C207.988 208.919 207.723 209.673 207.695 210.368C207.562 213.596 207.648 216.835 207.092 220.07C208.989 217.594 210.736 215.083 212.457 212.555C212.651 212.269 212.884 211.798 212.777 211.555C212.087 209.985 212.169 208.225 211.659 206.691C211.221 205.373 211.587 205.203 212.54 205.112C213.16 205.053 213.338 204.7 213.551 204.248C213.789 203.743 213.717 203.021 214.479 202.811C215.052 203.668 214.064 204.405 214.319 205.221C214.935 205.194 214.741 204.069 215.51 204.354C217.545 205.11 216.875 204.208 216.185 203.276C215.787 202.741 216.015 202.237 216.293 201.757C216.507 201.384 216.841 200.964 216.53 200.593C215.441 199.295 215.984 197.204 214.343 196.18C214.088 196.021 214.006 195.421 214.188 195.399C216.178 195.165 214.704 194.029 214.741 193.319C214.764 192.872 214.693 192.399 215.292 192.395C215.79 192.392 216.133 192.751 215.938 193.243C215.522 194.29 215.964 194.833 216.886 195.21C217.336 195.394 217.357 195.865 217.492 196.264C217.741 196.997 218.049 197.7 218.953 198.045C219.248 197.154 219.141 196.416 218.864 195.66C218.377 194.334 219.581 192.663 219.973 192.796C221.694 193.377 221.476 191.777 222.158 191.273C222.633 190.922 222.687 189.905 223.34 190.069C224.114 190.263 224.456 191.128 224.64 191.904C224.797 192.563 224.706 193.227 224.365 193.838C224.089 194.331 223.837 194.831 224.158 196.016C224.245 193.172 225.846 194.851 226.701 194.472C227.221 194.241 227.787 194.148 228.124 194.779C228.39 195.278 228.178 195.777 227.836 196.111C226.444 197.466 227.224 198.815 227.777 200.19C227.727 199.085 227.215 197.943 228.379 197.036C229.574 196.104 230.274 197.224 231.123 197.736C231.686 195.623 231.629 195.262 230.659 193.581C230.22 192.821 230.727 192.307 231.238 191.876C231.692 191.492 232.474 191.716 232.461 192.081C232.412 193.436 233.573 193.954 234.078 194.889C235.108 196.792 234.268 200.099 232.407 201.215C229.301 203.078 227.266 205.867 225.192 208.697C222.835 211.916 220.121 214.847 217.384 217.749C216.993 218.164 215.969 218.207 216.424 219.193C216.791 219.991 217.199 220.714 218.292 220.531C219.035 220.407 219.91 220.698 219.693 221.454C219.32 222.752 219.132 224.127 217.808 225.121C215.503 226.851 212.856 226.141 210.383 226.541C208.381 226.864 207.345 227.526 206.933 229.588C206.257 232.966 205.615 236.352 204.968 239.736C204.88 240.195 204.52 240.78 204.945 241.102C205.469 241.5 205.938 240.901 206.384 240.659C209.199 239.13 211.952 237.469 215.124 236.739C215.71 236.604 216.323 236.347 217.074 236.953C212.362 238.361 208.173 240.282 204.135 243.114C205.112 243.511 205.709 243.369 206.304 243.3C210.35 242.832 213.964 241.308 217.373 239.089C223.398 235.168 229.31 230.992 236.421 229.143C237.582 228.841 237.645 228 237.675 227.046C238.095 213.918 239.996 200.929 241.356 187.889C242.512 176.814 243.148 165.741 242.049 154.597C240.74 141.323 235.673 129.874 226.239 120.419C218.059 112.222 210.424 103.579 204.309 93.7024C203.317 92.0998 202.587 92.1745 201.218 93.1805C191.697 100.177 183.646 108.67 175.966 117.575C172.989 121.028 171.372 125.229 169.083 129.056C161.221 142.206 154.168 155.773 148.504 170.026C146.227 175.756 144.172 181.573 141.935 187.319C141.033 189.635 141.619 191.956 143.767 193.529C143.868 192.581 143.144 191.604 143.807 190.509C144.549 191.709 144.281 193.144 145.659 194.068C144.606 189.592 145.314 185.581 148.322 182.126C147.552 185.09 145.521 187.804 146.443 191.166C147.777 188.492 148.824 185.796 149.783 183.051C150.702 180.424 151.225 177.942 149.166 175.608C149.052 175.479 149.007 175.284 148.946 175.113C148.754 174.571 148.663 174.024 149.236 173.656C149.854 173.259 150.382 173.513 150.862 173.968C151.317 174.4 151.541 174.954 151.748 175.527C152.472 177.527 153.692 179.352 153.594 181.779C153.96 181.475 154.113 181.413 154.127 181.327C154.782 177.489 157.523 174.002 156.034 169.787C155.842 169.243 156.056 167.903 156.458 168.124C158.212 169.086 157.525 167.361 157.694 167.002C158.122 166.089 158.193 165.016 158.518 164.045C159.067 162.411 159.702 160.805 160.443 158.806C161.002 160.345 160.937 161.435 160.412 162.401C157.65 167.496 158.082 173.436 155.989 178.747C157.818 176.774 159.943 174.915 160.938 172.576C165.749 161.262 171.14 150.247 177.138 139.525C183.756 127.695 190.688 116.063 199.078 105.37C199.534 104.789 199.924 104.135 201.051 103.605C199.915 105.285 199.063 106.597 198.159 107.873C187.613 122.762 178.692 138.609 170.367 154.815C166.58 162.186 163.751 170.001 159.849 177.308C158.419 179.987 157.408 182.834 156.089 185.552C155.721 186.309 155.588 187.142 155.875 188.035C156.665 187.486 155.896 186.323 156.767 185.828C157.822 187.475 157.87 189.595 156.597 190.858C155.389 192.058 154.74 193.524 154.004 194.966C152.41 198.089 150.963 201.287 148.911 204.16C148.157 205.215 147.788 206.455 147.546 207.978C150.762 204.92 152.805 201.78 154.827 196.56C155.718 194.261 156.881 192.177 158.664 190.48C161.441 187.837 163.104 184.472 164.789 181.125C165.349 180.011 165.556 178.806 165.007 177.555C164.469 178.148 164.041 178.653 163.577 179.122C163.25 179.452 162.903 179.982 162.374 179.64C161.995 179.394 162.18 178.865 162.201 178.446C162.284 176.815 163.389 175.572 163.853 174.084C163.988 173.652 164.153 173.087 164.719 173.02C165.331 172.947 165.411 173.585 165.728 173.916C166.075 174.279 166.134 175.485 167.077 174.422C167.447 174.006 167.826 173.132 168.458 173.532C169.18 173.989 168.133 174.523 168.176 175.083C168.188 175.235 168.262 175.382 168.312 175.543C169.404 175.198 169.348 173.939 170.196 173.308C170.467 173.724 170.637 174.114 170.919 174.391C171.671 175.13 171.286 176.499 172.404 177.016C171.99 177.808 171.715 178.648 171.496 179.512C171.235 180.542 170.805 181.045 169.561 180.565C168.839 180.286 167.901 180.618 167.335 179.757C167.196 179.545 166.87 179.624 166.737 179.877C165.83 181.595 164.226 182.883 163.749 184.878C163.545 185.727 163.69 186.173 164.551 185.787C165.65 185.293 166.975 185.571 167.949 184.664C168.411 184.235 169.025 184.317 169.342 184.894C169.612 185.383 169.666 185.941 168.985 186.268C168.58 186.463 168.225 186.81 168.426 187.274C169.467 189.68 166.527 188.44 166.111 189.701C166.021 189.971 165.105 188.863 164.842 188.125C164.301 186.607 163.266 186.44 162.181 187.66C159.007 191.229 155.773 194.755 154.527 199.569C154.409 200.025 154.091 200.428 153.878 200.862C152.611 203.441 150.679 205.546 148.965 207.808C148.442 208.498 147.878 209.218 148.977 209.928C152.06 211.919 154.752 214.26 155.987 217.998C157.066 214.56 158.153 211.251 159.682 208.065C160.554 212.392 158.986 216.782 160.165 221.363C162.798 217.241 163.908 213 163.95 208.442C163.969 206.378 163.214 205.837 161.221 206.502C158.31 207.474 155.858 205.954 155.301 202.732C155.555 202.917 155.765 203.03 155.926 203.193C156.522 203.795 157.375 204.231 158.037 203.892C158.702 203.55 158.035 202.708 157.978 202.09C157.9 201.246 157.843 200.381 158.919 200.291C160.248 200.178 160.342 199.219 160.607 198.288C160.879 197.328 160.84 196.197 161.941 195.472C162.159 196.595 161.139 197.396 161.428 198.21C161.86 199.424 163.168 198.075 163.974 198.841C164.691 199.523 165.01 198.974 165.007 198.189C165.006 197.766 164.989 197.341 165.017 196.92C165.052 196.393 164.879 195.649 165.483 195.472C166.306 195.23 166.307 196.129 166.597 196.6C166.697 196.761 166.806 196.885 167.051 196.757C167.395 196.069 167.507 195.299 167.571 194.513C167.613 194 167.456 193.324 168.245 193.241C168.888 193.173 169.203 193.643 169.447 194.162C169.613 194.514 169.546 195.047 170.13 195.091C170.643 194.903 170.32 193.915 171.146 194.04C171.425 196.299 171.437 196.243 173.511 195.327C174.741 194.784 176.187 195.103 177.086 195.923C177.836 196.607 177.047 197.574 176.398 198.256C176.243 198.419 177.653 202.346 177.882 202.392C178.042 202.424 178.24 202.39 178.392 202.32C179.462 201.829 180.446 201.402 181.157 200.229C182.221 198.469 182.012 196.821 181.62 195.016C180.328 189.074 179.584 183.066 180.67 177.024C181.851 170.458 185.401 164.771 187.873 158.684C188.089 158.152 188.425 157.513 189.524 157.484C187.75 160.346 186.901 163.284 186.25 166.296C185.583 169.385 185.447 172.526 185.263 175.662C185.073 178.919 184.963 182.182 184.735 185.436C184.542 188.201 184.229 190.957 183.968 193.717ZM152.478 122.534C148.92 128.422 145.349 134.251 142.445 140.441C137.332 151.341 134.945 162.865 134.745 174.869C134.736 175.437 134.449 176.435 135.068 176.499C136.843 176.685 136.104 177.889 136.014 178.646C135.756 180.822 135.754 182.985 135.931 185.16C135.967 185.61 136.324 186.21 135.748 186.457C135.177 186.701 134.997 185.998 134.655 185.703C133.111 184.374 131.745 182.898 129.264 183.64C128.079 183.995 126.465 183.633 125.643 182.523C124.682 181.226 123.48 181.259 121.886 181.348C123.343 178.149 125.928 177.36 129.306 177.232C125.068 175.807 122.586 173.078 120.914 169.503C120.665 168.97 120.03 168.419 120.402 167.868C120.829 167.237 121.539 167.75 122.057 167.946C123.258 168.4 123.557 168.063 123.392 166.829C123.118 164.794 122.973 162.742 122.79 160.695C122.74 160.131 122.368 159.272 123.146 159.146C123.855 159.031 123.897 159.97 124.046 160.513C124.733 163.019 125.377 165.537 126.023 168.054C126.235 168.882 126.402 169.691 127.324 170.092C129.833 171.182 131.997 172.748 133.864 175.371C133.663 171.33 133.949 167.78 134.536 164.273C134.868 162.283 134.688 160.673 133.069 159.257C132.279 158.566 131.766 157.518 131.244 156.569C129.2 152.849 129.601 145.591 132.211 142.752C131.311 148.527 134.539 153.545 134.809 159.191C135.45 158.809 135.38 158.268 135.474 157.84C136.789 151.855 138.641 146.049 141.198 140.475C143.875 134.638 147.282 129.201 150.446 123.629C153.999 117.371 156.645 110.885 154.628 103.436C154.396 102.582 154.538 101.631 154.485 100.726C154.44 99.9427 154.418 99.152 154.285 98.3822C154.132 97.4945 153.985 96.533 152.904 96.239C151.904 95.9668 151.331 96.6589 150.761 97.2882C148.69 99.5752 146.572 101.812 144.201 103.798C139.692 107.574 134.542 105.777 133.475 100.045C133.398 99.6295 133.32 99.2118 133.279 98.7913C133.165 97.639 132.541 96.886 131.694 96.0882C130.155 94.6393 128.872 92.8521 127.788 91.0978C126.757 89.4306 126.158 88.8432 124.227 89.6608C121.555 90.7921 120.04 89.7964 119.67 86.92C119.34 84.3448 119.052 81.7543 118.948 79.1623C118.787 75.1663 117.461 72.024 113.524 70.353C112.582 69.9531 112.19 69.8624 112.231 71.0164C112.306 73.0938 111.906 75.11 111.417 77.1095C110.634 80.3074 111.03 83.3193 112.58 86.2401C113.626 88.2121 114.808 90.1336 115.499 92.2751C116.085 94.092 115.448 95.3547 113.68 96.0172C113.173 96.2075 112.643 96.3478 112.113 96.4682C110.753 96.7776 110.092 97.6299 110.422 98.9757C110.933 101.054 110.159 102.183 107.974 102.424C109.295 103.57 109.742 104.799 108.486 105.95C106.932 107.376 106.648 109.075 106.694 111.036C106.807 115.819 104.474 117.841 99.7731 116.98C96.6237 116.403 93.4893 115.705 90.3923 114.893C88.3038 114.346 86.9335 114.971 85.7967 116.73C83.1363 120.847 82.127 125.47 81.2598 130.2C79.9072 137.578 82.4587 143.203 88.3954 147.545C90.3009 148.939 92.0486 150.597 93.4088 152.513C99.9174 161.68 107.731 169.647 115.648 177.575C120.013 181.946 124.967 186.281 124.889 193.39C124.885 193.758 125.059 194.118 125.497 194.175C125.944 194.233 126.128 193.886 126.283 193.556C126.724 192.611 126.646 191.736 126.116 190.801C125.226 189.23 125.212 187.565 125.999 185.933C126.166 185.586 126.43 185.105 126.954 185.329C127.352 185.499 127.247 185.93 127.228 186.291C127.165 187.442 126.548 188.537 126.809 190.108C127.142 189.217 127.342 188.682 127.539 188.154C129.774 189.124 127.488 190.866 128.149 191.602C129.232 192.809 128.932 194.108 129.07 195.711C129.672 194.854 130.049 194.248 130.497 193.7C130.904 193.204 131.324 192.433 132.054 192.71C132.713 192.96 131.952 193.698 132.205 194.182C132.253 194.274 132.369 194.332 132.452 194.403C134.698 193.585 134.698 193.585 134.509 197.252C135.026 197.605 135.668 196.337 136.181 197.422C136.693 198.505 137.313 199.543 137.959 200.554C138.666 201.662 138.536 202.586 137.526 203.396C136.534 204.192 135.639 204.96 135.7 206.47C135.734 207.316 134.842 207.731 134.081 207.992C132.009 208.703 130.082 208.504 128.32 206.925C129.936 210.518 131.439 214.057 131.901 217.936C131.94 218.266 132.201 218.597 132.424 218.875C135.264 222.393 138.1 225.912 139.703 230.3C140.399 229.723 140.264 229.081 140.331 228.513C140.963 223.148 142.005 217.869 144.153 212.894C144.878 211.216 144.67 209.924 143.7 208.512C142.157 206.265 140.852 203.878 139.828 201.345C138.071 196.998 136.579 192.611 137.413 187.791C137.859 185.217 137.959 182.621 137.441 180.038C137.04 178.042 137.206 176.025 137.567 174.088C140.429 158.721 144.274 143.629 150.481 129.221C151.409 127.066 152.326 124.91 152.478 122.534ZM66.8592 95.7346C65.3151 98.7136 63.6765 101.303 61.6201 103.485C59.4358 105.803 59.2096 108.334 59.6607 111.179C59.8311 112.254 60.0121 113.327 60.1432 114.407C60.518 117.492 59.7481 120.286 57.9147 122.783C57.7029 123.071 57.53 123.594 56.7416 123.212C60.3096 118.53 59.0033 113.435 58.1695 107.91C56.8725 110.001 54.5978 110.709 54.2163 113.012C53.8608 115.159 53.4466 117.296 53.0344 119.433C52.3112 123.181 51.9155 126.963 51.7851 130.776C51.5565 137.455 49.4784 143.725 47.4325 149.99C44.9512 157.589 43.4821 165.331 44.0175 173.355C44.4936 180.492 45.7845 187.507 47.4655 194.45C48.4258 198.417 49.4707 202.363 50.4777 206.319C50.6376 204.873 50.7036 203.48 50.6271 202.095C50.057 191.768 49.5842 181.444 50.7063 171.123C51.2776 165.869 52.1638 160.688 54.7341 155.972C56.7739 152.23 59.6763 149.628 64.0821 148.97C69.6778 148.134 74.4231 150.145 77.9562 154.12C85.9073 163.067 93.8888 171.988 101.83 180.945C104.422 183.869 107.005 186.801 109.592 189.73C109.748 189.71 109.904 189.69 110.06 189.67C110.089 186.363 110.979 183.214 111.177 179.826C112.142 180.317 111.89 181.227 112.626 181.688C112.958 180.835 113.101 179.873 113.632 179.232C114.605 178.057 114.122 177.362 113.222 176.528C105.973 169.81 99.324 162.558 93.6168 154.467C91.1828 151.016 87.7478 148.557 84.7536 145.662C82.0552 143.054 80.2958 140.03 79.949 136.185C79.7058 133.486 80.0424 130.863 80.5216 128.258C81.3566 123.719 82.5387 119.289 85.4316 115.52C86.6661 113.911 88.105 113.259 90.1628 113.79C93.2635 114.59 96.3928 115.306 99.5411 115.89C103.981 116.714 105.592 115.303 105.592 110.814C105.592 109.027 105.835 107.332 107.097 105.912C108.499 104.334 108.388 103.903 106.481 103.058C104.899 102.357 103.368 101.587 102.071 100.238C102.711 99.8421 103.133 100.158 103.571 100.272C105.033 100.655 106.494 101.047 108.014 101.128C108.948 101.178 109.658 100.846 109.494 99.8124C109.052 97.0153 110.351 95.6482 112.98 95.1173C114.475 94.8154 114.912 93.7367 114.371 92.355C113.954 91.2888 113.492 90.2203 112.895 89.2478C110.206 84.8663 109.205 80.335 110.686 75.2124C111.423 72.6617 111.929 69.838 110.778 67.1921C109.829 65.0121 109.222 62.7517 108.657 60.4596C108.041 57.9595 107.608 55.3992 106.451 52.7797C105.58 53.8674 104.824 54.828 103.796 55.4429C102.245 56.3701 101.203 57.6927 100.203 59.181C97.6049 63.0482 94.8163 66.7973 91.2109 69.8102C86.8213 73.4785 83.1277 77.7762 79.6635 82.2878C77.9953 84.4604 77.8135 86.9086 78.9976 89.3041C81.4073 94.1793 81.2309 98.9483 78.9079 103.782C77.6829 106.331 77.1433 109.041 77.6046 111.893C77.6812 112.366 77.8094 112.91 77.3007 113.469C76.4942 111.837 76.3505 110.274 76.5304 108.717C76.7037 107.217 77.1001 105.744 77.3986 104.259C74.0549 108.246 73.3533 112.797 74.453 117.76C73.281 115.895 72.9269 113.925 73.0571 111.848C73.3082 107.847 75.4843 104.689 77.6309 101.537C79.645 98.5789 80.3851 95.3588 78.9161 92.0849C77.026 87.8722 76.1231 83.918 79.9885 80.0421C76.1623 81.4151 73.021 80.3833 70.0062 78.4097C68.8615 77.6603 67.7291 77.9473 66.7048 78.8923C65.2681 80.2176 64.5722 81.8465 64.7118 83.7521C64.9195 86.5899 65.971 89.1596 67.6067 91.4705C68.7836 93.1331 70.1618 94.3537 72.4423 94.5204C73.9442 94.6302 74.7201 96.6455 74.2106 98.1385C73.7377 99.5248 72.4076 100.24 71.0442 99.8402C69.6688 99.4375 68.5032 97.756 69.1507 96.628C70.2168 94.7706 68.8025 94.4096 67.7184 93.5146C67.3726 94.7118 67.8599 95.5793 68.2159 96.4281C69.2848 98.9759 69.6178 101.552 68.6483 104.196C67.328 107.796 67.7919 111.084 70.2799 114.049C70.323 114.1 70.2403 114.257 70.2084 114.4C69.376 114.174 68.9734 113.479 68.5184 112.863C66.4823 110.103 66.5945 107.128 67.6409 104.052C68.5872 101.271 68.2558 98.592 66.8592 95.7346ZM145.091 161.09C145.714 162.072 145.536 162.617 145.422 163.132C144.267 168.387 142.997 173.607 141.143 178.674C140.356 180.825 139.082 182.778 138.671 185.082C137.615 190.998 138.444 196.627 141.096 202.007C141.884 203.606 142.406 205.354 143.8 206.8C144.154 205.836 143.715 205.143 143.489 204.439C142.955 202.771 142.236 201.147 141.858 199.447C140.945 195.333 139.438 191.32 139.607 187.006C139.651 185.901 139.852 184.932 141.107 184.339C141.161 185.062 141.204 185.632 141.259 186.367C141.973 185.635 142.08 184.836 142.312 184.116C146.4 171.435 151.446 159.16 157.581 147.321C161.588 139.587 166.034 132.109 170.335 124.545C170.722 123.865 171.138 123.274 170.648 122.384C168.637 118.73 166.595 115.097 164.259 111.634C163.564 110.603 163.11 110.318 162.17 111.54C159.432 115.097 157.853 119.212 156.17 123.288C155.813 124.152 155.544 125.069 154.693 125.662C155.972 121.339 157.31 117.045 159.726 113.192C161.098 111.004 161.129 111.034 158.982 109.816C158.566 109.58 158.162 109.294 157.816 108.964C157.089 108.267 156.694 108.436 156.485 109.374C156.118 111.025 155.712 112.668 155.362 114.323C154.4 118.867 154.15 123.601 152.242 127.896C146.572 140.668 143.066 154.115 139.666 167.596C138.77 171.146 138.069 174.752 138.445 178.482C140.483 172.727 142.607 167.021 145.091 161.09ZM202.313 90.5401C202.263 90.3925 202.224 90.2123 202.144 90.0521C199.933 85.6049 197.457 81.3211 194.378 77.4061C193.824 76.7024 193.24 76.6157 192.519 77.1653C191.269 78.1164 189.942 78.9725 188.743 79.9818C179.082 88.1137 171.296 97.8535 164.437 108.389C163.969 109.108 163.935 109.604 164.492 110.305C166.72 113.106 168.395 116.266 170.176 119.353C171.536 121.709 171.516 121.72 173.131 119.474C173.307 119.228 173.486 118.984 173.675 118.748C181.777 108.678 190.694 99.4452 201.263 91.9112C201.742 91.5699 202.36 91.3247 202.313 90.5401ZM183.365 223.696C181.522 225.293 179.417 226.461 177.528 227.942C173.725 230.924 170.953 234.805 167.834 238.397C166.586 239.835 166.43 240.971 167.507 242.541C169.071 244.82 170.802 247.027 171.587 249.757C171.694 250.131 171.613 250.709 172.192 250.722C172.692 250.732 172.876 250.262 172.989 249.855C174.147 245.67 177.178 242.913 180.262 240.163C181.922 238.683 182.954 236.425 182.596 234.514C181.898 230.791 182.222 227.339 183.365 223.696ZM85.2578 192.369C85.096 192.368 84.9343 192.366 84.7726 192.364C84.5724 192.913 84.3476 193.454 84.1761 194.011C83.2846 196.908 82.8429 199.896 82.4519 202.889C82.1472 205.223 81.8613 207.562 81.6869 209.907C81.5526 211.711 83.0371 212.32 84.3194 212.98C85.2266 213.447 85.1049 212.36 85.695 211.925C85.4178 213.64 86.4444 214.516 87.5792 215.668C87.695 214.351 86.6795 213.66 86.5998 212.177C88.0859 214.128 89.595 215.407 90.4571 217.265C91.2721 219.021 92.5467 220.508 93.7904 221.984C94.1855 222.453 94.8381 223.24 95.4086 222.733C96.2967 221.944 96.7292 222.688 97.2702 223.004C97.9963 223.429 98.6268 224.027 99.4627 224.251C99.9462 224.38 100.674 224.849 100.845 224.116C101 223.45 101.026 222.356 99.936 222.292C99.0137 222.238 98.5499 221.689 97.9738 221.168C96.7429 220.055 95.8536 218.698 95.0998 217.242C91.7256 210.728 89.5205 203.748 86.9893 196.897C86.4292 195.382 85.8359 193.878 85.2578 192.369ZM110.703 193.176C110.703 193.806 110.68 194.342 110.709 194.875C110.74 195.45 110.551 196.217 111.362 196.362C112.101 196.493 112.59 195.99 112.892 195.335C113.094 194.897 113.241 194.424 113.504 194.029C113.83 193.539 114.232 192.894 114.922 193.21C115.625 193.531 115.391 194.222 115.198 194.806C114.975 195.485 114.515 196.125 114.754 196.885C114.869 197.252 115.042 197.929 115.555 197.543C117.214 196.296 116.836 197.855 116.903 198.527C117.019 199.675 117.085 200.775 118.497 201.357C118.55 200.865 118.573 200.512 118.629 200.165C118.775 199.262 121.349 196.377 121.911 196.611C123.554 197.298 123.465 196.353 123.387 195.247C123.358 194.842 123.415 194.382 123.584 194.018C124.371 192.327 124.053 190.662 123.306 189.127C121.843 186.118 119.696 183.57 117.487 181.084C116.803 180.314 116.056 180.299 115.668 181.311C115.174 182.596 114.195 182.95 112.993 183.091C111.63 183.252 111.391 183.847 112.419 184.805C113.075 185.417 113.181 185.942 112.459 186.611C110.44 188.484 110.303 190.315 111.926 192.494C112.24 192.915 112.853 193.297 112.439 193.952C111.686 194.052 111.581 193.209 110.703 193.176ZM173.258 253.012C176.04 251.175 177.941 248.58 180.13 246.263C185.396 240.692 191.112 235.566 196.238 229.858C197.359 228.61 198.274 227.251 198.936 225.639C196.395 225.141 196.599 227.903 194.872 228.852C195.457 226.961 194.958 226.077 193.181 225.95C192.322 225.888 191.65 225.253 191.517 224.274C191.441 223.708 191.143 223.255 190.76 222.861C189.734 221.804 189.231 220.582 189.396 219.083C189.443 218.659 189.619 218.098 188.9 217.775C187.727 219.531 188.058 221.603 187.695 223.503C186.758 228.405 186.556 233.51 183.706 237.867C181.592 241.098 179.416 244.289 177.23 247.472C175.944 249.345 174.584 251.167 173.258 253.012ZM195.796 182.266C202.486 178.105 210.098 175.288 215.145 168.739C211.322 175.188 204.794 178.216 198.353 181.973C209.835 179.63 216.765 171.858 223.764 163.383C211.635 166.072 202.821 172.841 195.796 182.266ZM147.432 211.748C148.441 215.676 150.114 219.095 149.327 222.983C148.541 226.857 145.956 229.642 143.64 232.606C144.252 232.978 144.505 232.791 144.765 232.646C148.065 230.81 149.215 231.281 150.206 234.956C150.582 236.35 150.835 237.778 151.144 239.19C152.094 235.688 153.475 232.485 155.21 229.424C155.593 228.748 155.511 228.058 155.449 227.319C155.268 225.136 154.213 223.077 154.228 220.932C154.266 215.904 151.838 212.583 147.507 210.234C148.282 211.879 149.965 212.79 150.597 214.744C149.246 214.004 148.68 212.803 147.432 211.748ZM178.375 207.927C178.374 207.92 178.538 207.394 178.041 207.212C177.379 206.969 177.251 207.607 177.062 208.009C176.728 208.717 176.366 209.432 176.179 210.185C175.447 213.137 174.034 215.813 172.842 218.576C170.998 222.854 167.703 226.151 165.067 229.891C163.833 231.641 162.894 233.182 164.715 235.052C164.911 235.253 164.96 235.598 165.078 235.876C165.847 237.687 166.05 237.737 167.247 236.25C173.818 228.086 177.824 218.893 178.375 207.927ZM188.927 256.768C189.01 256.678 189.092 256.588 189.175 256.499C189.698 256.98 190.254 257.432 190.737 257.951C191.351 258.612 191.907 259.326 192.486 260.018C192.82 260.416 192.974 261.016 193.674 260.984C195.174 260.916 198.34 257.215 198.148 255.739C197.839 253.364 196.017 251.494 193.631 251.631C188.027 251.952 182.425 252.448 177.103 254.459C175.044 255.237 173.809 256.088 172.963 257.17C173.349 257.014 173.627 256.913 173.896 256.791C178.387 254.739 182.564 255.282 186.468 258.274C187.715 259.23 188.993 260.143 190.018 261.351C190.583 262.017 191.333 262.107 191.957 261.636C192.712 261.067 191.93 260.54 191.627 260.127C190.775 258.972 189.833 257.883 188.927 256.768ZM181.225 248.14C187.634 244.952 194.292 243.055 201.488 243.395C202.791 243.456 203.308 242.751 203.524 241.589C204.109 238.445 204.746 235.311 205.319 232.166C205.393 231.761 205.762 231.276 205.146 230.732C200.844 235.095 195.448 237.83 189.664 240.88C193.002 240.745 195.576 241.52 198.061 242.735C191.869 242.934 185.835 243.389 181.225 248.14ZM150.464 245.124C150.464 243.674 150.558 242.216 150.438 240.776C150.313 239.276 150.089 237.766 149.722 236.307C148.343 230.832 147.315 231.874 143.717 234.213C142.891 234.75 142.775 235.38 143.323 236.19C146.181 240.414 147.602 245.075 147.606 250.18C147.607 251.569 147.716 252.958 147.803 254.345C147.878 255.537 147.778 255.485 147.064 257.157C146.769 257.849 146.638 259.067 147.229 259.576C147.916 260.169 148.373 259.078 148.896 258.682C149.362 258.328 149.419 257.751 149.47 257.203C149.85 253.179 150.689 249.195 150.464 245.124ZM164.292 223.939C166.527 221.535 168.645 219.07 170.105 216.113C171.73 212.821 173.761 209.771 175.825 206.744C176.499 205.754 176.59 204.651 176.004 203.67C175.424 202.699 174.488 202.924 173.599 203.377C173.347 203.505 173.012 203.517 172.718 203.51C170.383 203.449 168.526 204.967 168.048 207.331C166.926 212.884 166.038 218.492 164.292 223.939ZM193.433 182.355C195.444 180.77 197.277 179.057 198.368 176.697C200.974 171.06 202.8 165.083 205.802 159.617C205.822 159.58 205.698 159.463 205.592 159.312C203.42 161.456 201.707 163.948 199.89 166.367C200.893 163.014 203.439 160.677 205.377 157.94C200.163 160.321 197.487 164.603 196.41 170.014C195.588 174.15 195.073 178.355 193.433 182.355ZM175.812 253.855C177.681 253.277 179.185 252.604 180.754 252.366C186.133 251.55 191.104 249.514 196.095 247.51C197.778 246.835 199.471 246.194 201.251 245.796C201.781 245.678 202.674 245.734 202.605 244.91C202.533 244.063 201.682 244.342 201.129 244.297C195.752 243.865 190.659 245.101 185.777 247.187C182.178 248.725 178.688 250.526 175.812 253.855ZM218.976 209.949C219.935 210.182 220.788 210.217 220.987 211.049C221.122 211.614 220.618 212.086 220.157 212.348C219.308 212.832 218.792 212.144 218.352 211.602C217.836 210.967 217.421 211.18 216.799 211.447C214.951 212.239 213.652 213.444 212.855 215.348C212.377 216.489 211.402 217.411 210.739 218.486C210.235 219.304 208.764 220.331 209.531 220.939C210.415 221.64 211.292 220.193 211.966 219.385C212.664 218.547 213.314 217.497 214.577 217.777C215.751 218.037 216.418 217.454 217.073 216.73C220.429 213.023 223.918 209.44 226.541 205.111C227.389 203.712 227.411 202.638 226.74 201.285C226.335 200.468 226.031 200.456 225.449 201.071C224.454 202.123 223.417 203.135 222.401 204.166C222.002 204.57 221.566 205.125 222.003 205.587C223.029 206.669 222.218 207.454 221.881 208.464C221.391 209.932 220.211 209.585 218.976 209.949ZM161.494 221.092C156.92 228.434 151.393 235.584 151.727 245.132C155.367 237.232 161.213 230.25 161.494 221.092ZM156.39 254.605C159.581 253.527 162.418 253.355 165.192 252.838C166.394 252.613 166.911 252.046 166.962 250.782C167.064 248.243 166.421 245.896 165.479 243.59C165.047 242.532 164.606 242.627 164.022 243.484C161.587 247.055 159.133 250.613 156.39 254.605ZM151.968 256.341C153.324 254.944 154.085 253.18 154.803 251.415C156.35 247.607 158.451 244.214 161.711 241.621C164.408 239.475 164.417 239.462 163.41 236.281C163.2 235.617 163.21 234.634 162.421 234.475C161.576 234.304 161.336 235.288 160.942 235.845C156.56 242.044 154.497 249.278 151.968 256.341ZM184.18 199.877C187.677 197.652 191.523 196.434 195.55 195.854C200.862 195.089 204.846 192.364 207.875 188.041C204.191 190.587 200.124 192.265 195.76 193.027C190.981 193.861 187.369 196.476 184.18 199.877ZM138.247 259.127C138.247 261.417 138.238 263.708 138.253 265.999C138.257 266.534 138.239 267.117 139.018 267.206C140.797 267.408 142.536 265.848 142.553 264.037C142.589 260.265 141.695 256.612 141.151 252.915C140.9 251.209 140.631 249.506 140.37 247.801C140.221 247.818 140.073 247.835 139.924 247.852C139.802 250.617 138.927 253.299 139.126 256.097C139.322 258.851 140.377 261.439 140.848 264.151C139.304 262.782 139.375 260.769 138.247 259.127ZM142.12 233.601C143.909 230.062 147.429 227.675 148.271 223.629C148.947 220.387 148.123 214.857 146.228 212.047C146.539 219.688 143.957 226.56 142.12 233.601ZM194.912 215.235C197.312 215.526 197.312 215.526 198.498 214.498C199.795 213.375 200.654 213.662 201.015 215.348C201.103 215.761 201.123 216.19 201.228 216.597C201.428 217.372 201.939 217.504 202.327 216.837C203.414 214.964 205.035 213.416 205.719 211.299C205.848 210.898 206.106 210.247 205.714 210.141C203.812 209.628 203.984 206.487 201.435 206.836C201.115 206.88 200.816 206.049 200.395 206.51C199.923 207.025 200.543 207.384 200.841 207.696C201.358 208.238 201.545 208.781 201.23 209.494C200.839 210.38 200.135 210.245 199.39 210.172C198.57 210.092 197.718 209.996 196.647 210.623C197.212 210.719 197.385 210.756 197.56 210.777C198.138 210.848 198.922 210.588 199.191 211.247C199.473 211.935 198.625 212.199 198.306 212.671C197.935 213.217 196.844 213.34 196.982 214.026C197.317 215.69 196.157 215.033 194.912 215.235ZM156.957 179.556C151.416 185.824 151.793 194.173 149.305 201.551C149.975 200.968 150.417 200.282 150.794 199.561C151.77 197.691 152.661 195.773 153.693 193.934C154.575 192.361 155.105 190.775 154.863 188.938C154.594 186.902 155.138 185 156.018 183.166C156.552 182.051 157.14 180.939 156.957 179.556ZM86.494 72.5763C81.3747 75.3238 75.9518 76.8524 69.743 76.6129C73.4689 80.0133 77.0672 80.3916 80.8801 78.1965C83.2529 76.8304 84.7528 74.6122 86.494 72.5763ZM210.385 272.173C209.975 271.01 210.003 269.844 208.919 269.386C205.715 268.035 204.388 265.216 203.199 262.276C202.543 260.656 201.954 259.009 201.3 257.387C201.13 256.966 200.925 256.356 200.3 256.61C199.811 256.808 199.721 257.358 199.811 257.864C199.988 258.871 200.268 259.865 200.375 260.879C200.92 266.055 204.936 270.728 210.385 272.173ZM171.997 258.941C175.532 258.343 178.832 258.326 181.734 260.323C183.965 261.859 186.49 261.639 189.125 262.09C184.5 256.231 177.328 254.877 171.997 258.941ZM172.361 213.628C170.418 218.534 166.952 222.332 163.717 226.298C162.527 227.757 162.36 229.498 162.823 231.835C166.358 225.564 172.59 221.338 172.361 213.628ZM177.335 224.839C179.428 223.133 181.562 221.587 183.4 219.672C184.732 218.284 185.505 217.055 184.711 215.145C184.461 214.543 184.539 213.712 183.657 213.716C182.838 213.72 181.881 213.712 181.482 214.675C180.081 218.055 178.714 221.449 177.335 224.839ZM184.487 169.799C181.871 177.383 180.907 185.068 183.088 193.174C184.032 185.262 184.173 177.525 184.487 169.799ZM148.632 199.51C149.736 195.286 150.649 191.043 151.997 186.944C152.724 184.733 152.194 182.952 151.514 181.006C148.918 186.938 147.834 193.035 148.632 199.51ZM134.713 184.244C134.887 181.496 134.212 179.88 132.461 178.099C131.244 176.861 130.219 178.467 129.094 178.18C128.983 178.152 128.854 178.193 128.734 178.207C126.301 178.488 125.939 179.066 126.677 181.396C126.835 181.894 127.012 182.319 127.585 182.375C128.139 182.43 128.516 182.142 128.7 181.636C129.176 180.32 129.917 180.72 130.604 181.381C131.782 182.514 133.006 183.563 134.713 184.244ZM191.548 250.488C193.778 250.63 195.944 250.795 198.069 251.223C201.5 251.915 201.491 251.958 202.257 248.534C202.296 248.358 202.321 248.177 202.371 248.003C202.695 246.858 202.39 246.457 201.145 246.782C197.812 247.651 194.703 249.092 191.548 250.488ZM200.004 252.965C204.195 255.097 205.553 258.837 205.971 263.129C206.03 263.729 206.138 264.327 206.266 264.916C206.518 266.066 207.041 267.075 207.958 267.841C208.227 268.067 208.538 268.371 208.92 268.19C209.36 267.981 209.139 267.574 209.082 267.233C208.862 265.923 208.585 264.62 208.429 263.302C207.815 258.114 205.054 254.641 200.004 252.965ZM223.079 248.928C220.608 246.391 218.158 245.062 215.087 245.038C213.276 245.024 211.463 245.055 209.654 244.982C208.21 244.923 206.773 244.72 205.33 244.62C204.939 244.593 204.33 244.496 204.294 245.051C204.255 245.651 204.873 245.534 205.259 245.545C206.526 245.581 207.784 245.641 209.041 245.871C213.587 246.703 218.147 247.467 223.079 248.928ZM206.565 213.358C204.766 218.695 202.275 223.341 200.169 228.264C203.832 227.419 207.178 219.693 206.565 213.358ZM178.758 262.081C180.547 263.695 181.738 265.264 182.805 266.931C183.004 267.242 183.316 267.639 183.658 267.368C185.238 266.115 186.766 264.796 188.571 263.283C185.117 262.529 182.181 262.081 178.758 262.081ZM144.536 204.281C144.285 201.875 146.249 199.702 145.14 197.224C144.149 195.009 141.909 193.744 141.015 191.445C141.9 195.832 142.632 200.203 144.536 204.281ZM180.544 54.371C179.814 56.2337 179.603 58.2 178.651 59.9485C177.695 61.7045 176.432 63.1741 174.459 64.482C176.73 64.3856 178.52 63.8882 180.316 63.4201C180.967 63.2504 181.145 62.8351 181.098 62.2072C180.901 59.5961 180.727 56.9833 180.544 54.371ZM198.115 259.301C196.67 260.325 195.611 261.102 194.524 261.836C193.98 262.203 193.807 262.632 194.12 263.209C194.665 264.212 195.193 265.227 195.798 266.192C196.126 266.717 196.652 267.089 197.332 266.879C198.055 266.657 198.096 265.991 198.105 265.395C198.132 263.481 198.115 261.565 198.115 259.301ZM158.87 212.661C156.698 216.887 156.736 221.298 157.38 226.03C160.746 221.682 158.034 216.985 158.87 212.661ZM204.424 228.489C198.456 228.978 195.735 234.038 191.66 237.192C196.465 235.08 200.102 231.29 204.424 228.489ZM230.817 255.873C230.969 252.124 225.344 246.026 221.262 245.988C224.431 249.211 227.864 252.205 230.817 255.873ZM99.7586 58.2291C93.9094 61.1374 91.9926 66.8613 88.4013 71.1343C92.6857 67.4874 96.2766 63.227 99.7586 58.2291ZM199.333 220.628C199.926 218.364 198.904 217.188 197.247 216.528C196.224 216.12 194.75 216.096 194.431 217.247C194.053 218.617 193.458 219.457 192.256 220.095C191.72 220.379 191.452 221.07 191.967 221.651C192.461 222.208 192.923 221.804 193.377 221.467C193.906 221.076 194.474 220.736 195.026 220.375C195.857 219.832 195.871 218.11 197.067 218.415C197.897 218.627 198.491 219.76 199.333 220.628ZM165.884 206.462C165.56 206.407 165.236 206.351 164.911 206.296C164.96 213.786 162.256 220.752 161.247 228.042C164.347 221.156 164.484 213.684 165.884 206.462ZM139.812 238.615C141.155 235.109 140.061 232.197 137.326 229.761C137.071 229.533 136.821 229.128 136.418 229.362C136.056 229.572 136.118 230.016 136.215 230.347C136.418 231.038 136.652 231.725 136.947 232.381C137.885 234.469 138.857 236.543 139.812 238.615ZM134.368 232.599C134.368 233.946 134.301 235.298 134.395 236.639C134.447 237.392 134.419 238.432 135.119 238.781C136.749 239.592 137.962 240.901 139.659 242.371C139.167 238.078 135.055 236.266 134.368 232.599ZM131.001 176.276C131.423 176.151 132.182 176.507 132.501 175.84C132.814 175.186 132.197 174.726 131.829 174.29C130.722 172.979 129.273 172.115 127.757 171.361C127.295 171.131 126.825 170.97 126.754 171.79C126.583 173.762 128.85 176.249 131.001 176.276ZM165.939 241.68C166.892 244.781 168.324 247.739 168.077 251.087C168.048 251.48 168.246 251.726 168.718 251.766C170.172 251.892 170.961 250.98 170.545 249.572C169.661 246.571 167.423 244.361 165.939 241.68ZM155.915 242.819C157.06 240.253 158.404 237.752 160.191 235.569C161.723 233.698 162.299 231.799 161.357 229.34C158.877 233.623 157.849 238.389 155.915 242.819ZM145.062 217.475C142.621 221.429 140.735 228.81 141.462 231.639C142.905 226.945 144.471 222.453 145.062 217.475ZM131.266 147.645C130.341 151.586 130.794 155.196 133.664 158.224C133.576 154.527 131.895 151.212 131.266 147.645ZM121.578 213.483C121.543 216.459 122.12 219.231 124.133 221.511C124.394 221.807 124.708 222.287 125.171 222.023C125.613 221.77 125.412 221.259 125.294 220.871C124.482 218.21 123.131 215.813 121.578 213.483ZM161.257 109.453C161.825 109.447 162.337 109.312 162.601 108.749C162.789 108.35 162.567 108.047 162.263 107.829C160.702 106.709 159.069 105.713 157.238 105.091C156.659 104.894 156.284 104.97 156.507 105.751C156.929 107.233 159.803 109.494 161.257 109.453ZM114.984 199.018C115.286 200.197 114.36 200.523 113.738 201.07C112.994 201.723 112.478 202.542 113.365 203.383C113.953 203.94 114.179 205.362 115.319 204.811C116.288 204.343 117.296 203.512 116.671 202.099C116.211 201.058 115.887 199.945 114.984 199.018ZM256.864 225.892C252.933 225.719 250.314 228.273 247.131 228.883C250.687 229.558 253.752 228.542 256.864 225.892ZM203.477 157.552C206.824 156.416 208.962 154.286 210.825 151.464C207.304 152.32 205.327 154.648 203.477 157.552ZM187.057 220.31C185.034 224.728 184.117 229.138 184.635 231.651C185.992 227.872 186.832 224.15 187.057 220.31ZM156.103 239.036C153.54 243.197 151.675 247.618 151.123 252.516C152.838 248.044 154.412 243.52 156.103 239.036Z" fill="black"/>
<path d="M72.9042 30.0385C69.5418 32.5447 66.3794 34.4626 62.6441 35.2828C58.3303 36.23 54.0408 37.2514 49.9632 39.0111C39.5826 43.4905 33.8777 51.502 32.4881 62.5707C31.6749 69.0482 29.9514 75.2133 27.5595 81.2656C24.136 89.9281 22.6587 99.0941 21.2972 108.236C18.3469 128.043 14.206 147.608 9.87837 167.146C6.74088 181.31 4.03956 195.561 2.29934 209.976C1.96148 212.775 1.69876 215.583 1.23796 218.371C0.953822 214.435 1.46601 210.545 1.92657 206.667C4.64027 183.814 10.1883 161.5 14.858 139.019C17.305 127.238 19.0352 115.333 20.9451 103.459C21.1545 102.158 21.0078 100.97 20.4731 99.761C19.4456 97.4379 18.5783 95.0563 18.0293 92.5611C17.3861 89.6386 18.0217 87.0418 19.8709 84.7344C21.8364 82.2818 23.7544 79.7832 25.846 77.4412C29.1302 73.7636 30.641 69.4593 31.1215 64.6157C31.7436 58.3448 33.3429 52.3837 37.3151 47.2609C42.1895 40.9745 48.8348 37.5622 56.3223 35.7119C61.799 34.3584 67.2676 33.1334 72.0653 29.9771C72.1391 29.9284 72.284 29.9878 72.9042 30.0385ZM28.1474 76.0154C25.7924 78.9235 23.4544 81.8455 21.0767 84.7349C19.3781 86.7991 18.4981 89.1039 18.94 91.7842C19.4007 94.5787 20.3273 97.2336 21.6537 100.286C23.1048 91.6595 24.9692 83.6294 28.1474 76.0154Z" fill="black"/>
<path d="M0 252.659C0.36238 247.915 0.63488 243.291 1.08318 238.684C2.26528 226.539 3.88788 214.451 6.00459 202.43C7.59822 193.38 9.58419 184.418 11.9177 175.532C11.9791 175.298 12.0213 175.054 12.1205 174.836C12.3691 174.291 12.1904 173.186 13.0719 173.416C13.7505 173.592 13.2315 174.497 13.085 175.02C11.6667 180.085 10.4948 185.209 9.40666 190.352C6.60394 203.597 4.45689 216.951 2.92764 230.403C2.13652 237.361 1.41386 244.327 0.647382 251.288C0.597983 251.736 0.648743 252.256 0 252.659Z" fill="black"/>
<path d="M109.919 240.557C109.872 242.338 108.537 242.824 107.174 243.234C103.005 244.486 98.8387 245.75 94.6518 246.94C88.8071 248.601 83.4886 251.575 77.8002 253.621C76.0478 254.252 74.3141 254.946 72.3359 254.92C74.2889 254.129 76.2101 253.244 78.2043 252.576C79.9049 252.006 80.4981 251.229 80.1336 249.295C78.8281 242.371 78.9318 235.34 78.9661 228.326C78.9707 227.379 78.9667 226.433 78.9667 225.477C77.8761 225.457 77.5213 226.439 76.7294 226.53C76.4511 226.562 76.0812 226.54 75.8866 226.381C75.5931 226.14 75.8406 225.822 76.0215 225.587C76.4595 225.017 76.8344 224.357 77.3844 223.924C78.5293 223.021 79.2065 223.954 79.6167 224.812C79.9101 225.427 79.868 226.226 79.8829 226.944C80.0278 233.953 80.092 240.964 80.9664 247.938C81.3657 251.122 81.3601 251.24 84.1402 249.875C91.5277 246.246 99.5755 244.618 107.32 242.076C108.309 241.752 109.287 241.462 109.935 240.57L109.919 240.557Z" fill="black"/>
<path d="M92.2494 49.0332C90.7144 53.0391 88.064 55.8251 85.0628 58.2848C78.8859 63.3475 71.5628 65.3622 63.7728 66.0647C61.0659 66.3087 58.3616 66.5827 55.657 66.8513C50.6272 67.351 46.7006 69.871 43.3613 73.5128C41.6059 75.4273 39.8447 77.3544 37.519 78.6232C36.7425 79.0468 35.9757 79.5356 34.9375 79.228C39.356 77.1644 41.962 73.0772 45.5064 70.0573C48.9817 67.0965 53.0909 65.9577 57.5187 65.5576C63.1696 65.0469 68.855 64.7357 74.3036 62.9144C81.3749 60.5507 87.0496 56.3834 91.0577 50.0369C91.2754 49.6926 91.422 49.2556 92.2494 49.0332Z" fill="black"/>
<path d="M28.6328 83.6061C31.2129 81.9626 34.0763 82.0361 36.9252 82.4347C41.0539 83.0125 44.8479 84.5887 48.3181 86.8645C52.7706 89.7846 57.4122 91.8818 63.0903 90.7184C62.1126 91.8533 60.6567 92.256 58.7701 92.0848C55.5836 91.7955 52.6187 90.8236 49.9352 89.091C45.7948 86.418 41.4978 84.1956 36.5452 83.3799C33.8635 82.9383 31.2868 83.3599 28.6328 83.6061Z" fill="black"/>
<path d="M127.835 64.0273C126.76 65.0513 125.383 65.3179 124.116 65.8233C122.156 66.6057 120.164 67.3144 118.501 68.6868C118.036 69.0709 117.488 69.3587 116.861 69.391C116.102 69.43 115.342 69.3328 115.075 68.4967C114.821 67.6993 115.424 67.2629 116.029 66.957C119.735 65.0835 123.733 64.3464 127.835 64.0273Z" fill="black"/>
<path d="M162.185 57.6518C162.155 58.3326 161.987 58.9847 161.524 59.4866C160.726 60.3496 160.061 61.6006 158.634 61.2958C157.274 61.0055 157.332 59.6538 157.199 58.6395C156.963 56.8395 156.037 55.521 154.746 54.3604C154.398 54.0472 153.93 53.6715 154.151 53.1464C154.359 52.649 154.947 52.6611 155.418 52.6238C158.037 52.4173 160.935 53.9638 160.794 56.7649C159.554 55.0323 158.44 53.3827 155.792 53.914C157.416 55.6121 158.172 57.4438 158.401 59.5353C158.506 60.4935 159.275 60.4496 159.879 59.9279C160.695 59.2225 161.431 58.4231 162.201 57.6641L162.185 57.6518Z" fill="black"/>
<path d="M115.299 33.4527C113.286 34.719 111.088 35.0699 108.786 34.6639C107.483 34.4341 106.207 34.0514 104.918 33.7403C101.402 32.8916 99.805 33.6187 98.1817 36.7945C98.0806 36.9923 97.9189 37.1592 97.7316 37.4135C97.5089 35.6785 98.3237 34.1523 99.8544 33.2373C101.461 32.2768 103.229 32.12 104.926 32.6579C108.33 33.7367 111.74 34.0662 115.299 33.4527Z" fill="black"/>
<path d="M170.469 18.3203C174.926 23.9647 176.063 30.572 176.029 37.5185C174.95 30.8945 173.807 24.2894 170.469 18.3203Z" fill="black"/>
<path d="M162.202 57.6645C162.176 55.7971 162.317 53.9172 161.926 52.0731C161.568 50.3846 161.064 48.6729 159.204 48.1049C157.312 47.5273 155.841 48.6367 154.468 49.7649C154.115 50.0554 153.858 50.4639 153.359 51.0508C153.583 48.8684 155.254 47.3639 157.552 46.915C159.399 46.5542 161.156 47.3778 161.998 49.2393C163.241 51.9878 163.41 54.8191 162.186 57.6519C162.186 57.6522 162.202 57.6645 162.202 57.6645Z" fill="black"/>
<path d="M91.6705 58.748C90.2977 62.503 80.9971 67.8821 76.4375 67.9326C82.0059 65.701 87.3058 63.0258 91.6705 58.748Z" fill="black"/>
<path d="M127.8 68.8946C127.402 71.6899 125.787 73.4081 123.556 73.7072C122.902 73.7949 122.317 73.9433 122.661 72.8539C123.012 71.7436 122.112 70.9597 121.638 70.0838C121.365 69.5794 120.794 69.2435 120.695 68.418C121.74 68.5997 122.236 69.3117 122.626 69.9785C123.502 71.4756 124.51 71.4059 125.718 70.4548C126.319 69.9815 126.942 69.5361 127.8 68.8946Z" fill="black"/>
<path d="M229.248 215.633C228.012 215.784 226.749 214.729 225.344 214.089C224.82 213.85 224.785 213.292 224.781 212.84C224.763 210.709 227.515 208.049 229.628 207.785C231.443 207.558 231.502 209.597 232.832 209.994C233.036 210.055 232.273 211.056 231.743 211.43C231.105 211.88 230.776 212.312 231.361 213.042C231.806 213.599 232.387 214.2 231.85 214.966C231.335 215.702 230.482 215.611 229.248 215.633Z" fill="black"/>
<path d="M97.1719 77.2046C99.9708 74.7298 103.016 72.8311 106.984 73.2573C107.391 73.301 107.82 73.4674 108.165 73.6906C108.904 74.169 109.926 74.6039 109.392 75.7617C108.898 76.832 107.965 76.4739 107.192 76.1192C104.484 74.8762 101.986 75.9322 99.4628 76.7583C98.736 76.9962 98.071 77.454 97.1719 77.2046Z" fill="black"/>
<path d="M104.784 76.5742C105.507 78.4035 105.357 79.8127 105.58 81.1569C105.724 82.0285 105.893 82.8086 106.755 83.264C107.105 83.4492 107.618 83.5816 107.501 84.1395C107.4 84.6201 106.924 84.7173 106.539 84.8715C103.565 86.0611 99.8637 84.4156 98.0781 81.1058C98.5183 80.6386 98.829 81.1141 99.1513 81.2807C99.8473 81.6409 100.484 82.1464 101.212 82.408C102.227 82.7729 103.5 83.454 104.306 83.1253C105.547 82.6193 104.355 81.2782 104.465 80.2939C104.582 79.2427 104.295 78.155 104.784 76.5742Z" fill="black"/>
<path d="M71.9807 86.2173C72.2438 87.8407 72.8154 89.3969 71.0812 90.1827C69.4983 90.8999 68.2981 89.9508 67.4164 88.664C66.448 87.2506 65.8268 85.6794 65.6239 83.9739C65.3964 82.0615 66.2002 80.6708 67.7955 80.0276C69.4745 79.3505 70.562 80.2229 71.522 81.4261C72.1217 82.1779 72.695 82.9503 72.8678 84.1801C71.8257 83.9456 71.5108 83.1521 71.1114 82.4937C70.4209 81.3557 69.5269 80.5854 68.1396 81.1025C66.7301 81.6279 66.3546 82.8275 66.5648 84.2063C66.8048 85.7793 67.3719 87.2398 68.4119 88.4708C68.9271 89.0807 69.528 89.6511 70.4257 89.373C71.2799 89.1084 71.3352 88.3489 71.3803 87.6036C71.4049 87.1964 71.3182 86.746 71.9807 86.2173Z" fill="black"/>
<path d="M87.7487 150.622C81.886 149.235 76.0244 147.862 69.9219 148.348C72.6251 146.542 83.7611 147.873 87.7487 150.622Z" fill="black"/>
</svg>
