<svg width="20" height="20" viewBox="0 0 20 20" fill="none" xmlns="http://www.w3.org/2000/svg">
<path d="M4.16675 6.66687C2.78341 6.66687 1.66675 7.78354 1.66675 9.16687V15.8335C1.66675 17.2169 2.78341 18.3335 4.16675 18.3335H5.41675C6.33341 18.3335 7.08341 17.5835 7.08341 16.6669V8.33354C7.08341 7.41687 6.33341 6.66687 5.41675 6.66687H4.16675ZM5.00008 14.1669C5.00008 14.5085 4.71675 14.7919 4.37508 14.7919C4.03341 14.7919 3.75008 14.5085 3.75008 14.1669V10.8335C3.75008 10.4919 4.03341 10.2085 4.37508 10.2085C4.71675 10.2085 5.00008 10.4919 5.00008 10.8335V14.1669Z" fill="#B4A882"/>
<path d="M15.8333 1.66687H10.8333C9.44992 1.66687 8.33325 2.78354 8.33325 4.16687V15.8335C8.33325 17.2169 9.44992 18.3335 10.8333 18.3335H11.2499C11.4833 18.3335 11.6666 18.1502 11.6666 17.9169V15.0002C11.6666 14.5419 12.0416 14.1669 12.4999 14.1669H14.1666C14.6249 14.1669 14.9999 14.5419 14.9999 15.0002V17.9169C14.9999 18.1502 15.1833 18.3335 15.4166 18.3335H15.8333C17.2166 18.3335 18.3333 17.2169 18.3333 15.8335V4.16687C18.3333 2.78354 17.2166 1.66687 15.8333 1.66687ZM12.2916 10.8335C12.2916 11.1752 12.0083 11.4585 11.6666 11.4585C11.3249 11.4585 11.0416 11.1752 11.0416 10.8335V6.66687C11.0416 6.3252 11.3249 6.04187 11.6666 6.04187C12.0083 6.04187 12.2916 6.3252 12.2916 6.66687V10.8335ZM15.6249 10.8335C15.6249 11.1752 15.3416 11.4585 14.9999 11.4585C14.6583 11.4585 14.3749 11.1752 14.3749 10.8335V6.66687C14.3749 6.3252 14.6583 6.04187 14.9999 6.04187C15.3416 6.04187 15.6249 6.3252 15.6249 6.66687V10.8335Z" fill="#B4A882"/>
</svg>
