<svg width="20" height="20" viewBox="0 0 20 20" fill="none" xmlns="http://www.w3.org/2000/svg">
<path d="M13.9583 2.96687V1.66687C13.9583 1.3252 13.675 1.04187 13.3333 1.04187C12.9917 1.04187 12.7083 1.3252 12.7083 1.66687V2.91687H7.29165V1.66687C7.29165 1.3252 7.00832 1.04187 6.66665 1.04187C6.32499 1.04187 6.04165 1.3252 6.04165 1.66687V2.96687C3.79165 3.1752 2.69999 4.51687 2.53332 6.50854C2.51665 6.7502 2.71665 6.9502 2.94999 6.9502H17.05C17.2917 6.9502 17.4917 6.74187 17.4667 6.50854C17.3 4.51687 16.2083 3.1752 13.9583 2.96687Z" fill="#B4A882"/>
<path d="M16.6667 8.20032H3.33333C2.875 8.20032 2.5 8.57532 2.5 9.03365V14.167C2.5 16.667 3.75 18.3337 6.66667 18.3337H13.3333C16.25 18.3337 17.5 16.667 17.5 14.167V9.03365C17.5 8.57532 17.125 8.20032 16.6667 8.20032ZM7.675 15.1753C7.63333 15.2086 7.59167 15.2503 7.55 15.2753C7.5 15.3087 7.45 15.3337 7.4 15.3503C7.35 15.3753 7.3 15.392 7.25 15.4003C7.19167 15.4086 7.14167 15.417 7.08333 15.417C6.975 15.417 6.86667 15.392 6.76667 15.3503C6.65833 15.3087 6.575 15.2503 6.49167 15.1753C6.34167 15.017 6.25 14.8003 6.25 14.5837C6.25 14.367 6.34167 14.1503 6.49167 13.992C6.575 13.917 6.65833 13.8587 6.76667 13.817C6.91667 13.7503 7.08333 13.7337 7.25 13.767C7.3 13.7753 7.35 13.792 7.4 13.817C7.45 13.8337 7.5 13.8587 7.55 13.892C7.59167 13.9253 7.63333 13.9587 7.675 13.992C7.825 14.1503 7.91667 14.367 7.91667 14.5837C7.91667 14.8003 7.825 15.017 7.675 15.1753ZM7.675 12.2587C7.51667 12.4087 7.3 12.5003 7.08333 12.5003C6.86667 12.5003 6.65 12.4087 6.49167 12.2587C6.34167 12.1003 6.25 11.8837 6.25 11.667C6.25 11.4503 6.34167 11.2337 6.49167 11.0753C6.725 10.842 7.09167 10.767 7.4 10.9003C7.50833 10.942 7.6 11.0003 7.675 11.0753C7.825 11.2337 7.91667 11.4503 7.91667 11.667C7.91667 11.8837 7.825 12.1003 7.675 12.2587ZM10.5917 15.1753C10.4333 15.3253 10.2167 15.417 10 15.417C9.78333 15.417 9.56667 15.3253 9.40833 15.1753C9.25833 15.017 9.16667 14.8003 9.16667 14.5837C9.16667 14.367 9.25833 14.1503 9.40833 13.992C9.71667 13.6837 10.2833 13.6837 10.5917 13.992C10.7417 14.1503 10.8333 14.367 10.8333 14.5837C10.8333 14.8003 10.7417 15.017 10.5917 15.1753ZM10.5917 12.2587C10.55 12.292 10.5083 12.3253 10.4667 12.3587C10.4167 12.392 10.3667 12.417 10.3167 12.4337C10.2667 12.4587 10.2167 12.4753 10.1667 12.4837C10.1083 12.492 10.0583 12.5003 10 12.5003C9.78333 12.5003 9.56667 12.4087 9.40833 12.2587C9.25833 12.1003 9.16667 11.8837 9.16667 11.667C9.16667 11.4503 9.25833 11.2337 9.40833 11.0753C9.48333 11.0003 9.575 10.942 9.68333 10.9003C9.99167 10.767 10.3583 10.842 10.5917 11.0753C10.7417 11.2337 10.8333 11.4503 10.8333 11.667C10.8333 11.8837 10.7417 12.1003 10.5917 12.2587ZM13.5083 15.1753C13.35 15.3253 13.1333 15.417 12.9167 15.417C12.7 15.417 12.4833 15.3253 12.325 15.1753C12.175 15.017 12.0833 14.8003 12.0833 14.5837C12.0833 14.367 12.175 14.1503 12.325 13.992C12.6333 13.6837 13.2 13.6837 13.5083 13.992C13.6583 14.1503 13.75 14.367 13.75 14.5837C13.75 14.8003 13.6583 15.017 13.5083 15.1753ZM13.5083 12.2587C13.4667 12.292 13.425 12.3253 13.3833 12.3587C13.3333 12.392 13.2833 12.417 13.2333 12.4337C13.1833 12.4587 13.1333 12.4753 13.0833 12.4837C13.025 12.492 12.9667 12.5003 12.9167 12.5003C12.7 12.5003 12.4833 12.4087 12.325 12.2587C12.175 12.1003 12.0833 11.8837 12.0833 11.667C12.0833 11.4503 12.175 11.2337 12.325 11.0753C12.4083 11.0003 12.4917 10.942 12.6 10.9003C12.75 10.8337 12.9167 10.817 13.0833 10.8503C13.1333 10.8587 13.1833 10.8753 13.2333 10.9003C13.2833 10.917 13.3333 10.942 13.3833 10.9753C13.425 11.0087 13.4667 11.042 13.5083 11.0753C13.6583 11.2337 13.75 11.4503 13.75 11.667C13.75 11.8837 13.6583 12.1003 13.5083 12.2587Z" fill="#B4A882"/>
</svg>
