<svg width="21" height="20" viewBox="0 0 21 20" fill="none" xmlns="http://www.w3.org/2000/svg">
<path d="M9.70842 12.4591L8.16675 14.0008C7.84175 14.3258 7.32508 14.3258 6.99175 14.0091C6.90008 13.9175 6.80842 13.8341 6.71675 13.7425C5.85842 12.8758 5.08342 11.9675 4.39175 11.0175C3.70841 10.0675 3.15841 9.11748 2.75841 8.17581C2.36675 7.22581 2.16675 6.31748 2.16675 5.45081C2.16675 4.88415 2.26675 4.34248 2.46675 3.84248C2.66675 3.33415 2.98341 2.86748 3.42508 2.45081C3.95841 1.92581 4.54175 1.66748 5.15842 1.66748C5.39175 1.66748 5.62508 1.71748 5.83342 1.81748C6.05008 1.91748 6.24175 2.06748 6.39175 2.28415L8.32508 5.00915C8.47508 5.21748 8.58342 5.40915 8.65842 5.59248C8.73342 5.76748 8.77508 5.94248 8.77508 6.10081C8.77508 6.30081 8.71675 6.50081 8.60008 6.69248C8.49175 6.88415 8.33342 7.08415 8.13342 7.28415L7.50008 7.94248C7.40841 8.03415 7.36675 8.14248 7.36675 8.27581C7.36675 8.34248 7.37508 8.40081 7.39175 8.46748C7.41675 8.53415 7.44175 8.58415 7.45842 8.63415C7.60842 8.90915 7.86675 9.26748 8.23342 9.70081C8.60842 10.1341 9.00842 10.5758 9.44175 11.0175C9.52508 11.1008 9.61675 11.1841 9.70008 11.2675C10.0334 11.5925 10.0417 12.1258 9.70842 12.4591Z" fill="#7B692B"/>
<path d="M18.8083 15.2752C18.8083 15.5085 18.7667 15.7502 18.6833 15.9835C18.6583 16.0502 18.6333 16.1169 18.6 16.1835C18.4583 16.4835 18.275 16.7669 18.0333 17.0335C17.625 17.4835 17.175 17.8085 16.6667 18.0169C16.6583 18.0169 16.65 18.0252 16.6417 18.0252C16.15 18.2252 15.6167 18.3335 15.0417 18.3335C14.1917 18.3335 13.2833 18.1335 12.325 17.7252C11.3667 17.3169 10.4083 16.7669 9.45833 16.0752C9.13333 15.8335 8.80833 15.5919 8.5 15.3335L11.225 12.6085C11.4583 12.7835 11.6667 12.9169 11.8417 13.0085C11.8833 13.0252 11.9333 13.0502 11.9917 13.0752C12.0583 13.1002 12.125 13.1085 12.2 13.1085C12.3417 13.1085 12.45 13.0585 12.5417 12.9669L13.175 12.3419C13.3833 12.1335 13.5833 11.9752 13.775 11.8752C13.9667 11.7585 14.1583 11.7002 14.3667 11.7002C14.525 11.7002 14.6917 11.7335 14.875 11.8085C15.0583 11.8835 15.25 11.9919 15.4583 12.1335L18.2167 14.0919C18.4333 14.2419 18.5833 14.4169 18.675 14.6252C18.7583 14.8335 18.8083 15.0419 18.8083 15.2752Z" fill="#7B692B"/>
</svg>
