<svg width="20" height="20" viewBox="0 0 20 20" fill="none" xmlns="http://www.w3.org/2000/svg">
<path d="M9.99996 1.66687C5.40829 1.66687 1.66663 5.40854 1.66663 10.0002C1.66663 14.5919 5.40829 18.3335 9.99996 18.3335C14.5916 18.3335 18.3333 14.5919 18.3333 10.0002C18.3333 5.40854 14.5916 1.66687 9.99996 1.66687ZM13.625 12.9752C13.5083 13.1752 13.3 13.2835 13.0833 13.2835C12.975 13.2835 12.8666 13.2585 12.7666 13.1919L10.1833 11.6502C9.54163 11.2669 9.06662 10.4252 9.06662 9.68354V6.26687C9.06662 5.9252 9.34996 5.64187 9.69162 5.64187C10.0333 5.64187 10.3166 5.9252 10.3166 6.26687V9.68354C10.3166 9.98354 10.5666 10.4252 10.825 10.5752L13.4083 12.1169C13.7083 12.2919 13.8083 12.6752 13.625 12.9752Z" fill="#B4A882"/>
</svg>
