<svg width="20" height="20" viewBox="0 0 20 20" fill="none" xmlns="http://www.w3.org/2000/svg">
<path d="M17.1833 7.04146C16.3083 3.19146 12.95 1.45813 9.99996 1.45813C9.99996 1.45813 9.99996 1.45813 9.99162 1.45813C7.04996 1.45813 3.68329 3.18313 2.80829 7.03313C1.83329 11.3331 4.46662 14.9748 6.84996 17.2665C7.73329 18.1165 8.86662 18.5415 9.99996 18.5415C11.1333 18.5415 12.2666 18.1165 13.1416 17.2665C15.525 14.9748 18.1583 11.3415 17.1833 7.04146ZM9.99996 11.2165C8.54996 11.2165 7.37496 10.0415 7.37496 8.59146C7.37496 7.14146 8.54996 5.96646 9.99996 5.96646C11.45 5.96646 12.625 7.14146 12.625 8.59146C12.625 10.0415 11.45 11.2165 9.99996 11.2165Z" fill="#B4A882"/>
</svg>
