<svg width="20" height="20" viewBox="0 0 20 20" fill="none" xmlns="http://www.w3.org/2000/svg">
<path d="M14.1667 2.91687H5.83341C3.33341 2.91687 1.66675 4.16687 1.66675 7.08354V12.9169C1.66675 15.8335 3.33341 17.0835 5.83341 17.0835H14.1667C16.6667 17.0835 18.3334 15.8335 18.3334 12.9169V7.08354C18.3334 4.16687 16.6667 2.91687 14.1667 2.91687ZM3.12508 7.08354C3.12508 5.59187 4.34175 4.3752 5.83341 4.3752H7.08341C7.42508 4.3752 7.70841 4.65854 7.70841 5.0002C7.70841 5.34187 7.42508 5.6252 7.08341 5.6252H5.83341C5.03341 5.6252 4.37508 6.28354 4.37508 7.08354V8.33354C4.37508 8.6752 4.09175 8.95854 3.75008 8.95854C3.40841 8.95854 3.12508 8.6752 3.12508 8.33354V7.08354ZM7.08341 15.6252H5.83341C4.34175 15.6252 3.12508 14.4085 3.12508 12.9169V11.6669C3.12508 11.3252 3.40841 11.0419 3.75008 11.0419C4.09175 11.0419 4.37508 11.3252 4.37508 11.6669V12.9169C4.37508 13.7169 5.03341 14.3752 5.83341 14.3752H7.08341C7.42508 14.3752 7.70841 14.6585 7.70841 15.0002C7.70841 15.3419 7.42508 15.6252 7.08341 15.6252ZM10.0001 12.5002C8.61675 12.5002 7.50008 11.3835 7.50008 10.0002C7.50008 8.61687 8.61675 7.5002 10.0001 7.5002C11.3834 7.5002 12.5001 8.61687 12.5001 10.0002C12.5001 11.3835 11.3834 12.5002 10.0001 12.5002ZM16.8751 12.9169C16.8751 14.4085 15.6584 15.6252 14.1667 15.6252H12.9167C12.5751 15.6252 12.2917 15.3419 12.2917 15.0002C12.2917 14.6585 12.5751 14.3752 12.9167 14.3752H14.1667C14.9667 14.3752 15.6251 13.7169 15.6251 12.9169V11.6669C15.6251 11.3252 15.9084 11.0419 16.2501 11.0419C16.5917 11.0419 16.8751 11.3252 16.8751 11.6669V12.9169ZM16.8751 8.33354C16.8751 8.6752 16.5917 8.95854 16.2501 8.95854C15.9084 8.95854 15.6251 8.6752 15.6251 8.33354V7.08354C15.6251 6.28354 14.9667 5.6252 14.1667 5.6252H12.9167C12.5751 5.6252 12.2917 5.34187 12.2917 5.0002C12.2917 4.65854 12.5751 4.3752 12.9167 4.3752H14.1667C15.6584 4.3752 16.8751 5.59187 16.8751 7.08354V8.33354Z" fill="#B4A882"/>
</svg>
