<svg width="20" height="20" viewBox="0 0 20 20" fill="none" xmlns="http://www.w3.org/2000/svg">
<path d="M14.1667 2.9162H5.83341C3.33341 2.9162 1.66675 4.1662 1.66675 7.08287V12.9162C1.66675 15.8329 3.33341 17.0829 5.83341 17.0829H14.1667C16.6667 17.0829 18.3334 15.8329 18.3334 12.9162V7.08287C18.3334 4.1662 16.6667 2.9162 14.1667 2.9162ZM14.5584 7.9912L11.9501 10.0745C11.4001 10.5162 10.7001 10.7329 10.0001 10.7329C9.30008 10.7329 8.59175 10.5162 8.05008 10.0745L5.44175 7.9912C5.17508 7.77453 5.13341 7.37453 5.34175 7.10787C5.55841 6.8412 5.95008 6.7912 6.21675 7.00787L8.82508 9.0912C9.45841 9.59953 10.5334 9.59953 11.1667 9.0912L13.7751 7.00787C14.0417 6.7912 14.4417 6.83287 14.6501 7.10787C14.8667 7.37453 14.8251 7.77453 14.5584 7.9912Z" fill="#B4A882"/>
</svg>
